<svg class="main-svg" xmlns="http://www.w3.org/2000/svg" xmlns:xlink="http://www.w3.org/1999/xlink" width="800" height="600" style="" viewBox="0 0 800 600"><rect x="0" y="0" width="800" height="600" style="fill: rgb(245, 246, 249); fill-opacity: 1;"/><defs id="defs-2bfc57"><g class="clips"><clipPath class="plotclip" id="clip2bfc57xyplot"><rect width="537" height="420"/></clipPath><clipPath class="axesclip" id="clip2bfc57x"><rect x="80" y="0" width="537" height="600"/></clipPath><clipPath class="axesclip" id="clip2bfc57y"><rect x="0" y="100" width="800" height="420"/></clipPath><clipPath class="axesclip" id="clip2bfc57xy"><rect x="80" y="100" width="537" height="420"/></clipPath></g><g class="gradients"/></defs><g class="bglayer"><rect class="bg" x="80" y="100" width="537" height="420" style="fill: rgb(245, 246, 249); fill-opacity: 1; stroke-width: 0;"/></g><g class="layer-below"><g class="imagelayer"/><g class="shapelayer"/></g><g class="cartesianlayer"><g class="subplot xy"><g class="layer-subplot"><g class="shapelayer"/><g class="imagelayer"/></g><g class="gridlayer" transform="translate(80,100)"><path class="xgrid crisp" d="M0,0v420" transform="translate(51.14,0)" style="stroke: rgb(225, 229, 237); stroke-opacity: 1; stroke-width: 1px;"/><path class="xgrid crisp" d="M0,0v420" transform="translate(127.86,0)" style="stroke: rgb(225, 229, 237); stroke-opacity: 1; stroke-width: 1px;"/><path class="xgrid crisp" d="M0,0v420" transform="translate(204.57,0)" style="stroke: rgb(225, 229, 237); stroke-opacity: 1; stroke-width: 1px;"/><path class="xgrid crisp" d="M0,0v420" transform="translate(281.29,0)" style="stroke: rgb(225, 229, 237); stroke-opacity: 1; stroke-width: 1px;"/><path class="xgrid crisp" d="M0,0v420" transform="translate(358,0)" style="stroke: rgb(225, 229, 237); stroke-opacity: 1; stroke-width: 1px;"/><path class="xgrid crisp" d="M0,0v420" transform="translate(434.71,0)" style="stroke: rgb(225, 229, 237); stroke-opacity: 1; stroke-width: 1px;"/><path class="xgrid crisp" d="M0,0v420" transform="translate(511.43,0)" style="stroke: rgb(225, 229, 237); stroke-opacity: 1; stroke-width: 1px;"/><path class="ygrid crisp" d="M0,0h537" transform="translate(0,393.52)" style="stroke: rgb(225, 229, 237); stroke-opacity: 1; stroke-width: 1px;"/><path class="ygrid crisp" d="M0,0h537" transform="translate(0,206)" style="stroke: rgb(225, 229, 237); stroke-opacity: 1; stroke-width: 1px;"/><path class="ygrid crisp" d="M0,0h537" transform="translate(0,112.24)" style="stroke: rgb(225, 229, 237); stroke-opacity: 1; stroke-width: 1px;"/><path class="ygrid crisp" d="M0,0h537" transform="translate(0,18.47)" style="stroke: rgb(225, 229, 237); stroke-opacity: 1; stroke-width: 1px;"/></g><g class="overgrid"/><g class="zerolinelayer" transform="translate(80,100)"><path class="yzl zl crisp" d="M0,0h537" transform="translate(0,299.76)" style="stroke: rgb(225, 229, 237); stroke-opacity: 1; stroke-width: 1px;"/></g><g class="overzero"/><path class="xlines-below"/><path class="ylines-below"/><g class="overlines-below"/><g class="xaxislayer-below"/><g class="yaxislayer-below"/><g class="overaxes-below"/><g class="plot" transform="translate(80, 100)" clip-path="url(#clip2bfc57xyplot)"><g class="imagelayer"/><g class="maplayer"/><g class="barlayer"/><g class="carpetlayer"/><g class="boxlayer"/><g class="scatterlayer"><g class="trace scatter trace7adba5" style="stroke-miterlimit: 2;"><path class="js-fill js-tozero" d="M537,299.76L0,299.76L0,299.76L25.57,216.3L51.14,199.31L76.71,203L102.29,211.24L127.86,233.42L153.43,297.09L179,284.26L204.57,202.99L230.14,203.56L255.71,214.59L281.29,217.58L306.86,222.74L332.43,279.86L358,253L383.57,169.26L409.14,150.86L434.71,83.48L460.29,21L485.86,34.14L511.43,128.59L537,65.16" style="fill: rgb(255, 153, 51); fill-opacity: 0.3; stroke-width: 0;"/><path class="js-line" style="vector-effect: non-scaling-stroke; fill: none; stroke: rgb(255, 153, 51); stroke-opacity: 1; stroke-width: 1.3px; opacity: 1;" d="M0,299.76L25.57,216.3L51.14,199.31L76.71,203L102.29,211.24L127.86,233.42L153.43,297.09L179,284.26L204.57,202.99L230.14,203.56L255.71,214.59L281.29,217.58L306.86,222.74L332.43,279.86L358,253L383.57,169.26L409.14,150.86L434.71,83.48L460.29,21L485.86,34.14L511.43,128.59L537,65.16"/><g class="points"/></g><g class="trace scatter trace4e027e" style="stroke-miterlimit: 2;"><path class="js-fill js-tozero" d="M537,299.76L0,299.76L0,299.76L25.57,274.14L51.14,239.96L102.29,228.74L127.86,275.6L153.43,330.78L179,286.18L204.57,233.67L230.14,233.33L255.71,239.61L281.29,252.22L306.86,259.22L332.43,317.22L358,266.56L383.57,227.13L409.14,268.32L434.71,311.76L460.29,345.58L485.86,369.77L511.43,392.62L537,356.99" style="fill: rgb(55, 128, 191); fill-opacity: 0.3; stroke-width: 0;"/><path class="js-line" style="vector-effect: non-scaling-stroke; fill: none; stroke: rgb(55, 128, 191); stroke-opacity: 1; stroke-width: 1.3px; opacity: 1;" d="M0,299.76L25.57,274.14L51.14,239.96L102.29,228.74L127.86,275.6L153.43,330.78L179,286.18L204.57,233.67L230.14,233.33L255.71,239.61L281.29,252.22L306.86,259.22L332.43,317.22L358,266.56L383.57,227.13L409.14,268.32L434.71,311.76L460.29,345.58L485.86,369.77L511.43,392.62L537,356.99"/><g class="points"/></g><g class="trace scatter trace018edd" style="stroke-miterlimit: 2;"><path class="js-fill js-tozero" d="M537,299.76L0,299.76L0,299.76L25.57,255.88L51.14,239.11L76.71,231.54L102.29,258.12L127.86,283.48L153.43,300.21L179,271.21L204.57,237.05L230.14,248.28L255.71,256.87L281.29,262.92L306.86,285.89L332.43,310.05L358,295.63L383.57,258L409.14,287.62L434.71,320.39L460.29,354.54L485.86,371.62L511.43,393.71L537,375.47" style="fill: rgb(50, 171, 96); fill-opacity: 0.3; stroke-width: 0;"/><path class="js-line" style="vector-effect: non-scaling-stroke; fill: none; stroke: rgb(50, 171, 96); stroke-opacity: 1; stroke-width: 1.3px; opacity: 1;" d="M0,299.76L25.57,255.88L51.14,239.11L76.71,231.54L102.29,258.12L127.86,283.48L153.43,300.21L179,271.21L204.57,237.05L230.14,248.28L255.71,256.87L281.29,262.92L306.86,285.89L332.43,310.05L358,295.63L383.57,258L409.14,287.62L434.71,320.39L460.29,354.54L485.86,371.62L511.43,393.71L537,375.47"/><g class="points"/></g><g class="trace scatter trace70ac75" style="stroke-miterlimit: 2;"><path class="js-fill js-tozero" d="M537,299.76L0,299.76L0,299.76L25.57,288.45L51.14,224.95L76.71,236.47L102.29,226.02L127.86,279.74L153.43,325.17L179,293.27L204.57,225.14L230.14,219.4L255.71,236.66L281.29,240.21L306.86,278.2L332.43,334.27L358,272.16L383.57,205.47L409.14,243.38L434.71,300.52L460.29,349.76L485.86,376.49L511.43,399L537,374.4" style="fill: rgb(128, 0, 128); fill-opacity: 0.3; stroke-width: 0;"/><path class="js-line" style="vector-effect: non-scaling-stroke; fill: none; stroke: rgb(128, 0, 128); stroke-opacity: 1; stroke-width: 1.3px; opacity: 1;" d="M0,299.76L25.57,288.45L51.14,224.95L76.71,236.47L102.29,226.02L127.86,279.74L153.43,325.17L179,293.27L204.57,225.14L230.14,219.4L255.71,236.66L281.29,240.21L306.86,278.2L332.43,334.27L358,272.16L383.57,205.47L409.14,243.38L434.71,300.52L460.29,349.76L485.86,376.49L511.43,399L537,374.4"/><g class="points"/></g><g class="trace scatter traceda7d03" style="stroke-miterlimit: 2;"><path class="js-fill js-tozero" d="M537,299.76L0,299.76L0,299.76L25.57,262.82L51.14,187.24L76.71,188.41L102.29,209.35L127.86,226.1L153.43,295.56L179,276.24L204.57,177.05L230.14,182.03L255.71,193.76L281.29,194.91L306.86,210.12L332.43,312.69L358,277.78L383.57,182.9L409.14,194.68L434.71,244.3L460.29,275.81L485.86,293.93L511.43,364.85L537,339.03" style="fill: rgb(219, 64, 82); fill-opacity: 0.3; stroke-width: 0;"/><path class="js-line" style="vector-effect: non-scaling-stroke; fill: none; stroke: rgb(219, 64, 82); stroke-opacity: 1; stroke-width: 1.3px; opacity: 1;" d="M0,299.76L25.57,262.82L51.14,187.24L76.71,188.41L102.29,209.35L127.86,226.1L153.43,295.56L179,276.24L204.57,177.05L230.14,182.03L255.71,193.76L281.29,194.91L306.86,210.12L332.43,312.69L358,277.78L383.57,182.9L409.14,194.68L434.71,244.3L460.29,275.81L485.86,293.93L511.43,364.85L537,339.03"/><g class="points"/></g></g></g><g class="overplot"/><path class="xlines-above crisp" style="fill: none; stroke-width: 1px; stroke: rgb(0, 0, 0); stroke-opacity: 0;" transform="translate(80,100)" d="M-1,420.5H537"/><path class="ylines-above crisp" style="fill: none; stroke-width: 1px; stroke: rgb(0, 0, 0); stroke-opacity: 0;" transform="translate(80,100)" d="M-0.5,0V420"/><g class="overlines-above"/><g class="xaxislayer-above" transform="translate(80,100)"><g class="xtick"><text text-anchor="middle" x="0" y="433" style="font-family: TOBESTRIPPEDOpen\ SansTOBESTRIPPED, verdana, arial, sans-serif; font-size: 12px; fill: rgb(77, 86, 99); fill-opacity: 1; white-space: pre;" transform="translate(51.14,0)"><tspan class="line" dy="0em" x="0" y="433">Apr 3</tspan><tspan class="line" dy="1.3em" x="0" y="433">2018</tspan></text></g><g class="xtick"><text text-anchor="middle" x="0" y="433" style="font-family: TOBESTRIPPEDOpen\ SansTOBESTRIPPED, verdana, arial, sans-serif; font-size: 12px; fill: rgb(77, 86, 99); fill-opacity: 1; white-space: pre;" transform="translate(127.86,0)">Apr 6</text></g><g class="xtick"><text text-anchor="middle" x="0" y="433" style="font-family: TOBESTRIPPEDOpen\ SansTOBESTRIPPED, verdana, arial, sans-serif; font-size: 12px; fill: rgb(77, 86, 99); fill-opacity: 1; white-space: pre;" transform="translate(204.57,0)">Apr 9</text></g><g class="xtick"><text text-anchor="middle" x="0" y="433" style="font-family: TOBESTRIPPEDOpen\ SansTOBESTRIPPED, verdana, arial, sans-serif; font-size: 12px; fill: rgb(77, 86, 99); fill-opacity: 1; white-space: pre;" transform="translate(281.29,0)">Apr 12</text></g><g class="xtick"><text text-anchor="middle" x="0" y="433" style="font-family: TOBESTRIPPEDOpen\ SansTOBESTRIPPED, verdana, arial, sans-serif; font-size: 12px; fill: rgb(77, 86, 99); fill-opacity: 1; white-space: pre;" transform="translate(358,0)">Apr 15</text></g><g class="xtick"><text text-anchor="middle" x="0" y="433" style="font-family: TOBESTRIPPEDOpen\ SansTOBESTRIPPED, verdana, arial, sans-serif; font-size: 12px; fill: rgb(77, 86, 99); fill-opacity: 1; white-space: pre;" transform="translate(434.71,0)">Apr 18</text></g><g class="xtick"><text text-anchor="middle" x="0" y="433" style="font-family: TOBESTRIPPEDOpen\ SansTOBESTRIPPED, verdana, arial, sans-serif; font-size: 12px; fill: rgb(77, 86, 99); fill-opacity: 1; white-space: pre;" transform="translate(511.43,0)">Apr 21</text></g></g><g class="yaxislayer-above" transform="translate(80,100)"><g class="ytick"><text text-anchor="end" x="-1" y="4.199999999999999" style="font-family: TOBESTRIPPEDOpen\ SansTOBESTRIPPED, verdana, arial, sans-serif; font-size: 12px; fill: rgb(77, 86, 99); fill-opacity: 1; white-space: pre;" transform="translate(0,393.52)">−50</text></g><g class="ytick"><text text-anchor="end" x="-1" y="4.199999999999999" style="font-family: TOBESTRIPPEDOpen\ SansTOBESTRIPPED, verdana, arial, sans-serif; font-size: 12px; fill: rgb(77, 86, 99); fill-opacity: 1; white-space: pre;" transform="translate(0,299.76)">0</text></g><g class="ytick"><text text-anchor="end" x="-1" y="4.199999999999999" style="font-family: TOBESTRIPPEDOpen\ SansTOBESTRIPPED, verdana, arial, sans-serif; font-size: 12px; fill: rgb(77, 86, 99); fill-opacity: 1; white-space: pre;" transform="translate(0,206)">50</text></g><g class="ytick"><text text-anchor="end" x="-1" y="4.199999999999999" style="font-family: TOBESTRIPPEDOpen\ SansTOBESTRIPPED, verdana, arial, sans-serif; font-size: 12px; fill: rgb(77, 86, 99); fill-opacity: 1; white-space: pre;" transform="translate(0,112.24)">100</text></g><g class="ytick"><text text-anchor="end" x="-1" y="4.199999999999999" style="font-family: TOBESTRIPPEDOpen\ SansTOBESTRIPPED, verdana, arial, sans-serif; font-size: 12px; fill: rgb(77, 86, 99); fill-opacity: 1; white-space: pre;" transform="translate(0,18.47)">150</text></g></g><g class="overaxes-above"/></g></g><g class="ternarylayer"/><g class="geolayer"/><g class="layer-above"><g class="imagelayer"/><g class="shapelayer"/></g><g class="pielayer"/><g class="glimages"/><defs id="topdefs-2bfc57"><g class="clips"/><clipPath id="legend2bfc57"><rect width="160" height="105" x="0" y="0"/></clipPath></defs><g class="infolayer"><g class="g-gtitle"><text class="gtitle" style="font-family: TOBESTRIPPEDOpen\ SansTOBESTRIPPED, verdana, arial, sans-serif; font-size: 17px; fill: rgb(77, 86, 99); opacity: 1; font-weight: normal; white-space: pre;" x="400" y="50" text-anchor="middle">The rise of Google.COM</text></g><g class="legend" pointer-events="all" transform="translate(627.74, 100)"><rect class="bg" shape-rendering="crispEdges" style="stroke: rgb(68, 68, 68); stroke-opacity: 1; fill: rgb(245, 246, 249); fill-opacity: 1; stroke-width: 0px;" width="160" height="105" x="0" y="0"/><g class="scrollbox" transform="translate(0, 0)" clip-path="url(#legend2bfc57)"><g class="groups"><g class="traces" style="opacity: 1;" transform="translate(0, 14.5)"><g class="layers"><g class="legendfill"><path class="js-fill" d="M5,0h30v6h-30z" style="stroke-width: 0; fill: rgb(255, 153, 51); fill-opacity: 0.3;"/></g><g class="legendlines"><path class="js-line" d="M5,0h30" style="fill: none; stroke: rgb(255, 153, 51); stroke-opacity: 1; stroke-width: 1.3px;"/></g><g class="legendsymbols"><g class="legendpoints"/></g></g><text class="legendtext user-select-none" text-anchor="start" style="font-family: TOBESTRIPPEDOpen\ SansTOBESTRIPPED, verdana, arial, sans-serif; font-size: 12px; fill: rgb(77, 86, 99); fill-opacity: 1; white-space: pre;" x="40" y="4.680000000000001">www.google.com</text><rect class="legendtoggle" style="cursor: pointer; fill: rgb(0, 0, 0); fill-opacity: 0;" pointer-events="all" x="0" y="-9.5" width="200" height="19"/></g><g class="traces" style="opacity: 1;" transform="translate(0, 33.5)"><g class="layers"><g class="legendfill"><path class="js-fill" d="M5,0h30v6h-30z" style="stroke-width: 0; fill: rgb(55, 128, 191); fill-opacity: 0.3;"/></g><g class="legendlines"><path class="js-line" d="M5,0h30" style="fill: none; stroke: rgb(55, 128, 191); stroke-opacity: 1; stroke-width: 1.3px;"/></g><g class="legendsymbols"><g class="legendpoints"/></g></g><text class="legendtext user-select-none" text-anchor="start" style="font-family: TOBESTRIPPEDOpen\ SansTOBESTRIPPED, verdana, arial, sans-serif; font-size: 12px; fill: rgb(77, 86, 99); fill-opacity: 1; white-space: pre;" x="40" y="4.680000000000001">www.google.de</text><rect class="legendtoggle" style="cursor: pointer; fill: rgb(0, 0, 0); fill-opacity: 0;" pointer-events="all" x="0" y="-9.5" width="200" height="19"/></g><g class="traces" style="opacity: 1;" transform="translate(0, 52.5)"><g class="layers"><g class="legendfill"><path class="js-fill" d="M5,0h30v6h-30z" style="stroke-width: 0; fill: rgb(50, 171, 96); fill-opacity: 0.3;"/></g><g class="legendlines"><path class="js-line" d="M5,0h30" style="fill: none; stroke: rgb(50, 171, 96); stroke-opacity: 1; stroke-width: 1.3px;"/></g><g class="legendsymbols"><g class="legendpoints"/></g></g><text class="legendtext user-select-none" text-anchor="start" style="font-family: TOBESTRIPPEDOpen\ SansTOBESTRIPPED, verdana, arial, sans-serif; font-size: 12px; fill: rgb(77, 86, 99); fill-opacity: 1; white-space: pre;" x="40" y="4.680000000000001">www.google.fr</text><rect class="legendtoggle" style="cursor: pointer; fill: rgb(0, 0, 0); fill-opacity: 0;" pointer-events="all" x="0" y="-9.5" width="200" height="19"/></g><g class="traces" style="opacity: 1;" transform="translate(0, 71.5)"><g class="layers"><g class="legendfill"><path class="js-fill" d="M5,0h30v6h-30z" style="stroke-width: 0; fill: rgb(128, 0, 128); fill-opacity: 0.3;"/></g><g class="legendlines"><path class="js-line" d="M5,0h30" style="fill: none; stroke: rgb(128, 0, 128); stroke-opacity: 1; stroke-width: 1.3px;"/></g><g class="legendsymbols"><g class="legendpoints"/></g></g><text class="legendtext user-select-none" text-anchor="start" style="font-family: TOBESTRIPPEDOpen\ SansTOBESTRIPPED, verdana, arial, sans-serif; font-size: 12px; fill: rgb(77, 86, 99); fill-opacity: 1; white-space: pre;" x="40" y="4.680000000000001">www.google.at</text><rect class="legendtoggle" style="cursor: pointer; fill: rgb(0, 0, 0); fill-opacity: 0;" pointer-events="all" x="0" y="-9.5" width="200" height="19"/></g><g class="traces" style="opacity: 1;" transform="translate(0, 90.5)"><g class="layers"><g class="legendfill"><path class="js-fill" d="M5,0h30v6h-30z" style="stroke-width: 0; fill: rgb(219, 64, 82); fill-opacity: 0.3;"/></g><g class="legendlines"><path class="js-line" d="M5,0h30" style="fill: none; stroke: rgb(219, 64, 82); stroke-opacity: 1; stroke-width: 1.3px;"/></g><g class="legendsymbols"><g class="legendpoints"/></g></g><text class="legendtext user-select-none" text-anchor="start" style="font-family: TOBESTRIPPEDOpen\ SansTOBESTRIPPED, verdana, arial, sans-serif; font-size: 12px; fill: rgb(77, 86, 99); fill-opacity: 1; white-space: pre;" x="40" y="4.680000000000001">www.google.co.uk</text><rect class="legendtoggle" style="cursor: pointer; fill: rgb(0, 0, 0); fill-opacity: 0;" pointer-events="all" x="0" y="-9.5" width="200" height="19"/></g></g></g><rect class="scrollbar" rx="20" ry="2" width="0" height="0" style="fill: rgb(128, 139, 164); fill-opacity: 1;"/></g><g class="g-xtitle"/><g class="g-ytitle"><text class="ytitle" transform="rotate(-90,42,310) translate(0, 0)" style="font-family: TOBESTRIPPEDOpen\ SansTOBESTRIPPED, verdana, arial, sans-serif; font-size: 14px; fill: rgb(77, 86, 99); opacity: 1; font-weight: normal; white-space: pre;" x="42" y="310" text-anchor="middle">Percentage Change since April 1st</text></g></g></svg>