<?xml version="1.0" encoding="UTF-8" standalone="no"?>
<svg width="30px" height="31px" viewBox="0 0 30 31" version="1.1" xmlns="http://www.w3.org/2000/svg" xmlns:xlink="http://www.w3.org/1999/xlink">
    <!-- Generator: Sketch 47 (45396) - http://www.bohemiancoding.com/sketch -->
    <title>Cookies - icon</title>
    <desc>Created with Sketch.</desc>
    <defs>
        <polygon id="path-1" points="4.00302755e-21 0.0048368307 4.00302755e-21 28.9463873 29.3335206 28.9463873 29.3335206 0.0048368307 0 0.0048368307"></polygon>
    </defs>
    <g id="Page-1" stroke="none" stroke-width="1" fill="none" fill-rule="evenodd">
        <g id="Cookies---icon">
            <g id="Page-1" transform="translate(0.000000, 0.208984)">
                <path d="M27.6660709,15.783697 C27.3700104,16.3664646 27.1339102,16.9667575 27.0839925,17.6193312 C27.0581967,17.9575313 27.1188463,18.3015404 27.1222923,18.6431866 C27.1242614,18.8420699 27.1343041,19.0584786 27.0645964,19.2372767 C26.8202259,19.8640546 26.3687017,20.3423592 25.8649951,20.7710414 C24.517019,21.9185589 23.3873222,23.2493051 22.4788586,24.7688919 C22.1762999,25.2749614 21.7587433,25.677651 21.3102712,26.0547417 C20.8945854,26.4043628 20.3950141,26.4437457 19.8887476,26.5142409 C19.0660401,26.6286481 18.3160924,26.9450892 17.6410705,27.4369809 C17.2881018,27.6941508 16.8672962,27.6878496 16.4597822,27.6803668 C15.8493482,27.6691427 15.2676637,27.5144666 14.689622,27.3142049 C13.2585481,26.8185718 11.7816916,26.5353108 10.267323,26.4717075 C9.46155005,26.4378382 8.66404754,26.3817177 7.9214841,26.0241215 C7.60661829,25.872596 7.35043292,25.6725312 7.14859587,25.3695787 C6.66733756,24.6469036 6.02736642,24.0778216 5.23783893,23.7165825 C4.78345942,23.5086411 4.48227915,23.1869817 4.24558828,22.7733634 C3.92028603,22.2048721 3.74237405,21.5895153 3.62599776,20.947575 C3.33131566,19.3228359 2.74165609,17.8017722 1.96079283,16.3521883 C1.6019167,15.6860276 1.37851754,14.9838315 1.30703769,14.2092695 C1.37812371,13.9863627 1.42518621,13.7521332 1.52452942,13.542715 C1.95006101,12.6466569 2.10847848,11.7111176 2.01523961,10.7238882 C1.99751733,10.5375089 2.04881348,10.332029 2.11477973,10.1524432 C2.38504447,9.41637793 2.88432043,8.84463756 3.47043554,8.34290018 C4.79596347,7.20828056 5.91138395,5.89693045 6.80714665,4.39890568 C7.11423434,3.88525499 7.5283449,3.46789535 7.98961641,3.09306917 C8.35390768,2.79710713 8.77550098,2.68850895 9.23824935,2.64981531 C10.0705072,2.58020614 10.8401464,2.28867466 11.5116238,1.80239505 C11.9723045,1.46872394 12.4626209,1.40836974 12.9784377,1.49442124 C13.327665,1.55270784 13.6720679,1.68080053 13.9993393,1.82228338 C15.0905394,2.29389289 16.2180701,2.61752138 17.4080226,2.67925398 C17.7894454,2.69904385 18.1271532,2.80931581 18.3963349,3.0560493 C18.8787747,3.49841705 19.3345326,3.97032193 19.7934412,4.43779623 C19.8389284,4.48407107 19.8510386,4.5884356 19.840799,4.66050619 C19.6432941,6.04865284 20.3238296,7.32849668 21.59304,7.9251467 C21.7522452,7.9999741 21.852376,8.0998096 21.9209022,8.2593101 C22.1758076,8.85320332 22.4342575,9.44571815 22.7080667,10.0310456 C22.7551292,10.1316688 22.8706194,10.2349503 22.9760669,10.2677365 C23.5610005,10.4497837 24.1547953,10.6036721 24.7404181,10.783947 C24.8674278,10.8230345 24.9807519,10.9214916 25.0870856,11.0087246 C25.1944038,11.0966468 25.314423,11.1887042 25.3780263,11.3064589 C25.6502602,11.8100669 26.122362,11.9724227 26.630696,12.0977586 C26.7463831,12.1264096 26.8718174,12.2083259 26.9439865,12.3028447 C27.1770344,12.6084556 27.4085071,12.9189893 27.602566,13.250002 C28.0875657,14.0774355 28.0976083,14.9342092 27.6660709,15.783697 M28.9849037,13.540352 C28.7366934,12.6732403 28.2221566,11.9499745 27.6066028,11.3022252 C27.493574,11.183289 27.3291507,11.0757739 27.1719147,11.043283 C26.7187166,10.9498473 26.3733291,10.7282203 26.0818961,10.3668828 C25.8133052,10.0339993 25.4683115,9.77141424 25.0464228,9.64607835 C24.6548589,9.52980051 24.2591598,9.42602673 23.8625746,9.32806192 C23.6963791,9.28700531 23.6068816,9.20075689 23.5378631,9.04017336 C23.2956587,8.47660492 23.0319906,7.92219299 22.777282,7.36394124 C22.6877845,7.16791315 22.5503384,7.04434949 22.3359973,6.97326346 C21.2990471,6.62895899 20.7678711,5.65246147 21.0465047,4.59995508 C21.1099111,4.3603105 21.0715128,4.16191944 20.9254024,3.97957689 C20.3700059,3.2869312 19.7735528,2.63248686 19.0634802,2.09392652 C18.5965967,1.73967788 18.0721157,1.53784082 17.4752688,1.513325 C16.431525,1.47049617 15.4376006,1.19599777 14.4959569,0.758060593 C13.9134847,0.487008198 13.316047,0.309588504 12.6785373,0.296395253 C12.0727308,0.283891201 11.4844496,0.379197674 10.9792662,0.755402251 C10.3722782,1.20751725 9.69065972,1.46035508 8.93765982,1.51509723 C8.52335235,1.5452251 8.13356069,1.63964546 7.76966325,1.84994983 C6.94744801,2.32490688 6.30806761,2.98772007 5.82031114,3.78955469 C5.09940825,4.97478126 4.23741635,6.04057936 3.23226782,6.993841 C2.79216458,7.41110219 2.31907822,7.80040156 1.92495445,8.25753787 C1.26726102,9.02038348 0.750262791,9.86475157 0.859648628,10.9406908 C0.937528194,11.7063916 0.764342156,12.4165627 0.443175097,13.1069439 C0.331426289,13.3472776 0.244587127,13.6145887 0.218397538,13.8767799 C0.110488557,14.958725 0.429095732,15.9496957 0.931916139,16.8900595 C1.63056772,18.1964867 2.17631542,19.5611021 2.45435827,21.0187595 C2.6073606,21.8206925 2.8111668,22.5974206 3.21178874,23.313696 C3.55953921,23.9353541 4.00417148,24.447331 4.68135941,24.7396502 C5.32103518,25.0158223 5.8316337,25.4700049 6.20773982,26.0532648 C6.47987525,26.4752519 6.82595195,26.8104984 7.27816541,26.9981576 C7.77340462,27.2038345 8.28636611,27.4067545 8.81084708,27.4925107 C9.5759572,27.6175512 10.3603649,27.6184373 11.1328593,27.7060641 C12.2491659,27.83268 13.3472579,28.0569652 14.4054749,28.4449847 C15.0964468,28.6983148 15.8046487,28.845902 16.645177,28.8427513 C17.2643737,28.8517109 17.923347,28.6982163 18.5235415,28.2493504 C18.9978094,27.8947079 19.5666945,27.6941508 20.1651167,27.6506328 C20.7840181,27.6057363 21.3594998,27.4594291 21.8658647,27.0891319 C22.5152877,26.6143718 23.0692073,26.0456836 23.4827272,25.3553024 C24.3076992,23.9779861 25.329487,22.7696221 26.5437584,21.7224324 C27.1442482,21.2047449 27.6866484,20.6406842 28.0428662,19.9199782 C28.2894028,19.4210961 28.4224183,18.909513 28.2505122,18.3548057 C28.2290486,18.2857873 28.228064,18.2093846 28.2247164,18.136034 C28.1948839,17.4939953 28.3901244,16.9085694 28.6840188,16.3507115 C29.1571052,15.4527827 29.2618635,14.5078899 28.9849037,13.540352" id="Fill-1" fill="#69848E"></path>
                <g id="Group-5" transform="translate(0.000000, 0.093633)">
                    <mask id="mask-2" fill="white">
                        <use xlink:href="#path-1"></use>
                    </mask>
                    <g id="Clip-4"></g>
                    <path d="M1.50686622,14.1363818 C1.57775533,14.8494081 1.78313684,15.5135012 2.1341364,16.1651887 C2.98785791,17.7499542 3.53921767,19.2721994 3.81972195,20.818862 C3.9501776,21.5381896 4.13980598,22.0984105 4.41647043,22.5819333 C4.65700112,23.0022467 4.93553626,23.2680808 5.31981432,23.4439252 C6.12647333,23.8129424 6.79696618,24.3926578 7.31248756,25.166826 C7.48114457,25.4199592 7.70178693,25.6061416 8.00690548,25.7530396 C8.70654163,26.0899598 9.47923295,26.1478525 10.275554,26.181328 C11.7973069,26.2452266 13.3040944,26.5323275 14.7540721,27.0345572 C15.2138667,27.1937623 15.8238084,27.378074 16.4633858,27.3897904 C16.854162,27.3975685 17.2236715,27.4038698 17.5250487,27.184212 C18.2382719,26.6645554 19.0243534,26.3421084 19.8616326,26.2256336 L19.9925805,26.2078129 C20.432093,26.1489356 20.8472866,26.0932088 21.1835176,25.8104401 C21.5685833,25.4866147 22.0035668,25.0865835 22.3098668,24.5742127 C23.2220718,23.0485215 24.3752014,21.6869583 25.7373554,20.5275275 C26.1389619,20.185586 26.6319366,19.7112196 26.8811315,19.0721346 C26.9306554,18.945125 26.9282924,18.7727266 26.9260279,18.6060387 L26.9253387,18.5514935 C26.9240588,18.4219239 26.9142131,18.2925513 26.9036782,18.1555975 C26.8876296,17.9458839 26.8709904,17.7290813 26.8877281,17.510605 C26.9453255,16.7560298 27.2401061,16.0937089 27.4904825,15.6008327 C27.8961257,14.8023456 27.8767297,14.0134088 27.4326881,13.2559784 C27.2425675,12.9316607 27.009618,12.620044 26.7874003,12.3287094 C26.7428977,12.2703243 26.6552709,12.2130223 26.5834957,12.1953985 C26.0820537,12.0716379 25.5206513,11.8907722 25.2048009,11.3064293 C25.1648273,11.2324881 25.0752314,11.1595313 24.9886876,11.0889376 L24.9385729,11.047881 C24.8523245,10.976795 24.7631224,10.9032475 24.682486,10.8785348 C24.4019817,10.7921879 24.1136993,10.7102716 23.8349673,10.6310136 C23.5338855,10.5454544 23.2225641,10.4570399 22.917544,10.3621273 C22.760308,10.3131941 22.6008075,10.1728928 22.529623,10.020875 C22.2443928,9.4108348 21.9815124,8.80601284 21.7398986,8.24333051 C21.6914578,8.13049868 21.6268699,8.06492625 21.5093121,8.00969181 C20.1670465,7.37877872 19.4356087,6.01652629 19.6458146,4.53917751 C19.6491621,4.51525243 19.64611,4.48591222 19.6420732,4.4710452 L19.4904493,4.31627064 C19.0944548,3.91210424 18.6849718,3.49415385 18.2631815,3.10751282 C18.0450006,2.90754645 17.7619365,2.80111433 17.3978421,2.78230902 C16.2838,2.72451471 15.1466205,2.43898912 13.9212235,1.90938838 C13.6551924,1.79439049 13.303799,1.65477832 12.9460059,1.59501486 C12.4240848,1.50797878 12.0048545,1.59471949 11.627173,1.86823331 C10.9168051,2.38267166 10.1186134,2.68011055 9.2546523,2.75237807 C8.75449024,2.79422233 8.40260456,2.91758908 8.11373143,3.1523108 C7.59919463,3.57035965 7.23775862,3.96881553 6.97605965,4.40635888 C6.0808877,5.90349754 4.94449585,7.24674775 3.5985873,8.39889273 C2.93725096,8.9649226 2.5245188,9.51391938 2.29964278,10.1267164 C2.22885213,10.3196923 2.19901963,10.4829342 2.21122831,10.611716 C2.30801164,11.6356699 2.13679474,12.618764 1.70240202,13.5335289 C1.64155553,13.661917 1.60148349,13.8046798 1.55904848,13.9559099 C1.54211386,14.0162641 1.52517924,14.0767168 1.50686622,14.1363818 M16.6628598,27.7861787 C16.5928569,27.7861787 16.52374,27.7848987 16.4560999,27.7836188 C15.7610913,27.7707209 15.1125544,27.5754805 14.6251917,27.4066266 C13.2114462,26.9170979 11.7424663,26.6371843 10.2590132,26.5747625 C9.41996177,26.5396133 8.60326013,26.47729 7.83608241,26.107879 C7.46470223,25.9290809 7.19414212,25.6994789 6.98472387,25.3851054 C6.51035756,24.6728667 5.89509915,24.1402138 5.1559817,23.8020137 C4.6983531,23.5925954 4.35473783,23.2669978 4.07472583,22.7775676 C3.77512088,22.2539727 3.57092086,21.6539751 3.4321948,20.8891604 C3.15917326,19.3838498 2.62120367,17.8998059 1.78746895,16.3519619 C1.40437238,15.6409047 1.18313927,14.9152759 1.11097022,14.1337234 L1.10732731,14.0938483 L1.11943753,14.0558438 C1.14119655,13.9877115 1.16049414,13.9186931 1.17989019,13.8495762 C1.22488509,13.6891896 1.27135684,13.5231909 1.34667652,13.364675 C1.75586422,12.50288 1.91044187,11.6145016 1.81917214,10.6488344 C1.8013514,10.4609782 1.83866664,10.2396467 1.92993638,9.99094403 C2.17903284,9.3123777 2.62789875,8.71139556 3.34240193,8.0996816 C4.65591809,6.97539998 5.76484041,5.66473907 6.63815488,4.20422646 C6.9240743,3.72602032 7.31406287,3.29458131 7.86542263,2.84660151 C8.21947436,2.55890987 8.63781857,2.40876279 9.22186609,2.35992807 C10.0132643,2.29366644 10.7448005,2.02094027 11.3961927,1.54923231 C11.8584488,1.21437971 12.3865726,1.10233553 13.0107907,1.20650314 C13.4106249,1.27335552 13.7908663,1.42399488 14.0774749,1.54785391 C15.259157,2.05855088 16.3518339,2.33373848 17.4182227,2.38897291 C17.8711254,2.4124057 18.244967,2.55654689 18.5294095,2.81726129 C18.9588794,3.21099124 19.3721039,3.63278145 19.7717412,4.04068921 L19.9339985,4.2061956 C20.0352124,4.30928018 20.0519501,4.47980788 20.0357047,4.59460886 C19.8504085,5.89690091 20.4946133,7.09758524 21.6768861,7.65327711 C21.8805938,7.74907587 22.015677,7.88721118 22.1018269,8.08796521 C22.3421607,8.64769382 22.6034659,9.24897133 22.8864316,9.85399021 C22.9105536,9.90568018 22.9826242,9.96987421 23.0345111,9.98602118 C23.3349037,10.0795554 23.6437636,10.1672807 23.9425809,10.2521507 C24.2233805,10.3319994 24.5136321,10.4145065 24.79837,10.5020348 C24.9533415,10.5497865 25.0785789,10.6529696 25.1890478,10.7439439 L25.2373902,10.7836221 C25.3483514,10.8740058 25.4741795,10.9764996 25.5512714,11.1191639 C25.7908176,11.5623193 26.2208782,11.7002577 26.6778176,11.8129911 C26.8361366,11.8520786 27.0020368,11.9607752 27.1004939,12.0898525 C27.3300959,12.3908358 27.5711188,12.7133813 27.7724636,13.0567012 C28.2886742,13.9374 28.31191,14.8533464 27.8416789,15.7793354 C27.4943223,16.4628246 27.3212347,17.0060124 27.280375,17.5406344 C27.2659018,17.7290813 27.2806704,17.9216634 27.2963251,18.1255681 C27.30686,18.2628173 27.3177887,18.4048909 27.3191671,18.5475552 L27.3198563,18.6008205 C27.3225147,18.7956671 27.3253699,19.0165064 27.2479826,19.2151928 C26.9669861,19.9362926 26.4294103,20.4555553 25.9925562,20.8274278 C24.6632869,21.9588968 23.5380207,23.2874769 22.64787,24.7762467 C22.3117375,25.3386336 21.8471184,25.7670205 21.4369462,26.1119157 C21.0130883,26.4683304 20.5209013,26.5342967 20.0449597,26.5980969 L19.9158824,26.6156222 C19.1434865,26.7231374 18.4171685,27.0214624 17.7570136,27.5025238 C17.4146783,27.7519156 17.0260681,27.7861787 16.6628598,27.7861787 M16.6444484,28.5521749 C17.3069662,28.5591654 17.9011548,28.375346 18.405649,27.9980584 C18.9003959,27.6279581 19.5039379,27.4076111 20.1508011,27.3605486 C20.8189309,27.3121077 21.3269696,27.1456168 21.7496459,26.8365599 C22.4108838,26.3530371 22.9372354,25.7891733 23.3137354,25.1605247 C24.1409719,23.7793685 25.1844203,22.5410736 26.415134,21.4797061 C26.8946201,21.0662847 27.4928454,20.4947412 27.8662932,19.739083 C28.1366564,19.1920554 28.1971091,18.7541182 28.0624198,18.3194301 C28.0358363,18.2337724 28.0321934,18.1494931 28.0290428,18.075158 L28.0279598,18.0515283 C27.9997026,17.4423742 28.1528034,16.8429674 28.5098088,16.1651887 C28.9605454,15.309695 29.056738,14.4133416 28.7956298,13.5009396 C28.5845378,12.7635944 28.1613691,12.0782345 27.4638006,11.3442369 C27.3681003,11.2435153 27.23794,11.1643557 27.1320986,11.1424983 C26.6462128,11.0422689 26.2524829,10.7983907 25.928559,10.3969811 C25.6632172,10.0679375 25.3475637,9.84729512 24.9903613,9.74115837 C24.6438908,9.6382707 24.270443,9.53804137 23.8153743,9.42560336 C23.5940427,9.37095967 23.4527568,9.2471991 23.3569581,9.02429223 C23.1870211,8.62888851 23.0029063,8.23033418 22.8248959,7.84487463 C22.7489855,7.68074664 22.6731735,7.51661866 22.5981492,7.35209685 C22.5310014,7.2051004 22.4341197,7.11963963 22.27393,7.0664728 C21.1326153,6.68760988 20.5496508,5.61403367 20.8561477,4.45598126 C20.903801,4.27600168 20.8784975,4.1423954 20.7716715,4.00918294 C20.1124028,3.18677079 19.5488344,2.6155227 18.9445047,2.15710644 C18.4942604,1.81555876 18.0110329,1.63872981 17.4671559,1.61647851 C16.4547215,1.57492961 15.4271248,1.3147075 14.4129182,0.842901076 C13.7963799,0.556095544 13.2277901,0.411166694 12.6744612,0.399647213 C12.0024915,0.385370934 11.5003603,0.519174132 11.0968831,0.8196652 C10.4628194,1.29186545 9.74122729,1.56045642 8.95199518,1.61785691 C8.52350988,1.64896935 8.17910695,1.74713108 7.86817943,1.92681529 C7.10976439,2.36485092 6.47737444,2.99458253 5.98853494,3.79828784 C5.26418605,4.98922491 4.38240427,6.08091723 3.3677054,7.04304001 C3.23754512,7.16650521 3.10443112,7.28760745 2.97131712,7.40870968 C2.66324485,7.68891858 2.34463768,7.97867783 2.07407757,8.29255906 C1.50952456,8.94720032 0.94703915,9.76045596 1.05553887,10.8271402 C1.13056318,11.5650761 0.988686503,12.3073442 0.621736893,13.0963794 C0.507723571,13.3414391 0.436046803,13.5856127 0.414386241,13.8026122 C0.322131939,14.7274197 0.541789728,15.6491751 1.10555508,16.7035522 C1.88385845,18.1588466 2.38835263,19.5276956 2.64778709,20.8881758 C2.77952269,21.5787539 2.96993872,22.3842314 3.38365545,23.1239396 C3.75966312,23.7962047 4.19681264,24.222327 4.7593965,24.4652207 C5.42053593,24.7506478 5.96352683,25.2175314 6.37320682,25.8528751 C6.64740985,26.2781113 6.96818308,26.5626523 7.35364262,26.7226451 C7.8526232,26.9298973 8.34185653,27.1225778 8.84260934,27.2044941 C9.28409098,27.2767616 9.74457483,27.3074803 10.1899947,27.3372143 C10.5061405,27.3583826 10.8331165,27.3802401 11.1550712,27.4167676 C12.3957292,27.5574628 13.4812187,27.8027195 14.4732724,28.16642 C15.1904339,28.4293989 15.873037,28.5522734 16.6186526,28.5522734 C16.6273168,28.5522734 16.6357841,28.5521749 16.6444484,28.5521749 M16.6968275,28.9463971 C16.6787114,28.9463971 16.6605953,28.9462987 16.6423808,28.9460033 C15.8440906,28.9466925 15.1084192,28.8188952 14.337697,28.5362249 C13.3753773,28.1834531 12.3198187,27.9452853 11.1105686,27.8080362 C10.7977704,27.7725916 10.4754219,27.7510295 10.1637067,27.7301566 C9.70913027,27.6998318 9.23909608,27.6683255 8.77900605,27.5932028 C8.23660589,27.5044929 7.72384132,27.3029512 7.20270789,27.0863456 C6.7473438,26.8974064 6.35686295,26.554185 6.04219406,26.0663301 C5.67563827,25.4977403 5.19152471,25.080676 4.603342,24.8267552 C3.95716806,24.5479247 3.46045199,24.0678479 3.03994172,23.3162264 C2.59875545,22.5274865 2.39859217,21.6835123 2.26094914,20.9620186 C2.00899743,19.6411182 1.51749959,18.3089936 0.75829689,16.8893407 C0.155936354,15.762893 -0.0778008001,14.7696578 0.0224285273,13.7636232 C0.0484212016,13.5030072 0.132208193,13.2149218 0.264632992,12.9302823 C0.600863988,12.2073118 0.731418102,11.5323884 0.663778074,10.8670153 C0.539426757,9.64457195 1.19278807,8.71159248 1.77575256,8.03529066 C2.06196735,7.70339178 2.38953412,7.40546059 2.70627061,7.11737512 C2.83741546,6.99814357 2.96846186,6.87891203 3.09665301,6.75731751 C4.0860484,5.81911981 4.94577579,4.7547001 5.65210703,3.59349707 C6.17560343,2.7327851 6.85495741,2.05727094 7.67116677,1.58575989 C8.03053518,1.37811387 8.44011672,1.26016226 8.92344262,1.22511154 C9.63656739,1.17322464 10.2887472,0.930527894 10.8616691,0.503814825 C11.3389891,0.148286238 11.9163415,-0.00993432135 12.6826331,0.00591727169 C13.2916888,0.0185197804 13.9119685,0.175558854 14.5791138,0.485797175 C15.5458641,0.935549206 16.5229523,1.18356264 17.4834013,1.22294548 C18.101515,1.24834741 18.6732554,1.45707646 19.1824755,1.84342212 C19.813684,2.32212054 20.3986176,2.91414308 21.0790546,3.76284328 C21.2651385,3.99500512 21.3168285,4.25463649 21.2368813,4.55670287 C20.9861111,5.50415554 21.463628,6.38249133 22.3980844,6.69272965 C22.6613586,6.78015955 22.8439966,6.9423184 22.9564346,7.18865806 C23.0311635,7.35249067 23.1067786,7.51612637 23.1822952,7.67966362 C23.3614871,8.06748613 23.5467833,8.46860036 23.7187879,8.86882847 C23.7662442,8.97929733 23.8090731,9.0183848 23.9097947,9.04329445 C24.3709677,9.15720931 24.7499291,9.25901395 25.102504,9.36367385 C25.5375859,9.49294802 25.9187133,9.75740379 26.2351544,10.1496569 C26.5029578,10.4817527 26.8132945,10.6746301 27.211652,10.7567434 C27.3964559,10.7949447 27.5974069,10.9130932 27.7493262,11.0728891 C28.4922835,11.8547369 28.9449892,12.5917868 29.1741973,13.3924399 L29.1741973,13.3925384 C29.4642519,14.4057604 29.3579183,15.4004725 28.8582485,16.3489097 C28.5353092,16.9618051 28.3964847,17.4971164 28.4213943,18.0332153 L28.4225758,18.0584203 C28.4248403,18.1136548 28.4271049,18.165837 28.4386243,18.2028569 C28.6549346,18.9009177 28.4170622,19.5134193 28.2193604,19.913549 C27.8146032,20.7327121 27.1799488,21.3401924 26.6724024,21.7779326 C25.4734903,22.8117322 24.4572161,24.0179301 23.6516402,25.3627556 C23.2477691,26.0369898 22.6860714,26.6397442 21.9820047,27.1544779 C21.4972019,27.5090219 20.9243785,27.6993395 20.1793536,27.7534909 C19.6077117,27.7949414 19.0758464,27.9886065 18.6414537,28.3134164 C18.079756,28.7335329 17.425607,28.9463971 16.6968275,28.9463971" id="Fill-3" fill="#69848E" mask="url(#mask-2)"></path>
                </g>
                <path d="M14.177015,7.41696038 C14.6560088,7.42119404 15.0337887,7.80025387 15.0344779,8.27718006 C15.0351671,8.76208128 14.6416341,9.15118374 14.1569298,9.14458711 C13.6780344,9.13799049 13.3030113,8.75942294 13.3023221,8.28170909 C13.3015345,7.78981742 13.6831542,7.41252981 14.177015,7.41696038 M14.1603757,10.3157343 C15.2662459,10.3252846 16.201293,9.3975234 16.2060189,8.2860412 C16.2109418,7.17623277 15.2911555,6.25211444 14.1733721,6.24364713 C13.0635637,6.23537673 12.1328487,7.15969198 12.1302888,8.27294641 C12.1277289,9.38797306 13.0402293,10.306184 14.1603757,10.3157343" id="Fill-6" fill="#69848E"></path>
                <path d="M14.1685083,7.61382535 C13.9845904,7.61382535 13.8155396,7.68126847 13.691779,7.80414293 C13.5673293,7.92760813 13.4989016,8.09715126 13.4991969,8.28136449 C13.4997877,8.64998787 13.7898423,8.94260237 14.1596472,8.94762368 C14.3394298,8.95106968 14.511139,8.88175588 14.6392317,8.75523851 C14.7674228,8.62862268 14.8378197,8.45888264 14.8375243,8.27752466 C14.837032,7.90870437 14.5460913,7.6171729 14.1752034,7.61382535 C14.1730373,7.61382535 14.1706744,7.61382535 14.1685083,7.61382535 M14.169296,9.34155054 C14.1642746,9.34155054 14.1592533,9.34155054 14.154232,9.34145208 C13.5670339,9.33347706 13.1062547,8.86807035 13.1053685,8.28195523 C13.1049747,7.9917037 13.2146559,7.72271891 13.4143269,7.52462322 C13.6147856,7.32564142 13.8862318,7.22176918 14.1787478,7.21999696 C14.768112,7.22531364 15.230565,7.68953886 15.2313527,8.27693392 C15.231845,8.56462557 15.1198008,8.83410265 14.9159946,9.03544742 C14.7158313,9.23314927 14.4511786,9.34155054 14.169296,9.34155054 M14.1582688,6.4405121 C13.6804565,6.4405121 13.2260769,6.63014047 12.8774404,6.97542952 C12.5237825,7.32564142 12.3283451,7.78661756 12.3271636,8.27348792 C12.3248007,9.28237782 13.1480005,10.1102051 14.1621086,10.1188693 C14.6406101,10.1202477 15.1009955,9.93327771 15.4539642,9.58483803 C15.8098866,9.2335431 16.0069977,8.77197622 16.0091638,8.28520432 C16.0135944,7.27572367 15.18941,6.44829021 14.1718558,6.44061056 C14.1673268,6.4405121 14.1627978,6.4405121 14.1582688,6.4405121 M14.1774679,10.5127962 C14.1711666,10.5127962 14.1649638,10.5126977 14.1586626,10.5126977 C12.928835,10.5021628 11.9305784,9.49721121 11.9333352,8.27250335 C11.9348121,7.68008698 12.1716014,7.120063 12.6003821,6.69551599 C13.0273905,6.2727412 13.5857407,6.0418593 14.1748096,6.04678216 C15.4087724,6.05613558 16.4084073,7.0610872 16.4029922,8.28687809 C16.4004323,8.879196 16.1616738,9.43961381 15.7306286,9.86514539 C15.3071647,10.2831942 14.7561987,10.5126977 14.1774679,10.5127962" id="Fill-8" fill="#69848E"></path>
                <path d="M7.88436577,19.7865886 C7.66037587,19.7909207 7.49378646,19.6286634 7.49546023,19.4077256 C7.49703554,19.1986028 7.65683142,19.0372316 7.8659543,19.0336871 C8.08807351,19.0297488 8.25810892,19.1952552 8.2563367,19.41383 C8.25466292,19.6252174 8.09782076,19.7824534 7.88436577,19.7865886 M7.86723424,17.8601769 C7.03044735,17.8669705 6.32510069,18.5667051 6.32126086,19.3938432 C6.31712566,20.2564258 7.02089701,20.9613787 7.882692,20.9578342 C8.72617397,20.9544867 9.42039498,20.2645978 9.42256104,19.4277124 C9.42482555,18.5615853 8.72194032,17.853088 7.86723424,17.8601769" id="Fill-10" fill="#69848E"></path>
                <path d="M7.87350595,19.2304635 C7.87212756,19.2304635 7.87074916,19.2304635 7.86937076,19.2305619 C7.76756612,19.2323342 7.69313255,19.3073585 7.69244335,19.4091631 C7.69195106,19.4622315 7.70918106,19.5074233 7.74196727,19.5398157 C7.77603343,19.5735865 7.82378512,19.5918995 7.88059487,19.589635 C7.98673162,19.5876658 8.0586053,19.5162844 8.05949142,19.4123137 C8.05988524,19.3605253 8.04235988,19.3156289 8.00878601,19.2823504 C7.97491677,19.248875 7.92696816,19.2304635 7.87350595,19.2304635 L7.87350595,19.2304635 Z M7.87557355,19.9835618 C7.71754991,19.9835618 7.57212877,19.9257675 7.46510591,19.8198277 C7.35650772,19.7125094 7.29733501,19.5657099 7.29861495,19.4062094 C7.30087946,19.0923282 7.54869598,18.8421487 7.86267567,18.8367335 C8.02709903,18.8362412 8.17517851,18.8928541 8.28594274,19.0026337 C8.39513167,19.1107396 8.4545013,19.2573423 8.45331981,19.4153659 C8.45075993,19.7329885 8.20786626,19.9772606 7.88817606,19.9834634 C7.88394241,19.9834634 7.87980721,19.9835618 7.87557355,19.9835618 L7.87557355,19.9835618 Z M7.86878001,18.0570518 C7.14009902,18.0630576 6.52149306,18.6755593 6.51814552,19.3947884 C6.51637329,19.7592766 6.65805306,20.1027934 6.91709369,20.3619325 C7.17426363,20.6193978 7.51482674,20.7609791 7.87636121,20.7609791 L7.88197327,20.7609791 C8.62099225,20.7580254 9.22374662,20.1597016 9.2256173,19.4272792 C9.22660187,19.0572774 9.08255914,18.7097239 8.8198756,18.4487141 C8.56300102,18.1931195 8.22450551,18.0545903 7.86887847,18.0570518 L7.86878001,18.0570518 Z M7.87636121,21.1548075 C7.40947764,21.1548075 6.97016207,20.972268 6.6384601,20.6402707 C6.30469053,20.3063042 6.12205261,19.8633457 6.12431712,19.3928192 C6.12864923,18.4629904 6.92605328,17.670903 7.86562939,17.6632234 L7.86553093,17.6632234 C7.87035533,17.6632234 7.87517973,17.6631249 7.87990567,17.6631249 C8.33704198,17.6631249 8.76897328,17.8425137 9.09762307,18.1693913 C9.43542938,18.5052285 9.62072564,18.9523222 9.6194457,19.4282638 C9.61698427,20.3765041 8.83828707,21.1509677 7.88354858,21.1548075 L7.87636121,21.1548075 Z" id="Fill-12" fill="#69848E"></path>
                <path d="M13.6966034,17.8570657 C13.480687,17.86445 13.3047442,17.6942177 13.3037596,17.4769228 C13.3028735,17.2551975 13.4715305,17.0902818 13.6931574,17.0962877 C13.9059232,17.1021951 14.0622731,17.2616956 14.0629623,17.4736738 C14.06375,17.6793506 13.9006065,17.8500752 13.6966034,17.8570657 M15.2308604,17.4962204 C15.2338141,16.622906 14.5517033,15.9327217 13.6853793,15.9323279 C12.8276211,15.931934 12.1314309,16.6184754 12.1296587,17.4663879 C12.1280834,18.3168604 12.8512508,19.0387478 13.6924682,19.0264407 C14.5366394,19.0139366 15.2280052,18.3263122 15.2308604,17.4962204" id="Fill-14" fill="#69848E"></path>
                <path d="M13.6812244,17.2930542 C13.6298298,17.2930542 13.5855241,17.3098904 13.5527379,17.3419874 C13.5184748,17.3754628 13.5004572,17.4218361 13.5007526,17.476086 C13.500851,17.5278744 13.5209363,17.5754292 13.5568731,17.6100861 C13.5923177,17.6440538 13.6398724,17.6627606 13.6897902,17.6602007 C13.7873612,17.6568532 13.8664222,17.5735585 13.8660284,17.4744122 C13.865733,17.3689646 13.7940563,17.2961064 13.6877226,17.2931527 C13.6855565,17.2931527 13.683292,17.2930542 13.6812244,17.2930542 L13.6812244,17.2930542 Z M13.6827997,18.0541276 C13.5327511,18.0541276 13.3917606,17.9977117 13.2837531,17.8939379 C13.170429,17.784749 13.1075149,17.6369649 13.1069242,17.4777597 C13.106235,17.3166839 13.1667861,17.1684075 13.2774519,17.0603016 C13.3880192,16.9521957 13.5369848,16.8944014 13.6985529,16.8995212 C14.0175539,16.9082839 14.2587738,17.1549189 14.2598568,17.4730338 C14.2610383,17.7827798 14.0113511,18.0432973 13.7033773,18.0539307 L13.7033773,18.0539307 C13.6964853,18.0540291 13.6895933,18.0541276 13.6827997,18.0541276 L13.6827997,18.0541276 Z M13.6846704,16.1292913 C12.9371841,16.1292913 12.3280301,16.7290919 12.3266517,17.466831 C12.3259625,17.8229503 12.4765034,18.1762144 12.7396792,18.4360427 C13.0018704,18.6948864 13.3389875,18.8353847 13.6895933,18.8294772 C14.4284154,18.8185485 15.0314651,18.2202247 15.0339265,17.4955805 C15.035108,17.1235111 14.8953974,16.7777297 14.640295,16.5215444 C14.3884418,16.268805 14.0492571,16.1294882 13.6853596,16.1292913 L13.6846704,16.1292913 Z M13.6708864,19.2235026 C13.2228082,19.2235026 12.7948152,19.0440153 12.4629163,18.71635 C12.12511,18.3827774 11.9319371,17.9270195 11.9328233,17.4660433 C11.9346939,16.5116002 12.7205785,15.7354629 13.6846704,15.7354629 L13.6854581,15.7354629 C14.1549015,15.7356598 14.5930356,15.9161317 14.9193225,16.2436 C15.2487599,16.5744158 15.4293302,17.0195404 15.4277549,17.4968604 C15.4246043,18.4347627 14.6473839,19.2092263 13.6954022,19.2233056 C13.6872303,19.2234041 13.6790584,19.2235026 13.6708864,19.2235026 L13.6708864,19.2235026 Z" id="Fill-16" fill="#69848E"></path>
                <path d="M19.502402,14.9528668 C19.2957405,14.9588727 19.1236375,14.8011444 19.1124134,14.5953691 C19.1002047,14.371773 19.2571454,14.1991777 19.4788707,14.1926795 C19.6915381,14.1864767 19.8578321,14.337313 19.869647,14.5474205 C19.8818556,14.7643214 19.7167431,14.946664 19.502402,14.9528668 M21.0392189,14.5795175 C21.0398096,13.7215623 20.3581911,13.0324611 19.5050603,13.0283259 C18.6346011,13.0240922 17.9375248,13.7123073 17.938214,14.5752838 C17.9389032,15.4133506 18.6473021,16.1208634 19.4885195,16.1235217 C20.3292447,16.1260816 21.0387266,15.4197504 21.0392189,14.5795175" id="Fill-18" fill="#69848E"></path>
                <path d="M19.49168,14.3894263 C19.4894155,14.3894263 19.4870525,14.3894263 19.4845911,14.3895248 C19.4308335,14.3911001 19.3857402,14.4101023 19.3541354,14.4445623 C19.3214477,14.4799084 19.3058915,14.5283493 19.3090421,14.5845683 C19.3143588,14.6836162 19.3947982,14.7576559 19.4967013,14.7560806 C19.5458314,14.7546037 19.5911217,14.7339277 19.6242033,14.6978924 C19.6586632,14.6602818 19.6759917,14.6108564 19.673038,14.5585756 C19.6673275,14.4566725 19.5947646,14.3894263 19.49168,14.3894263 L19.49168,14.3894263 Z M19.4906954,15.1500074 C19.1836077,15.1500074 18.9326406,14.9142027 18.915706,14.6061304 C18.9069433,14.4437747 18.9596178,14.2916584 19.0642777,14.1779405 C19.1678546,14.0652071 19.3131773,14.0005208 19.4731701,13.9958933 C19.7924664,13.9862445 20.0483564,14.2188986 20.0662756,14.5363243 C20.0752352,14.6956279 20.0212807,14.8476457 19.9143563,14.9641204 C19.8087119,15.0792168 19.6644722,15.145183 19.5081223,15.1497121 L19.5081223,15.1497121 C19.5022149,15.149909 19.4965044,15.1500074 19.4906954,15.1500074 L19.4906954,15.1500074 Z M19.4970951,13.2252696 C19.1289641,13.2252696 18.7855457,13.365571 18.5291634,13.6207718 C18.2748487,13.8742003 18.1348427,14.2130897 18.1351381,14.5752149 C18.1357288,15.3054712 18.7557132,15.9242741 19.4891201,15.9265386 C19.8401197,15.9258494 20.1810766,15.7860403 20.4403142,15.5277873 C20.6993548,15.2696328 20.8420191,14.9329095 20.8423145,14.5794485 C20.8428068,13.8236919 20.2550179,13.2289125 19.5040856,13.2252696 L19.4970951,13.2252696 Z M19.4932553,16.320367 L19.4878402,16.320367 C18.5418644,16.3175117 17.7419989,15.5184339 17.7413097,14.5755103 C17.7409159,14.107839 17.9220769,13.6696065 18.2513175,13.3417443 C18.5841025,13.0103378 19.0291286,12.833115 19.5060547,12.8314412 C20.4605963,12.8360687 21.2367336,13.6202795 21.2361429,14.5796455 C21.2358475,15.038554 21.0519297,15.4743251 20.7182586,15.8067163 C20.3856705,16.1381229 19.9507855,16.320367 19.4932553,16.320367 L19.4932553,16.320367 Z" id="Fill-20" fill="#69848E"></path>
                <path d="M6.51909071,12.6351374 C6.51918917,12.4286729 6.71206662,12.2434751 6.91912191,12.2507609 C7.11593765,12.2577514 7.29640951,12.4410785 7.2969018,12.6345467 C7.29749254,12.8275226 7.11731605,13.0110466 6.9198111,13.0187263 C6.71334657,13.0267998 6.5188938,12.8407159 6.51909071,12.6351374 M8.4556434,12.6404541 C8.45869557,11.7851573 7.77048045,11.0933977 6.91232837,11.0890656 C6.0619544,11.0848319 5.35601699,11.7829912 5.35365402,12.6304115 C5.35119259,13.4834438 6.04226298,14.1737265 6.90208883,14.177271 C7.76417919,14.1806185 8.45268969,13.4995908 8.4556434,12.6404541" id="Fill-22" fill="#69848E"></path>
                <path d="M6.90748428,12.4474979 C6.86347395,12.4474979 6.81522997,12.4687646 6.77761936,12.5050953 C6.73853189,12.5429028 6.71608367,12.5902607 6.71598522,12.6352556 L6.71598522,12.635354 C6.71598522,12.6789705 6.73902418,12.7272145 6.77761936,12.7643328 C6.8170022,12.8022388 6.86780606,12.8218318 6.91211176,12.8220287 C7.00367686,12.8183858 7.10026328,12.7222917 7.10006636,12.6350587 C7.09977099,12.5472349 7.00318458,12.4508454 6.91221022,12.4474979 C6.9106349,12.4474979 6.90905959,12.4474979 6.90748428,12.4474979 L6.90748428,12.4474979 Z M6.90709045,13.2159556 C6.76166931,13.2159556 6.61605126,13.1554044 6.50449937,13.0480862 C6.3885169,12.9364359 6.32205836,12.7858949 6.32215682,12.6349602 C6.32235373,12.4838286 6.38861536,12.3330907 6.504204,12.2217358 C6.62028492,12.1096916 6.77525639,12.0470729 6.92609267,12.0539649 C7.22766676,12.0646967 7.49291019,12.3356506 7.49389476,12.6339756 C7.49468242,12.9320053 7.23002973,13.2037469 6.92747107,13.2154633 C6.92067753,13.2157586 6.91388399,13.2159556 6.90709045,13.2159556 L6.90709045,13.2159556 Z M6.90462902,11.2859995 C6.54742666,11.2859995 6.20932498,11.4264978 5.95176121,11.6820924 C5.69400052,11.9377855 5.5515331,12.2748041 5.55054853,12.6310219 C5.54848093,13.3720101 6.15507512,13.9773243 6.90285679,13.980278 L6.90846885,13.980278 C7.27079097,13.980278 7.60938494,13.842635 7.86251814,13.5922586 C8.11673437,13.3407992 8.25742957,13.0025006 8.25880797,12.6397846 L8.25880797,12.6396862 C8.26136785,11.8970243 7.65693972,11.2897409 6.91142256,11.2859995 L6.90462902,11.2859995 Z M6.90846885,14.3741064 L6.90128148,14.3741064 C5.93659882,14.3702666 5.15396333,13.5877296 5.15672013,12.6298404 C5.15800007,12.168372 5.34191793,11.732404 5.67440756,11.4024742 C6.00837404,11.0711661 6.45064333,10.8888236 6.91329324,10.8921711 C7.87571139,10.8969955 8.65598391,11.6816001 8.65263637,12.641163 C8.6509626,13.109425 8.4687185,13.5465745 8.13947796,13.8722706 C7.81210811,14.196096 7.3751555,14.3741064 6.90846885,14.3741064 L6.90846885,14.3741064 Z" id="Fill-24" fill="#69848E"></path>
                <path d="M15.6352729,22.6900195 C15.4153198,22.6973053 15.2331742,22.5297313 15.231205,22.3182455 C15.2292359,22.1156208 15.3965145,21.9446993 15.602979,21.9379057 C15.8227353,21.9308168 16.0063578,22.0992769 16.0090161,22.3104674 C16.011576,22.5115168 15.8425251,22.683226 15.6352729,22.6900195 M15.6208982,20.7645925 C14.7788931,20.763411 14.065276,21.4727944 14.0638976,22.3123381 C14.0624208,23.1562139 14.7675705,23.860379 15.6159754,23.8622497 C16.4681216,23.8642189 17.1647055,23.1697025 17.1656901,22.3171625 C17.1667731,21.4665916 16.4695,20.765774 15.6208982,20.7645925" id="Fill-26" fill="#69848E"></path>
                <path d="M15.6164676,22.1346624 C15.6141047,22.1346624 15.6117417,22.1346624 15.6093787,22.1347608 C15.5102324,22.1380099 15.4271346,22.2212062 15.4280208,22.3164142 C15.428513,22.3623937 15.4476137,22.4057148 15.4819752,22.4386979 C15.5206689,22.4757178 15.5736388,22.4961969 15.6287748,22.4932431 L15.6287748,22.4932431 C15.7292995,22.4898956 15.8132834,22.4073886 15.8121019,22.3129682 C15.8115112,22.2670872 15.7920166,22.2233722 15.7571628,22.1900937 C15.7195522,22.1541569 15.6698314,22.1346624 15.6164676,22.1346624 L15.6164676,22.1346624 Z M15.6219812,22.88717 C15.4683882,22.88717 15.3190287,22.8278988 15.209446,22.723042 C15.0978941,22.6161176 15.0356692,22.472961 15.0341924,22.3200571 C15.0314356,22.0110003 15.2836826,21.7512704 15.5965793,21.7411294 C15.7569659,21.7362065 15.9145957,21.7958715 16.0292983,21.9054543 C16.141244,22.0124771 16.2039612,22.1553384 16.2059303,22.3079469 C16.2097701,22.6167084 15.9567354,22.8764382 15.6417711,22.8868746 C15.6351745,22.8870715 15.6285779,22.88717 15.6219812,22.88717 L15.6219812,22.88717 Z M15.6185352,20.961546 C14.883553,20.961546 14.2619933,21.5797582 14.2608118,22.3126728 C14.2595319,23.0442091 14.8803039,23.6637011 15.6164676,23.6653749 C15.9789867,23.6685255 16.3147254,23.5261566 16.5707139,23.2709558 C16.8269977,23.0155581 16.9683821,22.6767672 16.9687759,22.3169065 C16.969662,21.5706017 16.3649385,20.9626291 15.6206028,20.961546 L15.6185352,20.961546 Z M15.6195198,24.0592033 L15.6155815,24.0592033 C14.6661597,24.0570373 13.8653097,23.2568764 13.8669834,22.3119836 C13.8685588,21.3659094 14.6704918,20.5677176 15.6186337,20.5677176 L15.6210951,20.5677176 C16.5825287,20.569096 17.3637858,21.3538976 17.3626043,22.3173003 C17.3620136,22.7825101 17.1795726,23.2202504 16.8487567,23.5498847 C16.5190239,23.8784361 16.082662,24.0592033 15.6195198,24.0592033 L15.6195198,24.0592033 Z" id="Fill-28" fill="#69848E"></path>
                <path d="M15.1862495,14.9585379 C15.512044,15.2614904 15.9691804,15.1872538 16.150243,14.8041572 C16.2692776,14.5524024 16.2025237,14.3053735 15.9338343,14.0650397 C15.3362981,13.5303192 14.6449324,13.2158473 13.8364027,13.1596283 C12.798271,13.0874592 11.9025083,13.4032111 11.1496069,14.1165328 C10.8668381,14.3844346 10.8583708,14.7376002 11.1059904,14.9862044 C11.3365769,15.217677 11.6891518,15.1972964 11.9628625,14.9432771 C12.4139929,14.5246375 12.9484181,14.312364 13.562495,14.3068504 C14.1908482,14.3122655 14.7290147,14.5332032 15.1862495,14.9585379" id="Fill-30" fill="#69848E"></path>
                <path d="M13.5456982,13.3462045 C12.6738606,13.3462045 11.9320848,13.6464986 11.2850248,14.2594925 C11.1822356,14.356965 11.1270011,14.4665478 11.1253273,14.5763275 C11.123949,14.6733077 11.1654978,14.7669404 11.2455435,14.8472814 C11.398152,15.0004806 11.6325783,14.9809861 11.8289018,14.798939 C12.3151814,14.3477101 12.8978505,14.1158436 13.5606637,14.1099362 C14.2332242,14.1156467 14.8240652,14.3527314 15.3203875,14.8143967 L15.3203875,14.8142983 C15.4344008,14.920435 15.573816,14.9670052 15.7020072,14.9422925 C15.8191711,14.9197458 15.9150683,14.8408817 15.9722719,14.7199764 C16.0274079,14.6034032 16.0579296,14.4401613 15.8025319,14.2117408 C15.217106,13.687949 14.5694552,13.4079371 13.8226581,13.3560502 C13.7290253,13.3494535 13.6365741,13.3462045 13.5456982,13.3462045 M11.4881418,15.3434067 C11.2964458,15.3434067 11.1117403,15.2710408 10.966516,15.1251273 C10.8120369,14.9701559 10.7286437,14.7731432 10.7315974,14.5706169 C10.734748,14.3552913 10.8350758,14.1433131 11.0141693,13.9735731 C11.8021215,13.2271698 12.7563677,12.8878867 13.8500291,12.9631079 C14.6757888,13.0205084 15.4210106,13.3419708 16.065117,13.9183387 C16.4843473,14.2932633 16.4396478,14.6528286 16.3282928,14.888338 C16.2177255,15.1221736 16.0165776,15.2828556 15.7764407,15.329032 C15.5229137,15.3778667 15.2591471,15.2952612 15.0521903,15.1027776 L15.0520919,15.1026791 C14.6241973,14.7046171 14.1363424,14.5086874 13.5607622,14.5037646 C13.0026089,14.5087859 12.5088465,14.7052078 12.0968036,15.0876152 C11.9135749,15.2576506 11.6967724,15.3433083 11.4881418,15.3434067" id="Fill-32" fill="#69848E"></path>
                <path d="M22.7817224,14.9591188 C22.4569125,14.9393289 22.2058469,15.2011264 22.1670548,15.5620701 C22.1512032,15.7095588 22.0934089,15.8630534 22.0168092,15.9912446 C21.8719788,16.2341383 21.6113629,16.2652507 21.3572451,16.3090641 C21.0162882,16.367843 20.8070669,16.6393877 20.8453667,16.945097 C20.8836665,17.250314 21.1631862,17.4710548 21.4936082,17.4566801 C22.5000367,17.413162 23.3086648,16.6062076 23.3440109,15.6099202 C23.3567119,15.2544901 23.1193318,14.9797948 22.7817224,14.9591188" id="Fill-34" fill="#69848E"></path>
                <path d="M22.7480698,15.1549697 C22.5472173,15.1549697 22.3902767,15.3276634 22.3629056,15.5831596 C22.344888,15.7503398 22.2820724,15.931107 22.1859782,16.0921828 C22.0026511,16.399369 21.6869976,16.4529296 21.4332737,16.4958569 L21.3906418,16.5030443 C21.1588738,16.5431163 21.0149295,16.714727 21.0407252,16.9206993 C21.0662256,17.1239148 21.2565432,17.2688436 21.4850621,17.2599825 C22.3854523,17.2209935 23.1156102,16.4931986 23.1473134,15.6029495 C23.1561745,15.3537546 23.0008092,15.1697382 22.7697304,15.1556589 C22.7624445,15.155265 22.7552572,15.1549697 22.7480698,15.1549697 M21.4626139,17.6543032 C21.0455496,17.6543032 20.6996699,17.3658238 20.649949,16.9696325 C20.598456,16.5573926 20.8880183,16.1901476 21.3237894,16.1150249 L21.3675044,16.1075421 C21.6094135,16.066584 21.7619235,16.0341916 21.8476796,15.8904442 C21.9144335,15.7786954 21.9594284,15.6513904 21.9712433,15.54102 C22.022441,15.0639953 22.3684192,14.7361332 22.7936554,14.7626181 L22.7937539,14.7626181 C23.2360232,14.7896938 23.5571903,15.1570373 23.5408464,15.6169304 C23.5019558,16.7111826 22.60639,17.6056653 21.5020952,17.653417 C21.4888035,17.6540078 21.4757087,17.6543032 21.4626139,17.6543032" id="Fill-36" fill="#69848E"></path>
                <path d="M9.82605793,4.91187701 C9.50380784,4.90124365 9.24831167,5.15093085 9.22606036,5.49848441 C9.19987077,5.90914898 8.97361636,6.16366058 8.57033608,6.23504198 C8.50604359,6.246463 8.44037271,6.2512874 8.37676942,6.26576059 C8.06485733,6.3373389 7.86863233,6.59086593 7.8973818,6.88180666 C7.92672202,7.17816253 8.19403304,7.40983209 8.50712662,7.41022592 C9.5052847,7.4114074 10.3724948,6.55945812 10.3980937,5.55253736 C10.4070533,5.19799335 10.1615013,4.92300267 9.82605793,4.91187701" id="Fill-38" fill="#69848E"></path>
                <path d="M9.80654373,5.10845646 C9.59820851,5.10845646 9.43762498,5.27563662 9.4226595,5.51094908 C9.39046403,6.01524635 9.09991712,6.3412378 8.60467791,6.42896308 C8.57612535,6.43398439 8.54727742,6.43792268 8.51842949,6.44186096 C8.48564328,6.44629153 8.45275861,6.45042673 8.42066159,6.45781101 C8.2058282,6.50703956 8.07428952,6.66959223 8.0933902,6.86246969 C8.11278624,7.0588916 8.29463651,7.21297696 8.5074023,7.21327234 L8.50927298,7.21327234 C9.40365728,7.21327234 10.1782193,6.45091901 10.2011598,5.54747667 C10.207461,5.30074318 10.046976,5.11623457 9.81954007,5.10865337 C9.81520795,5.10855492 9.81087584,5.10845646 9.80654373,5.10845646 M8.50927298,7.60710073 L8.50691001,7.60710073 C8.09437477,7.60660845 7.74061841,7.29656704 7.70143248,6.90116333 C7.66254193,6.50822105 7.9221733,6.16795331 8.33283786,6.07382832 C8.37665127,6.06388415 8.42115388,6.0575829 8.46575495,6.05157702 C8.48928619,6.04832793 8.51271898,6.04527576 8.53605332,6.04114056 C8.84786695,5.98590613 9.00923814,5.80435124 9.0295203,5.48584252 C9.05856514,5.03225066 9.40178659,4.70025332 9.83263486,4.71502189 C10.2790393,4.72988891 10.606803,5.09201412 10.5948897,5.55751929 C10.5666325,6.66900149 9.61179559,7.60700228 8.50927298,7.60710073" id="Fill-40" fill="#69848E"></path>
                <path d="M21.4349573,20.7673197 C21.1149717,20.7597385 20.8633154,21.0126748 20.8429348,21.3623944 C20.8194035,21.7651824 20.5749346,22.0339703 20.1800231,22.0918631 C20.1234103,22.1001335 20.0665021,22.1070255 20.0105785,22.1190372 C19.6831101,22.1888433 19.4835376,22.4412873 19.5144531,22.744929 C19.5452702,23.0475862 19.8264637,23.2767943 20.1536366,23.2658655 C21.1621327,23.2321932 21.992126,22.400723 22.0132943,21.4030572 C22.0207771,21.0503839 21.7704991,20.7752948 21.4349573,20.7673197" id="Fill-42" fill="#69848E"></path>
                <path d="M21.4212127,20.964037 C21.2133698,20.964037 21.0534754,21.1348601 21.0394945,21.3738155 C21.0102528,21.8734852 20.6996206,22.2147375 20.2086151,22.2867097 L20.1712014,22.2920264 C20.1311293,22.2976384 20.0911558,22.303152 20.0516745,22.3116193 C19.8237463,22.3601587 19.6897462,22.522416 19.7103237,22.7250407 C19.7307043,22.9254994 19.9217111,23.0770248 20.1470794,23.0690498 C21.048651,23.0389219 21.7975157,22.2897619 21.8164195,21.398922 C21.8215393,21.1564222 21.6555406,20.9695506 21.4302708,20.9641355 C21.427317,20.9641355 21.4242649,20.964037 21.4212127,20.964037 M20.1310309,23.4631736 C19.712982,23.4631736 19.3589303,23.1614026 19.3185629,22.7648174 C19.2775063,22.3615371 19.5452111,22.0168388 19.9695612,21.9263567 C20.0180021,21.9161172 20.0671322,21.9090283 20.1162623,21.9020378 L20.15151,21.8971149 C20.4525918,21.8529077 20.6283377,21.6589472 20.6463553,21.350875 C20.6729388,20.8959047 21.0144864,20.5574092 21.4396242,20.570504 C21.8814012,20.5809404 22.2198967,20.9485792 22.2101494,21.4072909 C22.1869136,22.5037091 21.2673243,23.4257599 20.1601742,23.4626813 C20.1504269,23.4629767 20.1406797,23.4631736 20.1310309,23.4631736" id="Fill-44" fill="#69848E"></path>
            </g>
        </g>
    </g>
</svg>