<?xml version="1.0" encoding="UTF-8" standalone="no"?>
<svg width="32px" height="33px" viewBox="0 0 32 33" version="1.1" xmlns="http://www.w3.org/2000/svg" xmlns:xlink="http://www.w3.org/1999/xlink">
    <!-- Generator: Sketch 47.1 (45422) - http://www.bohemiancoding.com/sketch -->
    <title>Page 1</title>
    <desc>Created with Sketch.</desc>
    <defs>
        <polygon id="path-1" points="20.368583 0.00636343514 0.0170170889 0.00636343514 0.0170170889 20.3484646 20.368583 20.3484646 20.368583 0.00636343514"></polygon>
        <polygon id="path-3" points="30.3180884 18.8593357 30.3180884 0.0244110572 0 0.0244110572 6.23426223e-21 18.8593357"></polygon>
        <polygon id="path-5" points="0 32.5008233 30.3180884 32.5008233 30.3180884 0.0766678932 0 0.0766678932"></polygon>
    </defs>
    <g id="Page-1" stroke="none" stroke-width="1" fill="none" fill-rule="evenodd">
        <g id="Tracker-page-5" transform="translate(-142.000000, -281.000000)">
            <g id="Page-1" transform="translate(142.775400, 281.220000)">
                <g id="Group-3" transform="translate(4.753409, 0.070304)">
                    <mask id="mask-2" fill="white">
                        <use xlink:href="#path-1"></use>
                    </mask>
                    <g id="Clip-2"></g>
                    <path d="M17.6210342,14.9496412 C17.5664467,14.9387543 17.5468197,14.9314709 17.5271927,14.9314709 C16.9300265,14.9304742 16.3327836,14.9317775 15.7356174,14.9287875 C15.6131788,14.9281742 15.5697081,14.999782 15.5373542,15.1002169 C15.2108257,16.1136898 14.7382448,17.0560149 14.1485154,17.9409924 C14.1332584,17.9637627 14.1225249,17.9895998 14.0916278,18.0487107 C15.5727748,17.334626 16.7208765,16.3070462 17.6210342,14.9496412 L17.6210342,14.9496412 Z M17.6233343,5.43392893 C16.7152797,4.06019362 15.5633447,3.02088366 14.0736108,2.28893529 C14.1209916,2.37503333 14.1429953,2.42233742 14.1712857,2.46534811 C14.7461416,3.33951543 15.2097523,4.26773361 15.5271574,5.26625625 C15.5690947,5.39804836 15.6602529,5.43500228 15.7851449,5.43446561 C16.1184202,5.43277891 16.4518489,5.43392893 16.7852009,5.43392893 L17.6233343,5.43392893 Z M2.78188684,5.38984489 C2.82045079,5.41445529 2.82911426,5.42488212 2.83793107,5.42495879 C3.45112088,5.42787217 4.06438736,5.43323892 4.67757717,5.42641548 C4.73132136,5.42580214 4.81488936,5.35480767 4.83305965,5.29953012 C5.16733167,4.28268385 5.63929922,3.33391867 6.22481192,2.43989437 C6.24574225,2.40807719 6.2609225,2.37257996 6.29810643,2.30219883 C4.81787941,3.02280036 3.67016105,4.05038013 2.78188684,5.38984489 L2.78188684,5.38984489 Z M6.29296968,18.0333772 C6.25846912,17.9758762 6.22534859,17.9173786 6.18923802,17.8610277 C5.63584916,16.9983606 5.16924837,16.0934495 4.86334347,15.1120238 C4.81856942,14.9681948 4.73852814,14.918744 4.59278248,14.9202007 C4.06530737,14.9257208 3.5377556,14.9218874 3.01028049,14.9231141 C2.93713932,14.9232674 2.86399815,14.9321609 2.75413306,14.9394443 C3.65927421,16.3100363 4.81565604,17.3446695 6.29296968,18.0333772 L6.29296968,18.0333772 Z M19.0039697,10.8830228 C18.9568189,10.873976 18.9362719,10.8666158 18.9158783,10.8666158 C18.087405,10.8657725 17.2589318,10.8673059 16.4306119,10.8636258 C16.3234301,10.8630891 16.31239,10.9174467 16.3023465,11.0019347 C16.2325787,11.5885974 16.1575975,12.1746468 16.0860663,12.7611562 C16.0544025,13.0198336 16.0269554,13.2790478 15.9960582,13.5524455 C16.7589804,13.5524455 17.500359,13.5552822 18.2416608,13.5463887 C18.293565,13.5457754 18.3739896,13.4675741 18.3913166,13.4103032 C18.5493291,12.8870448 18.7087216,12.3634798 18.8420471,11.8334746 C18.919865,11.5241197 18.9511455,11.2030346 19.0039697,10.8830228 L19.0039697,10.8830228 Z M16.0024217,6.79547405 C16.0024217,6.83534135 15.9997383,6.8614851 16.002805,6.88678551 C16.1006332,7.68666164 16.2059749,8.48561775 16.2917663,9.28679724 C16.3094766,9.45186321 16.3603841,9.48559709 16.5141032,9.48406373 C17.2726553,9.47632027 18.0312841,9.48053701 18.7898363,9.48053701 L18.9769826,9.48053701 C18.919405,8.60353297 18.7148551,7.78962662 18.4267371,6.99312388 C18.3693129,6.834268 18.2806848,6.78121382 18.1161555,6.78305385 C17.481422,6.7905673 16.8464585,6.78589056 16.2116484,6.78658057 C16.1431073,6.78658057 16.0744895,6.792254 16.0024217,6.79547405 L16.0024217,6.79547405 Z M1.35709071,9.49188385 C1.45330892,9.49188385 1.50559642,9.49180719 1.55773059,9.49180719 C2.33813307,9.49180719 3.11853556,9.48774379 3.89886137,9.49564058 C4.04299701,9.49709727 4.07903092,9.4445031 4.09344449,9.3153177 C4.14925871,8.813373 4.21565311,8.31257832 4.27668075,7.81124697 C4.31685473,7.48149836 4.354422,7.15144308 4.39359929,6.81855108 C4.35687537,6.80988761 4.33671171,6.80099414 4.31654806,6.80091747 C3.61151011,6.79999745 2.90647217,6.80007412 2.20143422,6.79961412 C2.09080245,6.79953745 2.02249136,6.84783822 1.98983083,6.95816332 C1.88617584,7.30776891 1.76120718,7.65193108 1.67441912,8.00567674 C1.55612056,8.48822446 1.46542244,8.97751896 1.35709071,9.49188385 L1.35709071,9.49188385 Z M1.41796502,10.8729026 C1.41796502,10.9343136 1.41451496,10.9772476 1.41842503,11.019645 C1.49279288,11.8314813 1.68768267,12.6148738 1.96813382,13.3790994 C2.02034466,13.521165 2.09823923,13.5798159 2.25287838,13.5782826 C2.91950571,13.5716891 3.58620971,13.5755992 4.25299037,13.5751392 C4.30037113,13.5750625 4.34775189,13.5706924 4.40594282,13.5677791 C4.29193766,12.6616412 4.17915919,11.7657002 4.06676406,10.8729026 L1.41796502,10.8729026 Z M6.21116503,14.9510979 C6.23654211,15.0206356 6.25233569,15.0758365 6.27617941,15.1273573 C6.50158301,15.6144285 6.7217732,16.1040296 6.95622362,16.586654 C7.33825973,17.3725766 7.89762868,18.0086134 8.61853688,18.5014347 C8.88104775,18.6809909 9.1634156,18.8202198 9.48227737,18.8906009 L9.48227737,14.9510979 L6.21116503,14.9510979 Z M6.19997152,5.39766502 L9.49607759,5.39766502 L9.49607759,1.4524119 C9.39180925,1.48629911 9.30486786,1.50906948 9.22206654,1.54219001 C8.68324458,1.75785679 8.23082735,2.09343216 7.83652437,2.51817229 C7.0675454,3.34641554 6.59588452,4.34118145 6.19997152,5.39766502 L6.19997152,5.39766502 Z M10.8862198,18.9098445 C10.9924049,18.8748073 11.0793463,18.8495836 11.1637576,18.8178431 C11.9459234,18.523515 12.4937922,17.9445191 12.9906002,17.3061055 C13.5321822,16.6104977 13.8545706,15.8011148 14.1786458,14.9931885 C14.1839359,14.9800017 14.1792592,14.962828 14.1792592,14.9517112 L10.8862198,14.9517112 L10.8862198,18.9098445 Z M10.8854531,1.45547862 C10.8816964,1.49902598 10.8766363,1.52992314 10.8766363,1.5608203 C10.8761763,2.78765993 10.877863,4.01449956 10.874183,5.24133919 C10.873723,5.39291161 10.938354,5.43599897 11.0790396,5.43553896 C12.0583186,5.43231891 13.0376742,5.43415894 14.0169532,5.43308559 C14.0735342,5.43300892 14.1300384,5.42212208 14.190836,5.41591198 C14.1847026,5.38317479 14.1843959,5.36722787 14.1787992,5.35335098 C14.1226783,5.21404542 14.0640273,5.07565987 14.0094398,4.93581763 C13.5974265,3.88102076 13.0362176,2.92497213 12.1788405,2.16442663 C11.8040112,1.83191797 11.378811,1.59271415 10.8854531,1.45547862 L10.8854531,1.45547862 Z M14.9342846,10.9014997 L10.8892865,10.9014997 L10.8892865,13.5602656 C10.918957,13.5648657 10.939504,13.5708458 10.9598977,13.5708458 C12.106006,13.5731458 13.252191,13.5743725 14.3982993,13.5775926 C14.5507151,13.5779759 14.6025426,13.4877378 14.6228596,13.3568657 C14.6703937,13.0491974 14.728968,12.7429859 14.7668419,12.4340909 C14.8290196,11.9283895 14.8782404,11.4210781 14.9342846,10.9014997 L14.9342846,10.9014997 Z M9.49362421,9.47532359 L9.49362421,6.78926395 C8.32290549,6.78926395 7.16583364,6.78696391 6.0087618,6.79133398 C5.80996195,6.79210066 5.77063132,6.84852823 5.74310755,7.05936494 C5.68269325,7.52305236 5.61859889,7.98627977 5.5567279,8.44973718 C5.51157051,8.78822593 5.46756314,9.12686801 5.42171574,9.47532359 L9.49362421,9.47532359 Z M9.48787412,10.8819494 L5.46625978,10.8819494 C5.46257972,10.9193634 5.4549896,10.9458904 5.45820966,10.9711142 C5.5569579,11.7545834 5.65263943,12.5385893 5.7587478,13.3211384 C5.78903161,13.5440887 5.83135229,13.5655557 6.05652589,13.5655557 C7.14413663,13.5657857 8.23167069,13.5656324 9.31935809,13.5656324 L9.48787412,13.5656324 L9.48787412,10.8819494 Z M14.9225544,9.49403055 C14.9225544,9.43936635 14.9264645,9.40210575 14.9220177,9.36576517 C14.8274095,8.59862623 14.7293513,7.83187063 14.6380398,7.06434835 C14.6113594,6.8404781 14.5518651,6.79524405 14.3087512,6.79578072 C13.2326407,6.7984641 12.1566068,6.79693074 11.0804196,6.79693074 L10.8912032,6.79693074 L10.8912032,9.49403055 L14.9225544,9.49403055 Z M10.2076323,0.0065321045 C15.7071736,-0.026818429 20.3655915,4.50923747 20.3685815,10.1370442 C20.3716482,15.9039264 15.6999668,20.4321622 10.0584366,20.3472909 C7.29823909,20.3058135 4.89148059,19.3011575 2.94871617,17.313159 C0.866646198,15.1827116 -0.124746329,12.5948635 0.0333428668,9.62842937 C0.312950673,4.37828871 4.59523585,0.0368159223 10.2076323,0.0065321045 L10.2076323,0.0065321045 Z" id="Fill-1" fill="#71869E" mask="url(#mask-2)"></path>
                </g>
                <g id="Group-6" transform="translate(0.000000, 9.423787)">
                    <mask id="mask-4" fill="white">
                        <use xlink:href="#path-3"></use>
                    </mask>
                    <g id="Clip-5"></g>
                    <path d="M3.80921361,1.55776892 C2.55431353,1.55776892 1.5333272,2.57867859 1.5333272,3.833732 L1.5333272,15.0500148 C1.5333272,16.3049915 2.55431353,17.3259779 3.80921361,17.3259779 L26.5088901,17.3259779 C27.7637902,17.3259779 28.7847765,16.3049915 28.7847765,15.0500148 L28.7847765,3.833732 C28.7847765,2.57867859 27.7637902,1.55776892 26.5088901,1.55776892 L3.80921361,1.55776892 Z M26.5088901,18.8593357 L3.80921361,18.8593357 C1.70882,18.8593357 -3.06671573e-05,17.150485 -3.06671573e-05,15.0500148 L-3.06671573e-05,3.833732 C-3.06671573e-05,1.73326173 1.70882,0.0244110572 3.80921361,0.0244110572 L26.5088901,0.0244110572 C28.6093604,0.0244110572 30.3181344,1.73326173 30.3181344,3.833732 L30.3181344,15.0500148 C30.3181344,17.150485 28.6093604,18.8593357 26.5088901,18.8593357 L26.5088901,18.8593357 Z" id="Fill-4" fill="#71869E" mask="url(#mask-4)"></path>
                </g>
                <mask id="mask-6" fill="white">
                    <use xlink:href="#path-5"></use>
                </mask>
                <g id="Clip-8"></g>
                <polygon id="Fill-7" fill="#71869E" mask="url(#mask-6)" points="14.1016789 32.0403559 15.6350368 32.0403559 15.6350368 27.5164135 14.1016789 27.5164135"></polygon>
                <path d="M20.5419813,32.5008233 L9.19459643,32.5008233 C8.77123632,32.5008233 8.4279175,32.1575045 8.4279175,31.7341444 C8.4279175,31.3107843 8.77123632,30.9674654 9.19459643,30.9674654 L20.5419813,30.9674654 C20.9653414,30.9674654 21.3086602,31.3107843 21.3086602,31.7341444 C21.3086602,32.1575045 20.9653414,32.5008233 20.5419813,32.5008233" id="Fill-9" fill="#71869E" mask="url(#mask-6)"></path>
            </g>
        </g>
    </g>
</svg>