<?xml version="1.0" encoding="UTF-8" standalone="no"?>
<svg width="26px" height="30px" viewBox="0 0 26 30" version="1.1" xmlns="http://www.w3.org/2000/svg" xmlns:xlink="http://www.w3.org/1999/xlink">
    <!-- Generator: Sketch 47 (45396) - http://www.bohemiancoding.com/sketch -->
    <title>Fingerprinting - icon</title>
    <desc>Created with Sketch.</desc>
    <defs>
        <polygon id="path-1" points="22.6743124 21.7290495 0.0466802538 21.7290495 0.0466802538 0.0173190828 22.6743124 0.0173190828"></polygon>
        <polygon id="path-3" points="24.7242349 0.0405987343 24.7242349 7.69057427 3.1266416e-06 7.69057427 3.1266416e-06 0.0405987343 24.7242349 0.0405987343"></polygon>
    </defs>
    <g id="Page-1" stroke="none" stroke-width="1" fill="none" fill-rule="evenodd">
        <g id="Fingerprinting---icon">
            <g id="Page-1" transform="translate(0.797303, 0.933438)">
                <g id="Group-3" transform="translate(1.093585, 6.950015)">
                    <mask id="mask-2" fill="white">
                        <use xlink:href="#path-1"></use>
                    </mask>
                    <g id="Clip-2"></g>
                    <path d="M1.54507331,11.1208562 C1.57022575,13.0714782 1.85546113,14.6454317 2.33716135,16.187481 C2.52459223,16.7876211 2.13104443,17.28815 1.52890727,17.2136912 C1.20706059,17.1738942 1.00893159,16.9757177 0.911697664,16.6668038 C0.23224883,14.5082106 -0.117412943,12.3048754 0.121986979,10.0430573 C0.487814784,6.58742524 2.06024672,3.82355671 4.97721709,1.88667584 C6.86540968,0.632904925 8.9685154,0.0231602188 11.2312369,0.017359466 C16.8332426,0.00300022543 21.3527898,3.8195152 22.4456612,9.00210747 C22.6439804,9.94282792 22.7541947,10.8980978 22.6055147,11.8567435 C22.3136227,13.7387074 20.8026693,15.1829522 18.9141914,15.4153152 C16.6997302,15.6878555 14.6954275,14.3217306 14.1715054,12.1548166 C14.0629077,11.7057338 14.0736534,11.2291686 13.995153,10.7711944 C13.7487161,9.33351113 12.3328094,8.34609938 10.8878038,8.53643064 C9.40556885,8.73161171 8.30528015,10.1322082 8.45995104,11.7606507 C8.83966262,15.7577022 10.975148,18.4453051 14.6438388,19.9695718 C14.9131935,20.0815454 15.1948153,20.1639446 15.4709691,20.2594193 C15.9140611,20.4126162 16.1340142,20.7935164 16.0125788,21.1985231 C15.8877675,21.6147984 15.478862,21.8290935 15.0242161,21.6834565 C10.8258023,20.3387279 8.13021153,17.5726247 7.12867827,13.2463091 C6.87743911,12.1611879 6.80293272,11.0465876 7.19823976,9.96531772 C7.7940056,8.33559146 8.93561277,7.30548236 10.665616,7.06118508 C13.1841887,6.70543728 15.2571496,8.52131064 15.5240793,10.774285 C15.5812785,11.2574592 15.5585985,11.7485737 15.7516875,12.2181494 C16.1961108,13.2992766 17.3525051,14.0113904 18.5004836,13.9557126 C19.9546182,13.8852478 21.2714842,12.6565817 21.1615552,10.9388457 C20.9074632,6.96789757 18.9757174,4.10931511 15.3955118,2.3918168 C13.8137606,1.63305931 12.1195604,1.41239297 10.3734387,1.56093028 C8.50445518,1.71983287 6.81234705,2.35496776 5.31637094,3.47570173 C3.32352706,4.96863483 2.14740066,6.97536247 1.73022192,9.42142582 C1.61610875,10.0903192 1.58163707,10.772811 1.54507331,11.1208562" id="Fill-1" fill="#69848E" mask="url(#mask-2)"></path>
                </g>
                <path d="M4.59958332,18.5869243 C4.60538408,16.4780654 5.12089032,14.6388464 6.47517592,13.1013141 C7.51778992,11.9176752 8.82861741,11.1467932 10.3368607,10.7108809 C14.405328,9.5349922 18.69275,11.9695016 19.8426304,16.1023478 C20.0366228,16.7995793 20.1298628,17.5084598 20.1475028,18.2333161 C20.1580107,18.6644737 19.8741066,19.054408 19.3999189,19.0698608 C18.9612488,19.0841725 18.6644595,18.7393605 18.6433485,18.2480558 C18.526858,15.5382483 17.3085097,13.5187305 14.7996366,12.4167777 C12.8387919,11.5555561 10.9010552,11.7935771 9.07481658,12.8817888 C7.25870547,13.9639621 6.32882578,15.606003 6.14624471,17.6879978 C5.95824326,19.8315186 6.49728534,21.8303535 7.40795599,23.7446019 C8.00077391,24.9906226 8.75311253,26.1267619 9.79857936,27.0508408 C10.1496675,27.3611335 10.1703506,27.8036074 9.88012273,28.1267854 C9.59864357,28.4400736 9.11684826,28.4480615 8.77503177,28.1431891 C7.34971073,26.8717782 6.39491632,25.2821818 5.67034524,23.5387703 C4.99878923,21.9230229 4.61584445,20.2448936 4.59958332,18.5869243" id="Fill-4" fill="#69848E"></path>
                <g id="Group-8" transform="translate(0.000000, 3.479073)">
                    <mask id="mask-4" fill="white">
                        <use xlink:href="#path-3"></use>
                    </mask>
                    <g id="Clip-7"></g>
                    <path d="M23.9803169,7.65794942 C23.6936551,7.61349283 23.4837344,7.49990268 23.3375269,7.28251709 C21.4099177,4.41580406 18.7154681,2.64956993 15.3804631,1.89575734 C11.2123845,0.953705575 7.39948309,1.77503512 4.037614,4.45707499 C3.01810792,5.27041661 2.15065764,6.24009328 1.40906467,7.31770198 C1.08826402,7.78385428 0.507047608,7.81685201 0.161046966,7.39458573 C-0.0451174947,7.14301374 -0.062186923,6.7986297 0.161379796,6.49356716 C0.516747227,6.00868128 0.872732771,5.52094257 1.26861038,5.06962498 C3.38987912,2.65142426 6.00620883,1.04994101 9.15986893,0.362028787 C10.568596,0.0547315293 11.9945827,-0.0206307102 13.4339302,0.0867307641 C16.426976,0.309964653 19.1160528,1.33479602 21.5050596,3.14006637 C22.7086683,4.04959588 23.7285072,5.14137364 24.5564933,6.40612794 C24.8094442,6.79244857 24.7768268,7.17163712 24.4552654,7.42644232 C24.3204692,7.53328078 24.1399802,7.58253963 23.9803169,7.65794942" id="Fill-6" fill="#69848E" mask="url(#mask-4)"></path>
                </g>
                <path d="M12.4529183,0.00016641504 C15.3838675,0.0179015036 18.1378938,0.688554114 20.6456258,2.24529549 C20.8358619,2.36340262 21.0180626,2.55268784 21.1128717,2.7521957 C21.2466218,3.03353221 21.1072611,3.3754438 20.8686695,3.55464903 C20.5972703,3.75853122 20.2907338,3.76295311 19.9794426,3.5901192 C19.4477228,3.29480383 18.9245139,2.97861525 18.372539,2.72633005 C16.690701,1.95777785 14.9147673,1.58400967 13.0687015,1.51188064 C10.9121527,1.42767463 8.82392926,1.74681113 6.83122803,2.58116859 C6.15605844,2.86383642 5.51897412,3.23912611 4.87142942,3.58512675 C4.53831406,3.76319084 4.21038134,3.75805575 3.94321388,3.53234941 C3.71051811,3.33569438 3.59516871,2.98931336 3.7365264,2.71762892 C3.82943354,2.53899426 3.99280556,2.37196111 4.16483116,2.2634585 C5.3697236,1.50341724 6.67070884,0.957005347 8.04368046,0.582619055 C9.48635622,0.189308995 10.9560388,-0.00634754509 12.4529183,0.00016641504" id="Fill-9" fill="#69848E"></path>
                <path d="M19.6290581,25.669596 C17.7413885,25.6588503 16.1797973,25.3936798 14.8021661,24.4635624 C13.435756,23.5409574 12.591271,22.2256605 12.0491383,20.6972572 C11.7613354,19.8857699 11.6137966,19.0476563 11.6193596,18.1845803 C11.6224026,17.7031178 11.9389716,17.3637738 12.3840605,17.3669594 C12.8164067,17.3699549 13.1237516,17.7087284 13.1325953,18.179683 C13.1680655,20.0635012 13.8536004,21.6644614 15.2584286,22.9287403 C16.0043008,23.600011 16.9266205,23.9096381 17.9026685,24.0663059 C18.8396802,24.2167451 19.7799252,24.1996282 20.7195045,24.0890335 C21.1335927,24.0402501 21.5302786,24.2995247 21.5990793,24.6752899 C21.6753925,25.0923735 21.4325692,25.485113 20.9975603,25.5477326 C20.4583756,25.6252345 19.9110603,25.6461077 19.6290581,25.669596" id="Fill-11" fill="#69848E"></path>
            </g>
        </g>
    </g>
</svg>