<svg width="120" height="120" viewBox="0 0 120 120" fill="none" xmlns="http://www.w3.org/2000/svg">
	<rect width="120" height="120" fill="#2F3136" />
	<circle cx="60" cy="60" r="57" fill="#202225" />
	<g filter="url(#filter0_d_218_2210)">
		<path d="M56.7789 40.047C56.9074 39.8287 57.1175 39.6704 57.3627 39.607L66.4657 37.2528C66.7109 37.1894 66.9713 37.226 67.1896 37.3546L75.291 42.1266C75.5093 42.2552 75.6675 42.4652 75.731 42.7105L78.0851 51.8134C78.1486 52.0587 78.112 52.3191 77.9834 52.5374L73.2113 60.6388C73.0827 60.8571 72.8727 61.0153 72.6275 61.0787L63.5245 63.4329C63.2793 63.4964 63.0189 63.4598 62.8006 63.3312L54.6992 58.5591C54.4809 58.4305 54.3226 58.2205 54.2592 57.9752L51.905 48.8723C51.8416 48.627 51.8782 48.3666 52.0068 48.1484L56.7789 40.047Z" fill="#D4D6D9" />
		<path d="M51.1779 47.6601L52.0068 48.1484L51.1779 47.6601C50.9198 48.0982 50.8464 48.6209 50.9737 49.1132L53.3279 58.2161C53.4552 58.7084 53.7728 59.1299 54.2109 59.388L62.3123 64.1601L62.8006 63.3312L62.3123 64.1601C62.7504 64.4181 63.2731 64.4916 63.7654 64.3643L72.8683 62.0101C73.3606 61.8828 73.7821 61.5651 74.0402 61.127L78.8123 53.0256C79.0703 52.5875 79.1438 52.0648 79.0165 51.5726L76.6623 42.4696C76.535 41.9774 76.2174 41.5558 75.7792 41.2978L67.6778 36.5257C67.2397 36.2676 66.7171 36.1942 66.2248 36.3215L57.1219 38.6756C56.6296 38.803 56.2081 39.1206 55.95 39.5587L51.1779 47.6601Z" stroke="#121317" stroke-width="1.92397" stroke-linejoin="round" />
	</g>
	<path d="M59.8327 47.0872L59.8149 57.0453L57.3408 57.7082L57.9547 45.4267L59.5 45.0126L59.8327 47.0872ZM64.2988 55.8438L59.2883 47.2331L58.5151 45.2765L60.0845 44.856L66.7889 55.1766L64.2988 55.8438ZM63.2571 51.604L63.7627 53.4908L58.5022 54.9004L57.9966 53.0135L63.2571 51.604Z" fill="#121317" />
	<path d="M70.9445 54.0631L68.8867 54.6145L68.3992 52.7311L70.441 52.1841C71.0068 52.0324 71.4208 51.8161 71.6831 51.535C71.9453 51.2539 72.0836 50.884 72.098 50.4252C72.1177 49.9649 72.0353 49.3906 71.8508 48.7021L71.3785 46.9395C71.2384 46.4167 71.0852 45.9834 70.9187 45.6397C70.7508 45.2907 70.5543 45.0271 70.3292 44.8489C70.1027 44.6655 69.8361 44.5566 69.5294 44.5223C69.2227 44.4879 68.8638 44.5258 68.4528 44.636L66.323 45.2067L65.8174 43.3198L67.9472 42.7492C68.6198 42.5689 69.2594 42.5113 69.8661 42.5762C70.4728 42.6411 71.0284 42.8251 71.533 43.1282C72.0362 43.4261 72.4743 43.8441 72.8473 44.3822C73.2203 44.9203 73.5088 45.5698 73.7127 46.3308L74.1808 48.0778C74.3861 48.8439 74.461 49.5506 74.4056 50.198C74.3502 50.8453 74.1798 51.4263 73.8944 51.9411C73.6129 52.4493 73.223 52.8839 72.7248 53.2449C72.2265 53.6058 71.6331 53.8786 70.9445 54.0631ZM67.2186 42.9444L70.2479 54.2498L67.9019 54.8784L64.8726 43.573L67.2186 42.9444Z" fill="#121317" />
	<g filter="url(#filter1_d_218_2210)">
		<path d="M73.8148 66.1998C73.9921 66.1227 74.1928 66.1191 74.3728 66.19L81.0517 68.8206C81.2316 68.8915 81.3761 69.0309 81.4532 69.2083L84.3158 75.7911C84.3929 75.9685 84.3964 76.1692 84.3255 76.3492L81.695 83.0281C81.6241 83.208 81.4846 83.3524 81.3073 83.4296L74.7245 86.2921C74.5471 86.3693 74.3464 86.3728 74.1664 86.3019L67.4875 83.6713C67.3076 83.6004 67.1631 83.461 67.086 83.2836L64.2234 76.7008C64.1463 76.5235 64.1428 76.3227 64.2137 76.1428L66.8443 69.4639C66.9151 69.2839 67.0546 69.1395 67.2319 69.0624L73.8148 66.1998Z" fill="#D4D6D9" />
		<path d="M63.3412 77.0844L64.2234 76.7008L63.3412 77.0844L66.2038 83.6672C66.3827 84.0786 66.7176 84.402 67.135 84.5664L73.8139 87.197C74.2312 87.3613 74.6967 87.3532 75.1081 87.1743L81.6909 84.3117C82.1022 84.1329 82.4256 83.7979 82.59 83.3806L85.2206 76.7017C85.385 76.2844 85.3768 75.8188 85.198 75.4075L82.3354 68.8247C82.1565 68.4134 81.8216 68.0899 81.4042 67.9256L74.7253 65.295C74.308 65.1306 73.8425 65.1387 73.4311 65.3176L66.8483 68.1802C66.437 68.3591 66.1136 68.694 65.9492 69.1113L63.3186 75.7902C63.1542 76.2076 63.1624 76.6731 63.3412 77.0844Z" stroke="#121317" stroke-width="1.92397" stroke-linejoin="round" />
	</g>
	<path d="M72.5426 71.9165L68.0632 78.0593L66.2376 77.3585L72.1277 70.0482L73.268 70.4858L72.5426 71.9165ZM71.3718 79.3292L72.1409 71.7623L72.5413 70.2069L73.6993 70.6514L73.2093 80.0344L71.3718 79.3292ZM72.6309 76.243L72.0965 77.6353L68.2148 76.1454L68.7492 74.7531L72.6309 76.243Z" fill="#121317" />
	<path d="M76.2757 81.2114L74.7572 80.6286L75.3012 79.2466L76.8078 79.8248C77.2254 79.9851 77.5782 80.0372 77.8663 79.9813C78.1544 79.9253 78.4058 79.7589 78.6205 79.4819C78.8392 79.2065 79.0461 78.8148 79.2411 78.3068L79.7403 77.0062C79.8883 76.6204 79.9881 76.284 80.0395 75.997C80.0924 75.7061 80.0893 75.4551 80.0302 75.244C79.9726 75.0291 79.8568 74.8422 79.6828 74.6834C79.5088 74.5245 79.2701 74.3869 78.9668 74.2705L77.3952 73.6673L77.9296 72.275L79.5012 72.8782C79.9975 73.0687 80.4184 73.3201 80.764 73.6325C81.1096 73.9448 81.3702 74.3078 81.5459 74.7214C81.723 75.1312 81.806 75.586 81.795 76.0857C81.7839 76.5854 81.6707 77.1161 81.4552 77.6775L80.9604 78.9667C80.7434 79.532 80.4725 80.0021 80.1479 80.3771C79.8232 80.7521 79.4572 81.0345 79.0499 81.2244C78.648 81.412 78.2122 81.5054 77.7424 81.5048C77.2727 81.5042 76.7838 81.4064 76.2757 81.2114ZM78.9635 72.6719L75.7616 81.0141L74.0305 80.3496L77.2324 72.0075L78.9635 72.6719Z" fill="#121317" />
	<g filter="url(#filter2_d_218_2210)">
		<path d="M51.6021 66.7945C54.399 67.8101 56.0692 70.6878 55.4131 73.5901C54.8991 75.864 54.229 78.4889 53.4912 80.5206C52.7535 82.5523 51.5831 84.9956 50.5184 87.0694C49.1594 89.7165 46.0318 90.852 43.2349 89.8364L32.3354 85.8785C29.5329 84.8609 27.8625 81.9742 28.5249 79.0673C29.0427 76.7952 29.715 74.1758 30.4493 72.1535C31.1837 70.1312 32.3488 67.6908 33.4095 65.6158C34.7666 62.9611 37.9 61.8189 40.7025 62.8366L51.6021 66.7945Z" fill="#D4D6D9" />
		<path d="M56.3454 73.8009C57.1134 70.4036 55.1528 67.067 51.9283 65.8961L41.0287 61.9381C37.7977 60.7649 34.1467 62.074 32.5584 65.1808C31.4934 67.2642 30.3062 69.7474 29.5509 71.8273C28.7957 73.9071 28.1129 76.5735 27.593 78.8549C26.8177 82.2569 28.7781 85.6036 32.0091 86.7769L42.9087 90.7348C46.1332 91.9057 49.7779 90.6045 51.3687 87.506C52.4379 85.4234 53.6307 82.9369 54.3897 80.8468C55.1486 78.7568 55.8292 76.0843 56.3454 73.8009Z" stroke="#121317" stroke-width="1.91161" stroke-linejoin="round" />
	</g>
	<g clip-path="url(#clip0_218_2210)">
		<path d="M49.9266 78.3852C49.7857 78.1671 49.5527 78.0252 49.2931 77.9987C49.0426 77.9746 48.8438 77.9331 48.6661 77.8684C47.3422 77.3865 46.6569 75.917 47.118 74.6426C47.1319 74.6169 47.1704 74.5384 47.1811 74.5115C47.2839 74.2615 47.2612 73.9777 47.1212 73.7473C46.9807 73.5157 46.7399 73.3628 46.4705 73.3409C46.2135 73.3172 46.0101 73.2758 45.8292 73.2099C44.5053 72.7281 43.82 71.2585 44.3019 69.9346C44.3651 69.7609 44.4561 69.5882 44.5897 69.3903C44.7439 69.1609 44.7769 68.871 44.6789 68.6124C44.5814 68.3548 44.3718 68.1661 44.0958 68.0901C39.8298 66.987 35.4753 69.2801 33.9667 73.4248C32.3603 77.8384 34.6441 82.7362 39.0578 84.3426C43.4715 85.949 48.3692 83.6652 49.9756 79.2515C49.9899 79.2123 50.0015 79.173 50.0167 79.1214C50.0999 78.8752 50.0672 78.6041 49.9266 78.3852ZM39.6405 82.7417C36.1097 81.4566 34.2825 77.5382 35.5676 74.0074C36.6523 71.0274 39.5757 69.2441 42.633 69.5538C41.9681 71.7067 43.1069 74.0321 45.2465 74.8108C45.273 74.8204 45.2994 74.8301 45.3277 74.8394C45.0375 76.7825 46.1311 78.7315 48.0341 79.4504C46.4902 82.4619 42.9007 83.9283 39.6405 82.7417Z" fill="#121317" />
		<path d="M42.0796 77.2832C42.7427 77.5245 43.4759 77.1826 43.7173 76.5195C43.9586 75.8564 43.6167 75.1232 42.9536 74.8818C42.2905 74.6405 41.5573 74.9824 41.3159 75.6455C41.0746 76.3086 41.4165 77.0418 42.0796 77.2832Z" fill="#121317" />
		<path d="M39.7524 73.7169C40.4155 73.9582 41.1488 73.6163 41.3901 72.9532C41.6315 72.2901 41.2896 71.5569 40.6264 71.3155C39.9633 71.0742 39.2301 71.4161 38.9888 72.0792C38.7474 72.7423 39.0893 73.4755 39.7524 73.7169Z" fill="#121317" />
		<path d="M37.7856 76.625C38.4487 76.8663 39.182 76.5244 39.4233 75.8613C39.6647 75.1982 39.3228 74.465 38.6597 74.2236C37.9965 73.9823 37.2633 74.3242 37.022 74.9873C36.7806 75.6504 37.1225 76.3836 37.7856 76.625Z" fill="#121317" />
		<path d="M43.3159 81.3573C43.979 81.5986 44.7122 81.2567 44.9536 80.5936C45.1949 79.9305 44.853 79.1973 44.1899 78.9559C43.5268 78.7146 42.7936 79.0565 42.5523 79.7196C42.3109 80.3827 42.6528 81.1159 43.3159 81.3573Z" fill="#121317" />
		<path d="M39.022 80.7027C39.6851 80.9441 40.4183 80.6022 40.6596 79.9391C40.901 79.276 40.5591 78.5427 39.896 78.3014C39.2329 78.06 38.4997 78.4019 38.2583 79.065C38.017 79.7282 38.3589 80.4614 39.022 80.7027Z" fill="#121317" />
	</g>
	<g filter="url(#filter3_d_218_2210)">
		<path d="M59.3525 21.7856C64.0215 26.0521 65.1152 33.1935 61.0516 38.0401C60.7394 38.4125 60.4303 38.7676 60.1282 39.0982C59.8262 39.4288 59.5002 39.7685 59.1574 40.113C54.6958 44.5958 47.4851 44.1487 42.8161 39.8822C38.1378 35.6072 37.051 28.4478 41.128 23.5961C41.4338 23.2322 41.7363 22.885 42.0317 22.5617C42.3272 22.2384 42.6457 21.906 42.9806 21.5687C47.4462 17.0719 54.6743 17.5107 59.3525 21.7856Z" fill="#D4D6D9" />
		<path d="M61.784 38.6542C66.2344 33.3462 64.9741 25.6278 59.9973 21.0801C55.0104 16.523 47.192 15.9714 42.3024 20.8952C41.9599 21.2401 41.632 21.5823 41.3261 21.917C41.0203 22.2517 40.709 22.609 40.3962 22.9812C35.9321 28.2937 37.1844 36.0307 42.1713 40.5878C47.1481 45.1355 54.9485 45.6968 59.8349 40.7872C60.1855 40.435 60.521 40.0853 60.8338 39.743C61.1466 39.4007 61.4647 39.035 61.784 38.6542Z" stroke="#121317" stroke-width="1.91161" stroke-linejoin="round" />
	</g>
	<g clip-path="url(#clip1_218_2210)">
		<path d="M57.5761 29.4779L60.9609 29.3285L60.8855 27.6268L57.4604 27.7785C57.4095 27.5402 57.3478 27.3048 57.2672 27.0775C56.7078 25.5148 55.4497 24.3623 53.8424 23.9433C53.6094 23.8825 53.3707 23.843 53.1282 23.8127L52.9759 20.3883L51.2742 20.4637L51.4248 23.8484C50.647 23.9715 49.8829 24.2387 49.1497 24.6311L46.7894 22.4711L45.6393 23.7279L47.089 25.0546C46.7635 25.3282 46.4484 25.6195 46.1591 25.9356C45.8675 26.2542 45.6029 26.5963 45.3574 26.9467L43.9077 25.62L42.7575 26.8767L44.4875 28.4599C44.4732 28.4919 44.4547 28.5223 44.441 28.5536C44.24 29.0105 44.077 29.4826 43.9576 29.9587C43.9387 30.0349 43.9282 30.1108 43.9116 30.1869L41.1076 30.3111L41.1829 32.0128L43.7228 31.8997C43.7244 32.1944 43.7368 32.4875 43.7736 32.7729C43.8327 33.2357 43.9406 33.6843 44.0913 34.1063C44.2468 34.5407 44.4502 34.9532 44.6978 35.3311C44.9527 35.7213 45.2548 36.0775 45.5973 36.391C45.9398 36.7044 46.3213 36.9739 46.7314 37.1932C47.1297 37.4065 47.5585 37.5726 48.005 37.6891C48.4386 37.8019 48.8956 37.8691 49.3625 37.8876C49.65 37.899 49.9424 37.8848 50.2355 37.8598L50.348 40.4003L52.0497 40.3249L51.9255 37.5209C52.0011 37.4976 52.0762 37.4798 52.1505 37.4542C52.6124 37.2939 53.0689 37.0904 53.5061 36.8485C53.5367 36.8315 53.5647 36.811 53.5953 36.7939L55.3259 38.3777L56.4761 37.1209L55.0258 35.7936C55.3536 35.5174 55.6704 35.2243 55.9619 34.9057C56.2512 34.5896 56.5135 34.25 56.758 33.9021L58.2077 35.2288L59.3572 33.9727L56.997 31.8127C57.3231 31.0476 57.5216 30.2629 57.5761 29.4779ZM51.7077 25.5264C52.3082 25.4317 52.882 25.4545 53.412 25.592C54.4758 25.8693 55.2928 26.6181 55.6623 27.6514C55.8468 28.1678 55.9202 28.7373 55.879 29.345C55.8524 29.7514 55.7583 30.1583 55.6328 30.5642L50.5139 25.8796C50.9077 25.7192 51.3047 25.5883 51.7077 25.5264ZM54.7052 33.7567C54.405 34.0847 54.0784 34.3886 53.7329 34.6601C53.4015 34.9226 53.0483 35.1571 52.6841 35.3584C52.331 35.5537 51.9632 35.7171 51.5921 35.8463C51.2263 35.9722 50.8572 36.0651 50.4931 36.1222C50.1338 36.1779 49.7755 36.1998 49.4306 36.1868C49.0857 36.1725 48.7508 36.1235 48.4336 36.041C48.1164 35.9586 47.8146 35.8406 47.5336 35.6908C47.5027 35.6741 47.474 35.6525 47.4437 35.6351L50.8263 31.9389L49.5695 30.7888L46.1875 34.4843C46.1675 34.4557 46.1434 34.429 46.1241 34.3997C45.9507 34.1337 45.8058 33.8428 45.6956 33.5342C45.5855 33.2256 45.507 32.8962 45.4629 32.5545C45.4187 32.2104 45.4083 31.8521 45.4326 31.4887C45.4567 31.1217 45.5166 30.7458 45.6104 30.3721C45.7062 29.9898 45.8371 29.6096 45.9998 29.24C46.168 28.8594 46.3704 28.4869 46.6031 28.1317C46.8419 27.766 47.1157 27.4138 47.4159 27.0858C47.7063 26.7685 48.0219 26.4753 48.3533 26.2116L55.4924 32.7451C55.2597 33.0991 54.9956 33.4394 54.7052 33.7567Z" fill="#121317" />
	</g>
	<path d="M66.8609 8.77811C66.8399 8.02302 65.6443 8.02302 65.6653 8.77811C65.7073 10.6029 65.7702 12.4277 65.8121 14.2735C65.8331 15.0286 67.0287 15.0286 67.0077 14.2735C66.9658 12.4487 66.9028 10.6029 66.8609 8.77811Z" fill="#00AEF0" />
	<path d="M55.6812 8.77811C55.6602 8.02302 54.4646 8.02302 54.4856 8.77811C54.5276 10.6029 54.5905 12.4277 54.6325 14.2735C54.6534 15.0286 55.849 15.0286 55.828 14.2735C55.7861 12.4487 55.7441 10.6029 55.6812 8.77811Z" fill="#00AEF0" />
	<path d="M73.0904 8.77811C73.0694 8.02302 71.8738 8.02302 71.8948 8.77811C71.9368 10.6029 71.9997 12.4277 72.0416 14.2735C72.0626 15.0286 73.2582 15.0286 73.2372 14.2735C73.1743 12.4487 73.1323 10.6029 73.0904 8.77811Z" fill="#00AEF0" />
	<path d="M82.6753 8.77811C82.6544 8.02302 81.4588 8.02302 81.4798 8.77811C81.5217 10.6029 81.5846 12.4277 81.6266 14.2735C81.6476 15.0286 82.8431 15.0286 82.8221 14.2735C82.7802 12.4487 82.7173 10.6029 82.6753 8.77811Z" fill="#00AEF0" />
	<path d="M18.5563 11.3386C17.4865 11.4015 16.4378 11.4435 15.3681 11.4854C14.613 11.5274 14.613 12.723 15.3681 12.681C16.4797 12.6181 17.5704 12.5761 18.6821 12.5132C18.6401 12.1147 18.5982 11.7371 18.5563 11.3386Z" fill="#00AEF0" />
	<path d="M27.5121 11.0442C27.4702 11.4428 27.4492 11.8413 27.4492 12.2398C36.783 11.8832 46.0958 11.7154 55.4296 11.7784C55.4296 11.3798 55.4506 10.9813 55.4506 10.5828C46.1378 10.5199 36.825 10.6877 27.5121 11.0442Z" fill="#00AEF0" />
	<path d="M27.5121 11.0434C27.4702 11.4419 27.4492 11.8405 27.4492 12.239C28.5892 12.1954 29.7289 12.1547 30.8683 12.1169L33.1626 10.8506C31.2791 10.9069 29.3956 10.9713 27.5121 11.0434Z" fill="#00AEF0" />
	<path d="M85.3604 11.4205C84.4165 11.3786 83.4517 11.3366 82.5078 11.2947C82.5288 11.3996 82.5498 11.5044 82.5498 11.6093C82.5498 11.9029 82.5707 12.1966 82.5917 12.4902C83.5146 12.5322 84.4585 12.5741 85.3814 12.6161C86.1365 12.6371 86.1365 11.4625 85.3604 11.4205Z" fill="#00AEF0" />
	<path d="M23.5894 8.77811C23.5684 8.02302 22.3729 8.02302 22.3938 8.77811C22.4358 10.6029 22.4987 12.4277 22.5407 14.2735C22.5616 15.0286 23.7572 15.0286 23.7362 14.2735C23.6733 12.4487 23.6313 10.6029 23.5894 8.77811Z" fill="#00AEF0" />
	<path d="M19.3531 8.77811C19.3321 8.02302 18.1365 8.02302 18.1575 8.77811C18.1994 10.6029 18.2624 12.4277 18.3043 14.2735C18.3253 15.0286 19.5209 15.0286 19.4999 14.2735C19.4579 12.4487 19.416 10.6029 19.3531 8.77811Z" fill="#00AEF0" />
	<path d="M27.8052 8.77811C27.7842 8.02302 26.5887 8.02302 26.6096 8.77811C26.6516 10.6029 26.7145 12.4277 26.7565 14.2735C26.7774 15.0286 27.973 15.0286 27.952 14.2735C27.9101 12.4487 27.8681 10.6029 27.8052 8.77811Z" fill="#00AEF0" />
	<path d="M103.462 85.7356C102.728 82.4636 102.728 80.8485 98.4283 62.0132C94.1285 43.1778 86.9132 23.5454 85.7386 20.1474C84.8577 17.5675 83.0538 12.9741 81.3549 13.9599C79.9076 14.7989 78.9218 15.9525 77.1809 15.7008C75.1044 15.4071 73.3635 12.6175 71.7274 14.1696C70.3641 15.4701 68.4973 15.3023 67.1339 14.5052C66.7983 14.3164 66.5257 14.0228 66.274 13.7082C66.253 13.7082 66.232 13.7082 66.1901 13.7082C66.0852 13.8969 65.8335 14.1696 65.7286 14.2535C64.4911 15.3023 61.6176 15.533 60.0445 15.4491C58.3455 15.3652 56.7934 14.1906 55.1573 13.897C54.8008 14.1906 54.8427 14.673 55.1154 15.4491C56.3109 18.868 69.0636 41.9822 79.7398 48.9668C85.2772 60.8386 87.2068 65.2852 88.0878 67.6554C88.9687 70.0255 87.7522 75.2273 87.2907 82.3377C86.8293 89.4482 84.6269 91.6715 92.6393 89.595C100.631 87.5185 104.196 89.0077 103.462 85.7356Z" fill="white" />
	<path d="M88.4863 90.8955C87.6892 90.8955 87.1648 90.7277 86.7873 90.3711C85.9064 89.595 86.0951 88.1268 86.3678 85.9454C86.5146 84.8967 86.6614 83.7011 86.7453 82.2958C86.9131 79.7369 87.1648 77.4296 87.3956 75.3951C87.7941 71.9552 88.0877 69.2285 87.5634 67.8442C86.8293 65.8935 85.2771 62.16 79.2993 49.3444C68.4973 42.171 55.8285 19.1826 54.591 15.6379C54.4232 15.1345 54.0666 14.1067 54.8007 13.4775C54.9266 13.3726 55.0944 13.3306 55.2412 13.3516C56.0382 13.4984 56.7724 13.8131 57.5065 14.1277C58.3874 14.5052 59.2054 14.8618 60.0654 14.9038C61.5336 14.9877 64.2604 14.7569 65.351 13.834C65.4349 13.7501 65.6447 13.5404 65.7076 13.4355C65.8125 13.2677 65.9803 13.1628 66.19 13.1628C66.3578 13.1628 66.5676 13.2467 66.6725 13.3726C66.8612 13.6243 67.1129 13.876 67.3856 14.0438C68.4973 14.694 70.1123 14.9667 71.3289 13.7921C72.6293 12.5546 74.0346 13.4565 75.1673 14.1906C75.8384 14.6311 76.5516 15.0925 77.2228 15.1764C78.3135 15.3442 79.0476 14.8198 79.9915 14.1906C80.3271 13.9599 80.6626 13.7292 81.0402 13.5194C81.4597 13.2887 81.9002 13.2467 82.3406 13.4145C83.5991 13.876 84.8157 15.9735 86.221 20.0006C86.3258 20.3152 86.4936 20.7767 86.7034 21.364C88.7589 27.174 95.0094 44.8138 98.9107 61.9083C101.952 75.2692 102.854 79.9676 103.378 82.7572C103.588 83.8899 103.735 84.6869 103.966 85.6308C104.154 86.4908 104.092 87.12 103.756 87.6024C103.148 88.4834 101.826 88.6302 99.6448 88.9028C97.9459 89.1126 95.6177 89.3853 92.7441 90.1404C90.7935 90.6438 89.4301 90.8955 88.4863 90.8955ZM55.4509 14.5262C55.4509 14.694 55.5139 14.9457 55.6187 15.2813C56.7933 18.6582 69.6089 41.7095 80.0124 48.5054C80.0963 48.5683 80.1593 48.6312 80.2012 48.7361C86.2419 61.6985 88.4443 65.1804 89.1784 67.152C89.7867 68.788 88.8848 71.7874 88.4653 75.5209C88.2346 77.5345 87.9829 79.8208 87.8151 82.3587C87.7312 83.806 87.5634 85.0645 87.4375 86.0922C87.2068 87.8751 87.039 89.1546 87.5004 89.5531C88.1297 90.0984 90.4998 89.5741 92.4924 89.0707C95.4499 88.3156 97.82 88.0219 99.54 87.8122C101.281 87.6024 102.539 87.4346 102.875 86.9732C103.022 86.7634 103.043 86.4069 102.917 85.8825C102.707 84.9176 102.539 84.0996 102.33 82.967C101.805 80.1773 100.924 75.5 97.883 62.16C94.0026 45.1284 87.7731 27.5096 85.7176 21.7206C85.5078 21.1333 85.34 20.6718 85.2352 20.3362C83.5991 15.6379 82.5084 14.6101 82.005 14.4213C81.8582 14.3794 81.7533 14.3794 81.6275 14.4423C81.2919 14.6311 80.9563 14.8618 80.6417 15.0715C79.6559 15.7637 78.6281 16.4559 77.0969 16.2461C76.174 16.1203 75.3351 15.5749 74.6009 15.0925C73.3215 14.2535 72.7342 13.9809 72.1259 14.5682C70.4689 16.1622 68.2456 15.7847 66.8612 14.9667C66.6305 14.8408 66.4417 14.673 66.253 14.5052C66.19 14.5682 66.1271 14.6311 66.0852 14.673C64.6169 15.9105 61.4707 16.0783 60.0234 15.9944C58.9747 15.9315 58.0308 15.533 57.087 15.1345C56.5416 14.9037 55.9963 14.673 55.4509 14.5262Z" fill="#121317" />
	<path d="M82.4249 47.7504C78.6494 38.6683 74.8739 29.5653 71.1195 20.4832C70.8258 19.791 69.6932 20.0846 69.9658 20.7978C73.7413 29.8799 77.5168 38.9829 81.2713 48.065C81.5649 48.7572 82.7185 48.4636 82.4249 47.7504Z" fill="#00AEF0" />
	<path d="M87.3739 47.7908C86.2413 43.7217 85.0877 39.6526 83.955 35.5835C83.7453 34.8494 82.6126 35.164 82.8014 35.8981C83.934 39.9672 85.0877 44.0363 86.2203 48.1054C86.43 48.8396 87.5837 48.5249 87.3739 47.7908Z" fill="#00AEF0" />
	<path d="M91.3598 67.5071C91.2549 71.8489 91.1501 76.2116 91.0452 80.5534C91.0242 81.3085 92.2198 81.3085 92.2408 80.5534C92.3456 76.2116 92.4505 71.8489 92.5554 67.5071C92.5764 66.731 91.3808 66.731 91.3598 67.5071Z" fill="#00AEF0" />
	<path d="M99.8536 82.7778L95.4489 68.5359C95.2182 67.8018 94.0856 68.1164 94.2953 68.8505L98.7 83.0924C98.9307 83.8265 100.063 83.5119 99.8536 82.7778Z" fill="#00AEF0" />
	<path d="M33.7628 85.8819C32.735 76.0866 29.5469 28.2221 29.0225 21.2375C28.561 14.9451 28.561 14.127 27.3655 13.6656C26.967 13.8124 26.1489 15.3646 25.2051 15.3436C24.2612 15.3226 23.3593 13.8334 22.9188 14.3158C21.3457 16.0357 19.458 14.2529 19.0595 13.3719C17.6541 13.4139 17.9058 15.4694 17.759 18.1123C17.4654 22.9994 16.8781 85.735 17.3185 88.5457C17.759 91.3563 21.912 89.5734 26.6523 90.769C31.3926 91.9645 34.7906 95.6771 33.7628 85.8819Z" fill="white" />
	<path d="M32.1478 93.0129C31.2879 93.0129 30.2811 92.6353 29.1484 92.1949C28.3514 91.8802 27.4285 91.5447 26.5056 91.3139C24.7228 90.8735 23.0238 90.8525 21.5346 90.8525C19.1644 90.8315 17.1089 90.8315 16.7523 88.6501C16.3119 85.8815 16.8782 23.4395 17.1928 18.0909C17.2138 17.6085 17.2348 17.1261 17.2557 16.6856C17.3187 14.651 17.3816 12.8891 19.0386 12.8262C19.2693 12.8052 19.4581 12.9521 19.563 13.1408C19.7517 13.5394 20.4649 14.3364 21.2619 14.4623C21.7234 14.5252 22.1219 14.3574 22.5204 13.9379C23.0867 13.3086 23.8208 13.8959 24.2403 14.2315C24.555 14.4832 24.9325 14.7769 25.2052 14.7979C25.5617 14.7979 26.0442 14.2315 26.3798 13.854C26.6734 13.5184 26.8832 13.2667 27.1558 13.1618C27.2817 13.1199 27.4285 13.1199 27.5544 13.1618C29.0016 13.7281 29.0645 14.5881 29.484 20.2723L29.547 21.1952C29.6728 22.9151 29.9665 27.0891 30.344 32.5635C31.5186 49.7209 33.5112 78.4564 34.2873 85.8185C34.7068 89.7618 34.4341 91.7964 33.3853 92.5934C33.0498 92.908 32.6093 93.0129 32.1478 93.0129ZM18.8079 14.0218C18.4723 14.2945 18.4093 15.1544 18.3674 16.7066C18.3464 17.168 18.3464 17.6504 18.3045 18.1538C17.9898 23.4814 17.4235 85.7137 17.864 88.4614C18.0528 89.615 18.9757 89.7198 21.5556 89.7408C23.0238 89.7408 24.8696 89.7618 26.7993 90.2442C27.8061 90.4959 28.7499 90.8525 29.5679 91.1671C30.9733 91.7125 32.1898 92.1739 32.7561 91.7334C33.4273 91.2091 33.5951 89.2584 33.2385 85.9444C32.4625 78.5403 30.4699 49.8048 29.2953 32.6474C28.9177 27.173 28.6241 22.999 28.4982 21.2791L28.4353 20.3562C28.0997 15.7627 27.9948 14.714 27.4705 14.3154C27.4075 14.3784 27.3236 14.4832 27.2607 14.5462C26.7783 15.1125 26.1281 15.8676 25.2471 15.8676C25.2262 15.8676 25.2262 15.8676 25.2052 15.8676C24.555 15.8466 24.0096 15.4271 23.5901 15.0705C23.4852 14.9866 23.3384 14.8608 23.2335 14.7979C22.4785 15.5529 21.6814 15.6159 21.1361 15.532C20.1083 15.4061 19.2693 14.672 18.8079 14.0218Z" fill="#121317" />
	<path d="M20.8417 17.6725C20.6529 32.3968 20.4642 47.1421 20.2754 61.8664C20.2754 62.6215 21.45 62.6215 21.471 61.8664C21.6597 47.1421 21.8485 32.3968 22.0373 17.6725C22.0373 16.9174 20.8627 16.9174 20.8417 17.6725Z" fill="#00AEF0" />
	<path d="M25.6245 23.0198C25.6036 22.2647 24.408 22.2647 24.429 23.0198C25.1421 43.8688 25.8762 64.7387 26.5894 85.5876C26.6104 86.3427 27.8059 86.3427 27.785 85.5876C27.0718 64.7387 26.3377 43.8897 25.6245 23.0198Z" fill="#00AEF0" />
	<path d="M108.937 52.2383C79.4256 46.1556 77.9363 46.8897 77.4959 49.7213C77.1183 52.0705 80.0129 52.5319 80.0129 52.5319C80.0129 52.5319 77.6427 53.1192 78.0832 55.4894C78.5236 57.8595 80.8938 58.4468 80.8938 58.4468C80.8938 58.4468 79.4046 59.0341 79.6982 60.817C80.1807 63.6486 87.4589 65.9978 90.731 67.1933C90.731 67.1933 81.3133 68.4518 83.6205 72.3741C85.1097 74.8911 95.2615 71.1995 100.631 71.9336C116.949 74.157 116.949 74.8911 118.271 74.0101C119.613 73.1292 111.014 52.6578 108.937 52.2383Z" fill="#00AEF0" />
	<path d="M84.0396 51.6936C82.8021 51.6936 81.5646 51.7146 80.3271 51.7146C79.572 51.7146 79.572 52.9101 80.3271 52.9101C81.5646 52.9101 82.8021 52.8892 84.0396 52.8892C84.7947 52.8682 84.7947 51.6936 84.0396 51.6936Z" fill="#121317" />
	<path d="M85.2344 58.8875C83.8501 58.5939 82.4657 58.3002 81.0814 57.9856C80.3473 57.8178 80.0117 58.9714 80.7668 59.1392C82.1511 59.4329 83.5354 59.7265 84.9198 60.0411C85.6539 60.188 85.9895 59.0553 85.2344 58.8875Z" fill="#121317" />
	<path d="M92.1984 67.2346C90.1639 66.6682 88.1293 66.1019 86.0948 65.5146C85.3606 65.3049 85.046 66.4585 85.7801 66.6682C87.8147 67.2346 89.8492 67.8009 91.8838 68.3882C92.6389 68.577 92.9535 67.4233 92.1984 67.2346Z" fill="#121317" />
	<path d="M88.0454 72.689C87.479 71.3256 85.822 70.6964 84.5216 71.4724C83.8714 71.871 84.4587 72.8987 85.1298 72.5002C85.7171 72.1436 86.6191 72.3324 86.9127 73.0036C87.2064 73.6958 88.36 73.3811 88.0454 72.689Z" fill="#121317" />
	<path d="M10.0402 110.38C3.37026 110.38 1.37765 109.583 1.1679 104.885C1.06303 102.557 1.37765 101.172 2.21664 100.27C3.4961 98.865 5.90821 98.7811 9.91439 98.6133C11.3197 98.5504 12.9138 98.4874 14.7386 98.3826C17.6751 98.1728 19.2901 97.1241 19.2692 96.4739C19.2482 95.9285 17.6541 94.4393 10.4807 94.2715C7.58619 94.2086 5.65651 92.5516 5.09019 91.0624C4.69167 89.9926 4.92239 88.9439 5.71943 88.1888C7.10377 86.9093 10.5436 86.9303 15.263 86.9303C15.8503 86.9303 16.4585 86.9303 17.0668 86.9303C17.3605 86.9303 17.6121 87.182 17.6121 87.4757C17.6121 87.7693 17.3605 88.021 17.0668 88.021C16.4376 88.021 15.8503 88.021 15.263 88.021C10.9422 88 7.54424 88 6.45355 88.9858C5.84528 89.5312 5.92918 90.2024 6.09698 90.6638C6.55843 91.8594 8.19446 93.1179 10.4807 93.1598C16.7941 93.3067 20.2969 94.4603 20.3389 96.4319C20.3808 97.984 18.0946 99.2216 14.7806 99.4523C12.9348 99.5781 11.3407 99.6411 9.91439 99.704C6.20185 99.8508 3.95755 99.9347 2.99271 101.004C2.38444 101.676 2.15372 102.85 2.23761 104.822C2.44736 109.289 3.87365 109.436 15.0532 109.185C17.759 109.122 21.1359 109.038 25.1001 109.038C25.3938 109.038 25.6455 109.289 25.6455 109.583C25.6455 109.877 25.3938 110.128 25.1001 110.128C21.1359 110.128 17.7799 110.212 15.0742 110.275C13.1865 110.338 11.5085 110.38 10.0402 110.38Z" fill="#121317" />
	<path d="M63.0228 98.6766C24.7438 98.8444 28.6241 97.4391 23.1078 103.92C22.9819 104.067 22.8561 104.235 22.7092 104.382C22.2898 104.885 20.2132 103.438 19.8357 103.878C18.1997 105.829 18.787 109.206 18.9967 110.234C19.3323 111.87 22.8561 112.457 32.3996 112.268C49.4777 111.931 90.5208 112.394 96.0162 112.499C98.4912 112.541 98.9946 111.136 99.0995 109.542C99.1834 108.346 98.9736 106.123 98.6171 105.284C97.9249 103.648 96.2469 105.305 95.1772 103.606C92.3666 99.1381 91.9261 98.5508 63.0228 98.6766Z" fill="white" />
	<path fill-rule="evenodd" clip-rule="evenodd" d="M24.2691 104.916L24.2691 104.916C24.2631 104.923 24.2509 104.938 24.2337 104.959C24.1573 105.052 23.9833 105.265 23.8274 105.426C23.4405 105.848 22.9552 105.977 22.6283 106.009C22.2994 106.041 22.0023 105.991 21.8028 105.946C21.412 105.859 20.9942 105.694 20.711 105.583L20.696 105.577C20.6642 105.564 20.6336 105.552 20.6041 105.541C20.384 106.067 20.2718 106.717 20.253 107.442C20.2277 108.423 20.3787 109.338 20.4771 109.837C20.5034 109.856 20.5462 109.885 20.6128 109.92C20.9146 110.082 21.4856 110.27 22.4793 110.424C24.4515 110.729 27.6008 110.833 32.3694 110.739C49.4773 110.401 90.5391 110.865 96.0438 110.97C96.9829 110.985 97.2063 110.734 97.2651 110.662C97.3948 110.505 97.5254 110.168 97.5732 109.441L97.5737 109.435C97.6072 108.957 97.5834 108.198 97.5026 107.441C97.4305 106.766 97.3298 106.259 97.2512 106.001C97.1965 105.999 97.125 105.998 97.0324 105.998C97.0198 105.998 97.0067 105.998 96.993 105.998C96.693 105.997 96.1388 105.995 95.5729 105.802C94.9066 105.573 94.3266 105.125 93.8829 104.421L93.8826 104.42C93.1551 103.264 92.7358 102.634 92.1009 102.147C91.4908 101.679 90.5447 101.251 88.6295 100.927C84.7178 100.265 77.5446 100.143 63.0295 100.206C56.1623 100.236 50.645 100.216 46.1947 100.199C44.44 100.193 42.8511 100.187 41.4108 100.185C36.2834 100.178 33.0955 100.222 30.9413 100.452C28.8255 100.677 27.9181 101.063 27.2253 101.6C26.8451 101.894 26.4751 102.277 26.0003 102.834C25.7785 103.094 25.5457 103.377 25.2809 103.7C25.263 103.722 25.2449 103.744 25.2266 103.766C24.9422 104.112 24.6268 104.495 24.2725 104.912L24.2691 104.916ZM96.0162 112.499C90.5208 112.394 49.4777 111.931 32.3996 112.268C22.8561 112.457 19.3323 111.87 18.9967 110.234C18.787 109.206 18.1997 105.829 19.8357 103.878C20.0185 103.665 20.5996 103.894 21.1981 104.131C21.8356 104.382 22.4929 104.641 22.7092 104.382C22.8104 104.281 22.9017 104.169 22.9898 104.062C23.0296 104.014 23.0687 103.966 23.1078 103.92C24.5403 102.237 25.3391 101.086 26.4071 100.301C29.4518 98.0629 34.6842 98.8009 63.0228 98.6766C91.9261 98.5508 92.3666 99.1381 95.1772 103.606C95.717 104.463 96.4117 104.466 97.0564 104.468C97.6893 104.471 98.2742 104.473 98.6171 105.284C98.9736 106.123 99.1834 108.346 99.0995 109.542C98.9946 111.136 98.4912 112.541 96.0162 112.499ZM19.9696 105.315C19.9696 105.315 19.9721 105.316 19.9774 105.317C19.9724 105.316 19.9697 105.316 19.9696 105.315ZM20.4407 109.805C20.441 109.805 20.4436 109.808 20.4477 109.813C20.4424 109.808 20.4404 109.805 20.4407 109.805Z" fill="#121317" />
	<path d="M63.0229 94.3768C24.7438 94.5446 28.6242 93.1393 23.1078 99.6205C17.8677 105.777 15.0535 108.325 32.3997 107.989C49.7458 107.654 90.5208 108.472 96.0162 108.22C101.512 107.948 97.5054 103.039 95.1772 99.3269C92.3666 94.8383 91.9261 94.23 63.0229 94.3768Z" fill="white" />
	<path fill-rule="evenodd" clip-rule="evenodd" d="M63.0306 95.9063L63.0296 95.9063C56.1623 95.9364 50.6451 95.9159 46.1948 95.8994C44.44 95.8929 42.8512 95.887 41.4109 95.8851C36.2835 95.8781 33.0955 95.9226 30.9414 96.1521C28.8255 96.3774 27.9182 96.7632 27.2253 97.2998C26.8451 97.5943 26.4751 97.9773 26.0004 98.5339C25.7785 98.7939 25.5458 99.0774 25.281 99.3999C25.263 99.4218 25.2449 99.4439 25.2266 99.4661C24.9423 99.8124 24.6268 100.196 24.2726 100.612C24.0781 100.84 23.8895 101.061 23.7071 101.275C22.6194 102.547 21.7529 103.561 21.184 104.419C20.8553 104.914 20.7044 105.245 20.6513 105.449C20.6473 105.464 20.644 105.478 20.6415 105.49C20.7004 105.534 20.8177 105.608 21.0338 105.696C21.4557 105.869 22.1151 106.038 23.1013 106.174C25.0707 106.445 28.0479 106.544 32.3701 106.46C41.0706 106.292 55.6263 106.413 68.6673 106.544C70.3214 106.561 71.9498 106.577 73.5382 106.594C84.5211 106.707 93.5879 106.8 95.9435 106.692C96.8805 106.646 97.1773 106.457 97.2423 106.405C97.254 106.348 97.2803 106.12 97.0874 105.57C96.8445 104.878 96.3757 104.029 95.7666 103.056C95.4683 102.579 95.1512 102.095 94.8284 101.603L94.7971 101.555C94.4879 101.084 94.1727 100.604 93.8814 100.14L93.8809 100.139C93.153 98.9762 92.7331 98.3409 92.097 97.8497C91.4868 97.3784 90.5413 96.9477 88.6277 96.6213C84.7177 95.9546 77.5457 95.8326 63.0306 95.9063ZM96.0162 108.22C93.6181 108.33 84.5012 108.236 73.5448 108.123C59.3946 107.978 42.176 107.8 32.3997 107.989C15.6767 108.313 17.6915 105.957 22.5532 100.27C22.7344 100.058 22.9195 99.8417 23.1078 99.6205C24.5403 97.9375 25.3392 96.7863 26.4072 96.0012C29.4519 93.7631 34.6842 94.5011 63.0229 94.3768C91.9261 94.23 92.3666 94.8383 95.1772 99.3269C95.4601 99.7779 95.7677 100.247 96.0801 100.723C98.3387 104.164 100.844 107.981 96.0162 108.22ZM20.6318 105.556C20.6317 105.556 20.6317 105.555 20.6318 105.553C20.6319 105.555 20.6318 105.556 20.6318 105.556Z" fill="#121317" />
	<path d="M36.6153 95.6774C31.1199 95.6774 31.1199 95.3837 30.5327 97.3134C29.9454 99.2431 29.4839 99.6835 34.6857 99.8304C40.0342 99.9772 39.5728 99.0963 39.426 97.7539C39.2792 96.4115 38.6919 95.6774 36.6153 95.6774Z" fill="#00AEF0" />
	<path d="M46.2418 95.8247C42.2776 95.8247 42.2776 95.5311 41.8581 97.4607C41.4386 99.3904 41.103 99.8309 44.8575 99.9777C48.7169 100.125 48.3813 99.2436 48.2764 97.9012C48.1715 96.5588 47.731 95.8247 46.2418 95.8247Z" fill="#00AEF0" />
	<path d="M49.2423 101.102C43.7469 101.102 43.7469 100.809 43.1596 102.738C42.5723 104.668 42.1109 105.234 47.3126 105.255C71.4756 105.402 70.7415 105.549 70.1542 103.179C69.6298 101.123 70.7415 101.102 49.2423 101.102Z" fill="#00AEF0" />
	<path d="M82.299 97.2445C78.4396 97.3703 78.6704 97.5591 78.8801 99.7614C79.0269 101.251 79.6562 101.397 76.6568 101.397C74.1398 101.397 73.993 100.957 73.8462 103.474C73.6993 105.991 75.4822 105.55 81.2503 105.404C87.0393 105.257 87.6266 105.697 86.7457 102.132C85.8647 98.5869 86.5988 97.0976 82.299 97.2445Z" fill="#00AEF0" />
	<path d="M39.0065 98.8017C36.1749 99.0743 33.3642 99.0534 30.5536 98.6968C29.7985 98.6129 29.7985 99.7875 30.5536 99.8924C33.3852 100.228 36.1959 100.27 39.0065 99.9972C39.7616 99.9133 39.7616 98.7178 39.0065 98.8017Z" fill="#121317" />
	<path d="M48.0468 98.8863C46.1171 99.138 44.1874 99.138 42.2577 98.9282C41.5026 98.8443 41.5026 100.019 42.2577 100.124C44.1874 100.355 46.1171 100.334 48.0468 100.082C48.7809 99.977 48.8019 98.7814 48.0468 98.8863Z" fill="#121317" />
	<path d="M31.1617 100.978C27.2184 100.747 26.3375 100.664 25.8131 102.572C25.2888 104.481 25.1419 104.712 28.8964 105.068C32.7348 105.446 33.1124 104.502 33.0914 103.16C33.0704 101.817 32.6509 101.062 31.1617 100.978Z" fill="#00AEF0" />
	<path d="M32.8184 103.844C30.8678 103.991 27.7845 103.865 25.8758 103.529C25.1207 103.403 25.0787 104.599 25.8128 104.704C27.7425 105.018 30.8258 105.165 32.7555 105.018C33.5316 104.977 33.5945 103.781 32.8184 103.844Z" fill="#121317" />
	<path d="M70.0279 103.929C61.1136 104.6 52.1994 104.621 43.2851 103.971C42.53 103.908 42.53 105.103 43.2851 105.166C52.1994 105.816 61.1136 105.795 70.0279 105.124C70.783 105.061 70.783 103.866 70.0279 103.929Z" fill="#121317" />
	<path d="M86.7661 104.284C82.5711 104.851 78.4391 104.767 74.2651 104.012C73.51 103.886 73.1954 105.019 73.9505 105.165C78.2084 105.941 82.4663 106.046 86.7661 105.48C87.5212 105.354 87.5212 104.18 86.7661 104.284Z" fill="#121317" />
	<path d="M79.5088 101.083C79.2361 100.202 79.1732 99.3423 79.2991 98.4403C79.4039 97.6853 78.2084 97.6853 78.1035 98.4403C77.9777 99.4471 78.0616 100.433 78.3552 101.398C78.5859 102.111 79.7395 101.817 79.5088 101.083Z" fill="#121317" />
	<defs>
		<filter id="filter0_d_218_2210" x="48.928" y="35.2985" width="31.111" height="32.1332" filterUnits="userSpaceOnUse" color-interpolation-filters="sRGB">
			<feFlood flood-opacity="0" result="BackgroundImageFix" />
			<feColorMatrix in="SourceAlpha" type="matrix" values="0 0 0 0 0 0 0 0 0 0 0 0 0 0 0 0 0 0 127 0" result="hardAlpha" />
			<feOffset dx="-1.02218" dy="2.04436" />
			<feComposite in2="hardAlpha" operator="out" />
			<feColorMatrix type="matrix" values="0 0 0 0 0.0705882 0 0 0 0 0.0745098 0 0 0 0 0.0901961 0 0 0 1 0" />
			<feBlend mode="normal" in2="BackgroundImageFix" result="effect1_dropShadow_218_2210" />
			<feBlend mode="normal" in="SourceGraphic" in2="effect1_dropShadow_218_2210" result="shape" />
		</filter>
		<filter id="filter1_d_218_2210" x="61.2171" y="64.2153" width="25.0827" height="26.1056" filterUnits="userSpaceOnUse" color-interpolation-filters="sRGB">
			<feFlood flood-opacity="0" result="BackgroundImageFix" />
			<feColorMatrix in="SourceAlpha" type="matrix" values="0 0 0 0 0 0 0 0 0 0 0 0 0 0 0 0 0 0 127 0" result="hardAlpha" />
			<feOffset dx="-1.02218" dy="2.04436" />
			<feComposite in2="hardAlpha" operator="out" />
			<feColorMatrix type="matrix" values="0 0 0 0 0.0705882 0 0 0 0 0.0745098 0 0 0 0 0.0901961 0 0 0 1 0" />
			<feBlend mode="normal" in2="BackgroundImageFix" result="effect1_dropShadow_218_2210" />
			<feBlend mode="normal" in="SourceGraphic" in2="effect1_dropShadow_218_2210" result="shape" />
		</filter>
		<filter id="filter2_d_218_2210" x="25.4456" y="60.5575" width="32.0222" height="33.6023" filterUnits="userSpaceOnUse" color-interpolation-filters="sRGB">
			<feFlood flood-opacity="0" result="BackgroundImageFix" />
			<feColorMatrix in="SourceAlpha" type="matrix" values="0 0 0 0 0 0 0 0 0 0 0 0 0 0 0 0 0 0 127 0" result="hardAlpha" />
			<feOffset dx="-1.02218" dy="2.04436" />
			<feComposite in2="hardAlpha" operator="out" />
			<feColorMatrix type="matrix" values="0 0 0 0 0.0705882 0 0 0 0 0.0745098 0 0 0 0 0.0901961 0 0 0 1 0" />
			<feBlend mode="normal" in2="BackgroundImageFix" result="effect1_dropShadow_218_2210" />
			<feBlend mode="normal" in="SourceGraphic" in2="effect1_dropShadow_218_2210" result="shape" />
		</filter>
		<filter id="filter3_d_218_2210" x="35.6702" y="16.4707" width="29.8044" height="30.7696" filterUnits="userSpaceOnUse" color-interpolation-filters="sRGB">
			<feFlood flood-opacity="0" result="BackgroundImageFix" />
			<feColorMatrix in="SourceAlpha" type="matrix" values="0 0 0 0 0 0 0 0 0 0 0 0 0 0 0 0 0 0 127 0" result="hardAlpha" />
			<feOffset dx="-1.02218" dy="2.04436" />
			<feComposite in2="hardAlpha" operator="out" />
			<feColorMatrix type="matrix" values="0 0 0 0 0.0705882 0 0 0 0 0.0745098 0 0 0 0 0.0901961 0 0 0 1 0" />
			<feBlend mode="normal" in2="BackgroundImageFix" result="effect1_dropShadow_218_2210" />
			<feBlend mode="normal" in="SourceGraphic" in2="effect1_dropShadow_218_2210" result="shape" />
		</filter>
		<clipPath id="clip0_218_2210">
			<rect width="20.4436" height="20.4436" fill="white" transform="translate(35.8613 63.2335) rotate(20)" />
		</clipPath>
		<clipPath id="clip1_218_2210">
			<rect width="20.4436" height="20.4436" fill="white" transform="translate(50.709 15.6669) rotate(42.4636)" />
		</clipPath>
	</defs>
</svg>
