<svg width="120" height="120" viewBox="0 0 120 120" fill="none" xmlns="http://www.w3.org/2000/svg">
	<circle cx="60" cy="60" r="55" fill="#202225" />
	<circle cx="60" cy="60" r="57" fill="#202225" />
	<path d="M62.9471 96.7393C25.4069 96.9039 29.2123 95.5257 23.8024 101.882C23.679 102.026 23.5556 102.19 23.4116 102.334C23.0002 102.828 20.9637 101.409 20.5935 101.841C18.989 103.754 19.565 107.065 19.7707 108.073C20.0998 109.678 23.5556 110.254 32.9149 110.069C49.6634 109.737 89.9143 110.192 95.3036 110.295C97.7309 110.336 98.2246 108.958 98.3274 107.395C98.4097 106.222 98.204 104.042 97.8543 103.219C97.1755 101.614 95.5299 103.239 94.4808 101.573C91.7244 97.1919 91.2925 96.6159 62.9471 96.7393Z" fill="white" />
	<path fill-rule="evenodd" clip-rule="evenodd" d="M24.9413 102.858L24.9413 102.858C24.9354 102.865 24.9234 102.879 24.9066 102.9C24.8317 102.992 24.661 103.2 24.5081 103.358C24.1287 103.773 23.6528 103.899 23.3322 103.93C23.0097 103.961 22.7182 103.912 22.5226 103.869C22.1394 103.783 21.7296 103.621 21.4519 103.512L21.4371 103.506C21.406 103.494 21.3759 103.482 21.3471 103.471C21.1312 103.987 21.0211 104.625 21.0028 105.335C20.9779 106.298 21.126 107.195 21.2225 107.684C21.2483 107.703 21.2903 107.731 21.3555 107.766C21.6516 107.924 22.2116 108.109 23.1861 108.26C25.1202 108.559 28.2087 108.661 32.8852 108.569C49.663 108.237 89.9322 108.692 95.3307 108.795C96.2517 108.811 96.4707 108.564 96.5285 108.494C96.6556 108.339 96.7837 108.009 96.8306 107.296L96.8311 107.29C96.864 106.821 96.8406 106.077 96.7613 105.335C96.6906 104.673 96.5919 104.175 96.5148 103.922C96.4612 103.921 96.3911 103.92 96.3003 103.919C96.2879 103.919 96.275 103.919 96.2616 103.919C95.9674 103.918 95.4239 103.917 94.8689 103.727C94.2154 103.503 93.6466 103.064 93.2115 102.372L93.2112 102.372C92.4978 101.238 92.0865 100.62 91.4639 100.142C90.8655 99.6833 89.9378 99.2638 88.0595 98.946C84.2233 98.2967 77.1885 98.1773 62.9536 98.2393C56.2189 98.2688 50.8082 98.2487 46.4438 98.2325C44.7229 98.2261 43.1647 98.2203 41.7522 98.2184C36.7237 98.2117 33.5974 98.2553 31.4847 98.4803C29.4097 98.7013 28.5199 99.0796 27.8404 99.6059C27.4676 99.8947 27.1047 100.27 26.6391 100.816C26.4216 101.071 26.1933 101.349 25.9336 101.665C25.916 101.687 25.8982 101.709 25.8803 101.73C25.6015 102.07 25.2921 102.446 24.9447 102.854L24.9413 102.858ZM95.3036 110.295C89.9143 110.192 49.6634 109.737 32.9149 110.069C23.5556 110.254 20.0998 109.678 19.7707 108.073C19.565 107.065 18.989 103.754 20.5935 101.841C20.7728 101.632 21.3427 101.856 21.9296 102.088C22.5548 102.335 23.1994 102.589 23.4116 102.334C23.5108 102.235 23.6003 102.126 23.6867 102.021C23.7257 101.973 23.764 101.927 23.8024 101.882C25.2072 100.231 25.9907 99.1022 27.0381 98.3323C30.024 96.1374 35.1554 96.8612 62.9471 96.7393C91.2925 96.6159 91.7244 97.1919 94.4808 101.573C95.0102 102.414 95.6915 102.417 96.3238 102.419C96.9445 102.422 97.518 102.424 97.8543 103.219C98.204 104.042 98.4097 106.222 98.3274 107.395C98.2246 108.958 97.7309 110.336 95.3036 110.295ZM20.7248 103.25C20.7248 103.25 20.7272 103.25 20.7324 103.251C20.7275 103.251 20.7249 103.25 20.7248 103.25ZM21.1868 107.653C21.1871 107.653 21.1897 107.656 21.1937 107.661C21.1885 107.656 21.1865 107.653 21.1868 107.653Z" fill="#121317" />
	<path d="M62.9467 92.5225C25.4065 92.6871 29.2119 91.3089 23.802 97.665C18.663 103.703 15.9031 106.202 32.9145 105.872C49.9259 105.543 89.9139 106.346 95.3032 106.099C100.693 105.831 96.7637 101.018 94.4804 97.377C91.7241 92.9751 91.2921 92.3785 62.9467 92.5225Z" fill="white" />
	<path fill-rule="evenodd" clip-rule="evenodd" d="M62.9543 94.0225L62.9532 94.0225C56.2186 94.052 50.8078 94.0319 46.4434 94.0157C44.7225 94.0093 43.1643 94.0035 41.7518 94.0016C36.7233 93.9949 33.597 94.0385 31.4843 94.2635C29.4094 94.4845 28.5195 94.8628 27.84 95.3891C27.4672 95.6779 27.1043 96.0535 26.6387 96.5994C26.4212 96.8544 26.1929 97.1324 25.9332 97.4487C25.9156 97.4701 25.8978 97.4918 25.8799 97.5136C25.6011 97.8531 25.2917 98.2291 24.9443 98.6372C24.7535 98.8613 24.5686 99.0778 24.3897 99.2871C23.323 100.535 22.4732 101.53 21.9154 102.37C21.593 102.856 21.445 103.181 21.3929 103.381C21.3889 103.396 21.3858 103.409 21.3833 103.421C21.441 103.464 21.5561 103.537 21.768 103.624C22.1818 103.793 22.8284 103.959 23.7956 104.092C25.727 104.357 28.6468 104.455 32.8855 104.373C41.4181 104.208 55.6929 104.326 68.4822 104.455C70.1043 104.471 71.7013 104.488 73.259 104.504C84.0299 104.614 92.9218 104.706 95.2319 104.6C96.1508 104.554 96.4419 104.369 96.5057 104.318C96.5171 104.262 96.5429 104.039 96.3537 103.5C96.1155 102.821 95.6557 101.988 95.0585 101.034C94.7658 100.566 94.4549 100.092 94.1384 99.6092L94.1077 99.5625C93.8044 99.1003 93.4953 98.6295 93.2096 98.174L93.2091 98.1731C92.4953 97.0331 92.0834 96.4101 91.4596 95.9283C90.8612 95.4662 89.934 95.0437 88.0573 94.7237C84.2227 94.0698 77.1892 93.9502 62.9543 94.0225ZM95.3032 106.099C92.9514 106.206 84.0105 106.114 73.2655 106.004C59.3884 105.861 42.5022 105.687 32.9145 105.872C16.5143 106.19 18.4902 103.879 23.2581 98.3022C23.4358 98.0943 23.6173 97.882 23.802 97.665C25.2068 96.0145 25.9903 94.8854 27.0377 94.1155C30.0236 91.9206 35.155 92.6444 62.9467 92.5225C91.2921 92.3785 91.7241 92.9751 94.4804 97.377C94.7578 97.8194 95.0595 98.279 95.3659 98.7458C97.5808 102.12 100.038 105.864 95.3032 106.099ZM21.3738 103.486C21.3737 103.486 21.3737 103.485 21.3737 103.483C21.3738 103.485 21.3738 103.486 21.3738 103.486Z" fill="#121317" />
	<path d="M37.0499 93.7979C31.6605 93.7979 31.6605 93.5099 31.0846 95.4024C30.5086 97.2948 30.0561 97.7268 35.1574 97.8708C40.4028 98.0147 39.9502 97.1508 39.8063 95.8343C39.6623 94.5178 39.0863 93.7979 37.0499 93.7979Z" fill="#00AEF0" />
	<path d="M46.4904 93.9424C42.6026 93.9424 42.6026 93.6545 42.1912 95.5469C41.7798 97.4393 41.4507 97.8713 45.1327 98.0153C48.9176 98.1593 48.5885 97.2953 48.4856 95.9789C48.3828 94.6624 47.9508 93.9424 46.4904 93.9424Z" fill="#00AEF0" />
	<path d="M49.4327 99.1182C44.0434 99.1182 44.0434 98.8302 43.4674 100.723C42.8914 102.615 42.4389 103.171 47.5403 103.191C71.2369 103.335 70.5169 103.479 69.941 101.155C69.4267 99.1388 70.5169 99.1182 49.4327 99.1182Z" fill="#00AEF0" />
	<path d="M81.8505 95.3349C78.0657 95.4583 78.2919 95.6434 78.4976 97.8032C78.6416 99.2637 79.2587 99.4077 76.3172 99.4077C73.8488 99.4077 73.7048 98.9757 73.5608 101.444C73.4169 103.913 75.1653 103.481 80.822 103.337C86.4994 103.193 87.0753 103.625 86.2114 100.128C85.3474 96.6513 86.0674 95.1909 81.8505 95.3349Z" fill="#00AEF0" />
	<path d="M39.3939 96.8619C36.617 97.1293 33.8606 97.1088 31.1042 96.7591C30.3637 96.6768 30.3637 97.8287 31.1042 97.9316C33.8812 98.2607 36.6375 98.3018 39.3939 98.0344C40.1344 97.9521 40.1344 96.7797 39.3939 96.8619Z" fill="#121317" />
	<path d="M48.26 96.9449C46.3676 97.1917 44.4752 97.1917 42.5827 96.986C41.8422 96.9037 41.8422 98.0556 42.5827 98.1585C44.4752 98.3848 46.3676 98.3642 48.26 98.1174C48.98 98.0145 49.0006 96.842 48.26 96.9449Z" fill="#121317" />
	<path d="M31.7016 98.9964C27.8345 98.7701 26.9705 98.6878 26.4563 100.56C25.942 102.432 25.798 102.658 29.4801 103.008C33.2444 103.378 33.6146 102.452 33.594 101.136C33.5735 99.8192 33.1621 99.0786 31.7016 98.9964Z" fill="#00AEF0" />
	<path d="M33.3254 101.807C31.4124 101.951 28.3886 101.827 26.5167 101.498C25.7762 101.375 25.735 102.547 26.455 102.65C28.3474 102.959 31.3712 103.103 33.2637 102.959C34.0247 102.918 34.0865 101.745 33.3254 101.807Z" fill="#121317" />
	<path d="M69.8173 101.89C61.075 102.548 52.3328 102.569 43.5905 101.931C42.85 101.869 42.85 103.042 43.5905 103.104C52.3328 103.741 61.075 103.721 69.8173 103.063C70.5578 103.001 70.5578 101.828 69.8173 101.89Z" fill="#121317" />
	<path d="M86.2321 102.239C82.1181 102.794 78.0658 102.712 73.9724 101.971C73.2319 101.848 72.9233 102.959 73.6638 103.103C77.8395 103.864 82.0152 103.967 86.2321 103.411C86.9726 103.288 86.9726 102.136 86.2321 102.239Z" fill="#121317" />
	<path d="M79.1154 99.0994C78.848 98.2354 78.7863 97.392 78.9097 96.5075C79.0125 95.767 77.84 95.767 77.7372 96.5075C77.6138 97.4949 77.696 98.4617 77.984 99.4079C78.2103 100.107 79.3416 99.8193 79.1154 99.0994Z" fill="#121317" />
	<path d="M56.0328 90.2679C16.7787 90.4571 18.6428 91.2135 18.9129 79.7047C19.048 74.3556 18.8859 70.7084 26.3693 69.6818C32.556 68.8443 44.9563 69.1685 61.7331 69.3576C89.2354 69.6548 94.9627 68.5202 96.5567 73.0318C96.6107 73.1669 96.6377 73.329 96.6917 73.4641C97.07 74.7878 98.2317 79.6507 98.3938 82.0011C98.9881 91.6728 99.5554 90.0788 56.0328 90.2679Z" fill="white" />
	<path d="M39.202 91.077C26.5585 91.077 21.6416 90.6988 19.5074 88.5105C17.9675 86.9166 18.0485 84.6472 18.1566 81.1892C18.1836 80.7029 18.1836 80.2166 18.2106 79.6763V79.19C18.3187 74.057 18.4267 70.0046 26.2884 68.951C31.5565 68.2486 41.0661 68.3566 54.2499 68.5458C56.6543 68.5728 59.1668 68.5998 61.7873 68.6268C67.3526 68.6808 72.1344 68.6808 75.9707 68.6808C92.0451 68.6808 95.8544 68.6808 97.2862 72.7602C97.3402 72.9223 97.3943 73.0844 97.4483 73.2465C97.8265 74.6513 99.0152 79.5142 99.1773 81.9456L99.2043 82.3779C99.3935 85.2956 99.5015 87.2408 98.2048 88.6456C95.9624 91.023 89.9649 91.023 72.1074 90.996C67.4877 90.996 62.2736 90.9689 56.0599 91.023C53.6015 91.023 51.3051 91.05 49.1709 91.05C45.3886 91.077 42.0927 91.077 39.202 91.077ZM56.0059 89.5371V90.2665V89.5371C62.2195 89.5101 67.4336 89.5101 72.0533 89.5101C88.479 89.5371 95.26 89.5371 97.0701 87.619C97.9346 86.7004 97.8265 84.9984 97.6914 82.4589L97.6644 82.0267C97.5294 79.8384 96.4217 75.2187 95.9894 73.6518C95.9624 73.5167 95.9084 73.3816 95.8544 73.2735C94.8008 70.2748 91.4778 70.1667 75.9166 70.1667C72.0804 70.1667 67.2985 70.1667 61.7062 70.1127C59.0857 70.0857 56.5732 70.0586 54.1688 70.0316C41.0661 69.8695 31.5835 69.7345 26.4235 70.4369C19.7775 71.3284 19.7235 74.138 19.6154 79.2711V79.7574C19.6154 80.2977 19.5884 80.784 19.5614 81.2702C19.4534 84.4581 19.3993 86.3762 20.507 87.5379C22.6953 89.7802 29.8815 89.7532 49.0898 89.6182C51.2781 89.5641 53.5745 89.5641 56.0059 89.5371Z" fill="#121317" />
	<path d="M55.7356 77.4638C10.7811 77.8961 15.2117 82.1376 14.4012 48.7459C14.023 32.9686 13.4557 20.1631 22.0467 17.0563C29.1249 14.5168 43.3623 15.3003 62.5706 15.6245C94.0712 16.1378 100.663 12.6797 102.419 25.9715C102.473 26.3768 102.527 26.809 102.581 27.2683C102.986 31.1856 102.932 41.4787 103.122 48.4217C103.986 81.5702 107.201 76.9505 55.7356 77.4638Z" fill="white" />
	<path d="M31.9617 78.5706C23.965 78.5706 19.6154 78.0033 17.0759 75.5449C13.9961 72.5461 13.9151 66.9538 13.807 56.7958C13.78 54.4184 13.753 51.7168 13.6719 48.7451L13.6449 47.4754C13.2667 31.8602 12.9695 19.5409 21.8037 16.353C27.9093 14.1648 38.8508 14.3809 53.9797 14.7051C56.7083 14.7591 59.572 14.8131 62.5707 14.8672C68.9465 14.9752 74.4037 14.9212 78.8073 14.8672C96.3406 14.6781 101.636 14.624 103.122 25.8626C103.176 26.2679 103.23 26.7271 103.284 27.1594C103.554 29.7799 103.608 35.1831 103.689 40.4242C103.716 43.1528 103.77 45.9895 103.824 48.3669C103.878 50.3931 103.932 52.2842 104.013 54.0402C104.391 64.9546 104.58 70.9792 101.339 74.3291C97.6104 78.1924 89.6677 78.1654 72.2965 78.1114C67.4876 78.0844 62.0304 78.0844 55.7357 78.1384V77.409V78.1384C50.5757 78.1924 46.091 78.3005 42.1467 78.3815C38.2294 78.5166 34.8524 78.5706 31.9617 78.5706ZM40.1745 15.9748C32.2048 15.9748 26.1803 16.353 22.317 17.7309C14.4554 20.5405 14.7526 32.4005 15.1308 47.4213L15.1578 48.6911C15.2389 51.6628 15.2659 54.3644 15.2929 56.7688C15.4009 66.5486 15.455 71.9247 18.1025 74.4912C21.1283 77.409 28.1254 77.2469 42.1197 76.9497C46.091 76.8686 50.5757 76.7606 55.7357 76.7065C62.0574 76.6525 67.5147 76.6525 72.3235 76.6795C89.2625 76.7336 96.989 76.7606 100.312 73.3566C103.122 70.4659 102.933 64.6575 102.581 54.1483C102.527 52.3922 102.446 50.5011 102.392 48.4479C102.338 46.0435 102.284 43.2339 102.257 40.4782C102.203 35.2642 102.122 29.888 101.852 27.3485C101.798 26.9163 101.771 26.484 101.717 26.0788C100.393 16.1369 96.6918 16.1639 78.8613 16.353C74.4578 16.4071 68.9735 16.4611 62.5978 16.353C59.599 16.299 56.7353 16.245 54.0067 16.191C48.8737 16.0829 44.2539 15.9748 40.1745 15.9748Z" fill="#121317" />
	<path d="M56.1664 69.7639C16.6692 70.0881 20.5865 73.4651 19.857 46.8274C19.5058 34.238 19.0195 24.026 26.557 21.5675C32.7706 19.5414 45.279 20.1897 62.164 20.4599C89.8283 20.8922 95.6097 18.1365 97.1766 28.7538C97.2306 29.078 97.2576 29.4292 97.3117 29.7804C97.6629 32.9142 97.6359 41.1 97.798 46.6653C98.5544 73.0868 101.364 69.4127 56.1664 69.7639Z" fill="#D4D6D9" />
	<path d="M56.1252 29.9412C16.4634 30.0045 20.2314 32.578 19.4989 27.376C19.1463 24.9174 18.8236 21.0092 26.3924 20.5291C32.632 20.1334 45.1924 20.26 62.1477 20.3128C89.9272 20.3972 95.7327 19.859 97.3061 21.9324C97.3604 21.9958 97.3875 22.0643 97.4418 22.1329C97.7944 22.7449 98.0861 25.1641 98.2489 26.251C99.0085 31.4108 101.511 29.8727 56.1252 29.9412Z" fill="white" />
	<path d="M35.4457 70.7895C28.0974 70.7895 24.1801 70.3033 21.9378 68.142C19.3713 65.6565 19.3172 61.2529 19.2092 53.2562C19.1822 51.3381 19.1551 49.2038 19.1011 46.8265L19.0741 45.7998C18.7229 33.2915 18.4527 23.4037 26.3144 20.8372C31.6905 19.0811 41.3082 19.2702 54.6 19.5404C57.0044 19.5944 59.5169 19.6485 62.1375 19.6755C67.7298 19.7565 72.5386 19.7295 76.4019 19.6755C91.855 19.5404 96.5287 19.4864 97.8525 28.5637C97.9065 28.8879 97.9336 29.2391 97.9876 29.6173C98.2307 31.6976 98.2848 35.831 98.3388 40.2076C98.3658 42.3958 98.3928 44.6382 98.4469 46.5563C98.5009 48.1772 98.5549 49.6901 98.6089 51.095C98.9331 59.686 99.1223 64.4408 96.4477 67.1964C93.2328 70.5194 86.1546 70.4924 70.6745 70.4383C66.46 70.4113 61.6782 70.4113 56.1399 70.4654C51.6013 70.4924 47.684 70.5734 44.1989 70.6545C40.8489 70.7355 37.9582 70.7895 35.4457 70.7895ZM42.2537 20.8642C35.3377 20.8642 30.1236 21.1614 26.7466 22.242C19.9386 24.4573 20.2088 33.8588 20.533 45.7728L20.56 46.7994C20.614 49.1768 20.641 51.3111 20.668 53.2292C20.7761 60.8477 20.8301 65.0352 22.9374 67.0884C25.4769 69.5468 31.3393 69.4387 44.1719 69.1956C47.6569 69.1416 51.6013 69.0605 56.1399 69.0065C61.6782 68.9525 66.487 68.9795 70.7015 68.9795C85.7494 69.0335 92.6384 69.0605 95.4211 66.1968C97.6634 63.9005 97.4743 59.3618 97.1771 51.176C97.1231 49.7712 97.069 48.2583 97.015 46.6373C96.961 44.7192 96.934 42.4499 96.907 40.2616C96.8529 36.1282 96.7989 31.8326 96.5557 29.8064C96.5017 29.4552 96.4747 29.131 96.4207 28.8069C95.286 20.9993 92.0441 21.0263 76.4289 21.1614C72.5656 21.1884 67.7568 21.2424 62.1375 21.1614C59.5169 21.1073 57.0044 21.0803 54.6 21.0263C50.0343 20.9452 45.9009 20.8642 42.2537 20.8642Z" fill="#121317" />
	<path d="M41.0932 85.6745C27.6393 85.6204 27.9365 85.2962 27.7744 83.6483C27.6663 82.6217 27.7744 81.568 31.2054 81.6761C34.1501 81.7842 37.284 81.6221 43.0113 81.6221C54.9524 81.6221 55.2495 81.9192 55.1955 83.8374C55.1415 86.0527 54.5471 85.7285 41.0932 85.6745Z" fill="#00AEF0" />
	<path d="M91.181 80.4864C87.6959 80.4594 87.75 85.4033 90.8568 85.5384C94.9092 85.7275 94.585 80.5135 91.181 80.4864Z" fill="#00AEF0" />
	<path d="M59.382 82.4608C59.301 81.5423 57.8421 81.5152 57.9232 82.4608C58.0042 83.4334 58.1663 84.4059 58.1393 85.3785C58.1393 86.3241 59.5982 86.3241 59.5982 85.3785C59.5982 84.4059 59.4631 83.4334 59.382 82.4608Z" fill="#00AEF0" />
	<path d="M63.0305 82.4862C62.9494 81.5676 61.4906 81.5406 61.5716 82.4862C61.6527 83.4588 61.8148 84.4313 61.7877 85.4039C61.7877 86.3495 63.2466 86.3495 63.2466 85.4039C63.2736 84.4313 63.1115 83.4588 63.0305 82.4862Z" fill="#00AEF0" />
	<path d="M66.9201 82.5145C66.8391 81.596 65.3802 81.5689 65.4613 82.5145C65.5423 83.4871 65.7044 84.4597 65.6774 85.4322C65.6774 86.3778 67.1363 86.3778 67.1363 85.4322C67.1633 84.4597 67.0282 83.4871 66.9201 82.5145Z" fill="#00AEF0" />
	<path d="M108.553 21.6424C106.581 23.6957 104.609 25.7489 102.664 27.8291C102.015 28.5045 103.042 29.5581 103.69 28.8827C105.662 26.8295 107.635 24.7763 109.58 22.6961C110.228 21.9936 109.202 20.967 108.553 21.6424Z" fill="#00AEF0" />
	<path d="M111.39 28.0729C109.688 28.6672 107.959 29.2616 106.257 29.8559C105.365 30.1531 105.744 31.5849 106.635 31.2607C108.337 30.6664 110.066 30.072 111.768 29.4777C112.66 29.1805 112.281 27.7487 111.39 28.0729Z" fill="#00AEF0" />
	<path d="M28.75 50.0005C28.75 46.5443 31.406 43.7137 34.8291 43.5976C48.5442 43.1328 71.9558 43.1328 85.6709 43.5976C89.094 43.7137 91.75 46.5443 91.75 50.0005C91.75 53.4593 89.0901 56.2915 85.6639 56.4058C71.95 56.8634 48.55 56.8634 34.8361 56.4058C31.4099 56.2915 28.75 53.4593 28.75 50.0005Z" fill="white" stroke="#121317" stroke-width="1.5" />
	<path fill-rule="evenodd" clip-rule="evenodd" d="M69.9712 45.751H80.9999V53.7342H69.9712V51.7635H70.6846V53.0208H80.2865V46.4644H70.6846V50.4635H69.9712V45.751ZM73.1989 47.7437L73.9524 50.6289L74.7032 47.7437H75.7553V51.7332H74.947V50.6536L75.021 48.9904L74.2237 51.7332H73.6757L72.8783 48.9904L72.9523 50.6536V51.7332H72.1467V47.7437H73.1989ZM78.4625 50.0069H77.2076V51.0646H78.6927V51.7332H76.402V47.7437H78.6872V48.415H77.2076V49.3576H78.4625V50.0069ZM41.9571 50.3196L42.3353 47.8125H43.1326L42.4229 51.802H41.6146L41.1488 49.451L40.6885 51.802H39.8774L39.165 47.8125H39.9679L40.3433 50.3169L40.8118 47.8125H41.4886L41.9571 50.3196ZM46.3658 51.802H45.563V50.0949H44.3738V51.802H43.5683V47.8125H44.3738V49.4264H45.563V47.8125H46.3658V51.802ZM49.821 50.1662C49.821 50.7014 49.6945 51.117 49.4415 51.4129C49.1885 51.7088 48.8373 51.8568 48.388 51.8568C47.9404 51.8568 47.5888 51.7102 47.3331 51.417C47.0773 51.1238 46.9476 50.7133 46.944 50.1854V49.5031C46.944 48.9551 47.0709 48.5272 47.3248 48.2194C47.5788 47.9116 47.9313 47.7577 48.3825 47.7577C48.8264 47.7577 49.1762 47.9088 49.4319 48.2112C49.6877 48.5135 49.8174 48.9377 49.821 49.4839V50.1662ZM49.0127 49.4976C49.0127 49.1377 48.9616 48.8701 48.8593 48.6948C48.757 48.5194 48.598 48.4317 48.3825 48.4317C48.1688 48.4317 48.0108 48.5162 47.9085 48.6852C47.8062 48.8542 47.7532 49.1113 47.7496 49.4565V50.1662C47.7496 50.5151 47.8016 50.7722 47.9057 50.9375C48.0099 51.1028 48.1706 51.1855 48.388 51.1855C48.598 51.1855 48.7542 51.1046 48.8565 50.943C48.9588 50.7813 49.0109 50.5306 49.0127 50.1908V49.4976ZM52.983 48.4838H51.9966V51.802H51.1883V48.4838H50.2183V47.8125H52.983V48.4838ZM54.6544 50.3443H54.2544V51.802H53.4488V47.8125H54.7339C55.1376 47.8125 55.4495 47.9171 55.6696 48.1262C55.8897 48.3354 55.9998 48.6327 55.9998 49.0181C55.9998 49.5478 55.8071 49.9187 55.4216 50.1306L56.1203 51.7636V51.802H55.2545L54.6544 50.3443ZM54.2544 49.673H54.712C54.8727 49.673 54.9933 49.6195 55.0736 49.5127C55.154 49.4058 55.1942 49.2629 55.1942 49.0839C55.1942 48.6838 55.038 48.4838 54.7257 48.4838H54.2544V49.673ZM58.4576 50.9854H57.3588L57.1451 51.802H56.293L57.5397 47.8125H58.2767L59.5317 51.802H58.6713L58.4576 50.9854ZM57.5342 50.3141H58.2795L57.9068 48.8921L57.5342 50.3141ZM62.6087 50.4731C62.5886 50.9279 62.4608 51.2722 62.2251 51.5061C61.9895 51.7399 61.657 51.8568 61.2278 51.8568C60.7766 51.8568 60.4309 51.7084 60.1907 51.4115C59.9504 51.1147 59.8303 50.6914 59.8303 50.1415V49.4702C59.8303 48.9222 59.9546 48.4998 60.203 48.2029C60.4514 47.9061 60.7967 47.7577 61.2387 47.7577C61.6735 47.7577 62.0036 47.8792 62.2292 48.1221C62.4548 48.3651 62.5832 48.714 62.6142 49.1688H61.8059C61.7986 48.8875 61.7552 48.6934 61.6757 48.5865C61.5963 48.4797 61.4506 48.4263 61.2387 48.4263C61.0232 48.4263 60.8706 48.5016 60.7811 48.6523C60.6916 48.803 60.6441 49.051 60.6386 49.3962V50.1497C60.6386 50.5461 60.6829 50.8183 60.7715 50.9663C60.8601 51.1142 61.0122 51.1882 61.2278 51.1882C61.4397 51.1882 61.5858 51.1366 61.6662 51.0334C61.7465 50.9302 61.7922 50.7434 61.8032 50.4731H62.6087ZM64.2281 50.2621L63.9102 50.6621V51.802H63.1047V47.8125H63.9102V49.5524L64.1651 49.1222L64.9076 47.8125H65.894L64.7514 49.5661L65.9132 51.802H64.9569L64.2281 50.2621ZM67.8942 50.7553C67.8942 50.5927 67.8527 50.4699 67.7696 50.3867C67.6865 50.3036 67.5353 50.2173 67.3161 50.1278C66.9161 49.9762 66.6284 49.7986 66.453 49.5949C66.2776 49.3912 66.1899 49.1505 66.1899 48.8729C66.1899 48.5368 66.3091 48.2669 66.5475 48.0632C66.7859 47.8595 67.0887 47.7577 67.4558 47.7577C67.7006 47.7577 67.9189 47.8093 68.1107 47.9125C68.3025 48.0157 68.45 48.1614 68.5532 48.3495C68.6564 48.5377 68.708 48.7514 68.708 48.9907H67.9052C67.9052 48.8044 67.8655 48.6624 67.786 48.5646C67.7066 48.4669 67.5919 48.418 67.4421 48.418C67.3015 48.418 67.1919 48.4596 67.1133 48.5427C67.0348 48.6258 66.9955 48.7377 66.9955 48.8784C66.9955 48.988 67.0394 49.0871 67.127 49.1757C67.2147 49.2643 67.37 49.356 67.5928 49.451C67.9819 49.5917 68.2646 49.7643 68.4409 49.9689C68.6172 50.1735 68.7053 50.4338 68.7053 50.7498C68.7053 51.0969 68.5948 51.3681 68.3738 51.5636C68.1527 51.759 67.8522 51.8568 67.4723 51.8568C67.2147 51.8568 66.98 51.8038 66.7681 51.6979C66.5562 51.5919 66.3904 51.4403 66.2708 51.243C66.1511 51.0457 66.0913 50.8128 66.0913 50.5443H66.8996C66.8996 50.7745 66.9444 50.9416 67.0339 51.0457C67.1234 51.1498 67.2695 51.2019 67.4723 51.2019C67.7536 51.2019 67.8942 51.053 67.8942 50.7553Z" fill="#121317" />
	<g clip-path="url(#clip0_218_2205)">
		<path d="M33.168 24.9512L46.668 24.2012L48.168 30.2012H32.668L33.168 24.9512Z" fill="white" />
		<path d="M24.667 24.951L31.167 24.451L32.667 29.701L24.167 30.201L24.667 24.951Z" fill="#00AEF0" />
		<path d="M29.5122 33.9415C27.1079 33.9415 24.4334 32.8069 24.0282 32.6178C23.7851 32.5098 23.596 32.2666 23.596 31.9695C23.2988 24.9996 23.4879 24.0001 27.1889 23.784C27.5672 23.757 27.9994 23.7299 28.4586 23.7029C30.2416 23.5408 31.2682 23.7299 31.9706 24.3243C32.9431 25.1617 33.0242 26.5665 33.1862 28.7277C33.2133 29.1329 33.2403 29.5651 33.2943 30.0244C33.4024 31.4832 32.9971 32.5638 32.0786 33.2392C31.3492 33.7524 30.4577 33.9415 29.5122 33.9415ZM25.0278 31.4292C26.9458 32.1856 29.9715 32.942 31.2142 32.0505C31.4033 31.9154 31.9436 31.5372 31.8355 30.1325C31.8085 29.6462 31.7545 29.214 31.7274 28.8087C31.5924 27.0257 31.5383 25.8371 31.0251 25.4049C30.6739 25.1077 29.8904 24.9996 28.5937 25.1347C28.1075 25.1887 27.6482 25.2158 27.27 25.2158C24.8927 25.3778 24.7576 25.3778 25.0278 31.4292Z" fill="#121317" />
		<path d="M42.4251 33.9415C38.1567 33.9415 33.24 32.7528 32.4296 32.5637C32.1324 32.4827 31.8893 32.2125 31.8893 31.9153C31.5651 27.701 31.5921 25.5939 32.6727 24.4052C33.6993 23.2706 35.3472 23.2166 38.1027 23.1355C38.8321 23.1085 39.6426 23.0815 40.5611 23.0545C47.72 22.6763 48.2603 24.1351 48.7736 28.3764C48.8276 28.8086 48.8816 29.2679 48.9627 29.7812C49.1248 30.9158 48.8006 31.8613 48.0172 32.5637C46.8555 33.5903 44.7484 33.9415 42.4251 33.9415ZM33.3211 31.267C36.833 32.0774 44.8564 33.4552 47.0446 31.4831C47.4498 31.1049 47.6119 30.6456 47.5039 29.9973C47.4228 29.484 47.3688 28.9977 47.3148 28.5655C46.8825 24.9455 46.8015 24.2161 40.6151 24.5133C39.6966 24.5673 38.8591 24.5943 38.1297 24.5943C35.7524 24.6754 34.3476 24.7024 33.7533 25.3778C33.105 26.1072 33.0779 28.0252 33.3211 31.267Z" fill="#121317" />
		<path d="M44.0731 26.2705C41.6418 26.2975 39.2105 26.3516 36.7521 26.3786C35.8066 26.3786 35.8066 27.8644 36.7521 27.8374C39.1834 27.8104 41.6148 27.7563 44.0731 27.7293C44.9916 27.7293 44.9916 26.2705 44.0731 26.2705Z" fill="#121317" />
		<path d="M29.4302 26.2444C28.6468 26.2984 27.8363 26.3525 27.0529 26.4065C26.1074 26.4605 26.1074 27.9463 27.0529 27.8653C27.8363 27.8113 28.6468 27.7572 29.4302 27.7032C30.3487 27.6492 30.3757 26.1634 29.4302 26.2444Z" fill="#121317" />
		<path d="M63.8359 24.9521L50.3359 24.2021L48.8359 30.2021H64.3359L63.8359 24.9521Z" fill="white" />
		<path d="M64.8871 24.749L75.3387 23.999L76.5 29.999H64.5L64.8871 24.749Z" fill="white" />
		<path d="M54.5788 33.9424C58.8472 33.9424 63.7639 32.7538 64.5743 32.5647C64.8715 32.4836 65.1146 32.2135 65.1146 31.9163C65.4388 27.702 65.4118 25.5948 64.3312 24.4062C63.3046 23.2716 61.6567 23.2175 58.9012 23.1365C58.1718 23.1095 57.3614 23.0825 56.4429 23.0555C49.2839 22.6772 48.7436 24.136 48.2303 28.3774C48.1763 28.8096 48.1223 29.2689 48.0412 29.7821C47.8791 30.9168 48.2033 31.8623 48.9868 32.5647C50.1484 33.5912 52.2556 33.9424 54.5788 33.9424ZM63.6828 31.268C60.1709 32.0784 52.1475 33.4562 49.9593 31.4841C49.5541 31.1059 49.392 30.6466 49.5 29.9983C49.5811 29.485 49.6351 28.9987 49.6891 28.5665C50.1214 24.9465 50.2024 24.2171 56.3888 24.5143C57.3073 24.5683 58.1448 24.5953 58.8742 24.5953C61.2515 24.6763 62.6563 24.7034 63.2506 25.3787C63.8989 26.1081 63.926 28.0262 63.6828 31.268Z" fill="#121317" />
		<path d="M72.0555 33.998C68.8472 33.998 65.1515 32.8034 64.5424 32.6133C64.319 32.5318 64.1363 32.2603 64.1363 31.9616C63.8926 27.7259 63.9129 25.608 64.7251 24.4134C65.4967 23.273 66.7354 23.2187 68.8066 23.1372C69.3548 23.1101 69.964 23.0829 70.6544 23.0557C76.0354 22.6756 76.4415 24.1418 76.8273 28.4047C76.8679 28.8391 76.9085 29.3007 76.9694 29.8166C77.0913 30.957 76.8476 31.9073 76.2587 32.6133C75.3856 33.6451 73.8018 33.998 72.0555 33.998ZM65.2125 31.31C67.8522 32.1245 73.883 33.5093 75.5277 31.5272C75.8323 31.1471 75.9542 30.6855 75.8729 30.0338C75.812 29.5179 75.7714 29.0292 75.7308 28.5948C75.4059 24.9564 75.345 24.2233 70.695 24.522C70.0046 24.5763 69.3751 24.6034 68.8269 24.6034C67.04 24.6849 65.9841 24.712 65.5374 25.3908C65.05 26.1239 65.0297 28.0517 65.2125 31.31Z" fill="#121317" />
		<path d="M52.9308 26.2714C55.3621 26.2984 57.7934 26.3524 60.2518 26.3794C61.1973 26.3794 61.1973 27.8652 60.2518 27.8382C57.8205 27.8112 55.3891 27.7572 52.9308 27.7302C52.0123 27.7302 52.0123 26.2714 52.9308 26.2714Z" fill="#121317" />
		<path d="M73.0259 26.5C71.3528 26.5259 69.6797 26.5776 67.988 26.6034C67.3373 26.6034 67.3373 28.0255 67.988 27.9997C69.6611 27.9738 71.3342 27.9221 73.0259 27.8962C73.658 27.8962 73.658 26.5 73.0259 26.5Z" fill="#121317" />
	</g>
	<path d="M20.5 30.5C39.6444 29.7373 82.4388 29.0126 96.5 29.9279" stroke="#121317" stroke-width="1.75" stroke-linecap="round" stroke-linejoin="round" />
	<path d="M4.5 86.0406C4.5 75.7462 11.8798 66.5912 22.1649 66.1524C22.9551 66.1187 23.7212 66.1001 24.45 66.1001C25.1788 66.1001 25.9449 66.1187 26.7351 66.1524C37.0202 66.5912 44.4 75.7462 44.4 86.0406C44.4 96.3555 36.991 105.522 26.685 105.95C25.912 105.982 25.1628 106 24.45 106C23.7372 106 22.988 105.982 22.215 105.95C11.909 105.522 4.5 96.3555 4.5 86.0406Z" fill="#121317" />
	<path d="M6.50977 83.9411C6.50977 73.9738 13.6435 65.2209 23.4566 64.8022C24.2381 64.7689 24.9934 64.7506 25.7098 64.7506C26.4261 64.7506 27.1814 64.7689 27.9629 64.8022C37.776 65.2209 44.9098 73.9738 44.9098 83.9411C44.9098 93.9279 37.7479 102.693 27.9137 103.101C27.1491 103.133 26.4104 103.151 25.7098 103.151C25.0091 103.151 24.2704 103.133 23.5059 103.101C13.6717 102.693 6.50977 93.9279 6.50977 83.9411Z" fill="white" stroke="#121317" stroke-width="1.5" />
	<mask id="path-49-outside-1_218_2205" maskUnits="userSpaceOnUse" x="10.1476" y="68.0318" width="28.3205" height="29.0526" fill="black">
		<rect fill="white" x="10.1476" y="68.0318" width="28.3205" height="29.0526" />
		<path fill-rule="evenodd" clip-rule="evenodd" d="M34.6203 84.298C32.9429 83.0569 32.0082 81.7244 31.6703 81.1839L29.0496 76.6447C27.0476 73.1771 22.5997 71.9973 19.1151 74.0091C15.6301 76.0212 14.4278 80.4631 16.4299 83.9307L19.0884 88.5355C19.4042 89.1446 20.0485 90.5876 20.2751 92.5802C20.5795 95.2579 21.2029 94.5579 21.7916 93.9833C22.3805 93.4094 23.5252 91.8321 24.4956 92.4008C25.4656 92.9692 26.2915 93.4724 27.1386 92.3443C27.9859 91.2164 28.4232 90.751 28.5837 90.6583L28.802 90.5323C28.9622 90.4398 29.5842 90.2936 30.9845 90.1238C32.385 89.9543 32.362 88.9875 32.355 87.8631C32.3475 86.7385 34.2858 86.5359 35.0774 86.3127C35.8694 86.0902 36.7869 85.9005 34.6203 84.298Z" />
	</mask>
	<path fill-rule="evenodd" clip-rule="evenodd" d="M34.6203 84.298C32.9429 83.0569 32.0082 81.7244 31.6703 81.1839L29.0496 76.6447C27.0476 73.1771 22.5997 71.9973 19.1151 74.0091C15.6301 76.0212 14.4278 80.4631 16.4299 83.9307L19.0884 88.5355C19.4042 89.1446 20.0485 90.5876 20.2751 92.5802C20.5795 95.2579 21.2029 94.5579 21.7916 93.9833C22.3805 93.4094 23.5252 91.8321 24.4956 92.4008C25.4656 92.9692 26.2915 93.4724 27.1386 92.3443C27.9859 91.2164 28.4232 90.751 28.5837 90.6583L28.802 90.5323C28.9622 90.4398 29.5842 90.2936 30.9845 90.1238C32.385 89.9543 32.362 88.9875 32.355 87.8631C32.3475 86.7385 34.2858 86.5359 35.0774 86.3127C35.8694 86.0902 36.7869 85.9005 34.6203 84.298Z" fill="#00AEF0" />
	<path d="M31.6703 81.1839L30.8763 81.6423L30.8844 81.6562L30.8929 81.6699L31.6703 81.1839ZM19.0884 88.5355L19.9024 88.1136L19.8928 88.0951L19.8824 88.0771L19.0884 88.5355ZM20.2751 92.5802L21.1861 92.4767L21.1861 92.4766L20.2751 92.5802ZM21.7916 93.9833L21.1518 93.3266L21.1512 93.3272L21.7916 93.9833ZM24.4956 92.4008L24.032 93.1918L24.0321 93.1918L24.4956 92.4008ZM27.1386 92.3443L26.4055 91.7937L26.4054 91.7938L27.1386 92.3443ZM30.9845 90.1238L30.8743 89.2137L30.8742 89.2137L30.9845 90.1238ZM32.355 87.8631L33.2718 87.8574L33.2718 87.857L32.355 87.8631ZM35.0774 86.3127L34.8294 85.43L34.8286 85.4303L35.0774 86.3127ZM35.1656 83.561C33.6067 82.4076 32.7446 81.1729 32.4477 80.698L30.8929 81.6699C31.2717 82.276 32.2791 83.7062 34.075 85.035L35.1656 83.561ZM32.4643 80.7255L29.8436 76.1863L28.2556 77.1031L30.8763 81.6423L32.4643 80.7255ZM29.8436 76.1863C27.5862 72.2765 22.5761 70.9523 18.6567 73.2152L19.5735 74.8031C22.6234 73.0423 26.5089 74.0777 28.2556 77.1031L29.8436 76.1863ZM18.6567 73.2152C14.737 75.4782 13.3785 80.4792 15.6359 84.3891L17.2238 83.4723C15.4772 80.447 16.5232 76.5642 19.5735 74.8031L18.6567 73.2152ZM15.6359 84.3891L18.2945 88.9939L19.8824 88.0771L17.2238 83.4723L15.6359 84.3891ZM18.2745 88.9575C18.5549 89.4983 19.1536 90.8325 19.3642 92.6838L21.1861 92.4766C20.9434 90.3427 20.2535 88.7909 19.9024 88.1136L18.2745 88.9575ZM19.3642 92.6837C19.4431 93.3778 19.5489 93.9209 19.6967 94.3248C19.8275 94.6824 20.0839 95.1894 20.6405 95.3723C21.2178 95.562 21.6904 95.2662 21.883 95.1283C22.1009 94.9722 22.3134 94.7551 22.4319 94.6394L21.1512 93.3272C20.9754 93.4988 20.8892 93.5846 20.8151 93.6377C20.7849 93.6594 20.8026 93.6406 20.8606 93.6226C20.93 93.6009 21.0605 93.5803 21.2129 93.6303C21.3612 93.6791 21.4379 93.7647 21.458 93.7906C21.4738 93.811 21.4546 93.7932 21.4187 93.6949C21.3456 93.495 21.2594 93.1214 21.1861 92.4767L19.3642 92.6837ZM22.4313 94.6399C22.5985 94.4771 22.8203 94.2279 22.9959 94.0399C23.1942 93.8277 23.3897 93.6303 23.5823 93.4722C23.7821 93.3081 23.9258 93.2311 24.0131 93.2046C24.0497 93.1935 24.0598 93.1965 24.0507 93.1958C24.0379 93.1947 24.029 93.19 24.032 93.1918L24.9591 91.6098C24.4555 91.3147 23.9291 91.3138 23.48 91.4502C23.0612 91.5775 22.7001 91.8241 22.4188 92.055C22.1303 92.2919 21.8685 92.5608 21.6562 92.788C21.4213 93.0394 21.2791 93.2025 21.1518 93.3266L22.4313 94.6399ZM24.0321 93.1918C24.4562 93.4404 25.0857 93.833 25.7461 93.918C26.1183 93.966 26.5139 93.9232 26.9044 93.734C27.2831 93.5505 27.5996 93.2572 27.8717 92.8948L26.4054 91.7938C26.254 91.9954 26.1496 92.0623 26.1049 92.0839C26.072 92.0999 26.0417 92.1073 25.9803 92.0994C25.9016 92.0893 25.7817 92.0537 25.5968 91.9646C25.4103 91.8746 25.2121 91.7581 24.9591 91.6098L24.0321 93.1918ZM27.8716 92.8949C28.2878 92.3409 28.5939 91.9622 28.8087 91.7168C28.9163 91.5938 28.9943 91.5119 29.0467 91.4613C29.1125 91.3976 29.1037 91.4168 29.0421 91.4523L28.1253 89.8644C27.9835 89.9463 27.8598 90.0583 27.772 90.1432C27.6707 90.2411 27.5564 90.3635 27.4287 90.5094C27.1729 90.8018 26.8366 91.2198 26.4055 91.7937L27.8716 92.8949ZM29.0421 91.4523L29.2604 91.3263L28.3436 89.7383L28.1253 89.8644L29.0421 91.4523ZM29.2604 91.3263C29.1987 91.3619 29.1777 91.36 29.2657 91.3348C29.3358 91.3148 29.4457 91.2882 29.6061 91.2564C29.926 91.1931 30.407 91.1174 31.0949 91.034L30.8742 89.2137C30.1617 89.3001 29.6315 89.3823 29.2503 89.4577C29.0602 89.4953 28.8971 89.5331 28.7617 89.5718C28.6443 89.6054 28.4854 89.6565 28.3436 89.7383L29.2604 91.3263ZM31.0947 91.034C31.5446 90.9795 31.9569 90.8522 32.3051 90.6159C32.6642 90.3723 32.899 90.0511 33.0436 89.7048C33.3001 89.0904 33.2749 88.349 33.2718 87.8574L31.4382 87.8688C31.4401 88.1622 31.4419 88.3921 31.4265 88.5987C31.4112 88.8035 31.3821 88.9251 31.3515 88.9983C31.3277 89.0555 31.3061 89.078 31.2758 89.0985C31.2347 89.1263 31.1247 89.1834 30.8743 89.2137L31.0947 91.034ZM33.2718 87.857C33.2718 87.8535 33.2714 87.8637 33.2659 87.8753C33.262 87.8836 33.2644 87.8734 33.2924 87.8472C33.3589 87.785 33.4974 87.699 33.7393 87.608C33.9725 87.5203 34.2413 87.4497 34.5242 87.3841C34.7749 87.3259 35.1016 87.2584 35.3263 87.1951L34.8286 85.4303C34.6574 85.4785 34.445 85.5201 34.1098 85.5979C33.8069 85.6682 33.4431 85.7604 33.0938 85.8918C32.7532 86.0199 32.359 86.2094 32.0395 86.5084C31.6967 86.8291 31.4344 87.2856 31.4383 87.8692L33.2718 87.857ZM35.3254 87.1953C35.4849 87.1505 35.7792 87.075 36.0232 86.9644C36.239 86.8666 36.7315 86.6052 36.8558 86.0103C36.9756 85.4368 36.6646 84.9613 36.4204 84.6693C36.1445 84.3395 35.7271 83.9763 35.1655 83.5609L34.0751 85.0351C34.5968 85.421 34.8773 85.6824 35.0139 85.8458C35.081 85.926 35.0869 85.9516 35.0772 85.9277C35.0648 85.8974 35.029 85.7882 35.0609 85.6354C35.0937 85.4783 35.1769 85.3755 35.2304 85.3262C35.2751 85.2849 35.3002 85.279 35.2663 85.2943C35.1833 85.3319 35.0659 85.3636 34.8294 85.43L35.3254 87.1953Z" fill="white" mask="url(#path-49-outside-1_218_2205)" />
	<path fill-rule="evenodd" clip-rule="evenodd" d="M19.3908 78.4673C20.0705 78.0749 21.1222 78.6243 21.7402 79.6947C22.3582 80.765 22.3082 81.9509 21.6286 82.3432C20.949 82.7356 19.8969 82.186 19.279 81.1157C18.661 80.0453 18.7112 78.8597 19.3908 78.4673Z" fill="white" />
	<path fill-rule="evenodd" clip-rule="evenodd" d="M25.81 85.0881C24.3123 85.9528 22.2049 85.2141 20.8828 83.8015C22.1961 84.3816 23.701 84.3728 24.973 83.6384C26.2448 82.9041 27.0048 81.6052 27.1592 80.1778C27.7215 82.029 27.3073 84.2236 25.81 85.0881Z" fill="white" />
	<path fill-rule="evenodd" clip-rule="evenodd" d="M25.5243 80.0955C24.8442 80.4881 23.7924 79.9384 23.1745 78.868C22.5565 77.7976 22.6064 76.6122 23.2865 76.2195C23.9665 75.8269 25.0179 76.3765 25.6359 77.4469C26.2539 78.5172 26.2043 79.7029 25.5243 80.0955Z" fill="white" />
	<defs>
		<clipPath id="clip0_218_2205">
			<rect width="53.5" height="6.5" fill="white" transform="translate(23.5 23)" />
		</clipPath>
	</defs>
</svg>
