<svg width="120" height="120" viewBox="0 0 120 120" fill="none" xmlns="http://www.w3.org/2000/svg">
	<rect width="120" height="120" fill="#2F3136" />
	<circle cx="60" cy="60" r="57" fill="#202225" />
	<path d="M101.546 37.687C97.3406 37.5975 93.1349 37.4901 88.9114 37.4006C88.285 37.3827 88.3208 38.3492 88.9293 38.367C93.1349 38.4565 97.3406 38.5639 101.564 38.6534C102.191 38.6713 102.155 37.7049 101.546 37.687Z" fill="#00AEF0" />
	<path d="M101.546 45.1167C97.3406 45.0272 93.1349 44.9198 88.9114 44.8303C88.285 44.8124 88.3208 45.7788 88.9293 45.7967C93.1349 45.8862 97.3406 45.9936 101.564 46.0831C102.191 46.101 102.155 45.1346 101.546 45.1167Z" fill="#00AEF0" />
	<path d="M101.546 54.1694C97.3406 54.0799 93.1349 53.9725 88.9114 53.8831C88.285 53.8652 88.3208 54.8316 88.9293 54.8495C93.1349 54.9389 97.3406 55.0463 101.564 55.1358C102.191 55.1358 102.155 54.1694 101.546 54.1694Z" fill="#00AEF0" />
	<path d="M100.616 51.6487C96.553 51.4697 96.7141 57.1787 100.365 57.3397C104.016 57.5008 104.392 51.8097 100.616 51.6487Z" fill="white" />
	<path d="M100.508 57.8219C100.455 57.8219 100.401 57.8219 100.347 57.8219C99.1123 57.7682 98.0743 57.1239 97.5195 56.0681C96.9468 54.9585 96.9826 53.5983 97.6269 52.5961C98.2532 51.6297 99.3091 51.1107 100.633 51.1823C101.886 51.236 102.853 51.8266 103.39 52.8467C103.944 53.9205 103.891 55.3522 103.228 56.3902C102.62 57.3029 101.654 57.8219 100.508 57.8219ZM100.419 52.1308C99.2912 52.1308 98.7185 52.6498 98.4322 53.0972C97.9848 53.8131 97.9669 54.8153 98.3785 55.6027C98.6112 56.0502 99.166 56.7839 100.383 56.8376C101.242 56.8734 101.958 56.5155 102.387 55.8354C102.871 55.0659 102.924 54.0279 102.513 53.2583C102.262 52.7751 101.707 52.1666 100.58 52.1308C100.526 52.1308 100.472 52.1308 100.419 52.1308Z" fill="#00AEF0" />
	<path d="M100.454 43.1462C96.3023 43.0746 96.6244 48.9088 100.365 48.9625C104.105 49.0341 104.32 43.2177 100.454 43.1462Z" fill="white" />
	<path d="M100.42 49.4629C100.402 49.4629 100.384 49.4629 100.366 49.4629C99.0952 49.445 98.0215 48.8186 97.4309 47.7448C96.8045 46.6352 96.8224 45.2393 97.4309 44.2013C98.0393 43.1991 99.1131 42.6622 100.455 42.6801C101.726 42.698 102.746 43.2707 103.301 44.2908C103.909 45.3825 103.874 46.8321 103.229 47.9059C102.639 48.8902 101.619 49.4629 100.42 49.4629ZM100.384 43.6465C99.1489 43.6465 98.5583 44.2192 98.272 44.7024C97.8246 45.4362 97.8246 46.4742 98.272 47.2795C98.5226 47.7269 99.1131 48.4786 100.366 48.4965C101.261 48.5144 101.977 48.1206 102.406 47.4227C102.889 46.6352 102.907 45.5615 102.46 44.774C102.191 44.2729 101.601 43.6823 100.437 43.6644C100.42 43.6465 100.402 43.6465 100.384 43.6465Z" fill="#00AEF0" />
	<path d="M100.562 35.3971C96.4097 35.3256 96.7318 41.1598 100.472 41.2135C104.213 41.2672 104.445 35.4687 100.562 35.3971Z" fill="white" />
	<path d="M100.544 41.6988C100.526 41.6988 100.509 41.6988 100.473 41.6988C98.2357 41.663 97.0546 39.8375 97.0725 38.1374C97.0904 36.5804 98.182 34.916 100.491 34.916C100.509 34.916 100.544 34.916 100.562 34.916C102.853 34.9518 103.873 36.7057 103.855 38.3163C103.837 40.0165 102.692 41.6988 100.544 41.6988ZM100.509 35.8824C98.7189 35.8824 98.0747 37.0994 98.0568 38.1553C98.0389 39.408 98.8621 40.7145 100.491 40.7324C100.509 40.7324 100.526 40.7324 100.544 40.7324C102.137 40.7324 102.889 39.4796 102.907 38.2984C102.925 37.1173 102.209 35.9003 100.58 35.8824C100.544 35.8824 100.526 35.8824 100.509 35.8824Z" fill="#00AEF0" />
	<path d="M91.1842 107.217C89.1082 110.456 85.4216 110.206 80.9474 110.725C80.7685 110.76 80.5716 110.778 80.3748 110.796C79.2652 110.903 78.084 111.011 76.8671 111.065C75.3995 111.154 73.8604 111.208 72.2856 111.244C71.8203 111.261 71.3549 111.279 70.8896 111.279C70.6928 111.279 70.4959 111.297 70.2812 111.297C69.9411 111.297 69.6011 111.315 69.2432 111.315C67.2388 111.351 65.1807 111.387 63.1763 111.422H63.0689C60.4918 111.494 57.9147 111.548 55.3913 111.566C54.9797 111.566 54.5681 111.566 54.1564 111.566C51.2751 111.584 48.519 111.584 45.942 111.53C38.0138 111.387 31.6785 110.903 28.0992 109.937C22.7481 108.487 24.6809 91.5037 25.5042 58.1089C26.2916 26.6111 22.8555 31.2284 60.5455 30.602C92.0791 30.083 91.9538 30.4231 92.7412 58.7532C93.3676 81.3564 93.4392 103.709 91.1842 107.217Z" fill="white" stroke="#121317" stroke-width="1.71472" />
	<path d="M51.4724 112.065C49.5038 112.065 47.6784 112.047 45.9424 112.011C37.2626 111.85 31.3926 111.313 27.9744 110.4C23.3213 109.148 23.6971 98.0698 24.4667 76.0035C24.6456 70.7061 24.8604 64.7108 25.0214 58.0891C25.093 55.512 25.1288 53.1676 25.1467 51.0737C25.4689 30.3317 25.6478 30.1348 48.0184 30.1706C51.6335 30.1706 55.7318 30.1885 60.5459 30.099C76.9391 29.8306 84.3661 29.8664 88.4465 33.4278C92.6343 37.0787 92.8312 44.1836 93.207 58.3397L93.2249 58.7155C94.0481 88.5131 93.5112 104.459 91.5963 107.448C89.7172 110.365 86.6569 110.633 83.0955 110.973C82.4333 111.027 81.7354 111.098 81.0195 111.188C80.8405 111.224 80.6437 111.242 80.4468 111.26H80.4289C79.3014 111.385 78.1203 111.474 76.9212 111.528C75.3463 111.617 73.7177 111.671 72.3218 111.707C71.8565 111.725 71.3912 111.743 70.908 111.743L68.1519 111.796C66.5055 111.832 64.859 111.85 63.2125 111.886H63.0872C60.3312 111.958 57.8078 112.011 55.4097 112.029C54.998 112.029 54.5864 112.029 54.1748 112.029C53.2442 112.047 52.3494 112.065 51.4724 112.065ZM45.5487 31.1549C36.2962 31.1549 31.4642 31.316 29.0124 33.5531C26.3637 35.9691 26.2921 41.0159 26.131 51.0916C26.0952 53.1676 26.0594 55.5299 26.0058 58.107C25.8447 64.7287 25.6299 70.724 25.451 76.0214C24.7351 96.8887 24.3235 108.378 28.2428 109.452C31.5358 110.347 37.4953 110.866 45.9782 111.027C48.4658 111.081 51.1503 111.081 54.1927 111.063C54.6043 111.063 55.0159 111.063 55.4275 111.063C57.8257 111.045 60.3312 111.009 63.1051 110.92H63.2304C64.859 110.884 66.5234 110.848 68.1698 110.83L70.9259 110.776C71.3912 110.776 71.8565 110.758 72.3218 110.741C73.7177 110.705 75.3284 110.651 76.9033 110.562C78.0845 110.508 79.2478 110.418 80.3752 110.293H80.4289C80.5721 110.275 80.7511 110.257 80.93 110.239C81.6638 110.15 82.3796 110.096 83.0597 110.025C86.4958 109.703 89.2161 109.452 90.8268 106.946C92.6164 104.173 93.1175 87.9583 92.3122 58.7513L92.2943 58.3755C91.4889 30.5822 91.4889 30.5822 60.5638 31.0833C55.7318 31.1549 51.6335 31.1549 48.0184 31.1549C47.1594 31.1549 46.3361 31.1549 45.5487 31.1549Z" fill="#000E23" />
	<circle cx="63.375" cy="66.375" r="6.375" fill="white" />
	<path d="M76.9219 102.33C76.6892 101.811 76.4744 101.309 76.2239 100.79C75.1501 98.4818 73.2889 93.435 69.9243 94.8309C68.6895 95.332 68.0273 96.6922 67.4546 97.8196C67.2578 98.1955 67.0788 98.5713 66.8998 98.9471C66.7746 99.2156 66.6493 99.484 66.5061 99.7525C66.4703 99.8241 66.4345 99.9135 66.3987 99.9851C65.8439 101.166 65.307 102.383 64.788 103.582C64.6449 103.94 64.4838 104.298 64.3406 104.656C64.1259 105.139 63.9111 105.64 63.7143 106.124C63.5353 106.535 63.3563 106.965 63.1774 107.376C62.9626 107.895 62.73 108.414 62.5152 108.951C62.3541 109.327 62.1931 109.703 62.0499 110.079C61.853 110.562 61.6562 111.045 61.4414 111.546C61.9425 111.546 62.4615 111.546 62.9805 111.546C66.1124 111.528 69.3159 111.475 72.5372 111.403H72.6625C75.1859 111.349 77.7272 111.314 80.2148 111.296C79.3021 108.253 78.1925 105.247 76.9219 102.33Z" fill="#00AEF0" />
	<path d="M69.4053 101.346C70.7476 101.435 72.0898 101.972 73.432 102.205C74.6669 102.42 75.8481 102.473 76.9219 102.348C76.6892 101.829 76.4565 101.328 76.2239 100.809C75.1501 98.5003 73.2889 93.4714 69.9243 94.8495C68.6895 95.3506 68.0273 96.7107 67.4546 97.8382C66.7567 99.1983 66.1303 100.612 65.5039 102.026C66.7925 101.65 68.0631 101.256 69.4053 101.346Z" fill="white" />
	<path d="M59.4015 91.8604C55.5 91.8604 55.8938 97.5514 59.4015 97.5514C62.9092 97.5514 63.0524 91.8604 59.4015 91.8604Z" fill="white" />
	<path d="M38.0506 89.4451C37.7821 89.4451 37.5674 89.2304 37.5674 88.9619V83.1277C37.5674 82.8592 37.7821 82.6445 38.0506 82.6445C38.319 82.6445 38.5338 82.8592 38.5338 83.1277V88.9619C38.5338 89.2304 38.3011 89.4451 38.0506 89.4451ZM42.6142 81.0875C42.3636 81.0875 42.1668 80.9085 42.131 80.658C42.0952 80.3895 42.292 80.1569 42.5605 80.1211C44.0638 79.96 45.925 79.8884 48.4126 79.8884C48.6811 79.8884 48.8958 80.1032 48.8958 80.3716C48.8958 80.6401 48.6811 80.8548 48.4126 80.8548C45.9429 80.8548 44.1175 80.9264 42.65 81.0875C42.65 81.0875 42.6321 81.0875 42.6142 81.0875ZM60.0632 81.0338C60.0453 81.0338 60.0632 81.0338 60.0632 81.0338C58.4168 81.0159 56.7703 80.9801 55.1775 80.9443L54.2469 80.9264C53.9784 80.9264 53.7637 80.6938 53.7637 80.4253C53.7637 80.1569 53.9963 79.9421 54.2648 79.9421L55.1954 79.96C56.8061 79.9958 58.4347 80.0316 60.0811 80.0495C60.3496 80.0495 60.5643 80.2643 60.5643 80.5327C60.5465 80.8191 60.3317 81.0338 60.0632 81.0338ZM65.8617 80.9801C65.6111 80.9801 65.3964 80.7833 65.3785 80.5327C65.3606 80.2643 65.5575 80.0316 65.8259 80.0137C67.7945 79.8526 69.6021 79.3515 71.2127 78.5283C71.4454 78.403 71.7496 78.4925 71.857 78.7431C71.9823 78.9757 71.8928 79.28 71.6423 79.3873C69.9242 80.2643 67.9914 80.8012 65.8975 80.9801C65.8975 80.9801 65.8796 80.9801 65.8617 80.9801ZM75.8658 75.7365C75.7584 75.7365 75.6511 75.7007 75.5616 75.6291C75.3468 75.468 75.311 75.1638 75.4721 74.949C76.5996 73.4815 77.4228 71.7992 77.906 69.9201C77.9776 69.6695 78.2461 69.5085 78.4966 69.5801C78.7472 69.6517 78.9082 69.9201 78.8366 70.1706C78.3176 72.1751 77.4407 73.9826 76.2238 75.5396C76.1522 75.6828 76.009 75.7365 75.8658 75.7365ZM78.8187 64.7838C78.5682 64.7838 78.3713 64.6048 78.3355 64.3543C78.1208 62.4394 77.5839 60.6318 76.707 59.0033C76.5817 58.7706 76.6712 58.4664 76.9038 58.3411C77.1365 58.2158 77.4407 58.3053 77.566 58.5379C78.4966 60.2739 79.0872 62.2067 79.3198 64.2469C79.3556 64.5154 79.1588 64.748 78.8903 64.7838C78.8545 64.7838 78.8366 64.7838 78.8187 64.7838ZM73.3961 54.8513C73.2887 54.8513 73.1992 54.8155 73.1098 54.7439C71.6602 53.6343 69.96 52.829 68.063 52.3458C67.8124 52.2742 67.6513 52.0236 67.705 51.7552C67.7766 51.4867 68.0272 51.3436 68.2956 51.3973C70.3179 51.9162 72.1255 52.7753 73.6825 53.9564C73.8972 54.1175 73.933 54.4218 73.7719 54.6365C73.6825 54.7976 73.5393 54.8513 73.3961 54.8513ZM62.4077 51.7552H62.3898C60.8149 51.7015 59.3474 51.6657 58.023 51.6657C57.504 51.6657 57.0208 51.6657 56.5913 51.6836C56.3408 51.6657 56.1081 51.4688 56.0902 51.2004C56.0902 50.9319 56.305 50.7172 56.5734 50.6993C57.0029 50.6993 57.4862 50.6814 58.023 50.6814C59.3474 50.6814 60.8328 50.7172 62.4256 50.7709C62.694 50.7888 62.9088 51.0035 62.8909 51.272C62.8909 51.5583 62.6761 51.7552 62.4077 51.7552ZM52.9583 49.3034C52.7078 49.3034 52.493 49.1065 52.4751 48.856C52.4393 48.2654 52.4215 47.6032 52.4215 46.8515C52.4215 45.742 52.4572 44.8829 52.4572 44.8471C52.4751 44.5787 52.7078 44.3818 52.9583 44.3818C53.2268 44.3997 53.4237 44.6145 53.4237 44.8829C53.4237 44.8829 53.3879 45.7599 53.3879 46.8515C53.3879 47.5674 53.4058 48.2296 53.4415 48.7844C53.4594 49.0528 53.2626 49.2855 52.9941 49.3034C52.9762 49.3034 52.9583 49.3034 52.9583 49.3034Z" fill="#000E23" />
	<path d="M63.6419 56.6572C49.79 56.6572 51.186 76.0391 63.6419 76.0391C76.1157 76.0391 76.5631 56.6572 63.6419 56.6572ZM63.5703 71.4397C57.0202 71.4397 56.3043 61.2566 63.5703 61.2566C70.3531 61.2566 70.1025 71.4397 63.5703 71.4397Z" fill="#00AEF0" />
	<path d="M44.9049 60.5244C37.281 60.5244 38.0505 71.1907 44.9049 71.1907C51.7592 71.1907 52.0097 60.5244 44.9049 60.5244ZM44.8333 67.4682C42.7573 67.4682 42.5246 64.229 44.8333 64.229C46.9987 64.2469 46.9271 67.4682 44.8333 67.4682Z" fill="#00AEF0" />
	<path d="M64.447 52.4164C60.7066 52.0048 60.7782 52.7206 61.0467 56.2999C61.1003 57.1232 61.154 58.2149 61.5299 58.5012C62.9616 59.5392 66.2545 56.98 66.2545 56.98C66.2545 56.98 66.3261 55.7272 66.2366 54.0271C66.1472 52.3269 65.2702 52.5059 64.447 52.4164Z" fill="#00AEF0" />
	<path d="M62.7643 79.9058C66.5047 80.3174 66.4331 79.6016 66.1647 76.0223C66.111 75.199 66.0573 74.1073 65.6815 73.821C64.2497 72.783 60.9568 75.3422 60.9568 75.3422C60.9568 75.3422 60.8852 76.595 60.9747 78.2951C61.0642 79.9953 61.9411 79.8163 62.7643 79.9058Z" fill="#00AEF0" />
	<path d="M75.9906 60.15C74.5052 56.6781 73.9325 57.1076 70.9259 59.0941C70.2459 59.5415 69.2974 60.1321 69.2437 60.5974C69.0468 62.3692 72.8766 63.962 72.8766 63.962C72.8766 63.962 73.9862 63.4072 75.4358 62.4944C76.8855 61.5817 76.3128 60.9017 75.9906 60.15Z" fill="#00AEF0" />
	<path d="M52.8683 66.8421C53.4947 64.3723 52.9936 64.3544 50.5775 64.1934C50.0228 64.1576 49.2711 64.086 49.0563 64.3187C48.2331 65.1777 49.6469 67.6295 49.6469 67.6295C49.6469 67.6295 50.4702 67.7906 51.6334 67.898C52.7788 68.0053 52.743 67.379 52.8683 66.8421Z" fill="#00AEF0" />
	<path d="M38.0498 61.3457C36.5286 63.4038 36.976 63.6006 39.1594 64.6565C39.6605 64.9071 40.3227 65.2471 40.609 65.1218C41.7007 64.6386 41.3249 61.8468 41.3249 61.8468C41.3249 61.8468 40.6269 61.3815 39.5889 60.8446C38.5688 60.3256 38.3719 60.8983 38.0498 61.3457Z" fill="#00AEF0" />
	<path d="M47.3562 58.3399C45.0118 57.3556 44.9223 57.8209 44.3854 60.2011C44.2601 60.738 44.0812 61.4718 44.278 61.7223C45.0118 62.6708 47.6247 61.6507 47.6247 61.6507C47.6247 61.6507 47.911 60.8633 48.1795 59.7358C48.4658 58.6262 47.8573 58.5546 47.3562 58.3399Z" fill="#00AEF0" />
	<path d="M38.3368 70.4914C39.5895 72.7106 39.9474 72.3884 41.8087 70.8314C42.2382 70.4735 42.8288 70.0261 42.8288 69.686C42.8467 68.487 40.1443 67.6816 40.1443 67.6816C40.1443 67.6816 39.4284 68.1291 38.5157 68.8449C37.6209 69.5787 38.0504 70.0082 38.3368 70.4914Z" fill="#00AEF0" />
	<path d="M47.9284 73.4291C50.3623 72.6596 50.1118 72.2479 48.9843 70.1004C48.7159 69.5993 48.3937 68.9371 48.0895 68.8655C46.9083 68.615 45.584 71.0847 45.584 71.0847C45.584 71.0847 45.8882 71.8721 46.3893 72.9101C46.8904 73.9481 47.3915 73.6081 47.9284 73.4291Z" fill="#00AEF0" />
	<path d="M51.2218 72.1733C52.7073 75.6452 53.2799 75.2157 56.2865 73.2292C56.9666 72.7818 57.9151 72.1912 57.9688 71.7259C58.1657 69.9541 54.3358 68.3613 54.3358 68.3613C54.3358 68.3613 53.2263 68.9161 51.7766 69.8288C50.327 70.7416 50.8818 71.4216 51.2218 72.1733Z" fill="#00AEF0" />
	<path d="M74.4523 74.6449C76.9041 71.7815 76.2777 71.4594 73.1816 69.6339C72.4658 69.2223 71.5351 68.6317 71.0877 68.7928C69.4055 69.3834 69.6739 73.5354 69.6739 73.5354C69.6739 73.5354 70.6582 74.287 72.1078 75.1997C73.5575 76.1124 73.9154 75.2713 74.4523 74.6449Z" fill="#00AEF0" />
	<path d="M52.7439 57.6793C50.292 60.5427 50.9184 60.8649 54.0145 62.6903C54.7304 63.1019 55.661 63.6925 56.1084 63.5314C57.7907 62.9409 57.5222 58.7889 57.5222 58.7889C57.5222 58.7889 56.5379 58.0372 55.0883 57.1245C53.6566 56.2297 53.2808 57.0529 52.7439 57.6793Z" fill="#00AEF0" />
	<path d="M61.2081 60.9363C60.6175 61.1331 60.8681 62.0637 61.4587 61.8669C66.7202 60.113 70.3532 66.7884 66.0581 70.2782C65.5749 70.6719 66.2549 71.352 66.7381 70.9583C71.8207 66.8421 67.3824 58.8603 61.2081 60.9363Z" fill="#000E23" />
	<path d="M46.336 64.7672C45.6201 63.7829 44.1705 63.7292 43.2757 64.4809C42.7925 64.8746 43.4904 65.5547 43.9557 65.1609C44.421 64.7851 45.2085 64.8567 45.5664 65.3578C45.9243 65.8589 45.7275 66.6284 45.2085 66.9327C44.6895 67.2727 45.1727 68.1138 45.6917 67.7738C46.7118 67.1474 47.0518 65.7336 46.336 64.7672Z" fill="#000E23" />
	<path d="M39.1772 88.5327C31.267 88.0674 32.5197 88.9264 32.0902 93.5616C31.6607 98.1968 32.4481 98.6442 38.0855 98.9663C43.7229 99.3064 44.2777 98.161 44.2061 94.0806C44.1345 90.0002 43.8482 88.819 39.1772 88.5327Z" fill="#00AEF0" />
	<path d="M39.9833 91.1624C39.1959 92.612 38.4084 94.0616 37.621 95.5112C37.2631 94.8132 36.923 94.0974 36.5651 93.3994C36.2788 92.8446 35.4197 93.2742 35.7061 93.8468L37.1736 96.7819C37.3346 97.0861 37.8358 97.1577 38.0147 96.8355C38.9453 95.1354 39.8759 93.4173 40.8066 91.7172C41.075 91.1624 40.2697 90.6255 39.9833 91.1624Z" fill="white" />
	<path d="M42.3279 98.2481C41.0573 98.2481 39.7687 98.266 38.4981 98.266C37.2453 98.266 35.6167 98.5703 34.4177 98.2839C32.4133 97.8186 32.7891 96.1184 32.807 94.472C32.8249 93.0045 32.8428 91.5548 32.8607 90.0873C32.8607 89.461 31.8943 89.4073 31.8943 90.0336C31.8764 92.1454 31.7511 94.293 31.8227 96.4048C31.8406 97.228 31.8585 98.0513 32.5027 98.6597C33.4155 99.5188 35.044 99.2503 36.1536 99.2324C38.1938 99.2145 40.234 99.2145 42.2742 99.1966C42.9006 99.2145 42.9543 98.2481 42.3279 98.2481Z" fill="#000E23" />
	<path d="M40.2509 43.0406C38.0138 43.0406 36.7969 41.233 36.7969 39.5329C36.7969 38.6738 37.1011 37.8685 37.6559 37.2779C38.2823 36.6157 39.1771 36.2578 40.2509 36.2578C42.5416 36.2578 43.5975 37.9938 43.5975 39.6045C43.5975 41.3225 42.4522 43.0406 40.2509 43.0406ZM40.2509 37.2242C39.4456 37.2242 38.8013 37.4748 38.3718 37.9401C37.9959 38.3517 37.7812 38.9065 37.7812 39.5329C37.7812 40.7856 38.6402 42.0742 40.2509 42.0742C41.8795 42.0742 42.6311 40.8035 42.6311 39.6045C42.6311 38.9602 42.4164 38.3875 42.0405 37.958C41.6289 37.4748 41.0025 37.2242 40.2509 37.2242Z" fill="#000E23" />
	<path d="M65.7541 36.1128C46.4617 35.9338 46.7659 35.1106 46.7659 40.6585C46.7659 45.3473 47.4639 44.0767 64.7698 44.2199C82.0756 44.363 82.362 44.0767 82.4694 39.6742C82.5767 35.2716 81.1629 36.2559 65.7541 36.1128Z" fill="white" />
	<path d="M52.5811 44.7568C49.2882 44.7568 47.8207 44.5957 47.0153 43.8082C46.3174 43.1282 46.2637 42.0723 46.2637 40.6764V40.4258C46.2637 38.6183 46.2637 37.4192 47.069 36.6139C48.3218 35.379 51.0599 35.4327 59.2028 35.558C61.082 35.5938 63.2474 35.6296 65.735 35.6474C68.5627 35.6653 70.9429 35.6653 72.8578 35.6474C78.8531 35.6117 81.0902 35.6117 82.1819 36.7212C82.8262 37.3834 82.9335 38.314 82.9156 39.692C82.8083 44.6136 81.9492 44.8641 64.7328 44.721C61.0462 44.6852 58.129 44.721 55.7846 44.7568C54.5676 44.7568 53.5117 44.7568 52.5811 44.7568ZM53.8518 36.4528C50.2188 36.4528 48.4649 36.6139 47.7849 37.2939C47.2659 37.8129 47.2659 38.7793 47.2659 40.4079V40.6585C47.2659 42.0186 47.3375 42.7166 47.7312 43.1103C48.4828 43.844 50.7736 43.8261 55.8204 43.7545C58.1648 43.7188 61.0998 43.7009 64.7865 43.7188C81.9134 43.8619 81.9134 43.6293 82.0029 39.6384C82.0387 38.3498 81.9134 37.7234 81.5555 37.3655C80.7502 36.5423 78.2984 36.5602 72.9115 36.5781C70.9966 36.596 68.5985 36.596 65.7708 36.5781C63.2832 36.5602 61.1177 36.5244 59.2386 36.4886C57.0731 36.4886 55.3014 36.4528 53.8518 36.4528Z" fill="#000E23" />
	<path d="M37.7099 41.3026C36.6898 42.3764 35.6697 43.4502 34.6496 44.5418C34.2201 44.9893 34.9001 45.6872 35.3297 45.2219C36.3498 44.1481 37.3699 43.0743 38.4079 41.9826C38.8374 41.5352 38.1573 40.8552 37.7099 41.3026Z" fill="#000E23" />
	<path d="M76.4916 39.2815C69.1719 39.3173 61.8523 39.371 54.5147 39.4068C53.8883 39.4068 53.8883 40.3732 54.5147 40.3732C61.8344 40.3374 69.154 40.2837 76.4916 40.2479C77.118 40.2479 77.118 39.2636 76.4916 39.2815Z" fill="#000E23" />
	<path d="M89.6257 108.627C89.6072 109.377 83.6257 110.877 80.2139 111.295C77.7083 111.33 75.167 111.366 72.6615 111.402H72.5363C69.3149 111.474 66.1114 111.527 62.9796 111.545C62.4606 111.545 61.9595 111.545 61.4405 111.545C57.8612 111.563 54.425 111.563 51.2037 111.509C51.1858 110.632 51.1858 109.773 51.1679 108.95C51.0963 103.474 50.9531 99.2682 50.9531 96.0289C50.9531 86.9733 52.9396 87.7965 70.9614 87.7607C84.1869 87.7249 88.7326 86.7585 88.9294 91.0895C89.2695 98.4628 89.7689 102.828 89.6257 108.627Z" fill="#000E23" />
	<path d="M76.9203 102.33C76.6877 101.811 76.4729 101.309 76.2224 100.79C75.1486 98.4818 73.2873 93.435 69.9228 94.8309C68.6879 95.332 68.0258 96.6922 67.4531 97.8196C67.2562 98.1955 67.0773 98.5713 66.8983 98.9471C66.773 99.2156 66.6478 99.484 66.5046 99.7525C66.4688 99.8241 66.433 99.9135 66.3972 99.9851C65.8424 101.166 65.3055 102.383 64.7865 103.582C64.6433 103.94 64.4823 104.298 64.3391 104.656C64.1243 105.139 63.9096 105.64 63.7127 106.124C63.5338 106.535 63.3548 106.965 63.1758 107.376C62.9611 107.895 62.7284 108.414 62.5137 108.951C62.3526 109.327 62.1915 109.703 62.0484 110.079C61.9231 110.365 61.7978 110.651 61.6904 110.956C62.1557 110.938 62.6031 110.938 63.0864 110.92H63.1937C64.8223 110.884 66.4867 110.848 68.1332 110.812L70.8892 110.759C71.3545 110.759 71.8198 110.741 72.2851 110.723C73.6811 110.687 75.3096 110.634 76.8666 110.544C77.9046 110.49 78.9247 110.419 79.9269 110.311C79.0679 107.627 78.0657 104.942 76.9203 102.33Z" fill="#00AEF0" />
	<path d="M69.4034 101.346C70.7456 101.435 72.0879 101.972 73.4301 102.205C74.6649 102.42 75.8461 102.473 76.9199 102.348C76.6872 101.829 76.4546 101.328 76.2219 100.809C75.1482 98.5003 73.2869 93.4714 69.9224 94.8495C68.6875 95.3506 68.0254 96.7107 67.4527 97.8382C66.7547 99.1983 66.1283 100.612 65.502 102.026C66.7905 101.65 68.0612 101.256 69.4034 101.346Z" fill="white" />
	<path d="M59.3995 91.8604C55.4981 91.8604 55.8918 97.5514 59.3995 97.5514C62.9072 97.5514 63.0504 91.8604 59.3995 91.8604Z" fill="#D4D6D9" />
	<path d="M38.0496 89.4451C37.7812 89.4451 37.5664 89.2304 37.5664 88.9619V83.1277C37.5664 82.8592 37.7812 82.6445 38.0496 82.6445C38.3181 82.6445 38.5328 82.8592 38.5328 83.1277V88.9619C38.5328 89.2304 38.3002 89.4451 38.0496 89.4451ZM42.6132 81.0875C42.3627 81.0875 42.1658 80.9085 42.13 80.658C42.0942 80.3895 42.2911 80.1569 42.5595 80.1211C44.0628 79.96 45.9241 79.8884 48.4117 79.8884C48.6801 79.8884 48.8949 80.1032 48.8949 80.3716C48.8949 80.6401 48.6801 80.8548 48.4117 80.8548C45.9419 80.8548 44.1165 80.9264 42.649 81.0875C42.649 81.0875 42.6311 81.0875 42.6132 81.0875ZM60.0623 81.0338C60.0444 81.0338 60.0623 81.0338 60.0623 81.0338C58.4158 81.0159 56.7693 80.9801 55.1765 80.9443L54.2459 80.9264C53.9775 80.9264 53.7627 80.6938 53.7627 80.4253C53.7627 80.1569 53.9954 79.9421 54.2638 79.9421L55.1944 79.96C56.8051 79.9958 58.4337 80.0316 60.0802 80.0495C60.3486 80.0495 60.5634 80.2643 60.5634 80.5327C60.5455 80.8191 60.3307 81.0338 60.0623 81.0338ZM65.8607 80.9801C65.6102 80.9801 65.3954 80.7833 65.3775 80.5327C65.3596 80.2643 65.5565 80.0316 65.8249 80.0137C67.7935 79.8526 69.6011 79.3515 71.2118 78.5283C71.4444 78.403 71.7487 78.4925 71.856 78.7431C71.9813 78.9757 71.8918 79.28 71.6413 79.3873C69.9232 80.2643 67.9904 80.8012 65.8965 80.9801C65.8965 80.9801 65.8786 80.9801 65.8607 80.9801ZM75.8649 75.7365C75.7575 75.7365 75.6501 75.7007 75.5606 75.6291C75.3459 75.468 75.3101 75.1638 75.4711 74.949C76.5986 73.4815 77.4218 71.7992 77.905 69.9201C77.9766 69.6695 78.2451 69.5085 78.4956 69.5801C78.7462 69.6517 78.9072 69.9201 78.8357 70.1706C78.3167 72.1751 77.4397 73.9826 76.2228 75.5396C76.1512 75.6828 76.008 75.7365 75.8649 75.7365ZM78.8178 64.7838C78.5672 64.7838 78.3704 64.6048 78.3346 64.3543C78.1198 62.4394 77.5829 60.6318 76.706 59.0033C76.5807 58.7706 76.6702 58.4664 76.9028 58.3411C77.1355 58.2158 77.4397 58.3053 77.565 58.5379C78.4956 60.2739 79.0862 62.2067 79.3189 64.2469C79.3547 64.5154 79.1578 64.748 78.8894 64.7838C78.8536 64.7838 78.8357 64.7838 78.8178 64.7838ZM73.3951 54.8513C73.2878 54.8513 73.1983 54.8155 73.1088 54.7439C71.6592 53.6343 69.959 52.829 68.062 52.3458C67.8114 52.2742 67.6504 52.0236 67.7041 51.7552C67.7756 51.4867 68.0262 51.3436 68.2946 51.3973C70.3169 51.9162 72.1245 52.7753 73.6815 53.9564C73.8962 54.1175 73.932 54.4218 73.771 54.6365C73.6815 54.7976 73.5383 54.8513 73.3951 54.8513ZM62.4067 51.7552H62.3888C60.8139 51.7015 59.3464 51.6657 58.0221 51.6657C57.5031 51.6657 57.0199 51.6657 56.5904 51.6836C56.3398 51.6657 56.1071 51.4688 56.0893 51.2004C56.0893 50.9319 56.304 50.7172 56.5725 50.6993C57.002 50.6993 57.4852 50.6814 58.0221 50.6814C59.3464 50.6814 60.8318 50.7172 62.4246 50.7709C62.6931 50.7888 62.9078 51.0035 62.8899 51.272C62.8899 51.5583 62.6752 51.7552 62.4067 51.7552ZM52.9574 49.3034C52.7068 49.3034 52.4921 49.1065 52.4742 48.856C52.4384 48.2654 52.4205 47.6032 52.4205 46.8515C52.4205 45.742 52.4563 44.8829 52.4563 44.8471C52.4742 44.5787 52.7068 44.3818 52.9574 44.3818C53.2258 44.3997 53.4227 44.6145 53.4227 44.8829C53.4227 44.8829 53.3869 45.7599 53.3869 46.8515C53.3869 47.5674 53.4048 48.2296 53.4406 48.7844C53.4585 49.0528 53.2616 49.2855 52.9932 49.3034C52.9753 49.3034 52.9574 49.3034 52.9574 49.3034Z" fill="#000E23" />
	<path d="M63.6419 56.6602C49.79 56.6602 51.186 76.042 63.6419 76.042C76.1157 76.042 76.5631 56.6602 63.6419 56.6602ZM63.5703 71.4426C57.0202 71.4426 56.3043 61.2595 63.5703 61.2595C70.3531 61.2595 70.1025 71.4426 63.5703 71.4426Z" fill="#00AEF0" />
	<path d="M44.9029 60.5244C37.279 60.5244 38.0485 71.1907 44.9029 71.1907C51.7572 71.1907 52.0078 60.5244 44.9029 60.5244ZM44.8313 67.4682C42.7553 67.4682 42.5227 64.229 44.8313 64.229C46.9968 64.2469 46.9252 67.4682 44.8313 67.4682Z" fill="#00AEF0" />
	<path d="M64.448 52.4164C60.7076 52.0048 60.7792 52.7206 61.0476 56.2999C61.1013 57.1232 61.155 58.2149 61.5308 58.5012C62.9626 59.5392 66.2555 56.98 66.2555 56.98C66.2555 56.98 66.3271 55.7272 66.2376 54.0271C66.1481 52.3269 65.2712 52.5059 64.448 52.4164Z" fill="#00AEF0" />
	<path d="M62.7653 79.9058C66.5057 80.3174 66.4341 79.6016 66.1656 76.0223C66.112 75.199 66.0583 74.1073 65.6824 73.821C64.2507 72.783 60.9578 75.3422 60.9578 75.3422C60.9578 75.3422 60.8862 76.595 60.9757 78.2951C61.0652 79.9953 61.9421 79.8163 62.7653 79.9058Z" fill="#00AEF0" />
	<path d="M75.9887 60.15C74.5033 56.6781 73.9306 57.1076 70.924 59.0941C70.2439 59.5415 69.2954 60.1321 69.2417 60.5974C69.0449 62.3692 72.8747 63.962 72.8747 63.962C72.8747 63.962 73.9843 63.4072 75.4339 62.4944C76.8835 61.5817 76.3108 60.9017 75.9887 60.15Z" fill="#00AEF0" />
	<path d="M52.8663 66.8421C53.4927 64.3723 52.9916 64.3544 50.5756 64.1934C50.0208 64.1576 49.2692 64.086 49.0544 64.3187C48.2312 65.1777 49.645 67.6295 49.645 67.6295C49.645 67.6295 50.4682 67.7906 51.6315 67.898C52.7769 68.0053 52.7411 67.379 52.8663 66.8421Z" fill="#00AEF0" />
	<path d="M38.0498 61.3457C36.5286 63.4038 36.976 63.6006 39.1594 64.6565C39.6605 64.9071 40.3227 65.2471 40.609 65.1218C41.7007 64.6386 41.3249 61.8468 41.3249 61.8468C41.3249 61.8468 40.6269 61.3815 39.5889 60.8446C38.5688 60.3256 38.3719 60.8983 38.0498 61.3457Z" fill="#00AEF0" />
	<path d="M47.3562 58.3399C45.0118 57.3556 44.9223 57.8209 44.3854 60.2011C44.2601 60.738 44.0812 61.4718 44.278 61.7223C45.0118 62.6708 47.6247 61.6507 47.6247 61.6507C47.6247 61.6507 47.911 60.8633 48.1795 59.7358C48.4658 58.6262 47.8573 58.5546 47.3562 58.3399Z" fill="#00AEF0" />
	<path d="M38.3358 70.4914C39.5885 72.7106 39.9465 72.3884 41.8077 70.8314C42.2372 70.4735 42.8278 70.0261 42.8278 69.686C42.8457 68.487 40.1433 67.6816 40.1433 67.6816C40.1433 67.6816 39.4275 68.1291 38.5147 68.8449C37.6199 69.5787 38.0494 70.0082 38.3358 70.4914Z" fill="#00AEF0" />
	<path d="M47.9294 73.4291C50.3633 72.6596 50.1128 72.2479 48.9853 70.1004C48.7168 69.5993 48.3947 68.9371 48.0905 68.8655C46.9093 68.615 45.585 71.0847 45.585 71.0847C45.585 71.0847 45.8892 71.8721 46.3903 72.9101C46.8914 73.9481 47.3925 73.6081 47.9294 73.4291Z" fill="#00AEF0" />
	<path d="M51.2228 72.1733C52.7082 75.6452 53.2809 75.2157 56.2875 73.2292C56.9676 72.7818 57.9161 72.1912 57.9698 71.7259C58.1667 69.9541 54.3368 68.3613 54.3368 68.3613C54.3368 68.3613 53.2272 68.9161 51.7776 69.8288C50.328 70.7416 50.8828 71.4216 51.2228 72.1733Z" fill="#00AEF0" />
	<path d="M74.4513 74.6449C76.9031 71.7815 76.2767 71.4594 73.1806 69.6339C72.4648 69.2223 71.5342 68.6317 71.0868 68.7928C69.4045 69.3834 69.6729 73.5354 69.6729 73.5354C69.6729 73.5354 70.6572 74.287 72.1069 75.1997C73.5565 76.1124 73.9144 75.2713 74.4513 74.6449Z" fill="#00AEF0" />
	<path d="M52.7429 57.6793C50.2911 60.5427 50.9174 60.8649 54.0135 62.6903C54.7294 63.1019 55.66 63.6925 56.1074 63.5314C57.7897 62.9409 57.5212 58.7889 57.5212 58.7889C57.5212 58.7889 56.5369 58.0372 55.0873 57.1245C53.6556 56.2297 53.2798 57.0529 52.7429 57.6793Z" fill="#00AEF0" />
	<path d="M61.2081 60.9363C60.6175 61.1331 60.8681 62.0637 61.4587 61.8669C66.7202 60.113 70.3532 66.7884 66.0581 70.2782C65.5749 70.6719 66.2549 71.352 66.7381 70.9583C71.8207 66.8421 67.3824 58.8603 61.2081 60.9363Z" fill="#000E23" />
	<path d="M46.336 64.7672C45.6201 63.7829 44.1705 63.7292 43.2757 64.4809C42.7925 64.8746 43.4904 65.5547 43.9557 65.1609C44.421 64.7851 45.2085 64.8567 45.5664 65.3578C45.9243 65.8589 45.7275 66.6284 45.2085 66.9327C44.6895 67.2727 45.1727 68.1138 45.6917 67.7738C46.7118 67.1474 47.0518 65.7336 46.336 64.7672Z" fill="#000E23" />
	<path d="M39.1782 88.5327C31.268 88.0674 32.5207 88.9264 32.0912 93.5616C31.6617 98.1968 32.4491 98.6442 38.0865 98.9663C43.7239 99.3064 44.2787 98.161 44.2071 94.0806C44.1355 90.0002 43.8492 88.819 39.1782 88.5327Z" fill="#00AEF0" />
	<path d="M39.9833 91.1624C39.1959 92.612 38.4084 94.0616 37.621 95.5112C37.2631 94.8132 36.923 94.0974 36.5651 93.3994C36.2788 92.8446 35.4197 93.2742 35.7061 93.8468L37.1736 96.7819C37.3346 97.0861 37.8358 97.1577 38.0147 96.8355C38.9453 95.1354 39.8759 93.4173 40.8066 91.7172C41.075 91.1624 40.2697 90.6255 39.9833 91.1624Z" fill="white" />
	<path d="M42.3269 98.2481C41.0563 98.2481 39.7677 98.266 38.4971 98.266C37.2443 98.266 35.6158 98.5703 34.4167 98.2839C32.4123 97.8186 32.7881 96.1184 32.806 94.472C32.8239 93.0045 32.8418 91.5548 32.8597 90.0873C32.8597 89.461 31.8933 89.4073 31.8933 90.0336C31.8754 92.1454 31.7501 94.293 31.8217 96.4048C31.8396 97.228 31.8575 98.0513 32.5018 98.6597C33.4145 99.5188 35.0431 99.2503 36.1526 99.2324C38.1928 99.2145 40.233 99.2145 42.2732 99.1966C42.8996 99.2145 42.9533 98.2481 42.3269 98.2481Z" fill="#000E23" />
	<path d="M40.2509 43.0406C38.0138 43.0406 36.7969 41.233 36.7969 39.5329C36.7969 38.6738 37.1011 37.8685 37.6559 37.2779C38.2823 36.6157 39.1771 36.2578 40.2509 36.2578C42.5416 36.2578 43.5975 37.9938 43.5975 39.6045C43.5975 41.3225 42.4522 43.0406 40.2509 43.0406ZM40.2509 37.2242C39.4456 37.2242 38.8013 37.4748 38.3718 37.9401C37.9959 38.3517 37.7812 38.9065 37.7812 39.5329C37.7812 40.7856 38.6402 42.0742 40.2509 42.0742C41.8795 42.0742 42.6311 40.8035 42.6311 39.6045C42.6311 38.9602 42.4164 38.3875 42.0405 37.958C41.6289 37.4748 41.0025 37.2242 40.2509 37.2242Z" fill="#000E23" />
	<path d="M65.7531 36.1128C46.4607 35.9338 46.7649 35.1106 46.7649 40.6585C46.7649 45.3473 47.4629 44.0767 64.7688 44.2199C82.0747 44.363 82.361 44.0767 82.4684 39.6742C82.5758 35.2716 81.1619 36.2559 65.7531 36.1128Z" fill="#D4D6D9" />
	<path d="M52.5831 44.7568C49.2901 44.7568 47.8226 44.5957 47.0173 43.8082C46.3193 43.1282 46.2656 42.0723 46.2656 40.6764V40.4258C46.2656 38.6183 46.2656 37.4192 47.071 36.6139C48.3237 35.379 51.0619 35.4327 59.2048 35.558C61.0839 35.5938 63.2494 35.6296 65.737 35.6474C68.5646 35.6653 70.9449 35.6653 72.8598 35.6474C78.8551 35.6117 81.0922 35.6117 82.1838 36.7212C82.8281 37.3834 82.9355 38.314 82.9176 39.692C82.8102 44.6136 81.9512 44.8641 64.7348 44.721C61.0481 44.6852 58.131 44.721 55.7865 44.7568C54.5696 44.7568 53.5137 44.7568 52.5831 44.7568ZM53.8537 36.4528C50.2207 36.4528 48.4669 36.6139 47.7868 37.2939C47.2678 37.8129 47.2678 38.7793 47.2678 40.4079V40.6585C47.2678 42.0186 47.3394 42.7166 47.7331 43.1103C48.4848 43.844 50.7755 43.8261 55.8223 43.7545C58.1668 43.7188 61.1018 43.7009 64.7885 43.7188C81.9154 43.8619 81.9154 43.6293 82.0049 39.6384C82.0407 38.3498 81.9154 37.7234 81.5575 37.3655C80.7521 36.5423 78.3003 36.5602 72.9135 36.5781C70.9985 36.596 68.6004 36.596 65.7728 36.5781C63.2852 36.5602 61.1197 36.5244 59.2406 36.4886C57.0751 36.4886 55.3033 36.4528 53.8537 36.4528Z" fill="#000E23" />
	<path d="M37.7089 41.3026C36.6888 42.3764 35.6687 43.4502 34.6486 44.5418C34.2191 44.9893 34.8992 45.6872 35.3287 45.2219C36.3488 44.1481 37.3689 43.0743 38.4069 41.9826C38.8364 41.5352 38.1563 40.8552 37.7089 41.3026Z" fill="#000E23" />
	<path d="M76.4925 39.2815C69.1729 39.3173 61.8532 39.371 54.5157 39.4068C53.8893 39.4068 53.8893 40.3732 54.5157 40.3732C61.8353 40.3374 69.155 40.2837 76.4925 40.2479C77.1189 40.2479 77.1189 39.2636 76.4925 39.2815Z" fill="#000E23" />
	<path d="M83.3997 102.206C83.0417 102.403 82.5228 102.295 82.3438 101.902C82.1648 101.526 82.4154 101.025 82.7912 100.9C83.3818 100.703 83.1312 99.7542 82.5406 99.9689C81.61 100.291 81.0373 101.347 81.449 102.278C81.8606 103.208 83.0417 103.512 83.8829 103.047C84.4377 102.725 83.9545 101.902 83.3997 102.206Z" fill="#000E23" />
	<path d="M86.9433 98.4484C86.7643 98.7168 86.2632 98.7705 86.0485 98.502C85.8337 98.2336 86.0306 97.7504 86.3348 97.6609C86.9254 97.4641 86.6749 96.5334 86.0843 96.7303C85.1358 97.0345 84.6526 98.2694 85.2968 99.0926C85.9232 99.9159 87.2476 99.7727 87.7844 98.9316C88.1245 98.4126 87.2833 97.9294 86.9433 98.4484Z" fill="#000E23" />
	<path d="M38.0679 55.5319C36.0098 56.3194 34.4528 57.948 33.8265 60.0597C33.6475 60.6503 34.5781 60.9188 34.7571 60.3103C35.294 58.5386 36.5825 57.1068 38.3364 56.4626C38.909 56.2478 38.6585 55.3172 38.0679 55.5319Z" fill="#000E23" />
	<path d="M32.7887 56.2285C31.7328 56.837 30.8917 57.7318 30.3548 58.8235C30.0864 59.3783 30.9096 59.8794 31.1959 59.3067C31.6613 58.3582 32.3592 57.5887 33.2719 57.0518C33.8088 56.7475 33.3256 55.9064 32.7887 56.2285Z" fill="#000E23" />
	<path d="M47.1948 75.1078C46.5863 74.6604 45.6736 74.732 45.1367 75.251C44.6177 75.77 44.5461 76.6111 44.9041 77.2375C45.2262 77.7744 46.0673 77.2911 45.7452 76.7543C45.3515 76.0921 46.121 75.5194 46.6937 75.9489C46.9085 76.11 47.2306 75.9847 47.3559 75.7699C47.4991 75.5373 47.3917 75.2688 47.1948 75.1078Z" fill="#000E23" />
	<path d="M45.3164 56.5331C44.8689 57.249 43.813 56.6226 44.2068 55.8889C44.511 55.3341 43.6699 54.8509 43.3656 55.4057C42.954 56.1573 43.1688 57.1774 43.9383 57.6248C44.7079 58.0722 45.6922 57.7501 46.1575 57.0342C46.4796 56.4973 45.6564 56.0141 45.3164 56.5331Z" fill="#000E23" />
	<path d="M65.8605 107.198C64.214 107.467 63.8382 105.767 63.7666 104.424C63.7845 104.156 63.7845 103.87 63.7487 103.583C63.6771 102.975 62.7823 102.939 62.7823 103.583C62.7823 103.798 62.7823 104.031 62.8002 104.263C62.7644 105.426 62.2633 106.482 61.3506 107.252C60.9747 107.162 60.6526 107.664 60.8853 108.021C60.9389 108.236 61.1179 108.415 61.3327 108.397C62.0127 108.97 62.478 109.668 62.7465 110.545C62.8897 111.01 63.5339 110.992 63.6771 110.545C64.0708 109.328 64.912 108.505 66.1289 108.129C66.7195 107.95 66.4689 107.091 65.8605 107.198ZM63.2297 109.221C62.9433 108.702 62.5854 108.254 62.1559 107.843C62.6212 107.413 62.9791 106.93 63.2476 106.411C63.4981 107.055 63.8919 107.61 64.4466 107.914C63.9455 108.254 63.5339 108.702 63.2297 109.221Z" fill="white" />
	<path d="M89.2164 82.7712C88.3037 82.3596 88.0889 81.4469 87.8921 80.552C87.7668 79.9793 86.9972 80.1762 86.9436 80.6773C86.8541 81.3753 86.7109 82.467 85.7624 82.5027C85.5297 82.5027 85.3866 82.6638 85.315 82.8428C84.9928 83.0754 85.0823 83.7018 85.6013 83.7197C86.4782 83.7555 87.0688 84.4535 87.033 85.3125C87.0151 85.9389 87.9458 85.921 87.9994 85.3125C88.071 84.525 88.5184 83.9703 89.2164 83.6123C89.5385 83.4513 89.5385 82.9144 89.2164 82.7712ZM87.552 83.7913C87.3552 83.5228 87.1046 83.2902 86.8183 83.1291C87.0867 82.9323 87.3015 82.6638 87.4626 82.3417C87.6236 82.6638 87.8384 82.9502 88.0889 83.2007C87.8921 83.3618 87.6952 83.5586 87.552 83.7913Z" fill="#00AEF0" />
	<path d="M112.608 0.754474C96.8001 1.36859 77.8534 5.00782 65.3435 19.4283C52.8337 33.8487 69.6196 41.6958 74.2824 42.5373C79.1953 43.4244 83.3122 42.8558 83.9718 39.3758C83.9718 39.3758 88.7938 39.8534 89.4762 35.3499C89.4762 35.3499 96.5726 34.4173 92.5467 28.0032C92.5467 28.0032 106.558 24.9098 112.29 24.7734C118.044 24.6369 116.497 17.8588 116.588 10.262C116.679 2.66507 115.11 0.640749 112.608 0.754474Z" fill="#00AEF0" />
	<path d="M79.8546 33.2566C79.6044 27.775 80.4459 26.6377 74.2592 26.4103C74.3275 23.1577 74.2138 22.2934 71.4161 22.4071C68.2318 22.5209 67.8224 21.975 67.7086 26.3421C65.7526 26.3421 64.0467 26.3193 62.5682 26.2966C62.6365 22.9985 62.5455 22.1342 59.7251 22.2479C56.4953 22.3617 56.1086 21.8158 56.0176 26.3648C52.6741 26.6605 52.3784 27.7295 52.1737 31.1185C51.8553 36.9413 51.4913 39.8527 54.4937 39.7845C57.4961 39.7162 73.4632 40.2848 76.6247 40.0346C79.7636 39.7845 80.082 38.3515 79.8546 33.2566Z" fill="#D4D6D9" />
	<path d="M73.8274 40.7175C70.9388 40.7175 66.6172 40.6265 62.6823 40.5355C58.9294 40.4446 55.6995 40.3763 54.5168 40.3991C53.5615 40.4218 52.8336 40.1716 52.3105 39.6485C51.1278 38.443 51.287 36.0547 51.5144 32.0971L51.5827 31.0963C51.7874 27.6845 52.174 26.2516 55.4266 25.8194C55.5403 22.1802 56.018 21.7025 58.7701 21.6571C59.0658 21.6571 59.3843 21.6571 59.7254 21.6343C60.7717 21.5888 61.818 21.6571 62.4776 22.2939C63.16 22.9535 63.2282 24.0453 63.2054 25.683C64.3882 25.7057 65.6847 25.7057 67.1176 25.7284C67.2541 22.3622 67.7545 21.8618 70.4384 21.8163C70.7341 21.8163 71.0298 21.8163 71.3937 21.7935C72.44 21.748 73.4863 21.8163 74.1459 22.4531C74.8282 23.1127 74.8965 24.1818 74.8965 25.8194C80.0824 26.0924 80.3325 27.2979 80.4235 31.4147C80.4463 31.9606 80.4463 32.552 80.469 33.2343C80.6965 38.2838 80.4008 40.3536 76.6706 40.6493C76.0792 40.6948 75.1012 40.7175 73.8274 40.7175ZM55.1991 39.1481C56.7231 39.1481 59.5435 39.2163 62.7051 39.2846C68.0502 39.3983 74.7145 39.5575 76.5569 39.3983C78.9678 39.2163 79.4682 38.6704 79.218 33.2571C79.1953 32.5747 79.1725 31.9606 79.1725 31.4147C79.0816 27.5708 79.0816 27.1841 74.2368 26.9794C73.8957 26.9567 73.6455 26.6837 73.6455 26.3426C73.691 24.7504 73.6682 23.6586 73.2815 23.272C73.0314 23.0218 72.4627 22.9308 71.4392 22.9535C71.0753 22.9763 70.7568 22.9763 70.4612 22.9763C68.4141 22.999 68.4141 22.999 68.3231 26.2971C68.3231 26.6382 68.0502 26.8884 67.709 26.8884C65.7529 26.8884 64.047 26.8657 62.5458 26.843C62.3866 26.843 62.2274 26.7747 62.1137 26.661C62 26.5473 61.9317 26.388 61.9317 26.2288C61.9772 24.5912 61.9545 23.4994 61.5678 23.1127C61.3176 22.8625 60.749 22.7716 59.7254 22.7943C59.3615 22.8171 59.0431 22.8171 58.7474 22.8171C56.7003 22.8398 56.7003 22.8398 56.6094 26.3198C56.6094 26.6382 56.3592 26.8884 56.0407 26.9112C53.2203 27.1614 52.9474 27.7755 52.7654 31.0736L52.6972 32.0743C52.4925 35.4406 52.356 37.8744 53.1521 38.6932C53.3113 38.8751 53.6525 39.1026 54.4486 39.0798C54.676 39.1481 54.9262 39.1481 55.1991 39.1481Z" fill="#000E23" />
	<path d="M60.3628 34.9627C59.2482 33.7117 58.1337 32.4607 57.0192 31.2325C56.4961 30.6411 55.609 31.5054 56.1322 32.0968C57.2467 33.3478 58.3612 34.5988 59.4757 35.827C60.0216 36.4184 60.9086 35.5541 60.3628 34.9627Z" fill="#000E23" />
	<path d="M59.7022 30.7336C58.5422 32.3485 57.405 33.9861 56.245 35.601C55.7901 36.2606 56.8363 36.8748 57.2912 36.2379C58.4512 34.623 59.5885 32.9853 60.7485 31.3704C61.2261 30.7108 60.1799 30.0967 59.7022 30.7336Z" fill="#000E23" />
	<path d="M66.1167 32.7131L63.0461 32.6676C62.25 32.6676 62.2272 33.8958 63.0233 33.8958L66.0939 33.9413C66.9127 33.9413 66.9127 32.7131 66.1167 32.7131Z" fill="#000E23" />
	<path d="M84.1535 38.8745C83.7441 37.1687 82.3794 35.8039 80.6735 35.4173C79.9001 35.2353 79.559 36.4181 80.3323 36.6C81.6515 36.8957 82.6523 37.8738 82.9707 39.193C83.1527 39.9663 84.3582 39.6479 84.1535 38.8745Z" fill="#000E23" />
	<path d="M82.0604 19.8368C68.9819 30.7545 66.8666 34.8259 70.1419 36.9184C73.3945 39.011 84.1757 31.1411 93.7287 23.6807C103.282 16.2203 82.0604 19.8368 82.0604 19.8368Z" fill="#00AEF0" />
	<path d="M80.5142 18.7904C78.3079 21.3151 76.1244 23.8626 73.9181 26.3873C73.3949 26.9787 74.2593 27.8658 74.7824 27.2744C76.9887 24.7497 79.1722 22.2022 81.3785 19.6775C81.8789 19.0634 81.0373 18.1763 80.5142 18.7904Z" fill="#000E23" />
	<path d="M93.8879 23.8636C89.3388 26.7978 84.767 29.7546 80.218 32.6887C79.5584 33.1209 80.1498 34.1899 80.8321 33.7578C85.3812 30.8236 89.9529 27.8668 94.502 24.9326C95.1616 24.5005 94.5702 23.4315 93.8879 23.8636Z" fill="#000E23" />
	<path d="M74.6009 30.7066C74.2142 30.0243 73.1452 30.6156 73.5319 31.3207C74.6236 33.2768 72.4856 35.3921 70.5523 34.2549C69.8699 33.8454 69.233 34.9145 69.9154 35.3011C71.2346 36.0745 72.9632 35.9607 74.0778 34.869C75.1695 33.7772 75.3287 32.0258 74.6009 30.7066Z" fill="#000E23" />
	<path d="M89.6589 34.8728C88.9766 33.0532 87.6118 31.6885 85.7695 31.0289C85.0189 30.7559 84.6777 31.9387 85.4283 32.2116C86.8158 32.712 87.953 33.8038 88.4762 35.1912C88.7491 35.9191 89.9319 35.6234 89.6589 34.8728Z" fill="#000E23" />
	<path d="M93.365 28.0932C92.5461 27.3881 91.6136 26.8877 90.5446 26.6602C89.7712 26.501 89.43 27.6837 90.2034 27.843C91.045 28.0249 91.8183 28.3661 92.4779 28.9575C93.092 29.4579 93.9791 28.6163 93.365 28.0932Z" fill="#000E23" />
	<path d="M52.7882 18.4045C51.2643 17.6767 49.7176 16.9261 48.1937 16.1982C47.4886 15.857 46.8517 16.9033 47.5568 17.2445C49.0807 17.9723 50.6274 18.7229 52.1513 19.4508C52.8564 19.8147 53.4933 18.7684 52.7882 18.4045Z" fill="#00AEF0" />
	<path d="M56.4044 15.9474C55.813 14.4918 55.2216 13.0588 54.6075 11.6031C54.3118 10.8753 53.2428 11.4894 53.5385 12.2172C54.1299 13.6729 54.7212 15.1059 55.3354 16.5616C55.631 17.2894 56.7001 16.6753 56.4044 15.9474Z" fill="#00AEF0" />
</svg>
