<svg width="120" height="120" viewBox="0 0 120 120" fill="none" xmlns="http://www.w3.org/2000/svg">
	<rect width="120" height="120" fill="#2F3136" />
	<circle cx="60" cy="60" r="57" fill="#202225" />
	<path d="M73.0689 50.3826L68.3477 42.2054" stroke="#3F4146" stroke-width="0.679029" stroke-linecap="round" stroke-linejoin="round" />
	<path d="M56.538 22.2988L55.5244 20.5504" stroke="#3F4146" stroke-width="0.679029" stroke-linecap="round" stroke-linejoin="round" />
	<path d="M54.6599 19.0392L53 16.1752" stroke="#3F4146" stroke-width="0.679029" stroke-linecap="round" stroke-linejoin="round" stroke-dasharray="0.35 0.26 0.88 0.35" />
	<path d="M52.83 15.8767L51.8164 14.1216" stroke="#3F4146" stroke-width="0.679029" stroke-linecap="round" stroke-linejoin="round" />
	<path d="M48.9121 27.2086H59.375L64.5996 18.1471" stroke="#3F4146" stroke-width="0.679029" stroke-linecap="round" stroke-linejoin="round" />
	<path d="M89.2597 78.3953V97.8516C89.2597 102.614 76.1913 106.498 60.0752 106.498C43.9591 106.498 30.8975 102.627 30.8975 97.8516V78.3953" fill="white" />
	<path d="M89.259 78.3953V97.8516C89.259 102.614 76.1906 106.498 60.0745 106.498C59.0745 106.498 58.0881 106.498 57.1152 106.45C71.8299 106.008 83.3133 102.328 83.3133 97.8516V78.3953H89.259Z" fill="#3F4146" />
	<path d="M60.0751 87.0425C76.1933 87.0425 89.2596 83.1714 89.2596 78.396C89.2596 73.6207 76.1933 69.7495 60.0751 69.7495C43.957 69.7495 30.8906 73.6207 30.8906 78.396C30.8906 83.1714 43.957 87.0425 60.0751 87.0425Z" fill="#D4D6D9" />
	<path d="M89.259 78.396C89.259 83.1581 76.1906 87.0425 60.0745 87.0425C59.0745 87.0425 58.0881 87.0425 57.1152 87.0017C71.8299 86.5527 83.3133 82.8723 83.3133 78.396C83.3133 73.9197 71.8299 70.2325 57.1152 69.7903C58.0903 69.7631 59.0767 69.7495 60.0745 69.7495C76.1906 69.7495 89.259 73.6204 89.259 78.396Z" fill="#3F4146" />
	<path d="M60.0751 87.0425C76.1933 87.0425 89.2596 83.1714 89.2596 78.396C89.2596 73.6207 76.1933 69.7495 60.0751 69.7495C43.957 69.7495 30.8906 73.6207 30.8906 78.396C30.8906 83.1714 43.957 87.0425 60.0751 87.0425Z" stroke="#121317" stroke-width="1.71472" />
	<path d="M89.2597 78.3953V97.8516C89.2597 102.614 76.1913 106.498 60.0752 106.498C43.9591 106.498 30.8975 102.627 30.8975 97.8516V78.3953" stroke="#121317" stroke-width="1.71472" />
	<path d="M83.8512 95.1982C81.242 96.3029 78.5209 97.1217 75.7354 97.6405" stroke="#3F4146" stroke-width="1.71472" stroke-linecap="round" stroke-linejoin="round" />
	<path d="M83.8512 91.016C81.2407 92.109 78.5196 92.9164 75.7354 93.4242" stroke="#3F4146" stroke-width="1.71472" stroke-linecap="round" stroke-linejoin="round" />
	<path d="M38.0413 96.3133C39.1159 96.3133 39.987 94.9823 39.987 93.3404C39.987 91.6986 39.1159 90.3676 38.0413 90.3676C36.9668 90.3676 36.0957 91.6986 36.0957 93.3404C36.0957 94.9823 36.9668 96.3133 38.0413 96.3133Z" fill="#00AEF0" />
	<path d="M83.8511 59.7974V75.6482C83.8511 79.5394 73.2045 82.696 60.0749 82.696C46.9453 82.696 36.2783 79.5394 36.2783 75.6482V59.7974" fill="#121317" />
	<path d="M83.8514 59.7974V75.6482C83.8514 79.5394 73.2048 82.696 60.0752 82.696C59.2588 82.696 58.4561 82.696 57.6602 82.6552C69.6537 82.2946 79.0077 79.3013 79.0077 75.6482V59.7974H83.8514Z" fill="#121317" />
	<path d="M60.075 66.8452C73.2062 66.8452 83.8512 63.6897 83.8512 59.7973C83.8512 55.9049 73.2062 52.7495 60.075 52.7495C46.9438 52.7495 36.2988 55.9049 36.2988 59.7973C36.2988 63.6897 46.9438 66.8452 60.075 66.8452Z" fill="#3F4146" />
	<path d="M83.8514 59.7973C83.8514 63.6886 73.2048 66.8452 60.0752 66.8452C59.2588 66.8452 58.4561 66.8452 57.6602 66.8043C69.6537 66.4438 79.0077 63.4437 79.0077 59.7973C79.0077 56.151 69.6537 53.1509 57.6602 52.7835C58.4561 52.7835 59.2588 52.7495 60.0752 52.7495C73.2048 52.7427 83.8514 55.9061 83.8514 59.7973Z" fill="#3F4146" />
	<path d="M60.075 66.8452C73.2062 66.8452 83.8512 63.6897 83.8512 59.7973C83.8512 55.9049 73.2062 52.7495 60.075 52.7495C46.9438 52.7495 36.2988 55.9049 36.2988 59.7973C36.2988 63.6897 46.9438 66.8452 60.075 66.8452Z" stroke="#3F4146" stroke-width="1.36149" stroke-linecap="round" stroke-linejoin="round" />
	<path d="M83.8511 59.7974V75.6482C83.8511 79.5394 73.2045 82.696 60.0749 82.696C46.9453 82.696 36.2783 79.5394 36.2783 75.6482V59.7974" stroke="#121317" stroke-width="1.71472" />
	<path d="M89.2597 49.7488V69.2051C89.2597 73.9672 76.1913 77.8516 60.0752 77.8516C43.9591 77.8516 30.8975 73.9808 30.8975 69.2051V49.7488" fill="white" />
	<path d="M89.259 49.7488V69.2051C89.259 73.9672 76.1906 77.8516 60.0745 77.8516C59.0767 77.8516 58.0903 77.838 57.1152 77.8108C71.8299 77.3686 83.3133 73.6882 83.3133 69.2051V49.7488H89.259Z" fill="#3F4146" />
	<path d="M60.0751 58.3946C76.1933 58.3946 89.2596 54.5234 89.2596 49.7481C89.2596 44.9727 76.1933 41.1016 60.0751 41.1016C43.957 41.1016 30.8906 44.9727 30.8906 49.7481C30.8906 54.5234 43.957 58.3946 60.0751 58.3946Z" fill="#D4D6D9" />
	<path d="M89.259 49.7481C89.259 54.5101 76.1906 58.3946 60.0745 58.3946C59.0767 58.3946 58.0903 58.381 57.1152 58.3538C71.8299 57.9116 83.3133 54.2312 83.3133 49.7481C83.3133 45.265 71.8299 41.5846 57.1152 41.1492C58.0881 41.1492 59.0745 41.1016 60.0745 41.1016C76.1906 41.1016 89.259 44.9724 89.259 49.7481Z" fill="#3F4146" />
	<path d="M60.0751 58.3946C76.1933 58.3946 89.2596 54.5234 89.2596 49.7481C89.2596 44.9727 76.1933 41.1016 60.0751 41.1016C43.957 41.1016 30.8906 44.9727 30.8906 49.7481C30.8906 54.5234 43.957 58.3946 60.0751 58.3946Z" stroke="#121317" stroke-width="1.71472" />
	<path d="M83.8512 66.892C81.2418 67.988 78.5203 68.7956 75.7354 69.3002" stroke="#3F4146" stroke-width="1.71472" stroke-linecap="round" stroke-linejoin="round" />
	<path d="M83.8512 62.707C81.2418 63.8031 78.5203 64.6106 75.7354 65.1153" stroke="#3F4146" stroke-width="1.71472" stroke-linecap="round" stroke-linejoin="round" />
	<path d="M89.2597 49.7488V69.2051C89.2597 73.9672 76.1913 77.8516 60.0752 77.8516C43.9591 77.8516 30.8975 73.9808 30.8975 69.2051V49.7488" stroke="#121317" stroke-width="1.71472" />
	<path d="M53.4281 50.4414C54.7206 50.4414 55.7683 50.1307 55.7683 49.7475C55.7683 49.3643 54.7206 49.0536 53.4281 49.0536C52.1356 49.0536 51.0879 49.3643 51.0879 49.7475C51.0879 50.1307 52.1356 50.4414 53.4281 50.4414Z" fill="#3F4146" />
	<path d="M60.0746 50.4414C61.367 50.4414 62.4148 50.1307 62.4148 49.7475C62.4148 49.3643 61.367 49.0536 60.0746 49.0536C58.7821 49.0536 57.7344 49.3643 57.7344 49.7475C57.7344 50.1307 58.7821 50.4414 60.0746 50.4414Z" fill="#3F4146" />
	<path d="M66.7211 50.4414C68.0135 50.4414 69.0613 50.1307 69.0613 49.7475C69.0613 49.3643 68.0135 49.0536 66.7211 49.0536C65.4286 49.0536 64.3809 49.3643 64.3809 49.7475C64.3809 50.1307 65.4286 50.4414 66.7211 50.4414Z" fill="#3F4146" />
	<path d="M38.2445 68.0888C39.319 68.0888 40.1901 66.7578 40.1901 65.1159C40.1901 63.4741 39.319 62.1431 38.2445 62.1431C37.1699 62.1431 36.2988 63.4741 36.2988 65.1159C36.2988 66.7578 37.1699 68.0888 38.2445 68.0888Z" fill="#00AEF0" />
	<path d="M83.8511 31.5219V47.3726C83.8511 51.2639 73.2045 54.4205 60.0749 54.4205C46.9453 54.4205 36.2783 51.2639 36.2783 47.3726V31.5219" fill="#121317" />
	<path d="M83.8514 31.5219V47.3726C83.8514 51.2639 73.2048 54.4205 60.0752 54.4205C59.2588 54.4205 58.4561 54.4205 57.6602 54.3864C69.6537 54.0259 79.0077 51.0258 79.0077 47.3726V31.5219H83.8514Z" fill="#121317" />
	<path d="M60.075 38.5712C73.2062 38.5712 83.8512 35.4158 83.8512 31.5234C83.8512 27.631 73.2062 24.4756 60.075 24.4756C46.9438 24.4756 36.2988 27.631 36.2988 31.5234C36.2988 35.4158 46.9438 38.5712 60.075 38.5712Z" fill="#3F4146" />
	<path d="M83.8514 31.5234C83.8514 35.4147 73.2048 38.5712 60.0752 38.5712C59.2588 38.5712 58.4561 38.5712 57.6602 38.5304C69.6537 38.1699 79.0077 35.1766 79.0077 31.5234C79.0077 27.8702 69.6537 24.877 57.6602 24.5164C58.4561 24.5164 59.2588 24.4756 60.0752 24.4756C73.2048 24.4756 83.8514 27.6321 83.8514 31.5234Z" fill="#3F4146" />
	<path d="M60.075 38.5712C73.2062 38.5712 83.8512 35.4158 83.8512 31.5234C83.8512 27.631 73.2062 24.4756 60.075 24.4756C46.9438 24.4756 36.2988 27.631 36.2988 31.5234C36.2988 35.4158 46.9438 38.5712 60.075 38.5712Z" stroke="#3F4146" stroke-width="1.36149" stroke-linecap="round" stroke-linejoin="round" />
	<path d="M83.8511 31.5219V47.3726C83.8511 51.2639 73.2045 54.4205 60.0749 54.4205C46.9453 54.4205 36.2783 51.2639 36.2783 47.3726V31.5219" stroke="#121317" stroke-width="1.71472" />
	<path d="M89.2597 21.4828V40.9323C89.2597 45.6944 76.1913 49.5788 60.0752 49.5788C43.9591 49.5788 30.8975 45.708 30.8975 40.9323V21.4828" fill="white" />
	<path d="M89.259 21.4828V40.9323C89.259 45.6944 76.1906 49.5788 60.0745 49.5788C59.0767 49.5788 58.0903 49.5652 57.1152 49.538C71.8299 49.0958 83.3133 45.4154 83.3133 40.9323V21.4828H89.259Z" fill="#3F4146" />
	<path d="M60.0751 30.1285C76.1933 30.1285 89.2596 26.2573 89.2596 21.482C89.2596 16.7066 76.1933 12.8354 60.0751 12.8354C43.957 12.8354 30.8906 16.7066 30.8906 21.482C30.8906 26.2573 43.957 30.1285 60.0751 30.1285Z" fill="white" />
	<path d="M89.259 21.482C89.259 26.244 76.1906 30.1285 60.0745 30.1285C59.0745 30.1285 58.0881 30.1285 57.1152 30.0808C71.8299 29.6387 83.3133 25.9583 83.3133 21.482C83.3133 17.0056 71.8299 13.3185 57.1152 12.8763C58.0903 12.8491 59.0767 12.8354 60.0745 12.8354C76.1906 12.8354 89.259 16.6859 89.259 21.482Z" fill="#3F4146" />
	<path d="M60.0751 30.1285C76.1933 30.1285 89.2596 26.2573 89.2596 21.482C89.2596 16.7066 76.1933 12.8354 60.0751 12.8354C43.957 12.8354 30.8906 16.7066 30.8906 21.482C30.8906 26.2573 43.957 30.1285 60.0751 30.1285Z" stroke="#121317" stroke-width="1.71472" />
	<path d="M83.8512 38.5563C81.2407 39.6492 78.5196 40.4567 75.7354 40.9645" stroke="#3F4146" stroke-width="1.71472" stroke-linecap="round" stroke-linejoin="round" />
	<path d="M83.8512 34.4343C81.2418 35.5304 78.5203 36.3379 75.7354 36.8426" stroke="#3F4146" stroke-width="1.71472" stroke-linecap="round" stroke-linejoin="round" />
	<path d="M89.2597 21.4828V40.9323C89.2597 45.6944 76.1913 49.5788 60.0752 49.5788C43.9591 49.5788 30.8975 45.708 30.8975 40.9323V21.4828" stroke="#121317" stroke-width="1.71472" />
	<path d="M38.2445 39.8173C39.319 39.8173 40.1901 38.4863 40.1901 36.8445C40.1901 35.2026 39.319 33.8716 38.2445 33.8716C37.1699 33.8716 36.2988 35.2026 36.2988 36.8445C36.2988 38.4863 37.1699 39.8173 38.2445 39.8173Z" fill="#00AEF0" />
	<path d="M43.7074 98.1098C44.7819 98.1098 45.653 96.7788 45.653 95.1369C45.653 93.4951 44.7819 92.1641 43.7074 92.1641C42.6328 92.1641 41.7617 93.4951 41.7617 95.1369C41.7617 96.7788 42.6328 98.1098 43.7074 98.1098Z" fill="#00AEF0" />
	<path d="M43.9124 69.8906C44.987 69.8906 45.8581 68.5596 45.8581 66.9177C45.8581 65.2758 44.987 63.9448 43.9124 63.9448C42.8379 63.9448 41.9668 65.2758 41.9668 66.9177C41.9668 68.5596 42.8379 69.8906 43.9124 69.8906Z" fill="#00AEF0" />
	<path d="M43.9124 41.6192C44.987 41.6192 45.8581 40.2882 45.8581 38.6463C45.8581 37.0045 44.987 35.6735 43.9124 35.6735C42.8379 35.6735 41.9668 37.0045 41.9668 38.6463C41.9668 40.2882 42.8379 41.6192 43.9124 41.6192Z" fill="#00AEF0" />
	<path d="M49.4691 98.8935C50.5436 98.8935 51.4147 97.5625 51.4147 95.9206C51.4147 94.2788 50.5436 92.9478 49.4691 92.9478C48.3945 92.9478 47.5234 94.2788 47.5234 95.9206C47.5234 97.5625 48.3945 98.8935 49.4691 98.8935Z" fill="#00AEF0" />
	<path d="M49.6732 70.6743C50.7477 70.6743 51.6188 69.3433 51.6188 67.7014C51.6188 66.0595 50.7477 64.7285 49.6732 64.7285C48.5986 64.7285 47.7275 66.0595 47.7275 67.7014C47.7275 69.3433 48.5986 70.6743 49.6732 70.6743Z" fill="#00AEF0" />
	<path d="M49.6732 42.4001C50.7477 42.4001 51.6188 41.0691 51.6188 39.4272C51.6188 37.7853 50.7477 36.4543 49.6732 36.4543C48.5986 36.4543 47.7275 37.7853 47.7275 39.4272C47.7275 41.0691 48.5986 42.4001 49.6732 42.4001Z" fill="#00AEF0" />
	<path d="M60.0751 24.644C65.9738 24.644 70.7557 23.2277 70.7557 21.4806C70.7557 19.7335 65.9738 18.3173 60.0751 18.3173C54.1764 18.3173 49.3945 19.7335 49.3945 21.4806C49.3945 23.2277 54.1764 24.644 60.0751 24.644Z" fill="#00AEF0" />
	<path d="M60.0749 22.9853C62.8853 22.9853 65.1635 22.3122 65.1635 21.4818C65.1635 20.6515 62.8853 19.9784 60.0749 19.9784C57.2646 19.9784 54.9863 20.6515 54.9863 21.4818C54.9863 22.3122 57.2646 22.9853 60.0749 22.9853Z" fill="#121317" />
</svg>
