<svg width="224" height="24" viewBox="0 0 224 24" fill="none" xmlns="http://www.w3.org/2000/svg">
	<g clip-path="url(#clip0_218_2189)">
		<path d="M114.609 2H86.2305V22.0001H114.609V2Z" stroke="white" stroke-width="1.96266" />
		<path fill-rule="evenodd" clip-rule="evenodd" d="M94.131 6.49805L96.2039 14.4356L98.2694 6.49805H101.164V17.4735H98.9402V14.5035L99.1438 9.92788L96.9502 17.4735H95.4426L93.249 9.92788L93.4525 14.5035V17.4735H91.2363V6.49805H94.131ZM108.612 12.7245H105.159V15.6342H109.245V17.4735H102.943V6.49805H109.23V8.34488H105.159V10.938H108.612V12.7245Z" fill="white" />
		<path fill-rule="evenodd" clip-rule="evenodd" d="M8.18131 13.5818L9.22156 6.68445H11.4151L9.46278 17.6599H7.23905L5.95757 11.1922L4.69117 17.6599H2.4599L0.5 6.68445H2.70866L3.74138 13.5743L5.03039 6.68445H6.89229L8.18131 13.5818ZM20.3101 17.6599H18.1014V12.9637H14.8299V17.6599H12.6137V6.68445H14.8299V11.1244H18.1014V6.68445H20.3101V17.6599ZM29.8156 13.1597C29.8156 14.6321 29.4676 15.7754 28.7716 16.5895C28.0756 17.4036 27.1094 17.8107 25.8732 17.8107C24.642 17.8107 23.6746 17.4074 22.971 16.6008C22.2675 15.7942 21.9107 14.6648 21.9006 13.2124V11.3355C21.9006 9.82783 22.2499 8.65064 22.9484 7.80386C23.6469 6.95708 24.6168 6.53369 25.8581 6.53369C27.0793 6.53369 28.0416 6.94954 28.7452 7.78124C29.4488 8.61295 29.8056 9.78009 29.8156 11.2827V13.1597ZM27.5919 11.3204C27.5919 10.3304 27.4512 9.59416 27.1697 9.11172C26.8883 8.62928 26.4511 8.38806 25.8581 8.38806C25.2701 8.38806 24.8354 8.62048 24.554 9.08533C24.2726 9.55018 24.1269 10.2575 24.1168 11.2073V13.1597C24.1168 14.1195 24.26 14.8268 24.5465 15.2816C24.8329 15.7364 25.2752 15.9638 25.8732 15.9638C26.4511 15.9638 26.8808 15.7415 27.1622 15.2967C27.4436 14.852 27.5868 14.1622 27.5919 13.2275V11.3204ZM38.5146 8.53128H35.8008V17.6599H33.5771V8.53128H30.9086V6.68445H38.5146V8.53128ZM43.1128 13.6496H42.0122V17.6599H39.796V6.68445H43.3314C44.442 6.68445 45.3001 6.97215 45.9056 7.54756C46.5112 8.12297 46.814 8.94085 46.814 10.0012C46.814 11.4586 46.2838 12.4787 45.2235 13.0617L47.1457 17.5544V17.6599H44.7636L43.1128 13.6496ZM42.0122 11.8028H43.2711C43.7133 11.8028 44.045 11.6558 44.2661 11.3618C44.4872 11.0678 44.5978 10.6746 44.5978 10.1821C44.5978 9.08156 44.1681 8.53128 43.3088 8.53128H42.0122V11.8028ZM53.5757 15.4136H50.5529L49.9649 17.6599H47.6206L51.0504 6.68445H53.0781L56.5306 17.6599H54.1636L53.5757 15.4136ZM51.0353 13.5667H53.0857L52.0605 9.65446L51.0353 13.5667ZM64.9958 14.0039C64.9406 15.2553 64.5888 16.2025 63.9405 16.8458C63.2922 17.489 62.3776 17.8107 61.1967 17.8107C59.9554 17.8107 59.0043 17.4024 58.3435 16.5857C57.6826 15.7691 57.3522 14.6045 57.3522 13.0918V11.245C57.3522 9.73737 57.694 8.57526 58.3774 7.75863C59.0609 6.942 60.0107 6.53369 61.2268 6.53369C62.4229 6.53369 63.3312 6.86788 63.9518 7.53626C64.5725 8.20464 64.9255 9.16448 65.0109 10.4158H62.7872C62.7671 9.64189 62.6477 9.10795 62.4291 8.81396C62.2105 8.51998 61.8098 8.37298 61.2268 8.37298C60.6338 8.37298 60.2142 8.58028 59.9679 8.99488C59.7217 9.40947 59.591 10.0917 59.576 11.0415V13.1144C59.576 14.205 59.6978 14.9537 59.9416 15.3608C60.1853 15.7678 60.6037 15.9714 61.1967 15.9714C61.7796 15.9714 62.1816 15.8294 62.4027 15.5455C62.6239 15.2615 62.7495 14.7477 62.7796 14.0039H64.9958ZM69.4509 13.4235L68.5764 14.5241V17.6599H66.3602V6.68445H68.5764V11.4711L69.2775 10.2877L71.3203 6.68445H74.034L70.8906 11.5088L74.0868 17.6599H71.456L69.4509 13.4235ZM79.5368 14.7804C79.5368 14.3331 79.4225 13.9951 79.1938 13.7665C78.9652 13.5378 78.5493 13.3004 77.9463 13.0541C76.8457 12.637 76.0542 12.1483 75.5718 11.588C75.0893 11.0276 74.8481 10.3656 74.8481 9.60169C74.8481 8.67702 75.176 7.93452 75.8318 7.37419C76.4877 6.81385 77.3206 6.53369 78.3307 6.53369C79.0041 6.53369 79.6047 6.67566 80.1323 6.95959C80.66 7.24353 81.0658 7.6443 81.3497 8.16192C81.6337 8.67954 81.7756 9.2675 81.7756 9.92583H79.567C79.567 9.41324 79.4577 9.02252 79.2391 8.75366C79.0205 8.4848 78.7051 8.35037 78.293 8.35037C77.9061 8.35037 77.6046 8.4647 77.3885 8.69335C77.1724 8.92201 77.0643 9.22981 77.0643 9.61677C77.0643 9.91829 77.1849 10.1909 77.4261 10.4347C77.6674 10.6784 78.0945 10.9309 78.7076 11.1922C79.778 11.5792 80.5557 12.0541 81.0407 12.6169C81.5256 13.1798 81.7681 13.8959 81.7681 14.7653C81.7681 15.7201 81.4641 16.4664 80.856 17.0041C80.2479 17.5418 79.4212 17.8107 78.3759 17.8107C77.6674 17.8107 77.0216 17.6649 76.4387 17.3735C75.8557 17.082 75.3997 16.6649 75.0705 16.1221C74.7413 15.5794 74.5768 14.9387 74.5768 14.1999H76.8005C76.8005 14.8331 76.9236 15.2929 77.1699 15.5794C77.4161 15.8658 77.8181 16.0091 78.3759 16.0091C79.1499 16.0091 79.5368 15.5995 79.5368 14.7804Z" fill="white" />
		<path d="M87.8713 13.9866H84.2949V17.563H87.8713V13.9866Z" fill="#202225" />
	</g>
	<path d="M126.751 11.2656L129.202 9.61523C129.612 9.3418 129.905 9.07487 130.081 8.81445C130.257 8.54753 130.345 8.21549 130.345 7.81836C130.345 7.47982 130.215 7.16732 129.954 6.88086C129.694 6.5944 129.326 6.45117 128.851 6.45117C128.519 6.45117 128.239 6.5293 128.011 6.68555C127.783 6.83529 127.61 7.03711 127.493 7.29102C127.382 7.53841 127.327 7.8151 127.327 8.12109C127.327 8.41406 127.402 8.7168 127.552 9.0293C127.701 9.33529 127.907 9.65755 128.167 9.99609C128.427 10.3281 128.72 10.6862 129.046 11.0703L135.765 19H133.04L127.552 12.5449C127.076 11.972 126.657 11.4479 126.292 10.9727C125.927 10.4909 125.644 10.0254 125.442 9.57617C125.241 9.12044 125.14 8.65169 125.14 8.16992C125.14 7.42773 125.293 6.78971 125.599 6.25586C125.905 5.72201 126.338 5.31185 126.897 5.02539C127.457 4.73242 128.112 4.58594 128.86 4.58594C129.583 4.58594 130.205 4.73242 130.726 5.02539C131.253 5.31185 131.657 5.69271 131.937 6.16797C132.223 6.64323 132.366 7.16406 132.366 7.73047C132.366 8.17969 132.285 8.58984 132.122 8.96094C131.959 9.33203 131.735 9.67057 131.448 9.97656C131.162 10.2826 130.83 10.5723 130.452 10.8457L127.474 13.0137C127.129 13.2936 126.871 13.5638 126.702 13.8242C126.539 14.0781 126.432 14.3125 126.38 14.5273C126.328 14.7422 126.302 14.931 126.302 15.0938C126.302 15.5104 126.39 15.888 126.565 16.2266C126.748 16.5651 127.011 16.8353 127.356 17.0371C127.708 17.2324 128.134 17.3301 128.636 17.3301C129.176 17.3301 129.7 17.2096 130.208 16.9688C130.716 16.7214 131.172 16.373 131.575 15.9238C131.979 15.4746 132.298 14.9375 132.532 14.3125C132.773 13.6875 132.894 12.9941 132.894 12.2324H134.925C134.925 12.9225 134.856 13.5768 134.72 14.1953C134.59 14.8138 134.378 15.3867 134.085 15.9141C133.799 16.4414 133.421 16.9134 132.952 17.3301C132.907 17.3757 132.854 17.4342 132.796 17.5059C132.744 17.571 132.692 17.6263 132.64 17.6719C132.08 18.1862 131.451 18.5703 130.755 18.8242C130.065 19.0716 129.329 19.1953 128.548 19.1953C127.604 19.1953 126.787 19.0228 126.097 18.6777C125.407 18.3327 124.873 17.8574 124.495 17.252C124.124 16.6465 123.938 15.9531 123.938 15.1719C123.938 14.5924 124.059 14.0846 124.3 13.6484C124.541 13.2057 124.869 12.7956 125.286 12.418C125.709 12.0339 126.198 11.6497 126.751 11.2656Z" fill="white" />
	<path fill-rule="evenodd" clip-rule="evenodd" d="M162.08 10.0509C162.08 14.04 158.847 17.2737 154.858 17.2737C150.869 17.2737 147.635 14.04 147.635 10.0509C147.635 6.0619 150.869 2.82812 154.858 2.82812C158.847 2.82812 162.08 6.0619 162.08 10.0509Z" fill="#FFFFFE" />
	<path fill-rule="evenodd" clip-rule="evenodd" d="M164.827 19.9302C163.816 17.6415 163.642 15.7022 163.615 14.9403V8.67118C163.615 3.88205 159.654 0 154.767 0C149.881 0 145.919 3.88205 145.919 8.67118V15.0309C145.881 15.8507 145.683 17.7306 144.711 19.9302C143.405 22.8858 144.486 22.5335 145.454 22.2904C146.422 22.0482 148.584 21.0989 149.259 22.2683C149.934 23.4372 150.497 24.4523 152.073 23.7904C153.649 23.1288 154.391 22.9083 154.616 22.9083H154.922C155.147 22.9083 155.89 23.1288 157.466 23.7904C159.041 24.4523 159.604 23.4372 160.28 22.2683C160.955 21.0989 163.116 22.0482 164.084 22.2904C165.052 22.5335 166.132 22.8858 164.827 19.9302ZM152.036 4.72821C152.989 4.72821 153.762 5.92624 153.762 7.4046C153.762 8.88282 152.989 10.0813 152.036 10.0813C151.083 10.0813 150.311 8.88282 150.311 7.4046C150.311 5.92624 151.083 4.72821 152.036 4.72821ZM154.767 15.4259C152.667 15.4259 150.9 13.4004 150.367 11.1466C151.396 12.5328 152.984 13.4237 154.767 13.4237C156.551 13.4237 158.139 12.5328 159.168 11.1466C158.635 13.4004 156.867 15.4259 154.767 15.4259ZM157.499 10.0813C156.545 10.0813 155.773 8.88282 155.773 7.4046C155.773 5.92624 156.545 4.72821 157.499 4.72821C158.452 4.72821 159.224 5.92624 159.224 7.4046C159.224 8.88282 158.452 10.0813 157.499 10.0813Z" fill="#00AEF0" />
	<path fill-rule="evenodd" clip-rule="evenodd" d="M182.26 7.71115C182.26 5.7073 183.337 4.56201 185.309 4.56201C187.281 4.56201 188.358 5.7073 188.358 7.71115V14.2241C188.358 16.2279 187.281 17.3735 185.309 17.3735C183.337 17.3735 182.26 16.2279 182.26 14.2241V7.71115ZM184.268 14.3494C184.268 15.2441 184.67 15.5843 185.309 15.5843C185.948 15.5843 186.349 15.2441 186.349 14.3494V7.58577C186.349 6.69123 185.948 6.35121 185.309 6.35121C184.67 6.35121 184.268 6.69123 184.268 7.58577V14.3494ZM173.332 10.2519H170.52V12.0414H171.433V14.3495C171.433 15.2441 171.032 15.5663 170.393 15.5663C169.753 15.5663 169.352 15.2441 169.352 14.3495V7.58577C169.352 6.6915 169.753 6.35162 170.393 6.35162C171.032 6.35162 171.433 6.6915 171.433 7.58577V8.92798H173.332V7.71115C173.332 5.70689 172.309 4.56227 170.338 4.56227C168.366 4.56227 167.344 5.70689 167.344 7.71115V14.2241C167.344 16.2279 168.366 17.3732 170.338 17.3732C172.309 17.3732 173.332 16.2279 173.332 14.2241V10.2519ZM174.629 17.2299H176.637V11.8621H178.918V17.2299H180.964V4.70551H178.918V10.073H176.637V4.70551H174.629V17.2299ZM195.315 7.71169C195.315 5.7077 194.31 4.56227 192.357 4.56227C190.403 4.56227 189.399 5.7077 189.399 7.71169C189.399 9.64708 190.547 10.6769 191.602 11.6224C192.497 12.4248 193.324 13.1665 193.324 14.3495C193.324 15.2439 192.922 15.566 192.284 15.566C191.645 15.566 191.243 15.2439 191.243 14.3495V13.4549H189.344V14.2243C189.344 16.2286 190.367 17.3732 192.338 17.3732C194.31 17.3732 195.332 16.2286 195.332 14.2243C195.332 12.2884 194.183 11.2583 193.129 10.3126C192.234 9.51025 191.407 8.76864 191.407 7.58604C191.407 6.6915 191.772 6.35162 192.411 6.35162C193.05 6.35162 193.416 6.6915 193.416 7.58604V8.10486H195.315V7.71169ZM195.744 4.70494H201.951V6.49469H199.852V17.2298H197.843V6.49469H195.744V4.70494ZM207.748 9.98375H204.991V6.49486H208.46V4.70551H202.983V17.2305H208.46V15.4409H204.991V11.7728H207.748V9.98375ZM213.9 17.2299L213.894 17.2113C213.789 16.8997 213.718 16.6909 213.718 15.6915V13.7231C213.718 12.5601 213.316 12.1307 212.403 12.1307H211.71V17.2299H209.702V4.70551H212.732C214.813 4.70551 215.709 5.65388 215.709 7.58632V8.57039C215.709 9.8581 215.288 10.6995 214.394 11.1106C215.397 11.5221 215.726 12.4706 215.726 13.7767V15.7091C215.726 16.3176 215.744 16.765 215.945 17.2299H213.9ZM211.71 6.49475V10.3412H212.495C213.244 10.3412 213.699 10.0196 213.699 9.01728V7.78259C213.699 6.88792 213.389 6.49475 212.678 6.49475H211.71ZM216.201 4.70551L218.739 13.0791V17.2299H220.748V13.0791L223.285 4.70551H221.368L219.835 10.4133L218.3 4.70551H216.201Z" fill="white" />
	<path fill-rule="evenodd" clip-rule="evenodd" d="M224.455 4.69775C224.875 4.69775 225.194 5.00983 225.194 5.44334C225.194 5.87616 224.875 6.18906 224.455 6.18906C224.034 6.18906 223.714 5.87616 223.714 5.44334C223.714 5.00983 224.034 4.69775 224.455 4.69775ZM224.455 6.04297C224.79 6.04297 225.041 5.79126 225.041 5.44334C225.041 5.09555 224.79 4.84303 224.455 4.84303C224.119 4.84303 223.868 5.09555 223.868 5.44334C223.868 5.79126 224.119 6.04297 224.455 6.04297ZM224.561 5.88843C224.55 5.86186 224.545 5.84714 224.545 5.76374V5.66807C224.545 5.57226 224.512 5.53915 224.437 5.53915H224.382V5.88843H224.221V4.99757H224.467C224.633 4.99757 224.708 5.07484 224.708 5.23102V5.24955C224.708 5.35572 224.673 5.42277 224.597 5.45561C224.68 5.48886 224.708 5.56395 224.708 5.67052V5.76605C224.708 5.81402 224.709 5.85123 224.727 5.88843H224.561ZM224.382 5.14353V5.39306H224.447C224.508 5.39306 224.545 5.36812 224.545 5.28703V5.24956C224.545 5.17678 224.52 5.14353 224.459 5.14353H224.382Z" fill="white" />
	<defs>
		<clipPath id="clip0_218_2189">
			<rect width="115.109" height="24.0001" fill="white" />
		</clipPath>
	</defs>
</svg>
