<?xml version="1.0" encoding="UTF-8" standalone="no"?>
<svg width="130px" height="26px" viewBox="0 0 130 26" version="1.1" xmlns="http://www.w3.org/2000/svg" xmlns:xlink="http://www.w3.org/1999/xlink">
    <!-- Generator: Sketch 47.1 (45422) - http://www.bohemiancoding.com/sketch -->
    <title>WhoTrackMe - logo Copy 6</title>
    <desc>Created with Sketch.</desc>
    <defs></defs>
    <g id="Page-1" stroke="none" stroke-width="1" fill="none" fill-rule="evenodd">
        <g id="Domain-List-page-Copy" transform="translate(-120.000000, -17.000000)">
            <g id="WhoTrackMe---logo-Copy-6" transform="translate(120.364421, 16.398087)">
                <g id="Group-13" transform="translate(0.021400, 0.090950)">
                    <rect id="Rectangle-21-Copy-29" stroke="#FFFFFF" stroke-width="2.2" x="96.2271041" y="2.063155" width="31.8100237" height="22.4186084"></rect>
                    <path d="M105.081527,7.10515842 L107.405178,16.002629 L109.720379,7.10515842 L112.965041,7.10515842 L112.965041,19.4078338 L110.472397,19.4078338 L110.472397,16.0786758 L110.700537,10.9497445 L108.241692,19.4078338 L106.551764,19.4078338 L104.092919,10.9497445 L104.321059,16.0786758 L104.321059,19.4078338 L101.836865,19.4078338 L101.836865,7.10515842 L105.081527,7.10515842 Z M121.313285,14.0845608 L117.44335,14.0845608 L117.44335,17.3461217 L122.023054,17.3461217 L122.023054,19.4078338 L114.959156,19.4078338 L114.959156,7.10515842 L122.006155,7.10515842 L122.006155,9.17532014 L117.44335,9.17532014 L117.44335,12.0819962 L121.313285,12.0819962 L121.313285,14.0845608 Z" id="Whotracks-me" fill="#FFFFFF"></path>
                    <path d="M8.73911289,15.0455791 L9.90516316,7.31415876 L12.3640083,7.31415876 L10.1755516,19.6168341 L7.68290792,19.6168341 L6.24646918,12.3670433 L4.82692971,19.6168341 L2.32583636,19.6168341 L0.128930042,7.31415876 L2.60467447,7.31415876 L3.76227511,15.0371294 L5.2071635,7.31415876 L7.2942245,7.31415876 L8.73911289,15.0455791 Z M22.3345831,19.6168341 L19.8588387,19.6168341 L19.8588387,14.3527086 L16.1916951,14.3527086 L16.1916951,19.6168341 L13.707501,19.6168341 L13.707501,7.31415876 L16.1916951,7.31415876 L16.1916951,12.2909965 L19.8588387,12.2909965 L19.8588387,7.31415876 L22.3345831,7.31415876 L22.3345831,19.6168341 Z M32.9895788,14.5723993 C32.9895788,16.2229038 32.599491,17.5044197 31.8193037,18.4169853 C31.0391164,19.329551 29.9561651,19.7858269 28.5704172,19.7858269 C27.1903025,19.7858269 26.1059429,19.3337757 25.317306,18.4296598 C24.528669,17.5255438 24.1287234,16.2595188 24.1174571,14.6315467 L24.1174571,12.5275864 C24.1174571,10.8376501 24.5089532,9.51811119 25.291957,8.56893025 C26.0749609,7.61974932 27.162137,7.14516597 28.553518,7.14516597 C29.9223664,7.14516597 31.001093,7.61129976 31.78973,8.54358134 C32.5783669,9.47586291 32.9783126,10.7841357 32.9895788,12.468439 L32.9895788,14.5723993 Z M30.4969351,12.5106872 C30.4969351,11.4009623 30.3392101,10.5757224 30.0237553,10.0349427 C29.7083005,9.4941631 29.2182263,9.22377733 28.553518,9.22377733 C27.8944428,9.22377733 27.4071851,9.48430528 27.0917303,10.005369 C26.7762755,10.5264327 26.6129174,11.3192827 26.6016512,12.3839426 L26.6016512,14.5723993 C26.6016512,15.6483254 26.7621927,16.4411754 27.0832807,16.9509728 C27.4043686,17.4607703 27.9000758,17.7156652 28.5704172,17.7156652 C29.2182262,17.7156652 29.6998508,17.4664033 30.0153056,16.9678721 C30.3307604,16.4693409 30.491302,15.6962066 30.4969351,14.648446 L30.4969351,12.5106872 Z M42.740463,9.38432049 L39.6985927,9.38432049 L39.6985927,19.6168341 L37.205949,19.6168341 L37.205949,9.38432049 L34.2147766,9.38432049 L34.2147766,7.31415876 L42.740463,7.31415876 L42.740463,9.38432049 Z M47.8947432,15.1216258 L46.6610958,15.1216258 L46.6610958,19.6168341 L44.1769017,19.6168341 L44.1769017,7.31415876 L48.1397828,7.31415876 C49.3847026,7.31415876 50.3465436,7.63665012 51.0253347,8.28164251 C51.7041258,8.92663489 52.0435163,9.84341163 52.0435163,11.0320002 C52.0435163,12.6656054 51.4492309,13.8091119 50.2606423,14.4625539 L52.4153004,19.4985392 L52.4153004,19.6168341 L49.7452143,19.6168341 L47.8947432,15.1216258 Z M46.6610958,13.0514641 L48.0721856,13.0514641 C48.5679003,13.0514641 48.9396807,12.8866978 49.1875381,12.5571602 C49.4353954,12.2276226 49.5593222,11.7868375 49.5593222,11.2347916 C49.5593222,10.001138 49.0776976,9.38432049 48.1144338,9.38432049 L46.6610958,9.38432049 L46.6610958,13.0514641 Z M59.6228431,17.0988415 L56.2345376,17.0988415 L55.5754657,19.6168341 L52.9476277,19.6168341 L56.7922138,7.31415876 L59.0651669,7.31415876 L62.9351019,19.6168341 L60.281915,19.6168341 L59.6228431,17.0988415 Z M56.7753145,15.0286798 L59.0736165,15.0286798 L57.9244655,10.6433168 L56.7753145,15.0286798 Z M72.4240472,15.5187589 C72.3620829,16.9214061 71.9677703,17.9832335 71.2410977,18.7042731 C70.514425,19.4253126 69.4892123,19.7858269 68.1654288,19.7858269 C66.7740479,19.7858269 65.7079957,19.3281427 64.9672402,18.4127605 C64.2264848,17.4973783 63.8561126,16.191922 63.8561126,14.4963525 L63.8561126,12.4261908 C63.8561126,10.7362544 64.2391591,9.43361463 65.0052636,8.51823242 C65.7713681,7.60285021 66.836012,7.14516597 68.1992274,7.14516597 C69.5399103,7.14516597 70.5580817,7.51976291 71.2537721,8.26896805 C71.9494626,9.01817318 72.3451834,10.0940832 72.4409465,11.4967304 L69.9483028,11.4967304 C69.9257703,10.6292297 69.7919857,10.0307196 69.5469449,9.70118197 C69.3019041,9.37164438 68.8526695,9.20687805 68.1992274,9.20687805 C67.5345191,9.20687805 67.0641605,9.43924082 66.7881376,9.90397333 C66.5121146,10.3687058 66.3656557,11.1333906 66.3487563,12.1980505 L66.3487563,14.5217014 C66.3487563,15.7440887 66.4853574,16.5834112 66.7585638,17.039694 C67.0317702,17.4959769 67.5007205,17.7241149 68.1654288,17.7241149 C68.8188709,17.7241149 69.2695138,17.5649816 69.5173712,17.2467102 C69.7652285,16.9284389 69.9060544,16.3524609 69.9398532,15.5187589 L72.4240472,15.5187589 Z M77.4177843,14.8681366 L76.4376261,16.101784 L76.4376261,19.6168341 L73.953432,19.6168341 L73.953432,7.31415876 L76.4376261,7.31415876 L76.4376261,12.67968 L77.2234426,11.3530865 L79.5132949,7.31415876 L82.5551652,7.31415876 L79.0316655,12.7219282 L82.6143127,19.6168341 L79.6653884,19.6168341 L77.4177843,14.8681366 Z M88.7234022,16.3890718 C88.7234022,15.887724 88.5952506,15.5089023 88.3389436,15.2525952 C88.0826366,14.9962882 87.6165028,14.7301272 86.9405282,14.4541043 C85.7068747,13.9865552 84.8196714,13.4387424 84.2788917,12.8106494 C83.7381121,12.1825564 83.4677263,11.4404038 83.4677263,10.5841693 C83.4677263,9.547675 83.835282,8.71539382 84.5704043,8.08730079 C85.3055266,7.45920777 86.2392025,7.14516597 87.3714598,7.14516597 C88.1262981,7.14516597 88.799446,7.30429926 89.3909237,7.62257061 C89.9824015,7.94084196 90.4372692,8.39007665 90.7555405,8.97028814 C91.0738119,9.55049963 91.2329452,10.2095649 91.2329452,10.9475038 L88.7572008,10.9475038 C88.7572008,10.3729255 88.6346822,9.93495685 88.3896414,9.63358486 C88.1446006,9.33221287 87.7911276,9.18152913 87.3292116,9.18152913 C86.8954613,9.18152913 86.5574791,9.30968072 86.3152549,9.56598774 C86.0730307,9.82229476 85.9519204,10.1673183 85.9519204,10.6010686 C85.9519204,10.9390559 86.0871133,11.2446481 86.3575031,11.5178545 C86.6278929,11.7910609 87.106701,12.074121 87.7939418,12.3670433 C88.9937967,12.8007936 89.8655091,13.3331156 90.4091053,13.9640252 C90.9527015,14.5949348 91.2244955,15.3976425 91.2244955,16.3721725 C91.2244955,17.4424656 90.8836968,18.2789715 90.2020891,18.8817155 C89.5204815,19.4844595 88.5938469,19.7858269 87.4221577,19.7858269 C86.6278876,19.7858269 85.9040423,19.6224689 85.2506003,19.2957478 C84.5971582,18.9690268 84.0859601,18.5014848 83.7169907,17.8931077 C83.3480212,17.2847306 83.1635393,16.5665184 83.1635393,15.7384495 L85.656183,15.7384495 C85.656183,16.4482228 85.7941924,16.9636457 86.0702153,17.2847336 C86.3462383,17.6058215 86.7968812,17.7663631 87.4221577,17.7663631 C88.2896584,17.7663631 88.7234022,17.3072706 88.7234022,16.3890718 Z" id="Whotracks-me-Copy" fill="#FFFFFF"></path>
                    <rect id="Rectangle-38" fill="#00AEF0" x="94.0571041" y="15.4990925" width="4.00891047" height="4.00891047"></rect>
                </g>
            </g>
        </g>
    </g>
</svg>