<?xml version="1.0" encoding="UTF-8" standalone="no"?>
<svg width="28px" height="29px" viewBox="0 0 28 29" version="1.1" xmlns="http://www.w3.org/2000/svg" xmlns:xlink="http://www.w3.org/1999/xlink">
    <!-- Generator: Sketch 47.1 (45422) - http://www.bohemiancoding.com/sketch -->
    <title>Page 1</title>
    <desc>Created with Sketch.</desc>
    <defs>
        <polygon id="path-1" points="27.5396153 27.5663367 0 27.5663367 0 0.0263133214 27.5396153 0.0263133214"></polygon>
    </defs>
    <g id="Page-1" stroke="none" stroke-width="1" fill="none" fill-rule="evenodd">
        <g id="Tracker-page-5" transform="translate(-144.000000, -399.000000)">
            <g id="Page-1" transform="translate(144.126200, 399.866268)">
                <g id="Group-3" transform="translate(0.000000, 0.047393)">
                    <mask id="mask-2" fill="white">
                        <use xlink:href="#path-1"></use>
                    </mask>
                    <g id="Clip-2"></g>
                    <path d="M26.0820958,6.39883222 C26.0820958,6.44077138 26.0741355,6.48278424 26.0680178,6.54263415 L1.455849,6.54263415 C1.45275331,6.47519244 1.44722531,6.41084642 1.44722531,6.3465004 C1.44670936,5.4499311 1.44582488,4.55336179 1.4471516,3.65671878 C1.44869944,2.62519236 2.15510524,1.74447002 3.16518299,1.52637165 C3.3434797,1.48789671 3.53084234,1.47772517 3.7140037,1.47765146 C10.4138765,1.47529285 17.1136019,1.47529285 23.8134748,1.47602992 C24.9588782,1.47610362 25.8164566,2.15892326 26.0440631,3.25140519 C26.070229,3.37663301 26.0804743,3.50724143 26.0808428,3.63534382 C26.0838648,4.55653119 26.0827592,5.47764485 26.0820958,6.39883222 L26.0820958,6.39883222 Z M26.0828329,8.21408286 C26.0828329,13.4340709 26.0836437,18.654059 26.0821695,23.8739733 C26.0818747,24.9999918 25.3874831,25.8550642 24.2947801,26.0742682 C24.1279079,26.107731 23.9528543,26.1100897 23.7817071,26.1101634 C17.106305,26.1117849 10.4308291,26.105741 3.75550061,26.1169444 C2.54272921,26.1189345 1.7068943,25.3409594 1.5069278,24.4272901 C1.47176966,24.2667567 1.44943651,24.0998109 1.44928909,23.935887 C1.44641453,18.6851632 1.44693048,13.4345131 1.44693048,8.18386308 L1.44693048,8.00785128 L26.0828329,8.00785128 L26.0828329,8.21408286 Z M27.5336035,3.64632613 C27.5285914,2.50704039 27.0708723,1.56418323 26.1902974,0.838245126 C25.4941368,0.264364117 24.6848364,0.0244485398 23.7856873,0.0262912093 C20.4444114,0.0332933537 17.1030619,0.0291657739 13.761786,0.0290920671 C10.4327455,0.0290920671 7.10370492,0.027765345 3.77466438,0.0315980977 C3.49951696,0.0318929248 3.21891524,0.0383791217 2.95018031,0.0905635237 C1.20863645,0.428803949 0.00190900567,1.89593746 0.00124564463,3.67256574 C-0.000965558852,10.4227803 -0.000228491026,17.1729949 0.00308831419,23.9232094 C0.00323572775,24.1610612 0.0182719114,24.4041462 0.0678028693,24.6360277 C0.444518235,26.3990203 1.88312722,27.5638822 3.69049123,27.564693 C10.4099701,27.5675676 17.1294489,27.5663146 23.8489277,27.5638822 C24.057002,27.5638085 24.2683193,27.5528262 24.4727082,27.5166362 C26.3074912,27.1920315 27.5368466,25.7218023 27.536994,23.8600427 C27.5372888,19.6342855 27.5371414,15.4085282 27.5371414,11.1826972 C27.5370677,8.67062267 27.5446595,6.15840069 27.5336035,3.64632613 L27.5336035,3.64632613 Z" id="Fill-1" fill="#71869E" mask="url(#mask-2)"></path>
                </g>
                <path d="M4.67171278,12.02692 C4.87013143,11.5549754 5.24286663,11.2875672 5.76279428,11.2465126 C5.86664713,11.2383311 5.97116335,11.2337613 6.07538474,11.2336876 C8.61812133,11.2330242 11.1607842,11.2331716 13.7035208,11.2331716 C16.2585664,11.2331716 18.8135383,11.2351617 21.3685102,11.2314027 C21.8202591,11.2307393 22.2206343,11.3384249 22.5156826,11.7021679 C22.8562079,12.121928 22.9251975,12.5923984 22.7003918,13.0805584 C22.4825882,13.5534612 22.0954065,13.8109927 21.568919,13.8329573 C21.3113875,13.8436448 21.0531189,13.8365689 20.7951452,13.8365689 C15.8570856,13.8366426 10.9190997,13.8350211 5.98104006,13.8393698 C5.54484332,13.8397383 5.16930726,13.7243135 4.88266159,13.3863679 C4.53646083,12.9781797 4.46798723,12.5116158 4.67171278,12.02692 M4.12023863,14.6676129 C4.67045976,15.1108855 5.30094758,15.2961106 5.9988771,15.2956684 C8.55952444,15.2936783 11.1200981,15.2948576 13.6807454,15.2948576 C16.1737299,15.2948576 18.6667881,15.2952998 21.1598463,15.2940468 C21.3499361,15.2939731 21.5403944,15.2875606 21.7301894,15.2758412 C23.3955942,15.1730203 24.5984151,13.5322336 24.1983347,11.9112003 C23.8768995,10.60917 22.8014438,9.78085319 21.4233481,9.78055837 C16.2714651,9.77960018 11.1195084,9.77996871 5.96769913,9.78144285 C5.81468385,9.78144285 5.66107892,9.79412041 5.50887441,9.81151521 C4.44734933,9.93313141 3.52675161,10.7204673 3.22285855,11.7632708 C2.91432196,12.8217002 3.27902312,13.9901001 4.12023863,14.6676129" id="Fill-4" fill="#71869E"></path>
                <path d="M22.854977,20.0688091 C21.443271,20.0677034 20.0314913,20.0684405 18.6197853,20.0684405 C17.226506,20.0684405 15.833153,20.0677772 14.4398737,20.0695461 C14.3300506,20.0696935 14.2182374,20.0758849 14.1106992,20.0967439 C13.7260235,20.1715563 13.4714402,20.5808501 13.5664483,20.9617667 C13.6584344,21.3302269 13.9405102,21.5272452 14.3858466,21.5273189 C17.2091849,21.5280559 20.0326706,21.5280559 22.8560826,21.5264344 C22.953523,21.5264344 23.0531009,21.5175159 23.1481089,21.4965094 C23.5143579,21.4155057 23.7609808,21.0185209 23.6785029,20.6520508 C23.5932242,20.2732717 23.3082,20.0691776 22.854977,20.0688091" id="Fill-6" fill="#71869E"></path>
                <path d="M23.6633046,17.5385215 C23.556872,17.2108949 23.2909379,17.0338512 22.8943954,17.0337038 C20.6107382,17.0329667 18.3270809,17.0332615 16.04335,17.0333353 C15.4479466,17.033409 14.8523958,17.0304607 14.2569924,17.0360624 C13.921258,17.0392318 13.6565769,17.2529078 13.5701189,17.571837 C13.4450385,18.0339048 13.7919763,18.4750399 14.2910449,18.4760718 C15.7275164,18.4790201 17.1640616,18.4771037 18.6005331,18.4771774 C18.9935377,18.4772511 19.3863948,18.4773248 19.779252,18.4772511 C20.841293,18.4771774 21.903334,18.4801994 22.9653013,18.4755559 C23.4631169,18.4734184 23.812266,17.9971251 23.6633046,17.5385215" id="Fill-8" fill="#71869E"></path>
                <path d="M22.9119819,23.1186409 C20.0512005,23.118125 17.1905666,23.1183461 14.3297852,23.1184935 C14.2868142,23.1184935 14.2436957,23.1174616 14.2009458,23.1209995 C13.7737412,23.1569685 13.4636568,23.5886691 13.5659618,24.0042279 C13.6534518,24.3591261 13.9245453,24.5613775 14.328827,24.5618934 C15.7529895,24.5635887 17.1771519,24.5625568 18.6014618,24.5626305 C19.4670742,24.5627042 20.332613,24.562999 21.1982255,24.5625568 C21.7998202,24.562262 22.4015624,24.569043 23.002936,24.5576922 C23.4785659,24.5486999 23.808846,24.0701218 23.663054,23.6245643 C23.5578744,23.3029079 23.2872231,23.1187146 22.9119819,23.1186409" id="Fill-10" fill="#71869E"></path>
                <path d="M10.2114556,17.0345219 C8.37674636,17.0335637 6.54211083,17.0337849 4.70747531,17.0351853 C4.64099179,17.0351853 4.57214965,17.0429245 4.50846699,17.0611301 C4.15460073,17.1625506 3.94505235,17.4910617 3.98971866,17.8673349 C4.02900437,18.1981309 4.33894139,18.4737206 4.69317619,18.4753421 C5.61355278,18.479396 6.53385567,18.4766688 7.45437968,18.4769637 C8.36244724,18.4771848 9.2705148,18.4758581 10.1787298,18.4782167 C10.4061889,18.4788063 10.6023227,18.4106276 10.7512841,18.2369007 C10.9418898,18.014601 11.0047617,17.7615656 10.8850619,17.4853863 C10.7587284,17.1941708 10.5345861,17.0346693 10.2114556,17.0345219" id="Fill-12" fill="#71869E"></path>
                <path d="M8.09764088,20.0693103 C6.99845163,20.0668042 5.89926239,20.0678361 4.80007314,20.0696051 C4.71472068,20.0697525 4.62811521,20.0794818 4.5443106,20.0960658 C4.23518436,20.1572424 3.99357352,20.4489002 3.98612914,20.7631859 C3.97536795,21.2140503 4.28279894,21.5205231 4.76734733,21.5261248 C5.32611844,21.5325373 5.88496327,21.5275252 6.4438081,21.5275989 C6.73863523,21.5277464 7.03338865,21.5306209 7.32814207,21.5269356 C7.65915923,21.522808 7.99290354,21.5367386 8.32045649,21.498927 C8.71242916,21.4538185 8.96634902,21.0673001 8.90030774,20.6770964 C8.83633026,20.3002336 8.53862856,20.0702684 8.09764088,20.0693103" id="Fill-14" fill="#71869E"></path>
                <path d="M6.74234268,2.82328671 C6.10448418,2.81716905 5.57239492,3.35102727 5.57556431,3.99397154 C5.5787337,4.63264081 6.09630273,5.14306028 6.73954182,5.14180726 C7.38255979,5.14055425 7.89585382,4.6282184 7.89614865,3.98763276 C7.89636977,3.35051133 7.37990635,2.82940437 6.74234268,2.82328671" id="Fill-16" fill="#71869E"></path>
                <path d="M9.63072722,2.82307296 C8.99065752,2.82668459 8.47810055,3.34646482 8.47942727,3.9905884 C8.480754,4.63729171 8.99109976,5.14380472 9.63957203,5.14188834 C10.2821478,5.13997196 10.8027388,4.6187176 10.7985375,3.981891 C10.7941888,3.34683336 10.2628366,2.81953504 9.63072722,2.82307296" id="Fill-18" fill="#71869E"></path>
                <path d="M3.83466907,2.82307296 C3.19939031,2.82616865 2.67282906,3.35567817 2.67496655,3.98926168 C2.67703034,4.62911025 3.19636833,5.1425517 3.84056561,5.14188834 C4.48749004,5.14115127 4.99510865,4.63102663 4.99356081,3.98321772 C4.99193926,3.34042087 4.47201162,2.81997728 3.83466907,2.82307296" id="Fill-20" fill="#71869E"></path>
            </g>
        </g>
    </g>
</svg>