<?xml version="1.0" encoding="UTF-8" standalone="no"?>
<svg width="15px" height="15px" viewBox="0 0 15 15" version="1.1" xmlns="http://www.w3.org/2000/svg" xmlns:xlink="http://www.w3.org/1999/xlink">
    <!-- Generator: Sketch 47 (45396) - http://www.bohemiancoding.com/sketch -->
    <title>website globe - icon</title>
    <desc>Created with Sketch.</desc>
    <defs>
        <polygon id="path-1" points="1.05957426e-05 14.944013 14.9477198 14.944013 14.9477198 3.10400467e-06 1.05957426e-05 3.10400467e-06"></polygon>
    </defs>
    <g id="Page-1" stroke="none" stroke-width="1" fill="none" fill-rule="evenodd" opacity="0.569904384">
        <g id="website-globe---icon">
            <g id="Page-1" transform="translate(0.025000, 0.025000)">
                <mask id="mask-2" fill="white">
                    <use xlink:href="#path-1"></use>
                </mask>
                <g id="Clip-2"></g>
                <path d="M11.8855885,2.80818145 C11.2895939,2.25990208 10.6471382,1.83049276 9.90897338,1.54785241 C10.3932051,2.11525131 10.8189912,2.7181022 11.1345472,3.42106592 C11.3902641,3.21239534 11.6321849,3.01498467 11.8855885,2.80818145 L11.8855885,2.80818145 Z M11.1336275,11.5217598 C10.8170959,12.2302698 10.3896097,12.8295811 9.91006035,13.3970079 C10.6479465,13.1094343 11.2935516,12.6844008 11.8850032,12.1344213 C11.6300388,11.9265311 11.3901527,11.730932 11.1336275,11.5217598 L11.1336275,11.5217598 Z M5.03725257,1.55704985 C4.29108873,1.84610055 3.64347692,2.27656897 3.04809548,2.83078487 C3.31192287,3.04232617 3.55618478,3.23820393 3.81070325,3.44230366 C4.1242526,2.7339887 4.55371766,2.12821135 5.03725257,1.55704985 L5.03725257,1.55704985 Z M3.80919821,11.4997695 C3.5476005,11.713652 3.30289265,11.9137383 3.04887587,12.1214334 C3.65445812,12.6762624 4.2974712,13.1107443 5.03959374,13.3923534 C4.55307663,12.8198262 4.1253117,12.2124323 3.80919821,11.4997695 L3.80919821,11.4997695 Z M8.01510742,10.4146379 L8.01510742,13.602752 C9.01439618,12.9507366 9.72820173,12.0805465 10.2123219,11.0001809 C9.5054284,10.6781866 8.78462721,10.4741705 8.01510742,10.4146379 L8.01510742,10.4146379 Z M8.01365813,1.34038028 L8.01365813,4.5296092 C8.78727496,4.46910114 9.51058454,4.2665622 10.2130744,3.94423346 C9.72307345,2.86027245 9.01213862,1.9908628 8.01365813,1.34038028 L8.01365813,1.34038028 Z M4.73596648,3.95153568 C5.25222201,4.23520726 6.40814608,4.53061256 6.93819778,4.51857226 L6.93819778,1.3398786 C5.9341152,1.99420733 5.22028178,2.86980435 4.73596648,3.95153568 L4.73596648,3.95153568 Z M6.9376961,13.6040898 L6.9376961,10.4119902 C6.16413501,10.4702128 5.43759239,10.6658118 4.73264983,10.9848239 C5.22106217,12.0744149 5.93400372,12.9488971 6.9376961,13.6040898 L6.9376961,13.6040898 Z M4.37854809,9.98882395 C5.20955142,9.63109898 6.05702655,9.41440154 6.93950772,9.35177528 L6.93950772,8.01020211 L4.0520387,8.01020211 C4.08710048,8.68339954 4.19231371,9.33438374 4.37854809,9.98882395 L4.37854809,9.98882395 Z M6.94042747,5.59063234 C6.05131299,5.53062596 5.20503631,5.30941341 4.37896616,4.95600845 C4.19153332,5.60830259 4.08726771,6.26210176 4.05240102,6.93357119 L6.94042747,6.93357119 L6.94042747,5.59063234 Z M10.5691829,4.94739629 C9.74531456,5.30523275 8.90015273,5.52909305 8.01229244,5.5907717 L8.01229244,6.93290228 L10.8998172,6.93290228 C10.860742,6.25502252 10.7595143,5.59902153 10.5691829,4.94739629 L10.5691829,4.94739629 Z M8.01034147,9.3235419 C8.45103857,9.4042286 8.88808456,9.46142 9.31258858,9.56844485 C9.7365073,9.67530247 10.1478283,9.83204927 10.5769868,9.97090286 C10.7583716,9.34227125 10.863975,8.68468161 10.8978662,8.01073166 L8.01034147,8.01073166 L8.01034147,9.3235419 Z M2.99681274,6.9380863 C3.03591583,6.07962998 3.18516532,5.25224988 3.42931575,4.45432949 C3.06336882,4.17648295 2.70670294,3.9056878 2.34265124,3.62926269 C1.60897363,4.60603163 1.18870601,5.70624147 1.07892193,6.9380863 L2.99681274,6.9380863 Z M2.34752868,11.3048951 C2.67732685,11.060884 3.00196888,10.8141695 3.33483288,10.5790771 C3.41437686,10.5228891 3.42563677,10.4795496 3.40464987,10.3897212 C3.29609211,9.92583537 3.18405048,9.46211678 3.09815189,8.99379947 C3.03898164,8.67105267 3.02039165,8.34089217 2.98349038,8.01251541 L1.08920635,8.01251541 C1.09879399,9.0029133 1.76062003,10.718293 2.34752868,11.3048951 L2.34752868,11.3048951 Z M11.5202826,4.44017099 C11.7695334,5.24804135 11.9149925,6.08082843 11.95443,6.93624681 L13.8537308,6.93624681 C13.9167751,6.11151446 13.2018269,4.24889195 12.5844552,3.61067269 C12.2336701,3.8841156 11.8836654,4.15691747 11.5202826,4.44017099 L11.5202826,4.44017099 Z M11.954653,8.00847411 C11.9151876,8.86500733 11.7679169,9.70133403 11.5208122,10.5040204 C11.8846966,10.7873296 12.2377114,11.0621382 12.5939035,11.3394831 C13.3373081,10.3559693 13.760753,9.24859664 13.8721815,8.00847411 L11.954653,8.00847411 Z M14.9477254,7.47039555 C14.9478648,11.6036449 11.6172181,14.9368278 7.48118165,14.9440186 C3.32128754,14.9512093 -0.0149890526,11.5468158 6.13163179e-05,7.43672732 C0.0150838142,3.33366229 3.35969386,-0.00331108117 7.4781437,5.5742106e-06 C11.6123964,0.00332222959 14.9475861,3.33890205 14.9477254,7.47039555 L14.9477254,7.47039555 Z" id="Fill-1" fill="#6C8791" mask="url(#mask-2)"></path>
            </g>
        </g>
    </g>
</svg>