<svg class="main-svg" xmlns="http://www.w3.org/2000/svg" xmlns:xlink="http://www.w3.org/1999/xlink" width="800" height="600" style="" viewBox="0 0 800 600"><rect x="0" y="0" width="800" height="600" style="fill: rgb(0, 0, 0); fill-opacity: 0;"/><defs id="defs-0898e2"><g class="clips"><clipPath class="plotclip" id="clip0898e2xyplot"><rect width="680" height="540"/></clipPath><clipPath class="axesclip" id="clip0898e2x"><rect x="60" y="0" width="680" height="600"/></clipPath><clipPath class="axesclip" id="clip0898e2y"><rect x="0" y="30" width="800" height="540"/></clipPath><clipPath class="axesclip" id="clip0898e2xy"><rect x="60" y="30" width="680" height="540"/></clipPath></g><g class="gradients"/></defs><g class="bglayer"><rect class="bg" x="55" y="25" width="690" height="550" style="fill: rgb(255, 255, 255); fill-opacity: 1; stroke-width: 0;"/></g><g class="layer-below"><g class="imagelayer"/><g class="shapelayer"/></g><g class="cartesianlayer"><g class="subplot xy"><g class="layer-subplot"><g class="shapelayer"/><g class="imagelayer"/></g><g class="gridlayer" transform="translate(60,30)"/><g class="overgrid"/><g class="zerolinelayer" transform="translate(60,30)"/><g class="overzero"/><path class="xlines-below"/><path class="ylines-below"/><g class="overlines-below"/><g class="xaxislayer-below"/><g class="yaxislayer-below"/><g class="overaxes-below"/><g class="plot" transform="translate(60, 30)" clip-path="url(#clip0898e2xyplot)"><g class="imagelayer"/><g class="maplayer"/><g class="barlayer"/><g class="carpetlayer"/><g class="boxlayer"/><g class="scatterlayer"/></g><g class="overplot"/><path class="xlines-above crisp" style="fill: none; stroke-width: 1px; stroke: rgb(0, 0, 0); stroke-opacity: 0;" transform="translate(60,30)" d="M-6,545.5H680"/><path class="ylines-above crisp" style="fill: none; stroke-width: 1px; stroke: rgb(0, 0, 0); stroke-opacity: 0;" transform="translate(60,30)" d="M-5.5,0V545"/><g class="overlines-above"/><g class="xaxislayer-above" transform="translate(60,30)"/><g class="yaxislayer-above" transform="translate(60,30)"/><g class="overaxes-above"/></g></g><g class="ternarylayer"/><g class="geolayer"/><g class="layer-above"><g class="imagelayer"/><g class="shapelayer"/></g><g class="pielayer"><g stroke-linejoin="round" class="trace" style="opacity: 1;"><g class="top part"><g class="slice"><path class="surface" style="pointer-events: all; stroke-width: 0; fill: rgb(31, 119, 180); fill-opacity: 1; stroke: rgb(0, 0, 0); stroke-opacity: 1;" d="M526.1659971555973,290.6874261360787a113.55140186915888,113.55140186915888 0 0 0 -113.5114807527999,-116.56214990875883l0,-138.78504672897196a252.33644859813083,252.33644859813083 0 0 1 252.247735006222,259.02699979724184Z"/><g class="slicetext"><text data-notex="1" class="slicetext" transform="translate(630.7666504041164,107.24853716160773)translate(-0.0003204345703125,4)" text-anchor="middle" style="font-family: sans-serif; font-size: 15px; fill: rgb(26, 26, 37); fill-opacity: 1; white-space: pre;" x="0" y="0">Germany</text></g></g><g class="slice"><path class="surface" style="pointer-events: all; stroke-width: 0; fill: rgb(255, 127, 14); fill-opacity: 1; stroke: rgb(0, 0, 0); stroke-opacity: 1;" d="M388.3927773737705,173.13419123336269a113.55140186915888,113.55140186915888 0 0 0 -112.49069043871002,98.06704101462142l-137.48862164731224,-18.925329933323553a252.33644859813083,252.33644859813083 0 0 1 249.97931208602225,-217.92675781026983Z"/><g class="slicetext"><text data-notex="1" class="slicetext" transform="translate(200.65863953184817,91.36614079568484)translate(0.0003204345703125,4)" text-anchor="middle" style="font-family: sans-serif; font-size: 15px; fill: rgb(26, 26, 37); fill-opacity: 1; white-space: pre;" x="0" y="0">USA</text></g></g><g class="slice"><path class="surface" style="pointer-events: all; stroke-width: 0; fill: rgb(44, 160, 44); fill-opacity: 1; stroke: rgb(0, 0, 0); stroke-opacity: 1;" d="M270.3209355727302,288.5851412963253a113.55140186915888,113.55140186915888 0 0 0 18.884828902347692,79.76393422342798l-114.4071640999984,78.56392300642177a252.33644859813083,252.33644859813083 0 0 1 -41.96628644966154,-177.2531871631733Z"/><g class="slicetext"><text data-notex="1" class="slicetext" transform="translate(107.41342007135677,362.68296232054973)translate(-0.000396728515625,4)" text-anchor="middle" style="font-family: sans-serif; font-size: 15px; fill: rgb(26, 26, 37); fill-opacity: 1; white-space: pre;" x="0" y="0">France</text></g></g><g class="slice"><path class="surface" style="pointer-events: all; stroke-width: 0; fill: rgb(214, 39, 40); fill-opacity: 1; stroke: rgb(0, 0, 0); stroke-opacity: 1;" d="M295.3878026511058,378.0948410140812a113.55140186915888,113.55140186915888 0 0 0 51.86973164918621,41.32353420135089l-51.010825417659696,129.07046480807287a252.33644859813083,252.33644859813083 0 0 1 -115.2660703315249,-91.83007600300198Z"/><g class="slicetext"><text data-notex="1" class="slicetext" transform="translate(206.51029543701333,516.6818391666084)translate(0,4)" text-anchor="middle" style="font-family: sans-serif; font-size: 15px; fill: rgb(26, 26, 37); fill-opacity: 1; white-space: pre;" x="0" y="0">Other</text></g></g><g class="slice"><path class="surface" style="pointer-events: all; stroke-width: 0; fill: rgb(148, 103, 189); fill-opacity: 1; stroke: rgb(0, 0, 0); stroke-opacity: 1;" d="M355.57455658710984,423.0607317180711a113.55140186915888,113.55140186915888 0 0 0 49.755606383149065,7.664755759044321l9.801582383966936,138.43849962468258a252.33644859813083,252.33644859813083 0 0 1 -110.56801418477569,-17.032790575654047Z"/><g class="slicetext"><text data-notex="1" class="slicetext" transform="translate(329.49192792474327,575.6436284000547)translate(0.000396728515625,4)" text-anchor="middle" style="font-family: sans-serif; font-size: 15px; fill: rgb(26, 26, 37); fill-opacity: 1; white-space: pre;" x="0" y="0">Russia</text></g></g><g class="slice"><path class="surface" style="pointer-events: all; stroke-width: 0; fill: rgb(140, 86, 75); fill-opacity: 1; stroke: rgb(0, 0, 0); stroke-opacity: 1;" d="M411.8787960435932,430.50464669381836a113.55140186915888,113.55140186915888 0 0 0 33.02677034261938,-7.3947010693600035l50.16763502494618,129.40053165102037a252.33644859813083,252.33644859813083 0 0 1 -73.39282298359862,16.43266904302223Z"/><g class="slicetext"><text data-notex="1" class="slicetext" transform="translate(475.9257902927814,572.0469025226422)translate(0.0002593994140625,4)" text-anchor="middle" style="font-family: sans-serif; font-size: 15px; fill: rgb(26, 26, 37); fill-opacity: 1; white-space: pre;" x="0" y="0">UK</text></g></g><g class="slice"><path class="surface" style="pointer-events: all; stroke-width: 0; fill: rgb(227, 119, 194); fill-opacity: 1; stroke: rgb(0, 0, 0); stroke-opacity: 1;" d="M448.9923037905847,421.6484982957181a113.55140186915888,113.55140186915888 0 0 0 19.593289863052565,-9.86916518136094l74.11498930201043,117.33821865157921a252.33644859813083,252.33644859813083 0 0 1 -43.54064414011681,21.931478180802088Z"/><g class="slicetext"><text data-notex="1" class="slicetext" transform="translate(551.3111623696846,548.315944529993)translate(-0.000396728515625,4)" text-anchor="middle" style="font-family: sans-serif; font-size: 15px; fill: rgb(26, 26, 37); fill-opacity: 1; white-space: pre;" x="0" y="0">Poland</text></g></g><g class="slice"><path class="surface" style="pointer-events: all; stroke-width: 0; fill: rgb(127, 127, 127); fill-opacity: 1; stroke: rgb(0, 0, 0); stroke-opacity: 1;" d="M471.43725871257124,409.98291862141747a113.55140186915888,113.55140186915888 0 0 0 16.931387311696017,-13.078291690140706l94.80890712741667,101.35363991918501a252.33644859813083,252.33644859813083 0 0 1 -37.62530513710226,29.0628704225349Z"/><g class="slicetext"><text data-notex="1" class="slicetext" transform="translate(611.9675653485181,519.3146158527953)translate(0.0003204345703125,4)" text-anchor="middle" style="font-family: sans-serif; font-size: 15px; fill: rgb(26, 26, 37); fill-opacity: 1; white-space: pre;" x="0" y="0">Netherlands</text></g></g><g class="slice"><path class="surface" style="pointer-events: all; stroke-width: 0; fill: rgb(188, 189, 34); fill-opacity: 1; stroke: rgb(0, 0, 0); stroke-opacity: 1;" d="M490.7735312985597,394.65993774502766a113.55140186915888,113.55140186915888 0 0 0 13.885482372827493,-15.623056128686681l111.78005224976138,82.25879353967908a252.33644859813083,252.33644859813083 0 0 1 -30.856627495172205,34.71790250819262Z"/><g class="slicetext"><text data-notex="1" class="slicetext" transform="translate(634.561282788344,483.33800046637714)translate(0,4)" text-anchor="middle" style="font-family: sans-serif; font-size: 15px; fill: rgb(26, 26, 37); fill-opacity: 1; white-space: pre;" x="0" y="0">Canada</text></g></g><g class="slice"><path class="surface" style="pointer-events: all; stroke-width: 0; fill: rgb(23, 190, 207); fill-opacity: 1; stroke: rgb(0, 0, 0); stroke-opacity: 1;" d="M506.26070356731503,376.9376808164459a113.55140186915888,113.55140186915888 0 0 0 7.1140300081616195,-10.930759673858214l120.47497781529225,68.89897616051903a252.33644859813083,252.33644859813083 0 0 1 -15.808955573692486,24.290577053018254Z"/><g class="slicetext"><text data-notex="1" class="slicetext" transform="translate(658.6275851588833,449.9562295453317)translate(-0.0003204345703125,4)" text-anchor="middle" style="font-family: sans-serif; font-size: 15px; fill: rgb(26, 26, 37); fill-opacity: 1; white-space: pre;" x="0" y="0">Ukraine</text></g></g><g class="slice"><path class="surface" style="pointer-events: all; stroke-width: 0; fill: rgb(87, 169, 226); fill-opacity: 1; stroke: rgb(0, 0, 0); stroke-opacity: 1;" d="M514.3813793334292,364.24685825267545a113.55140186915888,113.55140186915888 0 0 0 5.80795320253005,-11.660899308126336l127.5735872850512,54.64676589503129a252.33644859813083,252.33644859813083 0 0 1 -12.906562672288999,25.91310957361408Z"/><g class="slicetext"><text data-notex="1" class="slicetext" transform="translate(671.5315624583178,422.1634130641579)translate(-0.000396728515625,4)" text-anchor="middle" style="font-family: sans-serif; font-size: 15px; fill: rgb(26, 26, 37); fill-opacity: 1; white-space: pre;" x="0" y="0">Austria</text></g></g><g class="slice"><path class="surface" style="pointer-events: all; stroke-width: 0; fill: rgb(255, 181, 116); fill-opacity: 1; stroke: rgb(0, 0, 0); stroke-opacity: 1;" d="M520.9780546018883,350.7485535152947a113.55140186915888,113.55140186915888 0 0 0 4.334504296661793,-11.91727795744559l132.87131475874895,40.08120394704223a252.33644859813083,252.33644859813083 0 0 1 -9.632231770359539,26.482839905434645Z"/><g class="slicetext"><text data-notex="1" class="slicetext" transform="translate(673.9877365054308,393.3399679980461)translate(0,4)" text-anchor="middle" style="font-family: sans-serif; font-size: 15px; fill: rgb(26, 26, 37); fill-opacity: 1; white-space: pre;" x="0" y="0">Italy</text></g></g><g class="slice"><path class="surface" style="pointer-events: all; stroke-width: 0; fill: rgb(95, 211, 95); fill-opacity: 1; stroke: rgb(0, 0, 0); stroke-opacity: 1;" d="M525.8691859683827,336.99641268656495a113.55140186915888,113.55140186915888 0 0 0 2.8484187684133646,-11.627834507252887l136.35271547569863,25.86940621595537a252.33644859813083,252.33644859813083 0 0 1 -6.329819485363032,25.839632238339746Z"/><g class="slicetext"><text data-notex="1" class="slicetext" transform="translate(687.9128506115163,364.75077599918853)translate(0.0003204345703125,4)" text-anchor="middle" style="font-family: sans-serif; font-size: 15px; fill: rgb(26, 26, 37); fill-opacity: 1; white-space: pre;" x="0" y="0">Spain</text></g></g><g class="slice"><path class="surface" style="pointer-events: all; stroke-width: 0; fill: rgb(231, 124, 124); fill-opacity: 1; stroke: rgb(0, 0, 0); stroke-opacity: 1;" d="M529.0417529586405,323.70265828439904a113.55140186915888,113.55140186915888 0 0 0 1.4144504434802472,-9.746691449733248l138.08148823995225,13.956783332948065a252.33644859813083,252.33644859813083 0 0 1 -3.1432232077338824,21.65931433274055Z"/><g class="slicetext"><text data-notex="1" class="slicetext" transform="translate(712.4510159639239,338.9621332273247)translate(0,4)" text-anchor="middle" style="font-family: sans-serif; font-size: 15px; fill: rgb(26, 26, 37); fill-opacity: 1; white-space: pre;" x="0" y="0">Switzerland</text></g></g><g class="slice"><path class="surface" style="pointer-events: all; stroke-width: 0; fill: rgb(198, 174, 220); fill-opacity: 1; stroke: rgb(0, 0, 0); stroke-opacity: 1;" d="M530.60357327386,312.5422877798276a113.55140186915888,113.55140186915888 0 0 0 0.5357176473844149,-8.408438323721068l138.7362542534221,3.6798031595112035a252.33644859813083,252.33644859813083 0 0 1 -1.1904836608542553,18.68541849715793Z"/><g class="slicetext"><text data-notex="1" class="slicetext" transform="translate(703.0369979647219,317.2037925364368)translate(-0.0003204345703125,4)" text-anchor="middle" style="font-family: sans-serif; font-size: 15px; fill: rgb(26, 26, 37); fill-opacity: 1; white-space: pre;" x="0" y="0">Belgium</text></g></g></g></g></g><g class="glimages"/><defs id="topdefs-0898e2"><g class="clips"><clipPath class="annclip" id="clip0898e2_ann0"><rect x="6" y="6" width="100" height="18"/></clipPath></g></defs><g class="infolayer"><g class="g-gtitle"/><g class="g-xtitle"/><g class="g-ytitle"/><g class="annotation" data-index="0" style="opacity: 1;"><g class="annotation-text-g" transform="rotate(0,400,300)"><g class="cursor-default" transform="translate(344, 285)"><rect class="bg" style="stroke-width: 1px; stroke: rgb(26, 26, 37); stroke-opacity: 1; fill: rgb(26, 26, 37); fill-opacity: 1;" x="0.5" y="0.5" width="111" height="29"/><text class="annotation-text" style="font-family: sans-serif; font-size: 15px; fill: rgb(255, 255, 255); fill-opacity: 1; white-space: pre;" text-anchor="middle" x="55.999542236328125" y="19" clip-path="url(#clip0898e2_ann0)">DATA ORIGIN</text></g></g></g></g></svg>