<?xml version="1.0" encoding="utf-8" standalone="no"?>
<!DOCTYPE svg PUBLIC "-//W3C//DTD SVG 1.1//EN"
  "http://www.w3.org/Graphics/SVG/1.1/DTD/svg11.dtd">
<!-- Created with matplotlib (http://matplotlib.org/) -->
<svg height="288pt" version="1.1" viewBox="0 0 504 288" width="504pt" xmlns="http://www.w3.org/2000/svg" xmlns:xlink="http://www.w3.org/1999/xlink">
 <defs>
  <style type="text/css">
*{stroke-linecap:butt;stroke-linejoin:round;}
  </style>
 </defs>
 <g id="figure_1">
  <g id="patch_1">
   <path d="M 0 288 
L 504 288 
L 504 0 
L 0 0 
z
" style="fill:#ffffff;"/>
  </g>
  <g id="axes_1">
   <g id="patch_2">
    <path d="M 52.275 256.1 
L 493.2 256.1 
L 493.2 28.878125 
L 52.275 28.878125 
z
" style="fill:#ffffff;"/>
   </g>
   <g id="matplotlib.axis_1">
    <g id="xtick_1">
     <g id="line2d_1"/>
     <g id="text_1">
      <!-- January -->
      <defs>
       <path d="M 2.875 20.3125 
L 11.421875 21.484375 
Q 11.765625 13.28125 14.5 10.25 
Q 17.234375 7.234375 22.078125 7.234375 
Q 25.640625 7.234375 28.21875 8.859375 
Q 30.8125 10.5 31.78125 13.296875 
Q 32.765625 16.109375 32.765625 22.265625 
L 32.765625 71.578125 
L 42.234375 71.578125 
L 42.234375 22.796875 
Q 42.234375 13.8125 40.0625 8.875 
Q 37.890625 3.953125 33.171875 1.359375 
Q 28.46875 -1.21875 22.125 -1.21875 
Q 12.703125 -1.21875 7.6875 4.203125 
Q 2.6875 9.625 2.875 20.3125 
z
" id="ArialMT-4a"/>
       <path d="M 40.4375 6.390625 
Q 35.546875 2.25 31.03125 0.53125 
Q 26.515625 -1.171875 21.34375 -1.171875 
Q 12.796875 -1.171875 8.203125 3 
Q 3.609375 7.171875 3.609375 13.671875 
Q 3.609375 17.484375 5.34375 20.625 
Q 7.078125 23.78125 9.890625 25.6875 
Q 12.703125 27.59375 16.21875 28.5625 
Q 18.796875 29.25 24.03125 29.890625 
Q 34.671875 31.15625 39.703125 32.90625 
Q 39.75 34.71875 39.75 35.203125 
Q 39.75 40.578125 37.25 42.78125 
Q 33.890625 45.75 27.25 45.75 
Q 21.046875 45.75 18.09375 43.578125 
Q 15.140625 41.40625 13.71875 35.890625 
L 5.125 37.0625 
Q 6.296875 42.578125 8.984375 45.96875 
Q 11.671875 49.359375 16.75 51.1875 
Q 21.828125 53.03125 28.515625 53.03125 
Q 35.15625 53.03125 39.296875 51.46875 
Q 43.453125 49.90625 45.40625 47.53125 
Q 47.359375 45.171875 48.140625 41.546875 
Q 48.578125 39.3125 48.578125 33.453125 
L 48.578125 21.734375 
Q 48.578125 9.46875 49.140625 6.21875 
Q 49.703125 2.984375 51.375 0 
L 42.1875 0 
Q 40.828125 2.734375 40.4375 6.390625 
z
M 39.703125 26.03125 
Q 34.90625 24.078125 25.34375 22.703125 
Q 19.921875 21.921875 17.671875 20.9375 
Q 15.4375 19.96875 14.203125 18.09375 
Q 12.984375 16.21875 12.984375 13.921875 
Q 12.984375 10.40625 15.640625 8.0625 
Q 18.3125 5.71875 23.4375 5.71875 
Q 28.515625 5.71875 32.46875 7.9375 
Q 36.421875 10.15625 38.28125 14.015625 
Q 39.703125 17 39.703125 22.796875 
z
" id="ArialMT-61"/>
       <path d="M 6.59375 0 
L 6.59375 51.859375 
L 14.5 51.859375 
L 14.5 44.484375 
Q 20.21875 53.03125 31 53.03125 
Q 35.6875 53.03125 39.625 51.34375 
Q 43.5625 49.65625 45.515625 46.921875 
Q 47.46875 44.1875 48.25 40.4375 
Q 48.734375 37.984375 48.734375 31.890625 
L 48.734375 0 
L 39.9375 0 
L 39.9375 31.546875 
Q 39.9375 36.921875 38.90625 39.578125 
Q 37.890625 42.234375 35.28125 43.8125 
Q 32.671875 45.40625 29.15625 45.40625 
Q 23.53125 45.40625 19.453125 41.84375 
Q 15.375 38.28125 15.375 28.328125 
L 15.375 0 
z
" id="ArialMT-6e"/>
       <path d="M 40.578125 0 
L 40.578125 7.625 
Q 34.515625 -1.171875 24.125 -1.171875 
Q 19.53125 -1.171875 15.546875 0.578125 
Q 11.578125 2.34375 9.640625 5 
Q 7.71875 7.671875 6.9375 11.53125 
Q 6.390625 14.109375 6.390625 19.734375 
L 6.390625 51.859375 
L 15.1875 51.859375 
L 15.1875 23.09375 
Q 15.1875 16.21875 15.71875 13.8125 
Q 16.546875 10.359375 19.234375 8.375 
Q 21.921875 6.390625 25.875 6.390625 
Q 29.828125 6.390625 33.296875 8.421875 
Q 36.765625 10.453125 38.203125 13.9375 
Q 39.65625 17.4375 39.65625 24.078125 
L 39.65625 51.859375 
L 48.4375 51.859375 
L 48.4375 0 
z
" id="ArialMT-75"/>
       <path d="M 6.5 0 
L 6.5 51.859375 
L 14.40625 51.859375 
L 14.40625 44 
Q 17.4375 49.515625 20 51.265625 
Q 22.5625 53.03125 25.640625 53.03125 
Q 30.078125 53.03125 34.671875 50.203125 
L 31.640625 42.046875 
Q 28.421875 43.953125 25.203125 43.953125 
Q 22.3125 43.953125 20.015625 42.21875 
Q 17.71875 40.484375 16.75 37.40625 
Q 15.28125 32.71875 15.28125 27.15625 
L 15.28125 0 
z
" id="ArialMT-72"/>
       <path d="M 6.203125 -19.96875 
L 5.21875 -11.71875 
Q 8.109375 -12.5 10.25 -12.5 
Q 13.1875 -12.5 14.9375 -11.515625 
Q 16.703125 -10.546875 17.828125 -8.796875 
Q 18.65625 -7.46875 20.515625 -2.25 
Q 20.75 -1.515625 21.296875 -0.09375 
L 1.609375 51.859375 
L 11.078125 51.859375 
L 21.875 21.828125 
Q 23.96875 16.109375 25.640625 9.8125 
Q 27.15625 15.875 29.25 21.625 
L 40.328125 51.859375 
L 49.125 51.859375 
L 29.390625 -0.875 
Q 26.21875 -9.421875 24.46875 -12.640625 
Q 22.125 -17 19.09375 -19.015625 
Q 16.0625 -21.046875 11.859375 -21.046875 
Q 9.328125 -21.046875 6.203125 -19.96875 
z
" id="ArialMT-79"/>
      </defs>
      <g style="fill:#262626;" transform="translate(102.639766 274.505156)scale(0.13 -0.13)">
       <use xlink:href="#ArialMT-4a"/>
       <use x="50" xlink:href="#ArialMT-61"/>
       <use x="105.615234" xlink:href="#ArialMT-6e"/>
       <use x="161.230469" xlink:href="#ArialMT-75"/>
       <use x="216.845703" xlink:href="#ArialMT-61"/>
       <use x="272.460938" xlink:href="#ArialMT-72"/>
       <use x="305.761719" xlink:href="#ArialMT-79"/>
      </g>
     </g>
    </g>
    <g id="xtick_2">
     <g id="line2d_2"/>
     <g id="text_2">
      <!-- February -->
      <defs>
       <path d="M 8.203125 0 
L 8.203125 71.578125 
L 56.5 71.578125 
L 56.5 63.140625 
L 17.671875 63.140625 
L 17.671875 40.96875 
L 51.265625 40.96875 
L 51.265625 32.515625 
L 17.671875 32.515625 
L 17.671875 0 
z
" id="ArialMT-46"/>
       <path d="M 42.09375 16.703125 
L 51.171875 15.578125 
Q 49.03125 7.625 43.21875 3.21875 
Q 37.40625 -1.171875 28.375 -1.171875 
Q 17 -1.171875 10.328125 5.828125 
Q 3.65625 12.84375 3.65625 25.484375 
Q 3.65625 38.578125 10.390625 45.796875 
Q 17.140625 53.03125 27.875 53.03125 
Q 38.28125 53.03125 44.875 45.953125 
Q 51.46875 38.875 51.46875 26.03125 
Q 51.46875 25.25 51.421875 23.6875 
L 12.75 23.6875 
Q 13.234375 15.140625 17.578125 10.59375 
Q 21.921875 6.0625 28.421875 6.0625 
Q 33.25 6.0625 36.671875 8.59375 
Q 40.09375 11.140625 42.09375 16.703125 
z
M 13.234375 30.90625 
L 42.1875 30.90625 
Q 41.609375 37.453125 38.875 40.71875 
Q 34.671875 45.796875 27.984375 45.796875 
Q 21.921875 45.796875 17.796875 41.75 
Q 13.671875 37.703125 13.234375 30.90625 
z
" id="ArialMT-65"/>
       <path d="M 14.703125 0 
L 6.546875 0 
L 6.546875 71.578125 
L 15.328125 71.578125 
L 15.328125 46.046875 
Q 20.90625 53.03125 29.546875 53.03125 
Q 34.328125 53.03125 38.59375 51.09375 
Q 42.875 49.171875 45.625 45.671875 
Q 48.390625 42.1875 49.953125 37.25 
Q 51.515625 32.328125 51.515625 26.703125 
Q 51.515625 13.375 44.921875 6.09375 
Q 38.328125 -1.171875 29.109375 -1.171875 
Q 19.921875 -1.171875 14.703125 6.5 
z
M 14.59375 26.3125 
Q 14.59375 17 17.140625 12.84375 
Q 21.296875 6.0625 28.375 6.0625 
Q 34.125 6.0625 38.328125 11.0625 
Q 42.53125 16.0625 42.53125 25.984375 
Q 42.53125 36.140625 38.5 40.96875 
Q 34.46875 45.796875 28.765625 45.796875 
Q 23 45.796875 18.796875 40.796875 
Q 14.59375 35.796875 14.59375 26.3125 
z
" id="ArialMT-62"/>
      </defs>
      <g style="fill:#262626;" transform="translate(246.730391 274.505156)scale(0.13 -0.13)">
       <use xlink:href="#ArialMT-46"/>
       <use x="61.083984" xlink:href="#ArialMT-65"/>
       <use x="116.699219" xlink:href="#ArialMT-62"/>
       <use x="172.314453" xlink:href="#ArialMT-72"/>
       <use x="205.615234" xlink:href="#ArialMT-75"/>
       <use x="261.230469" xlink:href="#ArialMT-61"/>
       <use x="316.845703" xlink:href="#ArialMT-72"/>
       <use x="350.146484" xlink:href="#ArialMT-79"/>
      </g>
     </g>
    </g>
    <g id="xtick_3">
     <g id="line2d_3"/>
     <g id="text_3">
      <!-- March -->
      <defs>
       <path d="M 7.421875 0 
L 7.421875 71.578125 
L 21.6875 71.578125 
L 38.625 20.90625 
Q 40.96875 13.8125 42.046875 10.296875 
Q 43.265625 14.203125 45.84375 21.78125 
L 62.984375 71.578125 
L 75.734375 71.578125 
L 75.734375 0 
L 66.609375 0 
L 66.609375 59.90625 
L 45.796875 0 
L 37.25 0 
L 16.546875 60.9375 
L 16.546875 0 
z
" id="ArialMT-4d"/>
       <path d="M 40.4375 19 
L 49.078125 17.875 
Q 47.65625 8.9375 41.8125 3.875 
Q 35.984375 -1.171875 27.484375 -1.171875 
Q 16.84375 -1.171875 10.375 5.78125 
Q 3.90625 12.75 3.90625 25.734375 
Q 3.90625 34.125 6.6875 40.421875 
Q 9.46875 46.734375 15.15625 49.875 
Q 20.84375 53.03125 27.546875 53.03125 
Q 35.984375 53.03125 41.359375 48.75 
Q 46.734375 44.484375 48.25 36.625 
L 39.703125 35.296875 
Q 38.484375 40.53125 35.375 43.15625 
Q 32.28125 45.796875 27.875 45.796875 
Q 21.234375 45.796875 17.078125 41.03125 
Q 12.9375 36.28125 12.9375 25.984375 
Q 12.9375 15.53125 16.9375 10.796875 
Q 20.953125 6.0625 27.390625 6.0625 
Q 32.5625 6.0625 36.03125 9.234375 
Q 39.5 12.40625 40.4375 19 
z
" id="ArialMT-63"/>
       <path d="M 6.59375 0 
L 6.59375 71.578125 
L 15.375 71.578125 
L 15.375 45.90625 
Q 21.53125 53.03125 30.90625 53.03125 
Q 36.671875 53.03125 40.921875 50.75 
Q 45.171875 48.484375 47 44.484375 
Q 48.828125 40.484375 48.828125 32.859375 
L 48.828125 0 
L 40.046875 0 
L 40.046875 32.859375 
Q 40.046875 39.453125 37.1875 42.453125 
Q 34.328125 45.453125 29.109375 45.453125 
Q 25.203125 45.453125 21.75 43.421875 
Q 18.3125 41.40625 16.84375 37.9375 
Q 15.375 34.46875 15.375 28.375 
L 15.375 0 
z
" id="ArialMT-68"/>
      </defs>
      <g style="fill:#262626;" transform="translate(401.654687 274.505156)scale(0.13 -0.13)">
       <use xlink:href="#ArialMT-4d"/>
       <use x="83.300781" xlink:href="#ArialMT-61"/>
       <use x="138.916016" xlink:href="#ArialMT-72"/>
       <use x="172.216797" xlink:href="#ArialMT-63"/>
       <use x="222.216797" xlink:href="#ArialMT-68"/>
      </g>
     </g>
    </g>
   </g>
   <g id="matplotlib.axis_2">
    <g id="ytick_1">
     <g id="line2d_4">
      <path clip-path="url(#p0a6b03155c)" d="M 52.275 250.983169 
L 493.2 250.983169 
" style="fill:none;stroke:#cccccc;stroke-linecap:round;stroke-width:1.3;"/>
     </g>
     <g id="line2d_5"/>
     <g id="text_4">
      <!-- 0 -->
      <defs>
       <path d="M 4.15625 35.296875 
Q 4.15625 48 6.765625 55.734375 
Q 9.375 63.484375 14.515625 67.671875 
Q 19.671875 71.875 27.484375 71.875 
Q 33.25 71.875 37.59375 69.546875 
Q 41.9375 67.234375 44.765625 62.859375 
Q 47.609375 58.5 49.21875 52.21875 
Q 50.828125 45.953125 50.828125 35.296875 
Q 50.828125 22.703125 48.234375 14.96875 
Q 45.65625 7.234375 40.5 3 
Q 35.359375 -1.21875 27.484375 -1.21875 
Q 17.140625 -1.21875 11.234375 6.203125 
Q 4.15625 15.140625 4.15625 35.296875 
z
M 13.1875 35.296875 
Q 13.1875 17.671875 17.3125 11.828125 
Q 21.4375 6 27.484375 6 
Q 33.546875 6 37.671875 11.859375 
Q 41.796875 17.71875 41.796875 35.296875 
Q 41.796875 52.984375 37.671875 58.78125 
Q 33.546875 64.59375 27.390625 64.59375 
Q 21.34375 64.59375 17.71875 59.46875 
Q 13.1875 52.9375 13.1875 35.296875 
z
" id="ArialMT-30"/>
      </defs>
      <g style="fill:#262626;" transform="translate(35.945781 255.635747)scale(0.13 -0.13)">
       <use xlink:href="#ArialMT-30"/>
      </g>
     </g>
    </g>
    <g id="ytick_2">
     <g id="line2d_6">
      <path clip-path="url(#p0a6b03155c)" d="M 52.275 200.126608 
L 493.2 200.126608 
" style="fill:none;stroke:#cccccc;stroke-linecap:round;stroke-width:1.3;"/>
     </g>
     <g id="line2d_7"/>
     <g id="text_5">
      <!-- 10 -->
      <defs>
       <path d="M 37.25 0 
L 28.46875 0 
L 28.46875 56 
Q 25.296875 52.984375 20.140625 49.953125 
Q 14.984375 46.921875 10.890625 45.40625 
L 10.890625 53.90625 
Q 18.265625 57.375 23.78125 62.296875 
Q 29.296875 67.234375 31.59375 71.875 
L 37.25 71.875 
z
" id="ArialMT-31"/>
      </defs>
      <g style="fill:#262626;" transform="translate(28.716563 204.779186)scale(0.13 -0.13)">
       <use xlink:href="#ArialMT-31"/>
       <use x="55.615234" xlink:href="#ArialMT-30"/>
      </g>
     </g>
    </g>
    <g id="ytick_3">
     <g id="line2d_8">
      <path clip-path="url(#p0a6b03155c)" d="M 52.275 149.270046 
L 493.2 149.270046 
" style="fill:none;stroke:#cccccc;stroke-linecap:round;stroke-width:1.3;"/>
     </g>
     <g id="line2d_9"/>
     <g id="text_6">
      <!-- 20 -->
      <defs>
       <path d="M 50.34375 8.453125 
L 50.34375 0 
L 3.03125 0 
Q 2.9375 3.171875 4.046875 6.109375 
Q 5.859375 10.9375 9.828125 15.625 
Q 13.8125 20.3125 21.34375 26.46875 
Q 33.015625 36.03125 37.109375 41.625 
Q 41.21875 47.21875 41.21875 52.203125 
Q 41.21875 57.421875 37.46875 61 
Q 33.734375 64.59375 27.734375 64.59375 
Q 21.390625 64.59375 17.578125 60.78125 
Q 13.765625 56.984375 13.71875 50.25 
L 4.6875 51.171875 
Q 5.609375 61.28125 11.65625 66.578125 
Q 17.71875 71.875 27.9375 71.875 
Q 38.234375 71.875 44.234375 66.15625 
Q 50.25 60.453125 50.25 52 
Q 50.25 47.703125 48.484375 43.546875 
Q 46.734375 39.40625 42.65625 34.8125 
Q 38.578125 30.21875 29.109375 22.21875 
Q 21.1875 15.578125 18.9375 13.203125 
Q 16.703125 10.84375 15.234375 8.453125 
z
" id="ArialMT-32"/>
      </defs>
      <g style="fill:#262626;" transform="translate(28.716563 153.922625)scale(0.13 -0.13)">
       <use xlink:href="#ArialMT-32"/>
       <use x="55.615234" xlink:href="#ArialMT-30"/>
      </g>
     </g>
    </g>
    <g id="ytick_4">
     <g id="line2d_10">
      <path clip-path="url(#p0a6b03155c)" d="M 52.275 98.413485 
L 493.2 98.413485 
" style="fill:none;stroke:#cccccc;stroke-linecap:round;stroke-width:1.3;"/>
     </g>
     <g id="line2d_11"/>
     <g id="text_7">
      <!-- 30 -->
      <defs>
       <path d="M 4.203125 18.890625 
L 12.984375 20.0625 
Q 14.5 12.59375 18.140625 9.296875 
Q 21.78125 6 27 6 
Q 33.203125 6 37.46875 10.296875 
Q 41.75 14.59375 41.75 20.953125 
Q 41.75 27 37.796875 30.921875 
Q 33.84375 34.859375 27.734375 34.859375 
Q 25.25 34.859375 21.53125 33.890625 
L 22.515625 41.609375 
Q 23.390625 41.5 23.921875 41.5 
Q 29.546875 41.5 34.03125 44.421875 
Q 38.53125 47.359375 38.53125 53.46875 
Q 38.53125 58.296875 35.25 61.46875 
Q 31.984375 64.65625 26.8125 64.65625 
Q 21.6875 64.65625 18.265625 61.421875 
Q 14.84375 58.203125 13.875 51.765625 
L 5.078125 53.328125 
Q 6.6875 62.15625 12.390625 67.015625 
Q 18.109375 71.875 26.609375 71.875 
Q 32.46875 71.875 37.390625 69.359375 
Q 42.328125 66.84375 44.9375 62.5 
Q 47.5625 58.15625 47.5625 53.265625 
Q 47.5625 48.640625 45.0625 44.828125 
Q 42.578125 41.015625 37.703125 38.765625 
Q 44.046875 37.3125 47.5625 32.6875 
Q 51.078125 28.078125 51.078125 21.140625 
Q 51.078125 11.765625 44.234375 5.25 
Q 37.40625 -1.265625 26.953125 -1.265625 
Q 17.53125 -1.265625 11.296875 4.34375 
Q 5.078125 9.96875 4.203125 18.890625 
z
" id="ArialMT-33"/>
      </defs>
      <g style="fill:#262626;" transform="translate(28.716563 103.066063)scale(0.13 -0.13)">
       <use xlink:href="#ArialMT-33"/>
       <use x="55.615234" xlink:href="#ArialMT-30"/>
      </g>
     </g>
    </g>
    <g id="ytick_5">
     <g id="line2d_12">
      <path clip-path="url(#p0a6b03155c)" d="M 52.275 47.556924 
L 493.2 47.556924 
" style="fill:none;stroke:#cccccc;stroke-linecap:round;stroke-width:1.3;"/>
     </g>
     <g id="line2d_13"/>
     <g id="text_8">
      <!-- 40 -->
      <defs>
       <path d="M 32.328125 0 
L 32.328125 17.140625 
L 1.265625 17.140625 
L 1.265625 25.203125 
L 33.9375 71.578125 
L 41.109375 71.578125 
L 41.109375 25.203125 
L 50.78125 25.203125 
L 50.78125 17.140625 
L 41.109375 17.140625 
L 41.109375 0 
z
M 32.328125 25.203125 
L 32.328125 57.46875 
L 9.90625 25.203125 
z
" id="ArialMT-34"/>
      </defs>
      <g style="fill:#262626;" transform="translate(28.716563 52.209502)scale(0.13 -0.13)">
       <use xlink:href="#ArialMT-34"/>
       <use x="55.615234" xlink:href="#ArialMT-30"/>
      </g>
     </g>
    </g>
    <g id="text_9">
     <!-- trackers -->
     <defs>
      <path d="M 25.78125 7.859375 
L 27.046875 0.09375 
Q 23.34375 -0.6875 20.40625 -0.6875 
Q 15.625 -0.6875 12.984375 0.828125 
Q 10.359375 2.34375 9.28125 4.8125 
Q 8.203125 7.28125 8.203125 15.1875 
L 8.203125 45.015625 
L 1.765625 45.015625 
L 1.765625 51.859375 
L 8.203125 51.859375 
L 8.203125 64.703125 
L 16.9375 69.96875 
L 16.9375 51.859375 
L 25.78125 51.859375 
L 25.78125 45.015625 
L 16.9375 45.015625 
L 16.9375 14.703125 
Q 16.9375 10.9375 17.40625 9.859375 
Q 17.875 8.796875 18.921875 8.15625 
Q 19.96875 7.515625 21.921875 7.515625 
Q 23.390625 7.515625 25.78125 7.859375 
z
" id="ArialMT-74"/>
      <path d="M 6.640625 0 
L 6.640625 71.578125 
L 15.4375 71.578125 
L 15.4375 30.765625 
L 36.234375 51.859375 
L 47.609375 51.859375 
L 27.78125 32.625 
L 49.609375 0 
L 38.765625 0 
L 21.625 26.515625 
L 15.4375 20.5625 
L 15.4375 0 
z
" id="ArialMT-6b"/>
      <path d="M 3.078125 15.484375 
L 11.765625 16.84375 
Q 12.5 11.625 15.84375 8.84375 
Q 19.1875 6.0625 25.203125 6.0625 
Q 31.25 6.0625 34.171875 8.515625 
Q 37.109375 10.984375 37.109375 14.3125 
Q 37.109375 17.28125 34.515625 19 
Q 32.71875 20.171875 25.53125 21.96875 
Q 15.875 24.421875 12.140625 26.203125 
Q 8.40625 27.984375 6.46875 31.125 
Q 4.546875 34.28125 4.546875 38.09375 
Q 4.546875 41.546875 6.125 44.5 
Q 7.71875 47.46875 10.453125 49.421875 
Q 12.5 50.921875 16.03125 51.96875 
Q 19.578125 53.03125 23.640625 53.03125 
Q 29.734375 53.03125 34.34375 51.265625 
Q 38.96875 49.515625 41.15625 46.5 
Q 43.359375 43.5 44.1875 38.484375 
L 35.59375 37.3125 
Q 35.015625 41.3125 32.203125 43.546875 
Q 29.390625 45.796875 24.265625 45.796875 
Q 18.21875 45.796875 15.625 43.796875 
Q 13.03125 41.796875 13.03125 39.109375 
Q 13.03125 37.40625 14.109375 36.03125 
Q 15.1875 34.625 17.484375 33.6875 
Q 18.796875 33.203125 25.25 31.453125 
Q 34.578125 28.953125 38.25 27.359375 
Q 41.9375 25.78125 44.03125 22.75 
Q 46.140625 19.734375 46.140625 15.234375 
Q 46.140625 10.84375 43.578125 6.953125 
Q 41.015625 3.078125 36.171875 0.953125 
Q 31.34375 -1.171875 25.25 -1.171875 
Q 15.140625 -1.171875 9.84375 3.03125 
Q 4.546875 7.234375 3.078125 15.484375 
z
" id="ArialMT-73"/>
     </defs>
     <g style="fill:#262626;" transform="translate(21.874438 167.914016)rotate(-90)scale(0.143 -0.143)">
      <use xlink:href="#ArialMT-74"/>
      <use x="27.783203" xlink:href="#ArialMT-72"/>
      <use x="61.083984" xlink:href="#ArialMT-61"/>
      <use x="116.699219" xlink:href="#ArialMT-63"/>
      <use x="166.699219" xlink:href="#ArialMT-6b"/>
      <use x="216.699219" xlink:href="#ArialMT-65"/>
      <use x="272.314453" xlink:href="#ArialMT-72"/>
      <use x="305.615234" xlink:href="#ArialMT-73"/>
     </g>
    </g>
   </g>
   <g id="patch_3">
    <path clip-path="url(#p0a6b03155c)" d="M 66.9725 226.517024 
L 184.5525 226.517024 
L 184.5525 179.596308 
L 66.9725 179.596308 
L 66.9725 226.517024 
z
" style="fill:#5875a4;stroke:#4c4c4c;stroke-linejoin:miter;stroke-width:2.275;"/>
   </g>
   <g id="patch_4">
    <path clip-path="url(#p0a6b03155c)" d="M 213.9475 228.111135 
L 331.5275 228.111135 
L 331.5275 182.989923 
L 213.9475 182.989923 
L 213.9475 228.111135 
z
" style="fill:#5f9e6e;stroke:#4c4c4c;stroke-linejoin:miter;stroke-width:2.275;"/>
   </g>
   <g id="patch_5">
    <path clip-path="url(#p0a6b03155c)" d="M 360.9225 229.395346 
L 478.5025 229.395346 
L 478.5025 187.550854 
L 360.9225 187.550854 
L 360.9225 229.395346 
z
" style="fill:#b55d60;stroke:#4c4c4c;stroke-linejoin:miter;stroke-width:2.275;"/>
   </g>
   <g id="line2d_14">
    <path clip-path="url(#p0a6b03155c)" d="M 125.7625 226.517024 
L 125.7625 245.771733 
" style="fill:none;stroke:#4c4c4c;stroke-linecap:round;stroke-width:2.275;"/>
   </g>
   <g id="line2d_15">
    <path clip-path="url(#p0a6b03155c)" d="M 125.7625 179.596308 
L 125.7625 109.963605 
" style="fill:none;stroke:#4c4c4c;stroke-linecap:round;stroke-width:2.275;"/>
   </g>
   <g id="line2d_16">
    <path clip-path="url(#p0a6b03155c)" d="M 96.3675 245.771733 
L 155.1575 245.771733 
" style="fill:none;stroke:#4c4c4c;stroke-linecap:round;stroke-width:2.275;"/>
   </g>
   <g id="line2d_17">
    <path clip-path="url(#p0a6b03155c)" d="M 96.3675 109.963605 
L 155.1575 109.963605 
" style="fill:none;stroke:#4c4c4c;stroke-linecap:round;stroke-width:2.275;"/>
   </g>
   <g id="line2d_18">
    <defs>
     <path d="M -0 3.535534 
L 2.12132 0 
L -0 -3.535534 
L -2.12132 -0 
z
" id="ma0673d0f08"/>
    </defs>
    <g clip-path="url(#p0a6b03155c)">
     <use style="fill:#4c4c4c;" x="125.7625" xlink:href="#ma0673d0f08" y="90.607195"/>
     <use style="fill:#4c4c4c;" x="125.7625" xlink:href="#ma0673d0f08" y="94.587979"/>
     <use style="fill:#4c4c4c;" x="125.7625" xlink:href="#ma0673d0f08" y="96.589902"/>
     <use style="fill:#4c4c4c;" x="125.7625" xlink:href="#ma0673d0f08" y="106.218736"/>
     <use style="fill:#4c4c4c;" x="125.7625" xlink:href="#ma0673d0f08" y="75.507362"/>
     <use style="fill:#4c4c4c;" x="125.7625" xlink:href="#ma0673d0f08" y="104.765922"/>
     <use style="fill:#4c4c4c;" x="125.7625" xlink:href="#ma0673d0f08" y="85.67913"/>
     <use style="fill:#4c4c4c;" x="125.7625" xlink:href="#ma0673d0f08" y="97.810303"/>
     <use style="fill:#4c4c4c;" x="125.7625" xlink:href="#ma0673d0f08" y="101.166722"/>
     <use style="fill:#4c4c4c;" x="125.7625" xlink:href="#ma0673d0f08" y="96.641782"/>
     <use style="fill:#4c4c4c;" x="125.7625" xlink:href="#ma0673d0f08" y="88.896617"/>
     <use style="fill:#4c4c4c;" x="125.7625" xlink:href="#ma0673d0f08" y="87.160997"/>
     <use style="fill:#4c4c4c;" x="125.7625" xlink:href="#ma0673d0f08" y="91.497835"/>
     <use style="fill:#4c4c4c;" x="125.7625" xlink:href="#ma0673d0f08" y="99.994678"/>
     <use style="fill:#4c4c4c;" x="125.7625" xlink:href="#ma0673d0f08" y="79.494422"/>
     <use style="fill:#4c4c4c;" x="125.7625" xlink:href="#ma0673d0f08" y="40.84722"/>
     <use style="fill:#4c4c4c;" x="125.7625" xlink:href="#ma0673d0f08" y="103.176663"/>
     <use style="fill:#4c4c4c;" x="125.7625" xlink:href="#ma0673d0f08" y="39.206392"/>
    </g>
   </g>
   <g id="line2d_19">
    <path clip-path="url(#p0a6b03155c)" d="M 272.7375 228.111135 
L 272.7375 245.634316 
" style="fill:none;stroke:#4c4c4c;stroke-linecap:round;stroke-width:2.275;"/>
   </g>
   <g id="line2d_20">
    <path clip-path="url(#p0a6b03155c)" d="M 272.7375 182.989923 
L 272.7375 115.811239 
" style="fill:none;stroke:#4c4c4c;stroke-linecap:round;stroke-width:2.275;"/>
   </g>
   <g id="line2d_21">
    <path clip-path="url(#p0a6b03155c)" d="M 243.3425 245.634316 
L 302.1325 245.634316 
" style="fill:none;stroke:#4c4c4c;stroke-linecap:round;stroke-width:2.275;"/>
   </g>
   <g id="line2d_22">
    <path clip-path="url(#p0a6b03155c)" d="M 243.3425 115.811239 
L 302.1325 115.811239 
" style="fill:none;stroke:#4c4c4c;stroke-linecap:round;stroke-width:2.275;"/>
   </g>
   <g id="line2d_23">
    <g clip-path="url(#p0a6b03155c)">
     <use style="fill:#4c4c4c;" x="272.7375" xlink:href="#ma0673d0f08" y="106.069493"/>
     <use style="fill:#4c4c4c;" x="272.7375" xlink:href="#ma0673d0f08" y="115.245768"/>
     <use style="fill:#4c4c4c;" x="272.7375" xlink:href="#ma0673d0f08" y="108.235018"/>
     <use style="fill:#4c4c4c;" x="272.7375" xlink:href="#ma0673d0f08" y="93.048244"/>
     <use style="fill:#4c4c4c;" x="272.7375" xlink:href="#ma0673d0f08" y="85.961707"/>
     <use style="fill:#4c4c4c;" x="272.7375" xlink:href="#ma0673d0f08" y="109.322156"/>
     <use style="fill:#4c4c4c;" x="272.7375" xlink:href="#ma0673d0f08" y="113.335077"/>
     <use style="fill:#4c4c4c;" x="272.7375" xlink:href="#ma0673d0f08" y="106.200751"/>
     <use style="fill:#4c4c4c;" x="272.7375" xlink:href="#ma0673d0f08" y="100.252158"/>
     <use style="fill:#4c4c4c;" x="272.7375" xlink:href="#ma0673d0f08" y="107.168514"/>
     <use style="fill:#4c4c4c;" x="272.7375" xlink:href="#ma0673d0f08" y="71.089016"/>
     <use style="fill:#4c4c4c;" x="272.7375" xlink:href="#ma0673d0f08" y="65.409063"/>
     <use style="fill:#4c4c4c;" x="272.7375" xlink:href="#ma0673d0f08" y="107.521926"/>
    </g>
   </g>
   <g id="line2d_24">
    <path clip-path="url(#p0a6b03155c)" d="M 419.7125 229.395346 
L 419.7125 245.57514 
" style="fill:none;stroke:#4c4c4c;stroke-linecap:round;stroke-width:2.275;"/>
   </g>
   <g id="line2d_25">
    <path clip-path="url(#p0a6b03155c)" d="M 419.7125 187.550854 
L 419.7125 125.87582 
" style="fill:none;stroke:#4c4c4c;stroke-linecap:round;stroke-width:2.275;"/>
   </g>
   <g id="line2d_26">
    <path clip-path="url(#p0a6b03155c)" d="M 390.3175 245.57514 
L 449.1075 245.57514 
" style="fill:none;stroke:#4c4c4c;stroke-linecap:round;stroke-width:2.275;"/>
   </g>
   <g id="line2d_27">
    <path clip-path="url(#p0a6b03155c)" d="M 390.3175 125.87582 
L 449.1075 125.87582 
" style="fill:none;stroke:#4c4c4c;stroke-linecap:round;stroke-width:2.275;"/>
   </g>
   <g id="line2d_28">
    <g clip-path="url(#p0a6b03155c)">
     <use style="fill:#4c4c4c;" x="419.7125" xlink:href="#ma0673d0f08" y="119.744482"/>
     <use style="fill:#4c4c4c;" x="419.7125" xlink:href="#ma0673d0f08" y="121.295491"/>
     <use style="fill:#4c4c4c;" x="419.7125" xlink:href="#ma0673d0f08" y="109.338549"/>
     <use style="fill:#4c4c4c;" x="419.7125" xlink:href="#ma0673d0f08" y="116.96558"/>
     <use style="fill:#4c4c4c;" x="419.7125" xlink:href="#ma0673d0f08" y="113.520402"/>
     <use style="fill:#4c4c4c;" x="419.7125" xlink:href="#ma0673d0f08" y="95.361851"/>
     <use style="fill:#4c4c4c;" x="419.7125" xlink:href="#ma0673d0f08" y="115.24381"/>
     <use style="fill:#4c4c4c;" x="419.7125" xlink:href="#ma0673d0f08" y="115.16503"/>
     <use style="fill:#4c4c4c;" x="419.7125" xlink:href="#ma0673d0f08" y="79.004364"/>
     <use style="fill:#4c4c4c;" x="419.7125" xlink:href="#ma0673d0f08" y="91.28316"/>
     <use style="fill:#4c4c4c;" x="419.7125" xlink:href="#ma0673d0f08" y="117.672281"/>
    </g>
   </g>
   <g id="line2d_29">
    <path clip-path="url(#p0a6b03155c)" d="M 66.9725 205.602886 
L 184.5525 205.602886 
" style="fill:none;stroke:#4c4c4c;stroke-linecap:round;stroke-width:2.275;"/>
   </g>
   <g id="line2d_30">
    <path clip-path="url(#p0a6b03155c)" d="M 213.9475 208.355723 
L 331.5275 208.355723 
" style="fill:none;stroke:#4c4c4c;stroke-linecap:round;stroke-width:2.275;"/>
   </g>
   <g id="line2d_31">
    <path clip-path="url(#p0a6b03155c)" d="M 360.9225 210.053065 
L 478.5025 210.053065 
" style="fill:none;stroke:#4c4c4c;stroke-linecap:round;stroke-width:2.275;"/>
   </g>
   <g id="patch_6">
    <path d="M 52.275 256.1 
L 52.275 28.878125 
" style="fill:none;stroke:#cccccc;stroke-linecap:square;stroke-linejoin:miter;"/>
   </g>
   <g id="patch_7">
    <path d="M 493.2 256.1 
L 493.2 28.878125 
" style="fill:none;stroke:#cccccc;stroke-linecap:square;stroke-linejoin:miter;"/>
   </g>
   <g id="patch_8">
    <path d="M 52.275 256.1 
L 493.2 256.1 
" style="fill:none;stroke:#cccccc;stroke-linecap:square;stroke-linejoin:miter;"/>
   </g>
   <g id="patch_9">
    <path d="M 52.275 28.878125 
L 493.2 28.878125 
" style="fill:none;stroke:#cccccc;stroke-linecap:square;stroke-linejoin:miter;"/>
   </g>
   <g id="text_10">
    <!-- Average trackers per page across top sites -->
    <defs>
     <path d="M -0.140625 0 
L 27.34375 71.578125 
L 37.546875 71.578125 
L 66.84375 0 
L 56.0625 0 
L 47.703125 21.6875 
L 17.78125 21.6875 
L 9.90625 0 
z
M 20.515625 29.390625 
L 44.78125 29.390625 
L 37.3125 49.21875 
Q 33.890625 58.25 32.234375 64.0625 
Q 30.859375 57.171875 28.375 50.390625 
z
" id="ArialMT-41"/>
     <path d="M 21 0 
L 1.265625 51.859375 
L 10.546875 51.859375 
L 21.6875 20.796875 
Q 23.484375 15.765625 25 10.359375 
Q 26.171875 14.453125 28.265625 20.21875 
L 39.796875 51.859375 
L 48.828125 51.859375 
L 29.203125 0 
z
" id="ArialMT-76"/>
     <path d="M 4.984375 -4.296875 
L 13.53125 -5.5625 
Q 14.0625 -9.515625 16.5 -11.328125 
Q 19.78125 -13.765625 25.4375 -13.765625 
Q 31.546875 -13.765625 34.859375 -11.328125 
Q 38.1875 -8.890625 39.359375 -4.5 
Q 40.046875 -1.8125 39.984375 6.78125 
Q 34.234375 0 25.640625 0 
Q 14.9375 0 9.078125 7.71875 
Q 3.21875 15.4375 3.21875 26.21875 
Q 3.21875 33.640625 5.90625 39.90625 
Q 8.59375 46.1875 13.6875 49.609375 
Q 18.796875 53.03125 25.6875 53.03125 
Q 34.859375 53.03125 40.828125 45.609375 
L 40.828125 51.859375 
L 48.921875 51.859375 
L 48.921875 7.03125 
Q 48.921875 -5.078125 46.453125 -10.125 
Q 44 -15.1875 38.640625 -18.109375 
Q 33.296875 -21.046875 25.484375 -21.046875 
Q 16.21875 -21.046875 10.5 -16.875 
Q 4.78125 -12.703125 4.984375 -4.296875 
z
M 12.25 26.859375 
Q 12.25 16.65625 16.296875 11.96875 
Q 20.359375 7.28125 26.46875 7.28125 
Q 32.515625 7.28125 36.609375 11.9375 
Q 40.71875 16.609375 40.71875 26.5625 
Q 40.71875 36.078125 36.5 40.90625 
Q 32.28125 45.75 26.3125 45.75 
Q 20.453125 45.75 16.34375 40.984375 
Q 12.25 36.234375 12.25 26.859375 
z
" id="ArialMT-67"/>
     <path id="ArialMT-20"/>
     <path d="M 6.59375 -19.875 
L 6.59375 51.859375 
L 14.59375 51.859375 
L 14.59375 45.125 
Q 17.4375 49.078125 21 51.046875 
Q 24.5625 53.03125 29.640625 53.03125 
Q 36.28125 53.03125 41.359375 49.609375 
Q 46.4375 46.1875 49.015625 39.953125 
Q 51.609375 33.734375 51.609375 26.3125 
Q 51.609375 18.359375 48.75 11.984375 
Q 45.90625 5.609375 40.453125 2.21875 
Q 35.015625 -1.171875 29 -1.171875 
Q 24.609375 -1.171875 21.109375 0.6875 
Q 17.625 2.546875 15.375 5.375 
L 15.375 -19.875 
z
M 14.546875 25.640625 
Q 14.546875 15.625 18.59375 10.84375 
Q 22.65625 6.0625 28.421875 6.0625 
Q 34.28125 6.0625 38.453125 11.015625 
Q 42.625 15.96875 42.625 26.375 
Q 42.625 36.28125 38.546875 41.203125 
Q 34.46875 46.140625 28.8125 46.140625 
Q 23.1875 46.140625 18.859375 40.890625 
Q 14.546875 35.640625 14.546875 25.640625 
z
" id="ArialMT-70"/>
     <path d="M 3.328125 25.921875 
Q 3.328125 40.328125 11.328125 47.265625 
Q 18.015625 53.03125 27.640625 53.03125 
Q 38.328125 53.03125 45.109375 46.015625 
Q 51.90625 39.015625 51.90625 26.65625 
Q 51.90625 16.65625 48.90625 10.90625 
Q 45.90625 5.171875 40.15625 2 
Q 34.421875 -1.171875 27.640625 -1.171875 
Q 16.75 -1.171875 10.03125 5.8125 
Q 3.328125 12.796875 3.328125 25.921875 
z
M 12.359375 25.921875 
Q 12.359375 15.96875 16.703125 11.015625 
Q 21.046875 6.0625 27.640625 6.0625 
Q 34.1875 6.0625 38.53125 11.03125 
Q 42.875 16.015625 42.875 26.21875 
Q 42.875 35.84375 38.5 40.796875 
Q 34.125 45.75 27.640625 45.75 
Q 21.046875 45.75 16.703125 40.8125 
Q 12.359375 35.890625 12.359375 25.921875 
z
" id="ArialMT-6f"/>
     <path d="M 6.640625 61.46875 
L 6.640625 71.578125 
L 15.4375 71.578125 
L 15.4375 61.46875 
z
M 6.640625 0 
L 6.640625 51.859375 
L 15.4375 51.859375 
L 15.4375 0 
z
" id="ArialMT-69"/>
    </defs>
    <g style="fill:#262626;" transform="translate(124.476562 22.878125)scale(0.156 -0.156)">
     <use xlink:href="#ArialMT-41"/>
     <use x="66.683594" xlink:href="#ArialMT-76"/>
     <use x="116.683594" xlink:href="#ArialMT-65"/>
     <use x="172.298828" xlink:href="#ArialMT-72"/>
     <use x="205.599609" xlink:href="#ArialMT-61"/>
     <use x="261.214844" xlink:href="#ArialMT-67"/>
     <use x="316.830078" xlink:href="#ArialMT-65"/>
     <use x="372.445312" xlink:href="#ArialMT-20"/>
     <use x="400.228516" xlink:href="#ArialMT-74"/>
     <use x="428.011719" xlink:href="#ArialMT-72"/>
     <use x="461.3125" xlink:href="#ArialMT-61"/>
     <use x="516.927734" xlink:href="#ArialMT-63"/>
     <use x="566.927734" xlink:href="#ArialMT-6b"/>
     <use x="616.927734" xlink:href="#ArialMT-65"/>
     <use x="672.542969" xlink:href="#ArialMT-72"/>
     <use x="705.84375" xlink:href="#ArialMT-73"/>
     <use x="755.84375" xlink:href="#ArialMT-20"/>
     <use x="783.626953" xlink:href="#ArialMT-70"/>
     <use x="839.242188" xlink:href="#ArialMT-65"/>
     <use x="894.857422" xlink:href="#ArialMT-72"/>
     <use x="928.158203" xlink:href="#ArialMT-20"/>
     <use x="955.941406" xlink:href="#ArialMT-70"/>
     <use x="1011.556641" xlink:href="#ArialMT-61"/>
     <use x="1067.171875" xlink:href="#ArialMT-67"/>
     <use x="1122.787109" xlink:href="#ArialMT-65"/>
     <use x="1178.402344" xlink:href="#ArialMT-20"/>
     <use x="1206.185547" xlink:href="#ArialMT-61"/>
     <use x="1261.800781" xlink:href="#ArialMT-63"/>
     <use x="1311.800781" xlink:href="#ArialMT-72"/>
     <use x="1345.101562" xlink:href="#ArialMT-6f"/>
     <use x="1400.716797" xlink:href="#ArialMT-73"/>
     <use x="1450.716797" xlink:href="#ArialMT-73"/>
     <use x="1500.716797" xlink:href="#ArialMT-20"/>
     <use x="1528.5" xlink:href="#ArialMT-74"/>
     <use x="1556.283203" xlink:href="#ArialMT-6f"/>
     <use x="1611.898438" xlink:href="#ArialMT-70"/>
     <use x="1667.513672" xlink:href="#ArialMT-20"/>
     <use x="1695.296875" xlink:href="#ArialMT-73"/>
     <use x="1745.296875" xlink:href="#ArialMT-69"/>
     <use x="1767.513672" xlink:href="#ArialMT-74"/>
     <use x="1795.296875" xlink:href="#ArialMT-65"/>
     <use x="1850.912109" xlink:href="#ArialMT-73"/>
    </g>
   </g>
  </g>
 </g>
 <defs>
  <clipPath id="p0a6b03155c">
   <rect height="227.221875" width="440.925" x="52.275" y="28.878125"/>
  </clipPath>
 </defs>
</svg>
