<svg class="main-svg" xmlns="http://www.w3.org/2000/svg" xmlns:xlink="http://www.w3.org/1999/xlink" width="800" height="600" style="" viewBox="0 0 800 600"><rect x="0" y="0" width="800" height="600" style="fill: rgb(255, 255, 255); fill-opacity: 1;"/><defs id="defs-c57e39"><g class="clips"><clipPath class="plotclip" id="clipc57e39xyplot"><rect width="680" height="570"/></clipPath><clipPath class="axesclip" id="clipc57e39x"><rect x="60" y="0" width="680" height="600"/></clipPath><clipPath class="axesclip" id="clipc57e39y"><rect x="0" y="0" width="800" height="570"/></clipPath><clipPath class="axesclip" id="clipc57e39xy"><rect x="60" y="0" width="680" height="570"/></clipPath></g><g class="gradients"/></defs><g class="bglayer"><rect class="bg" x="55" y="-5" width="690" height="580" style="fill: rgb(255, 255, 255); fill-opacity: 1; stroke-width: 0;"/></g><g class="layer-below"><g class="imagelayer"/><g class="shapelayer"/></g><g class="cartesianlayer"><g class="subplot xy"><g class="layer-subplot"><g class="shapelayer"/><g class="imagelayer"/></g><g class="gridlayer" transform="translate(60,0)"><path class="ygrid crisp" d="M0,0h680" transform="translate(0,491.29)" style="stroke: rgb(238, 238, 238); stroke-opacity: 1; stroke-width: 1px;"/><path class="ygrid crisp" d="M0,0h680" transform="translate(0,428.14)" style="stroke: rgb(238, 238, 238); stroke-opacity: 1; stroke-width: 1px;"/><path class="ygrid crisp" d="M0,0h680" transform="translate(0,364.99)" style="stroke: rgb(238, 238, 238); stroke-opacity: 1; stroke-width: 1px;"/><path class="ygrid crisp" d="M0,0h680" transform="translate(0,301.84)" style="stroke: rgb(238, 238, 238); stroke-opacity: 1; stroke-width: 1px;"/><path class="ygrid crisp" d="M0,0h680" transform="translate(0,238.69)" style="stroke: rgb(238, 238, 238); stroke-opacity: 1; stroke-width: 1px;"/><path class="ygrid crisp" d="M0,0h680" transform="translate(0,175.54)" style="stroke: rgb(238, 238, 238); stroke-opacity: 1; stroke-width: 1px;"/><path class="ygrid crisp" d="M0,0h680" transform="translate(0,112.39)" style="stroke: rgb(238, 238, 238); stroke-opacity: 1; stroke-width: 1px;"/><path class="ygrid crisp" d="M0,0h680" transform="translate(0,49.24)" style="stroke: rgb(238, 238, 238); stroke-opacity: 1; stroke-width: 1px;"/></g><g class="overgrid"/><g class="zerolinelayer" transform="translate(60,0)"><path class="yzl zl crisp" d="M0,0h680" transform="translate(0,554.44)" style="stroke: rgb(68, 68, 68); stroke-opacity: 1; stroke-width: 1px;"/></g><g class="overzero"/><path class="xlines-below"/><path class="ylines-below"/><g class="overlines-below"/><g class="xaxislayer-below"/><g class="yaxislayer-below"/><g class="overaxes-below"/><g class="plot" transform="translate(60, 0)" clip-path="url(#clipc57e39xyplot)"><g class="imagelayer"/><g class="maplayer"/><g class="barlayer"/><g class="carpetlayer"/><g class="boxlayer"><g class="trace boxes" style="opacity: 1;"><path style="vector-effect: non-scaling-stroke; stroke-width: 2px; stroke: rgb(196, 78, 82); stroke-opacity: 1; fill: rgb(196, 78, 82); fill-opacity: 0.5;" class="box" d="M57.8,441.74H168.87M57.8,493.73H168.87V377.15H57.8ZM113.33,493.73V541.5M113.33,377.15V204.22M85.57,541.5H141.1M85.57,204.22H141.1"/><g class="points"><path class="point" transform="translate(113.33,194.92)" d="M3,0A3,3 0 1,1 0,-3A3,3 0 0,1 3,0Z" style="opacity: 1; stroke-width: 3px; fill: rgb(196, 78, 82); fill-opacity: 1; stroke: rgb(196, 78, 82); stroke-opacity: 1;"/><path class="point" transform="translate(113.33,191.32)" d="M3,0A3,3 0 1,1 0,-3A3,3 0 0,1 3,0Z" style="opacity: 1; stroke-width: 3px; fill: rgb(196, 78, 82); fill-opacity: 1; stroke: rgb(196, 78, 82); stroke-opacity: 1;"/><path class="point" transform="translate(113.33,187.37)" d="M3,0A3,3 0 1,1 0,-3A3,3 0 0,1 3,0Z" style="opacity: 1; stroke-width: 3px; fill: rgb(196, 78, 82); fill-opacity: 1; stroke: rgb(196, 78, 82); stroke-opacity: 1;"/><path class="point" transform="translate(113.33,182.38)" d="M3,0A3,3 0 1,1 0,-3A3,3 0 0,1 3,0Z" style="opacity: 1; stroke-width: 3px; fill: rgb(196, 78, 82); fill-opacity: 1; stroke: rgb(196, 78, 82); stroke-opacity: 1;"/><path class="point" transform="translate(113.33,179.47)" d="M3,0A3,3 0 1,1 0,-3A3,3 0 0,1 3,0Z" style="opacity: 1; stroke-width: 3px; fill: rgb(196, 78, 82); fill-opacity: 1; stroke: rgb(196, 78, 82); stroke-opacity: 1;"/><path class="point" transform="translate(113.33,174.04)" d="M3,0A3,3 0 1,1 0,-3A3,3 0 0,1 3,0Z" style="opacity: 1; stroke-width: 3px; fill: rgb(196, 78, 82); fill-opacity: 1; stroke: rgb(196, 78, 82); stroke-opacity: 1;"/><path class="point" transform="translate(113.33,171.14)" d="M3,0A3,3 0 1,1 0,-3A3,3 0 0,1 3,0Z" style="opacity: 1; stroke-width: 3px; fill: rgb(196, 78, 82); fill-opacity: 1; stroke: rgb(196, 78, 82); stroke-opacity: 1;"/><path class="point" transform="translate(113.33,171.01)" d="M3,0A3,3 0 1,1 0,-3A3,3 0 0,1 3,0Z" style="opacity: 1; stroke-width: 3px; fill: rgb(196, 78, 82); fill-opacity: 1; stroke: rgb(196, 78, 82); stroke-opacity: 1;"/><path class="point" transform="translate(113.33,166.04)" d="M3,0A3,3 0 1,1 0,-3A3,3 0 0,1 3,0Z" style="opacity: 1; stroke-width: 3px; fill: rgb(196, 78, 82); fill-opacity: 1; stroke: rgb(196, 78, 82); stroke-opacity: 1;"/><path class="point" transform="translate(113.33,158.36)" d="M3,0A3,3 0 1,1 0,-3A3,3 0 0,1 3,0Z" style="opacity: 1; stroke-width: 3px; fill: rgb(196, 78, 82); fill-opacity: 1; stroke: rgb(196, 78, 82); stroke-opacity: 1;"/><path class="point" transform="translate(113.33,156.15)" d="M3,0A3,3 0 1,1 0,-3A3,3 0 0,1 3,0Z" style="opacity: 1; stroke-width: 3px; fill: rgb(196, 78, 82); fill-opacity: 1; stroke: rgb(196, 78, 82); stroke-opacity: 1;"/><path class="point" transform="translate(113.33,151.9)" d="M3,0A3,3 0 1,1 0,-3A3,3 0 0,1 3,0Z" style="opacity: 1; stroke-width: 3px; fill: rgb(196, 78, 82); fill-opacity: 1; stroke: rgb(196, 78, 82); stroke-opacity: 1;"/><path class="point" transform="translate(113.33,147.59)" d="M3,0A3,3 0 1,1 0,-3A3,3 0 0,1 3,0Z" style="opacity: 1; stroke-width: 3px; fill: rgb(196, 78, 82); fill-opacity: 1; stroke: rgb(196, 78, 82); stroke-opacity: 1;"/><path class="point" transform="translate(113.33,143.91)" d="M3,0A3,3 0 1,1 0,-3A3,3 0 0,1 3,0Z" style="opacity: 1; stroke-width: 3px; fill: rgb(196, 78, 82); fill-opacity: 1; stroke: rgb(196, 78, 82); stroke-opacity: 1;"/><path class="point" transform="translate(113.33,128.55)" d="M3,0A3,3 0 1,1 0,-3A3,3 0 0,1 3,0Z" style="opacity: 1; stroke-width: 3px; fill: rgb(196, 78, 82); fill-opacity: 1; stroke: rgb(196, 78, 82); stroke-opacity: 1;"/><path class="point" transform="translate(113.33,118.65)" d="M3,0A3,3 0 1,1 0,-3A3,3 0 0,1 3,0Z" style="opacity: 1; stroke-width: 3px; fill: rgb(196, 78, 82); fill-opacity: 1; stroke: rgb(196, 78, 82); stroke-opacity: 1;"/><path class="point" transform="translate(113.33,32.57)" d="M3,0A3,3 0 1,1 0,-3A3,3 0 0,1 3,0Z" style="opacity: 1; stroke-width: 3px; fill: rgb(196, 78, 82); fill-opacity: 1; stroke: rgb(196, 78, 82); stroke-opacity: 1;"/><path class="point" transform="translate(113.33,28.5)" d="M3,0A3,3 0 1,1 0,-3A3,3 0 0,1 3,0Z" style="opacity: 1; stroke-width: 3px; fill: rgb(196, 78, 82); fill-opacity: 1; stroke: rgb(196, 78, 82); stroke-opacity: 1;"/></g></g><g class="trace boxes" style="opacity: 1;"><path style="vector-effect: non-scaling-stroke; stroke-width: 2px; stroke: rgb(85, 168, 104); stroke-opacity: 1; fill: rgb(85, 168, 104); fill-opacity: 0.5;" class="box" d="M284.47,448.58H395.53M284.47,497.7H395.53V385.57H284.47ZM340,497.7V541.16M340,385.57V218.75M312.23,541.16H367.77M312.23,218.75H367.77"/><g class="points"><path class="point" transform="translate(340,217.34)" d="M3,0A3,3 0 1,1 0,-3A3,3 0 0,1 3,0Z" style="opacity: 1; stroke-width: 3px; fill: rgb(85, 168, 104); fill-opacity: 1; stroke: rgb(85, 168, 104); stroke-opacity: 1;"/><path class="point" transform="translate(340,212.6)" d="M3,0A3,3 0 1,1 0,-3A3,3 0 0,1 3,0Z" style="opacity: 1; stroke-width: 3px; fill: rgb(85, 168, 104); fill-opacity: 1; stroke: rgb(85, 168, 104); stroke-opacity: 1;"/><path class="point" transform="translate(340,202.63)" d="M3,0A3,3 0 1,1 0,-3A3,3 0 0,1 3,0Z" style="opacity: 1; stroke-width: 3px; fill: rgb(85, 168, 104); fill-opacity: 1; stroke: rgb(85, 168, 104); stroke-opacity: 1;"/><path class="point" transform="translate(340,199.93)" d="M3,0A3,3 0 1,1 0,-3A3,3 0 0,1 3,0Z" style="opacity: 1; stroke-width: 3px; fill: rgb(85, 168, 104); fill-opacity: 1; stroke: rgb(85, 168, 104); stroke-opacity: 1;"/><path class="point" transform="translate(340,198.16)" d="M3,0A3,3 0 1,1 0,-3A3,3 0 0,1 3,0Z" style="opacity: 1; stroke-width: 3px; fill: rgb(85, 168, 104); fill-opacity: 1; stroke: rgb(85, 168, 104); stroke-opacity: 1;"/><path class="point" transform="translate(340,197.28)" d="M3,0A3,3 0 1,1 0,-3A3,3 0 0,1 3,0Z" style="opacity: 1; stroke-width: 3px; fill: rgb(85, 168, 104); fill-opacity: 1; stroke: rgb(85, 168, 104); stroke-opacity: 1;"/><path class="point" transform="translate(340,194.88)" d="M3,0A3,3 0 1,1 0,-3A3,3 0 0,1 3,0Z" style="opacity: 1; stroke-width: 3px; fill: rgb(85, 168, 104); fill-opacity: 1; stroke: rgb(85, 168, 104); stroke-opacity: 1;"/><path class="point" transform="translate(340,194.55)" d="M3,0A3,3 0 1,1 0,-3A3,3 0 0,1 3,0Z" style="opacity: 1; stroke-width: 3px; fill: rgb(85, 168, 104); fill-opacity: 1; stroke: rgb(85, 168, 104); stroke-opacity: 1;"/><path class="point" transform="translate(340,180.11)" d="M3,0A3,3 0 1,1 0,-3A3,3 0 0,1 3,0Z" style="opacity: 1; stroke-width: 3px; fill: rgb(85, 168, 104); fill-opacity: 1; stroke: rgb(85, 168, 104); stroke-opacity: 1;"/><path class="point" transform="translate(340,162.21)" d="M3,0A3,3 0 1,1 0,-3A3,3 0 0,1 3,0Z" style="opacity: 1; stroke-width: 3px; fill: rgb(85, 168, 104); fill-opacity: 1; stroke: rgb(85, 168, 104); stroke-opacity: 1;"/><path class="point" transform="translate(340,144.62)" d="M3,0A3,3 0 1,1 0,-3A3,3 0 0,1 3,0Z" style="opacity: 1; stroke-width: 3px; fill: rgb(85, 168, 104); fill-opacity: 1; stroke: rgb(85, 168, 104); stroke-opacity: 1;"/><path class="point" transform="translate(340,107.68)" d="M3,0A3,3 0 1,1 0,-3A3,3 0 0,1 3,0Z" style="opacity: 1; stroke-width: 3px; fill: rgb(85, 168, 104); fill-opacity: 1; stroke: rgb(85, 168, 104); stroke-opacity: 1;"/><path class="point" transform="translate(340,93.57)" d="M3,0A3,3 0 1,1 0,-3A3,3 0 0,1 3,0Z" style="opacity: 1; stroke-width: 3px; fill: rgb(85, 168, 104); fill-opacity: 1; stroke: rgb(85, 168, 104); stroke-opacity: 1;"/></g></g><g class="trace boxes" style="opacity: 1;"><path style="vector-effect: non-scaling-stroke; stroke-width: 2px; stroke: rgb(76, 114, 176); stroke-opacity: 1; fill: rgb(76, 114, 176); fill-opacity: 0.5;" class="box" d="M511.13,452.79H622.2M511.13,500.92H622.2V396.78H511.13ZM566.67,500.92V541.01M566.67,396.78V243.74M538.9,541.01H594.43M538.9,243.74H594.43"/><g class="points"><path class="point" transform="translate(566.67,232.37)" d="M3,0A3,3 0 1,1 0,-3A3,3 0 0,1 3,0Z" style="opacity: 1; stroke-width: 3px; fill: rgb(76, 114, 176); fill-opacity: 1; stroke: rgb(76, 114, 176); stroke-opacity: 1;"/><path class="point" transform="translate(566.67,228.51)" d="M3,0A3,3 0 1,1 0,-3A3,3 0 0,1 3,0Z" style="opacity: 1; stroke-width: 3px; fill: rgb(76, 114, 176); fill-opacity: 1; stroke: rgb(76, 114, 176); stroke-opacity: 1;"/><path class="point" transform="translate(566.67,223.37)" d="M3,0A3,3 0 1,1 0,-3A3,3 0 0,1 3,0Z" style="opacity: 1; stroke-width: 3px; fill: rgb(76, 114, 176); fill-opacity: 1; stroke: rgb(76, 114, 176); stroke-opacity: 1;"/><path class="point" transform="translate(566.67,221.61)" d="M3,0A3,3 0 1,1 0,-3A3,3 0 0,1 3,0Z" style="opacity: 1; stroke-width: 3px; fill: rgb(76, 114, 176); fill-opacity: 1; stroke: rgb(76, 114, 176); stroke-opacity: 1;"/><path class="point" transform="translate(566.67,217.34)" d="M3,0A3,3 0 1,1 0,-3A3,3 0 0,1 3,0Z" style="opacity: 1; stroke-width: 3px; fill: rgb(76, 114, 176); fill-opacity: 1; stroke: rgb(76, 114, 176); stroke-opacity: 1;"/><path class="point" transform="translate(566.67,217.14)" d="M3,0A3,3 0 1,1 0,-3A3,3 0 0,1 3,0Z" style="opacity: 1; stroke-width: 3px; fill: rgb(76, 114, 176); fill-opacity: 1; stroke: rgb(76, 114, 176); stroke-opacity: 1;"/><path class="point" transform="translate(566.67,213.06)" d="M3,0A3,3 0 1,1 0,-3A3,3 0 0,1 3,0Z" style="opacity: 1; stroke-width: 3px; fill: rgb(76, 114, 176); fill-opacity: 1; stroke: rgb(76, 114, 176); stroke-opacity: 1;"/><path class="point" transform="translate(566.67,202.67)" d="M3,0A3,3 0 1,1 0,-3A3,3 0 0,1 3,0Z" style="opacity: 1; stroke-width: 3px; fill: rgb(76, 114, 176); fill-opacity: 1; stroke: rgb(76, 114, 176); stroke-opacity: 1;"/><path class="point" transform="translate(566.67,167.96)" d="M3,0A3,3 0 1,1 0,-3A3,3 0 0,1 3,0Z" style="opacity: 1; stroke-width: 3px; fill: rgb(76, 114, 176); fill-opacity: 1; stroke: rgb(76, 114, 176); stroke-opacity: 1;"/><path class="point" transform="translate(566.67,157.83)" d="M3,0A3,3 0 1,1 0,-3A3,3 0 0,1 3,0Z" style="opacity: 1; stroke-width: 3px; fill: rgb(76, 114, 176); fill-opacity: 1; stroke: rgb(76, 114, 176); stroke-opacity: 1;"/><path class="point" transform="translate(566.67,127.34)" d="M3,0A3,3 0 1,1 0,-3A3,3 0 0,1 3,0Z" style="opacity: 1; stroke-width: 3px; fill: rgb(76, 114, 176); fill-opacity: 1; stroke: rgb(76, 114, 176); stroke-opacity: 1;"/></g></g></g><g class="scatterlayer"/></g><g class="overplot"/><path class="xlines-above crisp" style="fill: none; stroke-width: 1px; stroke: rgb(0, 0, 0); stroke-opacity: 0;" transform="translate(60,0)" d="M-6,575.5H680"/><path class="ylines-above crisp" style="fill: none; stroke-width: 1px; stroke: rgb(0, 0, 0); stroke-opacity: 0;" transform="translate(60,0)" d="M-5.5,0V575"/><g class="overlines-above"/><g class="xaxislayer-above" transform="translate(60,0)"><g class="xtick"><text text-anchor="middle" x="0" y="588" style="font-family: TOBESTRIPPEDOpen\ SansTOBESTRIPPED, verdana, arial, sans-serif; font-size: 12px; fill: rgb(68, 68, 68); fill-opacity: 1; white-space: pre;" transform="translate(113.33,0)">Jan 2018</text></g><g class="xtick"><text text-anchor="middle" x="0" y="588" style="font-family: TOBESTRIPPEDOpen\ SansTOBESTRIPPED, verdana, arial, sans-serif; font-size: 12px; fill: rgb(68, 68, 68); fill-opacity: 1; white-space: pre;" transform="translate(340,0)">Feb 2018</text></g><g class="xtick"><text text-anchor="middle" x="0" y="588" style="font-family: TOBESTRIPPEDOpen\ SansTOBESTRIPPED, verdana, arial, sans-serif; font-size: 12px; fill: rgb(68, 68, 68); fill-opacity: 1; white-space: pre;" transform="translate(566.67,0)">Mar 2018</text></g></g><g class="yaxislayer-above" transform="translate(60,0)"><g class="ytick"><text text-anchor="end" x="-6" y="4.199999999999999" style="font-family: TOBESTRIPPEDOpen\ SansTOBESTRIPPED, verdana, arial, sans-serif; font-size: 12px; fill: rgb(68, 68, 68); fill-opacity: 1; white-space: pre;" transform="translate(0,554.44)">0</text></g><g class="ytick"><text text-anchor="end" x="-6" y="4.199999999999999" style="font-family: TOBESTRIPPEDOpen\ SansTOBESTRIPPED, verdana, arial, sans-serif; font-size: 12px; fill: rgb(68, 68, 68); fill-opacity: 1; white-space: pre;" transform="translate(0,491.29)">5</text></g><g class="ytick"><text text-anchor="end" x="-6" y="4.199999999999999" style="font-family: TOBESTRIPPEDOpen\ SansTOBESTRIPPED, verdana, arial, sans-serif; font-size: 12px; fill: rgb(68, 68, 68); fill-opacity: 1; white-space: pre;" transform="translate(0,428.14)">10</text></g><g class="ytick"><text text-anchor="end" x="-6" y="4.199999999999999" style="font-family: TOBESTRIPPEDOpen\ SansTOBESTRIPPED, verdana, arial, sans-serif; font-size: 12px; fill: rgb(68, 68, 68); fill-opacity: 1; white-space: pre;" transform="translate(0,364.99)">15</text></g><g class="ytick"><text text-anchor="end" x="-6" y="4.199999999999999" style="font-family: TOBESTRIPPEDOpen\ SansTOBESTRIPPED, verdana, arial, sans-serif; font-size: 12px; fill: rgb(68, 68, 68); fill-opacity: 1; white-space: pre;" transform="translate(0,301.84)">20</text></g><g class="ytick"><text text-anchor="end" x="-6" y="4.199999999999999" style="font-family: TOBESTRIPPEDOpen\ SansTOBESTRIPPED, verdana, arial, sans-serif; font-size: 12px; fill: rgb(68, 68, 68); fill-opacity: 1; white-space: pre;" transform="translate(0,238.69)">25</text></g><g class="ytick"><text text-anchor="end" x="-6" y="4.199999999999999" style="font-family: TOBESTRIPPEDOpen\ SansTOBESTRIPPED, verdana, arial, sans-serif; font-size: 12px; fill: rgb(68, 68, 68); fill-opacity: 1; white-space: pre;" transform="translate(0,175.54)">30</text></g><g class="ytick"><text text-anchor="end" x="-6" y="4.199999999999999" style="font-family: TOBESTRIPPEDOpen\ SansTOBESTRIPPED, verdana, arial, sans-serif; font-size: 12px; fill: rgb(68, 68, 68); fill-opacity: 1; white-space: pre;" transform="translate(0,112.39)">35</text></g><g class="ytick"><text text-anchor="end" x="-6" y="4.199999999999999" style="font-family: TOBESTRIPPEDOpen\ SansTOBESTRIPPED, verdana, arial, sans-serif; font-size: 12px; fill: rgb(68, 68, 68); fill-opacity: 1; white-space: pre;" transform="translate(0,49.24)">40</text></g></g><g class="overaxes-above"/></g></g><g class="ternarylayer"/><g class="geolayer"/><g class="layer-above"><g class="imagelayer"/><g class="shapelayer"/></g><g class="pielayer"/><g class="glimages"/><defs id="topdefs-c57e39"><g class="clips"/></defs><g class="infolayer"><g class="g-gtitle"/><g class="g-xtitle"/><g class="g-ytitle"/></g></svg>