<svg class="main-svg" xmlns="http://www.w3.org/2000/svg" xmlns:xlink="http://www.w3.org/1999/xlink" width="800" height="600" style="" viewBox="0 0 800 600"><rect x="0" y="0" width="800" height="600" style="fill: rgb(245, 246, 249); fill-opacity: 1;"/><defs id="defs-337372"><g class="clips"><clipPath id="clip337372xyplot" class="plotclip"><rect width="592" height="178.50000000000003"/></clipPath><clipPath id="clip337372xy2plot" class="plotclip"><rect width="592" height="178.5"/></clipPath><clipPath class="axesclip" id="clip337372x"><rect x="80" y="0" width="592" height="600"/></clipPath><clipPath class="axesclip" id="clip337372y"><rect x="0" y="100" width="800" height="178.50000000000003"/></clipPath><clipPath class="axesclip" id="clip337372xy"><rect x="80" y="100" width="592" height="178.50000000000003"/></clipPath><clipPath class="axesclip" id="clip337372y2"><rect x="0" y="341.5" width="800" height="178.5"/></clipPath><clipPath class="axesclip" id="clip337372xy2"><rect x="80" y="341.5" width="592" height="178.5"/></clipPath></g><g class="gradients"/></defs><g class="bglayer"><rect class="bg" x="80" y="100" width="592" height="178.50000000000003" style="fill: rgb(245, 246, 249); fill-opacity: 1; stroke-width: 0;"/><rect class="bg" x="80" y="341.5" width="592" height="178.5" style="fill: rgb(245, 246, 249); fill-opacity: 1; stroke-width: 0;"/></g><g class="layer-below"><g class="imagelayer"/><g class="shapelayer"/></g><g class="cartesianlayer"><g class="subplot xy"><g class="layer-subplot"><g class="shapelayer"/><g class="imagelayer"/></g><g class="gridlayer"><g class="x"><path class="xgrid crisp" d="M0,100v178.50000000000003" transform="translate(187.8,0)" style="stroke: rgb(225, 229, 237); stroke-opacity: 1; stroke-width: 1px;"/><path class="xgrid crisp" d="M0,100v178.50000000000003" transform="translate(297.36,0)" style="stroke: rgb(225, 229, 237); stroke-opacity: 1; stroke-width: 1px;"/><path class="xgrid crisp" d="M0,100v178.50000000000003" transform="translate(405.16,0)" style="stroke: rgb(225, 229, 237); stroke-opacity: 1; stroke-width: 1px;"/><path class="xgrid crisp" d="M0,100v178.50000000000003" transform="translate(512.96,0)" style="stroke: rgb(225, 229, 237); stroke-opacity: 1; stroke-width: 1px;"/><path class="xgrid crisp" d="M0,100v178.50000000000003" transform="translate(617.22,0)" style="stroke: rgb(225, 229, 237); stroke-opacity: 1; stroke-width: 1px;"/></g><g class="y"><path class="ygrid crisp" d="M80,0h592" transform="translate(0,224.73000000000002)" style="stroke: rgb(225, 229, 237); stroke-opacity: 1; stroke-width: 1px;"/><path class="ygrid crisp" d="M80,0h592" transform="translate(0,170.95999999999998)" style="stroke: rgb(225, 229, 237); stroke-opacity: 1; stroke-width: 1px;"/><path class="ygrid crisp" d="M80,0h592" transform="translate(0,117.19)" style="stroke: rgb(225, 229, 237); stroke-opacity: 1; stroke-width: 1px;"/></g></g><g class="zerolinelayer"><path class="yzl zl crisp" d="M80,0h592" transform="translate(0,278.5)" style="stroke: rgb(225, 229, 237); stroke-opacity: 1; stroke-width: 1px;"/></g><path class="xlines-below"/><path class="ylines-below"/><g class="overlines-below"/><g class="xaxislayer-below"/><g class="yaxislayer-below"/><g class="overaxes-below"/><g class="plot" transform="translate(80, 100)" clip-path="url(#clip337372xyplot)"><g class="scatterlayer mlayer"><g class="trace scatter trace6c8818" style="stroke-miterlimit: 2;"><path class="js-fill js-tozero" d="M592,178.5L0,178.5L0,9.96L54.78,8.93L107.8,14.04L162.58,16.68L217.36,18.27L270.38,24.61L325.16,23.93L378.17,26.67L432.96,25.71L487.74,23.66L537.22,24.91L592,24.16" style="fill: rgb(255, 153, 51); fill-opacity: 0.3; stroke-width: 0;"/><path class="js-line" style="vector-effect: non-scaling-stroke; fill: none; stroke: rgb(255, 153, 51); stroke-opacity: 1; stroke-width: 1.3px; opacity: 1;" d="M0,9.96L54.78,8.93L107.8,14.04L162.58,16.68L217.36,18.27L270.38,24.61L325.16,23.93L378.17,26.67L432.96,25.71L487.74,23.66L537.22,24.91L592,24.16"/><g class="points"/></g></g></g><g class="overplot"/><path class="xlines-above crisp" style="fill: none;" d="M0,0"/><path class="ylines-above crisp" style="fill: none;" d="M0,0"/><g class="overlines-above"/><g class="xaxislayer-above"/><g class="yaxislayer-above"><g class="ytick"><text text-anchor="end" x="80" y="4.199999999999999" style="font-family: TOBESTRIPPEDOpen\ SansTOBESTRIPPED, verdana, arial, sans-serif; font-size: 12px; fill: rgb(77, 86, 99); fill-opacity: 1; white-space: pre;" transform="translate(0,278.5)">0</text></g><g class="ytick"><text text-anchor="end" x="80" y="4.199999999999999" style="font-family: TOBESTRIPPEDOpen\ SansTOBESTRIPPED, verdana, arial, sans-serif; font-size: 12px; fill: rgb(77, 86, 99); fill-opacity: 1; white-space: pre;" transform="translate(0,224.73000000000002)">0.1</text></g><g class="ytick"><text text-anchor="end" x="80" y="4.199999999999999" style="font-family: TOBESTRIPPEDOpen\ SansTOBESTRIPPED, verdana, arial, sans-serif; font-size: 12px; fill: rgb(77, 86, 99); fill-opacity: 1; white-space: pre;" transform="translate(0,170.95999999999998)">0.2</text></g><g class="ytick"><text text-anchor="end" x="80" y="4.199999999999999" style="font-family: TOBESTRIPPEDOpen\ SansTOBESTRIPPED, verdana, arial, sans-serif; font-size: 12px; fill: rgb(77, 86, 99); fill-opacity: 1; white-space: pre;" transform="translate(0,117.19)">0.3</text></g></g><g class="overaxes-above"/></g><g class="subplot xy2"><g class="layer-subplot"><g class="shapelayer"/><g class="imagelayer"/></g><g class="gridlayer"><g class="x"><path class="xgrid crisp" d="M0,341.5v178.5" transform="translate(187.8,0)" style="stroke: rgb(225, 229, 237); stroke-opacity: 1; stroke-width: 1px;"/><path class="xgrid crisp" d="M0,341.5v178.5" transform="translate(297.36,0)" style="stroke: rgb(225, 229, 237); stroke-opacity: 1; stroke-width: 1px;"/><path class="xgrid crisp" d="M0,341.5v178.5" transform="translate(405.16,0)" style="stroke: rgb(225, 229, 237); stroke-opacity: 1; stroke-width: 1px;"/><path class="xgrid crisp" d="M0,341.5v178.5" transform="translate(512.96,0)" style="stroke: rgb(225, 229, 237); stroke-opacity: 1; stroke-width: 1px;"/><path class="xgrid crisp" d="M0,341.5v178.5" transform="translate(617.22,0)" style="stroke: rgb(225, 229, 237); stroke-opacity: 1; stroke-width: 1px;"/></g><g class="y2"><path class="y2grid crisp" d="M80,0h592" transform="translate(0,463.04)" style="stroke: rgb(229, 230, 233); stroke-opacity: 1; stroke-width: 1px;"/><path class="y2grid crisp" d="M80,0h592" transform="translate(0,406.07)" style="stroke: rgb(229, 230, 233); stroke-opacity: 1; stroke-width: 1px;"/><path class="y2grid crisp" d="M80,0h592" transform="translate(0,349.11)" style="stroke: rgb(229, 230, 233); stroke-opacity: 1; stroke-width: 1px;"/></g></g><g class="zerolinelayer"><path class="y2zl zl crisp" d="M80,0h592" transform="translate(0,520)" style="stroke: rgb(68, 68, 68); stroke-opacity: 1; stroke-width: 1px;"/></g><path class="xlines-below"/><path class="ylines-below"/><g class="overlines-below"/><g class="xaxislayer-below"/><g class="yaxislayer-below"/><g class="overaxes-below"/><g class="plot" transform="translate(80, 341.5)" clip-path="url(#clip337372xy2plot)"><g class="scatterlayer mlayer"><g class="trace scatter tracea66528" style="stroke-miterlimit: 2;"><path class="js-fill js-tozero" d="M592,178.5L0,178.5L0,25.96L107.8,24.14L162.58,26.81L217.36,33.25L270.38,23.94L325.16,18.76L378.17,19.84L432.96,20.42L487.74,12.46L537.22,8.93L592,9.51" style="fill: rgb(55, 128, 191); fill-opacity: 0.3; stroke-width: 0;"/><path class="js-line" style="vector-effect: non-scaling-stroke; fill: none; stroke: rgb(55, 128, 191); stroke-opacity: 1; stroke-width: 1.3px; opacity: 1;" d="M0,25.96L107.8,24.14L162.58,26.81L217.36,33.25L270.38,23.94L325.16,18.76L378.17,19.84L432.96,20.42L487.74,12.46L537.22,8.93L592,9.51"/><g class="points"/></g></g></g><g class="overplot"/><path class="xlines-above crisp" style="fill: none;" d="M0,0"/><path class="ylines-above crisp" style="fill: none;" d="M0,0"/><g class="overlines-above"/><g class="xaxislayer-above"><g class="xtick"><text text-anchor="middle" x="0" y="533" style="font-family: TOBESTRIPPEDOpen\ SansTOBESTRIPPED, verdana, arial, sans-serif; font-size: 12px; fill: rgb(77, 86, 99); fill-opacity: 1; white-space: pre;" transform="translate(80,0)">May 2017</text></g><g class="xtick"><text text-anchor="middle" x="0" y="533" style="font-family: TOBESTRIPPEDOpen\ SansTOBESTRIPPED, verdana, arial, sans-serif; font-size: 12px; fill: rgb(77, 86, 99); fill-opacity: 1; white-space: pre;" transform="translate(187.8,0)">Jul 2017</text></g><g class="xtick"><text text-anchor="middle" x="0" y="533" style="font-family: TOBESTRIPPEDOpen\ SansTOBESTRIPPED, verdana, arial, sans-serif; font-size: 12px; fill: rgb(77, 86, 99); fill-opacity: 1; white-space: pre;" transform="translate(297.36,0)">Sep 2017</text></g><g class="xtick"><text text-anchor="middle" x="0" y="533" style="font-family: TOBESTRIPPEDOpen\ SansTOBESTRIPPED, verdana, arial, sans-serif; font-size: 12px; fill: rgb(77, 86, 99); fill-opacity: 1; white-space: pre;" transform="translate(405.16,0)">Nov 2017</text></g><g class="xtick"><text text-anchor="middle" x="0" y="533" style="font-family: TOBESTRIPPEDOpen\ SansTOBESTRIPPED, verdana, arial, sans-serif; font-size: 12px; fill: rgb(77, 86, 99); fill-opacity: 1; white-space: pre;" transform="translate(512.96,0)">Jan 2018</text></g><g class="xtick"><text text-anchor="middle" x="0" y="533" style="font-family: TOBESTRIPPEDOpen\ SansTOBESTRIPPED, verdana, arial, sans-serif; font-size: 12px; fill: rgb(77, 86, 99); fill-opacity: 1; white-space: pre;" transform="translate(617.22,0)">Mar 2018</text></g></g><g class="yaxislayer-above"><g class="y2tick"><text text-anchor="end" x="79" y="4.199999999999999" style="font-family: TOBESTRIPPEDOpen\ SansTOBESTRIPPED, verdana, arial, sans-serif; font-size: 12px; fill: rgb(68, 68, 68); fill-opacity: 1; white-space: pre;" transform="translate(0,520)">0</text></g><g class="y2tick"><text text-anchor="end" x="79" y="4.199999999999999" style="font-family: TOBESTRIPPEDOpen\ SansTOBESTRIPPED, verdana, arial, sans-serif; font-size: 12px; fill: rgb(68, 68, 68); fill-opacity: 1; white-space: pre;" transform="translate(0,463.04)">0.2</text></g><g class="y2tick"><text text-anchor="end" x="79" y="4.199999999999999" style="font-family: TOBESTRIPPEDOpen\ SansTOBESTRIPPED, verdana, arial, sans-serif; font-size: 12px; fill: rgb(68, 68, 68); fill-opacity: 1; white-space: pre;" transform="translate(0,406.07)">0.4</text></g><g class="y2tick"><text text-anchor="end" x="79" y="4.199999999999999" style="font-family: TOBESTRIPPEDOpen\ SansTOBESTRIPPED, verdana, arial, sans-serif; font-size: 12px; fill: rgb(68, 68, 68); fill-opacity: 1; white-space: pre;" transform="translate(0,349.11)">0.6</text></g></g><g class="overaxes-above"/></g></g><g class="polarlayer"/><g class="ternarylayer"/><g class="geolayer"/><g class="pielayer"/><g class="glimages"/><defs id="topdefs-337372"><g class="clips"/><clipPath id="legend337372"><rect width="104" height="48" x="0" y="0"/></clipPath></defs><g class="layer-above"><g class="imagelayer"/><g class="shapelayer"><path data-index="0" fill-rule="evenodd" d="M617.22,520L617.22,100" style="opacity: 1; stroke: rgb(219, 64, 82); stroke-opacity: 1; fill: rgb(0, 0, 0); fill-opacity: 0; stroke-width: 1px;" clip-path="url(#clip337372x)"/></g></g><g class="infolayer"><g class="legend" pointer-events="all" transform="translate(683.84, 100)"><rect class="bg" shape-rendering="crispEdges" style="stroke: rgb(68, 68, 68); stroke-opacity: 1; fill: rgb(245, 246, 249); fill-opacity: 1; stroke-width: 0px;" width="104" height="48" x="0" y="0"/><g class="scrollbox" transform="translate(0, 0)" clip-path="url(#legend337372)"><g class="groups"><g class="traces" style="opacity: 1;" transform="translate(0, 14.5)"><g class="layers"><g class="legendfill"><path class="js-fill" d="M5,0h30v6h-30z" style="stroke-width: 0; fill: rgb(255, 153, 51); fill-opacity: 0.3;"/></g><g class="legendlines"><path class="js-line" d="M5,0h30" style="fill: none; stroke: rgb(255, 153, 51); stroke-opacity: 1; stroke-width: 1.3px;"/></g><g class="legendsymbols"><g class="legendpoints"/></g></g><text class="legendtext user-select-none" text-anchor="start" style="font-family: TOBESTRIPPEDOpen\ SansTOBESTRIPPED, verdana, arial, sans-serif; font-size: 12px; fill: rgb(77, 86, 99); fill-opacity: 1; white-space: pre;" x="40" y="4.680000000000001">reach</text><rect class="legendtoggle" style="cursor: pointer; fill: rgb(0, 0, 0); fill-opacity: 0;" pointer-events="all" x="0" y="-9.5" width="144" height="19"/></g><g class="traces" style="opacity: 1;" transform="translate(0, 33.5)"><g class="layers"><g class="legendfill"><path class="js-fill" d="M5,0h30v6h-30z" style="stroke-width: 0; fill: rgb(55, 128, 191); fill-opacity: 0.3;"/></g><g class="legendlines"><path class="js-line" d="M5,0h30" style="fill: none; stroke: rgb(55, 128, 191); stroke-opacity: 1; stroke-width: 1.3px;"/></g><g class="legendsymbols"><g class="legendpoints"/></g></g><text class="legendtext user-select-none" text-anchor="start" style="font-family: TOBESTRIPPEDOpen\ SansTOBESTRIPPED, verdana, arial, sans-serif; font-size: 12px; fill: rgb(77, 86, 99); fill-opacity: 1; white-space: pre;" x="40" y="4.680000000000001">site_reach</text><rect class="legendtoggle" style="cursor: pointer; fill: rgb(0, 0, 0); fill-opacity: 0;" pointer-events="all" x="0" y="-9.5" width="144" height="19"/></g></g></g><rect class="scrollbar" rx="20" ry="3" width="0" height="0" style="fill: rgb(128, 139, 164); fill-opacity: 1;" x="0" y="0"/></g><g class="g-gtitle"><text class="gtitle" style="font-family: TOBESTRIPPEDOpen\ SansTOBESTRIPPED, verdana, arial, sans-serif; font-size: 17px; fill: rgb(77, 86, 99); opacity: 1; font-weight: normal; white-space: pre;" x="400" y="50" text-anchor="middle">Reach and Site Reach</text></g><g class="g-xtitle"/><g class="g-ytitle"/><g class="g-y2title"/></g></svg>