<svg class="marks" width="541" height="234" viewBox="0 0 541 234" version="1.1" xmlns="http://www.w3.org/2000/svg" xmlns:xlink="http://www.w3.org/1999/xlink"><g transform="translate(135,23)"><g class="mark-group role-frame root"><g transform="translate(0,0)"><path class="background" d="M0.5,0.5h400v168h-400Z" style="fill: none; stroke: #ddd;"></path><g><g class="mark-group role-axis"><g transform="translate(0.5,168.5)"><path class="background" d="M0,0h0v0h0Z" style="pointer-events: none; fill: none;"></path><g><g class="mark-rule role-axis-grid" style="pointer-events: none;"><line transform="translate(0,0)" x2="0" y2="-168" style="fill: none; stroke: #ddd; stroke-width: 1; opacity: 1;"></line><line transform="translate(29,0)" x2="0" y2="-168" style="fill: none; stroke: #ddd; stroke-width: 1; opacity: 1;"></line><line transform="translate(57,0)" x2="0" y2="-168" style="fill: none; stroke: #ddd; stroke-width: 1; opacity: 1;"></line><line transform="translate(86,0)" x2="0" y2="-168" style="fill: none; stroke: #ddd; stroke-width: 1; opacity: 1;"></line><line transform="translate(114,0)" x2="0" y2="-168" style="fill: none; stroke: #ddd; stroke-width: 1; opacity: 1;"></line><line transform="translate(143,0)" x2="0" y2="-168" style="fill: none; stroke: #ddd; stroke-width: 1; opacity: 1;"></line><line transform="translate(171,0)" x2="0" y2="-168" style="fill: none; stroke: #ddd; stroke-width: 1; opacity: 1;"></line><line transform="translate(200,0)" x2="0" y2="-168" style="fill: none; stroke: #ddd; stroke-width: 1; opacity: 1;"></line><line transform="translate(229,0)" x2="0" y2="-168" style="fill: none; stroke: #ddd; stroke-width: 1; opacity: 1;"></line><line transform="translate(257,0)" x2="0" y2="-168" style="fill: none; stroke: #ddd; stroke-width: 1; opacity: 1;"></line><line transform="translate(286,0)" x2="0" y2="-168" style="fill: none; stroke: #ddd; stroke-width: 1; opacity: 1;"></line><line transform="translate(314,0)" x2="0" y2="-168" style="fill: none; stroke: #ddd; stroke-width: 1; opacity: 1;"></line><line transform="translate(343,0)" x2="0" y2="-168" style="fill: none; stroke: #ddd; stroke-width: 1; opacity: 1;"></line><line transform="translate(371,0)" x2="0" y2="-168" style="fill: none; stroke: #ddd; stroke-width: 1; opacity: 1;"></line><line transform="translate(400,0)" x2="0" y2="-168" style="fill: none; stroke: #ddd; stroke-width: 1; opacity: 1;"></line></g></g></g></g><g class="mark-rect role-mark layer_0_marks"><path d="M0,148.05h213.52410495708986v18.900000000000002h-213.52410495708986Z" style="fill: green;"></path><path d="M0,85.05h227.27563024164127v18.900000000000002h-227.27563024164127Z" style="fill: green;"></path><path d="M0,64.05h291.72647860830125v18.900000000000002h-291.72647860830125Z" style="fill: green;"></path><path d="M0,1.0499999999999972h143.15981564887323v18.900000000000002h-143.15981564887323Z" style="fill: green;"></path><path d="M0,106.05h382.85547513785764v18.900000000000002h-382.85547513785764Z" style="fill: green;"></path><path d="M0,43.05h211.35786024874125v18.900000000000002h-211.35786024874125Z" style="fill: green;"></path><path d="M0,127.05h326.84406822832017v18.900000000000002h-326.84406822832017Z" style="fill: green;"></path><path d="M0,22.049999999999997h68.07764098701294v18.900000000000002h-68.07764098701294Z" style="fill: green;"></path></g><g class="mark-rect role-mark layer_1_marks"><path d="M0,148.05h202.57789584415426v18.900000000000002h-202.57789584415426Z" style="fill: #bcc4ce;"></path><path d="M0,85.05h223.1562645566173v18.900000000000002h-223.1562645566173Z" style="fill: #bcc4ce;"></path><path d="M0,64.05h271.4773502127954v18.900000000000002h-271.4773502127954Z" style="fill: #bcc4ce;"></path><path d="M0,1.0499999999999972h142.47299635531206v18.900000000000002h-142.47299635531206Z" style="fill: #bcc4ce;"></path><path d="M0,106.05h354.1327053500638v18.900000000000002h-354.1327053500638Z" style="fill: #bcc4ce;"></path><path d="M0,127.05h304.9512316790887v18.900000000000002h-304.9512316790887Z" style="fill: #bcc4ce;"></path><path d="M0,43.05h208.1397602965715v18.900000000000002h-208.1397602965715Z" style="fill: #bcc4ce;"></path><path d="M0,22.049999999999997h73.13088627416397v18.900000000000002h-73.13088627416397Z" style="fill: #bcc4ce;"></path></g><g class="mark-text role-title" style="pointer-events: none;"><text text-anchor="middle" transform="translate(135.5,-7)" style="font-family: sans-serif; font-size: 13px; font-weight: bold; fill: #000; opacity: 1;">April to July changes</text></g><g class="mark-group role-axis"><g transform="translate(0.5,168.5)"><path class="background" d="M0,0h0v0h0Z" style="pointer-events: none; fill: none;"></path><g><g class="mark-rule role-axis-tick" style="pointer-events: none;"><line transform="translate(0,0)" x2="0" y2="5" style="fill: none; stroke: #888; stroke-width: 1; opacity: 1;"></line><line transform="translate(29,0)" x2="0" y2="5" style="fill: none; stroke: #888; stroke-width: 1; opacity: 1;"></line><line transform="translate(57,0)" x2="0" y2="5" style="fill: none; stroke: #888; stroke-width: 1; opacity: 1;"></line><line transform="translate(86,0)" x2="0" y2="5" style="fill: none; stroke: #888; stroke-width: 1; opacity: 1;"></line><line transform="translate(114,0)" x2="0" y2="5" style="fill: none; stroke: #888; stroke-width: 1; opacity: 1;"></line><line transform="translate(143,0)" x2="0" y2="5" style="fill: none; stroke: #888; stroke-width: 1; opacity: 1;"></line><line transform="translate(171,0)" x2="0" y2="5" style="fill: none; stroke: #888; stroke-width: 1; opacity: 1;"></line><line transform="translate(200,0)" x2="0" y2="5" style="fill: none; stroke: #888; stroke-width: 1; opacity: 1;"></line><line transform="translate(229,0)" x2="0" y2="5" style="fill: none; stroke: #888; stroke-width: 1; opacity: 1;"></line><line transform="translate(257,0)" x2="0" y2="5" style="fill: none; stroke: #888; stroke-width: 1; opacity: 1;"></line><line transform="translate(286,0)" x2="0" y2="5" style="fill: none; stroke: #888; stroke-width: 1; opacity: 1;"></line><line transform="translate(314,0)" x2="0" y2="5" style="fill: none; stroke: #888; stroke-width: 1; opacity: 1;"></line><line transform="translate(343,0)" x2="0" y2="5" style="fill: none; stroke: #888; stroke-width: 1; opacity: 1;"></line><line transform="translate(371,0)" x2="0" y2="5" style="fill: none; stroke: #888; stroke-width: 1; opacity: 1;"></line><line transform="translate(400,0)" x2="0" y2="5" style="fill: none; stroke: #888; stroke-width: 1; opacity: 1;"></line></g><g class="mark-text role-axis-label" style="pointer-events: none;"><text text-anchor="start" transform="translate(0,16)" style="font-family: sans-serif; font-size: 12px; fill: #000; opacity: 1;">0</text><text text-anchor="middle" transform="translate(28.57142857142857,16)" style="font-family: sans-serif; font-size: 12px; fill: #000; opacity: 1;">1</text><text text-anchor="middle" transform="translate(57.14285714285714,16)" style="font-family: sans-serif; font-size: 12px; fill: #000; opacity: 1;">2</text><text text-anchor="middle" transform="translate(85.71428571428571,16)" style="font-family: sans-serif; font-size: 12px; fill: #000; opacity: 1;">3</text><text text-anchor="middle" transform="translate(114.28571428571428,16)" style="font-family: sans-serif; font-size: 12px; fill: #000; opacity: 1;">4</text><text text-anchor="middle" transform="translate(142.85714285714286,16)" style="font-family: sans-serif; font-size: 12px; fill: #000; opacity: 1;">5</text><text text-anchor="middle" transform="translate(171.42857142857142,16)" style="font-family: sans-serif; font-size: 12px; fill: #000; opacity: 1;">6</text><text text-anchor="middle" transform="translate(200,16)" style="font-family: sans-serif; font-size: 12px; fill: #000; opacity: 1;">7</text><text text-anchor="middle" transform="translate(228.57142857142856,16)" style="font-family: sans-serif; font-size: 12px; fill: #000; opacity: 1;">8</text><text text-anchor="middle" transform="translate(257.14285714285717,16)" style="font-family: sans-serif; font-size: 12px; fill: #000; opacity: 1;">9</text><text text-anchor="middle" transform="translate(285.7142857142857,16)" style="font-family: sans-serif; font-size: 12px; fill: #000; opacity: 1;">10</text><text text-anchor="middle" transform="translate(314.2857142857143,16)" style="font-family: sans-serif; font-size: 12px; fill: #000; opacity: 1;">11</text><text text-anchor="middle" transform="translate(342.85714285714283,16)" style="font-family: sans-serif; font-size: 12px; fill: #000; opacity: 1;">12</text><text text-anchor="middle" transform="translate(371.42857142857144,16)" style="font-family: sans-serif; font-size: 12px; fill: #000; opacity: 1;">13</text><text text-anchor="end" transform="translate(400,16)" style="font-family: sans-serif; font-size: 12px; fill: #000; opacity: 1;">14</text></g><g class="mark-rule role-axis-domain" style="pointer-events: none;"><line transform="translate(0,0)" x2="400" y2="0" style="fill: none; stroke: #888; stroke-width: 1; opacity: 1;"></line></g><g class="mark-text role-axis-title" style="pointer-events: none;"><text text-anchor="middle" transform="translate(200,33)" style="font-family: sans-serif; font-size: 13px; font-weight: bold; fill: #000; opacity: 1;">Average number of trackers</text></g></g></g></g><g class="mark-group role-axis"><g transform="translate(0.5,0.5)"><path class="background" d="M0,0h0v0h0Z" style="pointer-events: none; fill: none;"></path><g><g class="mark-rule role-axis-tick" style="pointer-events: none;"><line transform="translate(0,9)" x2="-5" y2="0" style="fill: none; stroke: #888; stroke-width: 1; opacity: 1;"></line><line transform="translate(0,31)" x2="-5" y2="0" style="fill: none; stroke: #888; stroke-width: 1; opacity: 1;"></line><line transform="translate(0,52)" x2="-5" y2="0" style="fill: none; stroke: #888; stroke-width: 1; opacity: 1;"></line><line transform="translate(0,73)" x2="-5" y2="0" style="fill: none; stroke: #888; stroke-width: 1; opacity: 1;"></line><line transform="translate(0,94)" x2="-5" y2="0" style="fill: none; stroke: #888; stroke-width: 1; opacity: 1;"></line><line transform="translate(0,115)" x2="-5" y2="0" style="fill: none; stroke: #888; stroke-width: 1; opacity: 1;"></line><line transform="translate(0,136)" x2="-5" y2="0" style="fill: none; stroke: #888; stroke-width: 1; opacity: 1;"></line><line transform="translate(0,157)" x2="-5" y2="0" style="fill: none; stroke: #888; stroke-width: 1; opacity: 1;"></line></g><g class="mark-text role-axis-label" style="pointer-events: none;"><text text-anchor="end" transform="translate(-7,13.499999999999998)" style="font-family: sans-serif; font-size: 12px; fill: #000; opacity: 1;">Adult</text><text text-anchor="end" transform="translate(-7,34.5)" style="font-family: sans-serif; font-size: 12px; fill: #000; opacity: 1;">Banking</text><text text-anchor="end" transform="translate(-7,55.5)" style="font-family: sans-serif; font-size: 12px; fill: #000; opacity: 1;">Business</text><text text-anchor="end" transform="translate(-7,76.5)" style="font-family: sans-serif; font-size: 12px; fill: #000; opacity: 1;">E-Commerce</text><text text-anchor="end" transform="translate(-7,97.5)" style="font-family: sans-serif; font-size: 12px; fill: #000; opacity: 1;">Entertainment</text><text text-anchor="end" transform="translate(-7,118.5)" style="font-family: sans-serif; font-size: 12px; fill: #000; opacity: 1;">News and Portals</text><text text-anchor="end" transform="translate(-7,139.5)" style="font-family: sans-serif; font-size: 12px; fill: #000; opacity: 1;">Recreation</text><text text-anchor="end" transform="translate(-7,160.5)" style="font-family: sans-serif; font-size: 12px; fill: #000; opacity: 1;">Reference</text></g><g class="mark-rule role-axis-domain" style="pointer-events: none;"><line transform="translate(0,0)" x2="0" y2="168" style="fill: none; stroke: #888; stroke-width: 1; opacity: 1;"></line></g><g class="mark-text role-axis-title" style="pointer-events: none;"><text text-anchor="middle" transform="translate(-115,84) rotate(-90) translate(0,-3)" style="font-family: sans-serif; font-size: 13px; font-weight: bold; fill: #000; opacity: 1;">category</text></g></g></g></g></g></g></g></g></svg>