<svg class="marks" width="689" height="216" viewBox="0 0 689 216" version="1.1" xmlns="http://www.w3.org/2000/svg" xmlns:xlink="http://www.w3.org/1999/xlink"><g transform="translate(135,5)"><g class="mark-group role-frame root"><g transform="translate(0,0)"><path class="background" d="M0.5,0.5h400v168h-400Z" style="fill: none; stroke: #ddd;"></path><g><g class="mark-group role-axis"><g transform="translate(0.5,168.5)"><path class="background" d="M0,0h0v0h0Z" style="pointer-events: none; fill: none;"></path><g><g class="mark-rule role-axis-grid" style="pointer-events: none;"><line transform="translate(0,0)" x2="0" y2="-168" style="fill: none; stroke: #ddd; stroke-width: 1; opacity: 1;"></line><line transform="translate(31,0)" x2="0" y2="-168" style="fill: none; stroke: #ddd; stroke-width: 1; opacity: 1;"></line><line transform="translate(62,0)" x2="0" y2="-168" style="fill: none; stroke: #ddd; stroke-width: 1; opacity: 1;"></line><line transform="translate(92,0)" x2="0" y2="-168" style="fill: none; stroke: #ddd; stroke-width: 1; opacity: 1;"></line><line transform="translate(123,0)" x2="0" y2="-168" style="fill: none; stroke: #ddd; stroke-width: 1; opacity: 1;"></line><line transform="translate(154,0)" x2="0" y2="-168" style="fill: none; stroke: #ddd; stroke-width: 1; opacity: 1;"></line><line transform="translate(185,0)" x2="0" y2="-168" style="fill: none; stroke: #ddd; stroke-width: 1; opacity: 1;"></line><line transform="translate(215,0)" x2="0" y2="-168" style="fill: none; stroke: #ddd; stroke-width: 1; opacity: 1;"></line><line transform="translate(246,0)" x2="0" y2="-168" style="fill: none; stroke: #ddd; stroke-width: 1; opacity: 1;"></line><line transform="translate(277,0)" x2="0" y2="-168" style="fill: none; stroke: #ddd; stroke-width: 1; opacity: 1;"></line><line transform="translate(308,0)" x2="0" y2="-168" style="fill: none; stroke: #ddd; stroke-width: 1; opacity: 1;"></line><line transform="translate(338,0)" x2="0" y2="-168" style="fill: none; stroke: #ddd; stroke-width: 1; opacity: 1;"></line><line transform="translate(369,0)" x2="0" y2="-168" style="fill: none; stroke: #ddd; stroke-width: 1; opacity: 1;"></line><line transform="translate(400,0)" x2="0" y2="-168" style="fill: none; stroke: #ddd; stroke-width: 1; opacity: 1;"></line></g></g></g></g><g class="mark-rect role-mark marks"><path d="M0,148.05h218.1608109090892v18.900000000000002h-218.1608109090892Z" style="fill: #ff9da6; opacity: 0.8;"></path><path d="M0,85.05h240.32213106097248v18.900000000000002h-240.32213106097248Z" style="fill: #54a24b; opacity: 0.8;"></path><path d="M0,64.05h292.36022330608733v18.900000000000002h-292.36022330608733Z" style="fill: #72b7b2; opacity: 0.8;"></path><path d="M0,1.0499999999999972h153.432457613413v18.900000000000002h-153.432457613413Z" style="fill: #4c78a8; opacity: 0.8;"></path><path d="M0,106.05h381.3736826846841v18.900000000000002h-381.3736826846841Z" style="fill: #eeca3b; opacity: 0.8;"></path><path d="M0,127.05h328.4090187313263v18.900000000000002h-328.4090187313263Z" style="fill: #b279a2; opacity: 0.8;"></path><path d="M0,43.05h224.1505110886155v18.900000000000002h-224.1505110886155Z" style="fill: #e45756; opacity: 0.8;"></path><path d="M0,22.049999999999997h78.75633906448427v18.900000000000002h-78.75633906448427Z" style="fill: #f58518; opacity: 0.8;"></path></g><g class="mark-group role-legend"><g transform="translate(418,0)"><path class="background" d="M0,0h131v143h-131Z" style="pointer-events: none; fill: none;"></path><g><g class="mark-group role-legend-entry"><g transform="translate(0,18)"><path class="background" d="M0,0h0v0h0Z" style="pointer-events: none; fill: none;"></path><g><g class="mark-group role-scope"><g transform="translate(0,0)"><path class="background" d="M0,0h120v13h-120Z" style="pointer-events: none; fill: none; opacity: 1;"></path><g><g class="mark-symbol role-legend-symbol" style="pointer-events: none;"><path transform="translate(6,6)" d="M-5,-5h10v10h-10Z" style="fill: #4c78a8; stroke-width: 1.5; opacity: 0.8;"></path></g><g class="mark-text role-legend-label" style="pointer-events: none;"><text text-anchor="start" transform="translate(16,10)" style="font-family: sans-serif; font-size: 12px; fill: #000; opacity: 1;">Adult</text></g></g></g><g transform="translate(0,16)"><path class="background" d="M0,0h120v13h-120Z" style="pointer-events: none; fill: none; opacity: 1;"></path><g><g class="mark-symbol role-legend-symbol" style="pointer-events: none;"><path transform="translate(6,6)" d="M-5,-5h10v10h-10Z" style="fill: #f58518; stroke-width: 1.5; opacity: 0.8;"></path></g><g class="mark-text role-legend-label" style="pointer-events: none;"><text text-anchor="start" transform="translate(16,10)" style="font-family: sans-serif; font-size: 12px; fill: #000; opacity: 1;">Banking</text></g></g></g><g transform="translate(0,32)"><path class="background" d="M0,0h120v13h-120Z" style="pointer-events: none; fill: none; opacity: 1;"></path><g><g class="mark-symbol role-legend-symbol" style="pointer-events: none;"><path transform="translate(6,6)" d="M-5,-5h10v10h-10Z" style="fill: #e45756; stroke-width: 1.5; opacity: 0.8;"></path></g><g class="mark-text role-legend-label" style="pointer-events: none;"><text text-anchor="start" transform="translate(16,10)" style="font-family: sans-serif; font-size: 12px; fill: #000; opacity: 1;">Business</text></g></g></g><g transform="translate(0,48)"><path class="background" d="M0,0h120v13h-120Z" style="pointer-events: none; fill: none; opacity: 1;"></path><g><g class="mark-symbol role-legend-symbol" style="pointer-events: none;"><path transform="translate(6,6)" d="M-5,-5h10v10h-10Z" style="fill: #72b7b2; stroke-width: 1.5; opacity: 0.8;"></path></g><g class="mark-text role-legend-label" style="pointer-events: none;"><text text-anchor="start" transform="translate(16,10)" style="font-family: sans-serif; font-size: 12px; fill: #000; opacity: 1;">E-Commerce</text></g></g></g><g transform="translate(0,64)"><path class="background" d="M0,0h120v13h-120Z" style="pointer-events: none; fill: none; opacity: 1;"></path><g><g class="mark-symbol role-legend-symbol" style="pointer-events: none;"><path transform="translate(6,6)" d="M-5,-5h10v10h-10Z" style="fill: #54a24b; stroke-width: 1.5; opacity: 0.8;"></path></g><g class="mark-text role-legend-label" style="pointer-events: none;"><text text-anchor="start" transform="translate(16,10)" style="font-family: sans-serif; font-size: 12px; fill: #000; opacity: 1;">Entertainment</text></g></g></g><g transform="translate(0,80)"><path class="background" d="M0,0h120v13h-120Z" style="pointer-events: none; fill: none; opacity: 1;"></path><g><g class="mark-symbol role-legend-symbol" style="pointer-events: none;"><path transform="translate(6,6)" d="M-5,-5h10v10h-10Z" style="fill: #eeca3b; stroke-width: 1.5; opacity: 0.8;"></path></g><g class="mark-text role-legend-label" style="pointer-events: none;"><text text-anchor="start" transform="translate(16,10)" style="font-family: sans-serif; font-size: 12px; fill: #000; opacity: 1;">News and Portals</text></g></g></g><g transform="translate(0,96)"><path class="background" d="M0,0h120v13h-120Z" style="pointer-events: none; fill: none; opacity: 1;"></path><g><g class="mark-symbol role-legend-symbol" style="pointer-events: none;"><path transform="translate(6,6)" d="M-5,-5h10v10h-10Z" style="fill: #b279a2; stroke-width: 1.5; opacity: 0.8;"></path></g><g class="mark-text role-legend-label" style="pointer-events: none;"><text text-anchor="start" transform="translate(16,10)" style="font-family: sans-serif; font-size: 12px; fill: #000; opacity: 1;">Recreation</text></g></g></g><g transform="translate(0,112)"><path class="background" d="M0,0h120v13h-120Z" style="pointer-events: none; fill: none; opacity: 1;"></path><g><g class="mark-symbol role-legend-symbol" style="pointer-events: none;"><path transform="translate(6,6)" d="M-5,-5h10v10h-10Z" style="fill: #ff9da6; stroke-width: 1.5; opacity: 0.8;"></path></g><g class="mark-text role-legend-label" style="pointer-events: none;"><text text-anchor="start" transform="translate(16,10)" style="font-family: sans-serif; font-size: 12px; fill: #000; opacity: 1;">Reference</text></g></g></g></g></g></g></g><g class="mark-text role-legend-title" style="pointer-events: none;"><text text-anchor="start" transform="translate(0,10)" style="font-family: sans-serif; font-size: 13px; font-weight: bold; fill: #000; opacity: 1;">Website Category</text></g></g></g></g><g class="mark-group role-axis"><g transform="translate(0.5,168.5)"><path class="background" d="M0,0h0v0h0Z" style="pointer-events: none; fill: none;"></path><g><g class="mark-rule role-axis-tick" style="pointer-events: none;"><line transform="translate(0,0)" x2="0" y2="5" style="fill: none; stroke: #888; stroke-width: 1; opacity: 1;"></line><line transform="translate(31,0)" x2="0" y2="5" style="fill: none; stroke: #888; stroke-width: 1; opacity: 1;"></line><line transform="translate(62,0)" x2="0" y2="5" style="fill: none; stroke: #888; stroke-width: 1; opacity: 1;"></line><line transform="translate(92,0)" x2="0" y2="5" style="fill: none; stroke: #888; stroke-width: 1; opacity: 1;"></line><line transform="translate(123,0)" x2="0" y2="5" style="fill: none; stroke: #888; stroke-width: 1; opacity: 1;"></line><line transform="translate(154,0)" x2="0" y2="5" style="fill: none; stroke: #888; stroke-width: 1; opacity: 1;"></line><line transform="translate(185,0)" x2="0" y2="5" style="fill: none; stroke: #888; stroke-width: 1; opacity: 1;"></line><line transform="translate(215,0)" x2="0" y2="5" style="fill: none; stroke: #888; stroke-width: 1; opacity: 1;"></line><line transform="translate(246,0)" x2="0" y2="5" style="fill: none; stroke: #888; stroke-width: 1; opacity: 1;"></line><line transform="translate(277,0)" x2="0" y2="5" style="fill: none; stroke: #888; stroke-width: 1; opacity: 1;"></line><line transform="translate(308,0)" x2="0" y2="5" style="fill: none; stroke: #888; stroke-width: 1; opacity: 1;"></line><line transform="translate(338,0)" x2="0" y2="5" style="fill: none; stroke: #888; stroke-width: 1; opacity: 1;"></line><line transform="translate(369,0)" x2="0" y2="5" style="fill: none; stroke: #888; stroke-width: 1; opacity: 1;"></line><line transform="translate(400,0)" x2="0" y2="5" style="fill: none; stroke: #888; stroke-width: 1; opacity: 1;"></line></g><g class="mark-text role-axis-label" style="pointer-events: none;"><text text-anchor="start" transform="translate(0,16)" style="font-family: sans-serif; font-size: 12px; fill: #000; opacity: 1;">0</text><text text-anchor="middle" transform="translate(30.76923076923077,16)" style="font-family: sans-serif; font-size: 12px; fill: #000; opacity: 1;">1</text><text text-anchor="middle" transform="translate(61.53846153846154,16)" style="font-family: sans-serif; font-size: 12px; fill: #000; opacity: 1;">2</text><text text-anchor="middle" transform="translate(92.3076923076923,16)" style="font-family: sans-serif; font-size: 12px; fill: #000; opacity: 1;">3</text><text text-anchor="middle" transform="translate(123.07692307692308,16)" style="font-family: sans-serif; font-size: 12px; fill: #000; opacity: 1;">4</text><text text-anchor="middle" transform="translate(153.84615384615387,16)" style="font-family: sans-serif; font-size: 12px; fill: #000; opacity: 1;">5</text><text text-anchor="middle" transform="translate(184.6153846153846,16)" style="font-family: sans-serif; font-size: 12px; fill: #000; opacity: 1;">6</text><text text-anchor="middle" transform="translate(215.3846153846154,16)" style="font-family: sans-serif; font-size: 12px; fill: #000; opacity: 1;">7</text><text text-anchor="middle" transform="translate(246.15384615384616,16)" style="font-family: sans-serif; font-size: 12px; fill: #000; opacity: 1;">8</text><text text-anchor="middle" transform="translate(276.9230769230769,16)" style="font-family: sans-serif; font-size: 12px; fill: #000; opacity: 1;">9</text><text text-anchor="middle" transform="translate(307.69230769230774,16)" style="font-family: sans-serif; font-size: 12px; fill: #000; opacity: 1;">10</text><text text-anchor="middle" transform="translate(338.46153846153845,16)" style="font-family: sans-serif; font-size: 12px; fill: #000; opacity: 1;">11</text><text text-anchor="middle" transform="translate(369.2307692307692,16)" style="font-family: sans-serif; font-size: 12px; fill: #000; opacity: 1;">12</text><text text-anchor="end" transform="translate(400,16)" style="font-family: sans-serif; font-size: 12px; fill: #000; opacity: 1;">13</text></g><g class="mark-rule role-axis-domain" style="pointer-events: none;"><line transform="translate(0,0)" x2="400" y2="0" style="fill: none; stroke: #888; stroke-width: 1; opacity: 1;"></line></g><g class="mark-text role-axis-title" style="pointer-events: none;"><text text-anchor="middle" transform="translate(200,33)" style="font-family: sans-serif; font-size: 13px; font-weight: bold; fill: #000; opacity: 1;">Average number of trackers</text></g></g></g></g><g class="mark-group role-axis"><g transform="translate(0.5,0.5)"><path class="background" d="M0,0h0v0h0Z" style="pointer-events: none; fill: none;"></path><g><g class="mark-rule role-axis-tick" style="pointer-events: none;"><line transform="translate(0,9)" x2="-5" y2="0" style="fill: none; stroke: #888; stroke-width: 1; opacity: 1;"></line><line transform="translate(0,31)" x2="-5" y2="0" style="fill: none; stroke: #888; stroke-width: 1; opacity: 1;"></line><line transform="translate(0,52)" x2="-5" y2="0" style="fill: none; stroke: #888; stroke-width: 1; opacity: 1;"></line><line transform="translate(0,73)" x2="-5" y2="0" style="fill: none; stroke: #888; stroke-width: 1; opacity: 1;"></line><line transform="translate(0,94)" x2="-5" y2="0" style="fill: none; stroke: #888; stroke-width: 1; opacity: 1;"></line><line transform="translate(0,115)" x2="-5" y2="0" style="fill: none; stroke: #888; stroke-width: 1; opacity: 1;"></line><line transform="translate(0,136)" x2="-5" y2="0" style="fill: none; stroke: #888; stroke-width: 1; opacity: 1;"></line><line transform="translate(0,157)" x2="-5" y2="0" style="fill: none; stroke: #888; stroke-width: 1; opacity: 1;"></line></g><g class="mark-text role-axis-label" style="pointer-events: none;"><text text-anchor="end" transform="translate(-7,13.499999999999998)" style="font-family: sans-serif; font-size: 12px; fill: #000; opacity: 1;">Adult</text><text text-anchor="end" transform="translate(-7,34.5)" style="font-family: sans-serif; font-size: 12px; fill: #000; opacity: 1;">Banking</text><text text-anchor="end" transform="translate(-7,55.5)" style="font-family: sans-serif; font-size: 12px; fill: #000; opacity: 1;">Business</text><text text-anchor="end" transform="translate(-7,76.5)" style="font-family: sans-serif; font-size: 12px; fill: #000; opacity: 1;">E-Commerce</text><text text-anchor="end" transform="translate(-7,97.5)" style="font-family: sans-serif; font-size: 12px; fill: #000; opacity: 1;">Entertainment</text><text text-anchor="end" transform="translate(-7,118.5)" style="font-family: sans-serif; font-size: 12px; fill: #000; opacity: 1;">News and Portals</text><text text-anchor="end" transform="translate(-7,139.5)" style="font-family: sans-serif; font-size: 12px; fill: #000; opacity: 1;">Recreation</text><text text-anchor="end" transform="translate(-7,160.5)" style="font-family: sans-serif; font-size: 12px; fill: #000; opacity: 1;">Reference</text></g><g class="mark-rule role-axis-domain" style="pointer-events: none;"><line transform="translate(0,0)" x2="0" y2="168" style="fill: none; stroke: #888; stroke-width: 1; opacity: 1;"></line></g><g class="mark-text role-axis-title" style="pointer-events: none;"><text text-anchor="middle" transform="translate(-115,84) rotate(-90) translate(0,-3)" style="font-family: sans-serif; font-size: 13px; font-weight: bold; fill: #000; opacity: 1;">category</text></g></g></g></g></g></g></g></g></svg>