<svg class="marks" width="723" height="373" viewBox="0 0 723 373" version="1.1" xmlns="http://www.w3.org/2000/svg" xmlns:xlink="http://www.w3.org/1999/xlink"><g transform="translate(63,30)"><g class="mark-group role-frame root"><g transform="translate(0,0)"><path class="background" d="M0.5,0.5h400v300h-400Z" style="fill: none; stroke: #ddd;"></path><g><g class="mark-group role-axis"><g transform="translate(0.5,300.5)"><path class="background" d="M0,0h0v0h0Z" style="pointer-events: none; fill: none;"></path><g><g class="mark-rule role-axis-grid" style="pointer-events: none;"><line transform="translate(30,-300)" x2="0" y2="300" style="fill: none; stroke: #ddd; stroke-width: 1; opacity: 1;"></line><line transform="translate(61,-300)" x2="0" y2="300" style="fill: none; stroke: #ddd; stroke-width: 1; opacity: 1;"></line><line transform="translate(92,-300)" x2="0" y2="300" style="fill: none; stroke: #ddd; stroke-width: 1; opacity: 1;"></line><line transform="translate(123,-300)" x2="0" y2="300" style="fill: none; stroke: #ddd; stroke-width: 1; opacity: 1;"></line><line transform="translate(153,-300)" x2="0" y2="300" style="fill: none; stroke: #ddd; stroke-width: 1; opacity: 1;"></line><line transform="translate(184,-300)" x2="0" y2="300" style="fill: none; stroke: #ddd; stroke-width: 1; opacity: 1;"></line><line transform="translate(215,-300)" x2="0" y2="300" style="fill: none; stroke: #ddd; stroke-width: 1; opacity: 1;"></line><line transform="translate(246,-300)" x2="0" y2="300" style="fill: none; stroke: #ddd; stroke-width: 1; opacity: 1;"></line><line transform="translate(277,-300)" x2="0" y2="300" style="fill: none; stroke: #ddd; stroke-width: 1; opacity: 1;"></line><line transform="translate(307,-300)" x2="0" y2="300" style="fill: none; stroke: #ddd; stroke-width: 1; opacity: 1;"></line><line transform="translate(338,-300)" x2="0" y2="300" style="fill: none; stroke: #ddd; stroke-width: 1; opacity: 1;"></line><line transform="translate(369,-300)" x2="0" y2="300" style="fill: none; stroke: #ddd; stroke-width: 1; opacity: 1;"></line><line transform="translate(400,-300)" x2="0" y2="300" style="fill: none; stroke: #ddd; stroke-width: 1; opacity: 1;"></line></g></g></g></g><g class="mark-group role-axis"><g transform="translate(0.5,0.5)"><path class="background" d="M0,0h0v0h0Z" style="pointer-events: none; fill: none;"></path><g><g class="mark-rule role-axis-grid" style="pointer-events: none;"><line transform="translate(0,300)" x2="400" y2="0" style="fill: none; stroke: #ddd; stroke-width: 1; opacity: 1;"></line><line transform="translate(0,273)" x2="400" y2="0" style="fill: none; stroke: #ddd; stroke-width: 1; opacity: 1;"></line><line transform="translate(0,245)" x2="400" y2="0" style="fill: none; stroke: #ddd; stroke-width: 1; opacity: 1;"></line><line transform="translate(0,218)" x2="400" y2="0" style="fill: none; stroke: #ddd; stroke-width: 1; opacity: 1;"></line><line transform="translate(0,191)" x2="400" y2="0" style="fill: none; stroke: #ddd; stroke-width: 1; opacity: 1;"></line><line transform="translate(0,164)" x2="400" y2="0" style="fill: none; stroke: #ddd; stroke-width: 1; opacity: 1;"></line><line transform="translate(0,136)" x2="400" y2="0" style="fill: none; stroke: #ddd; stroke-width: 1; opacity: 1;"></line><line transform="translate(0,109)" x2="400" y2="0" style="fill: none; stroke: #ddd; stroke-width: 1; opacity: 1;"></line><line transform="translate(0,82)" x2="400" y2="0" style="fill: none; stroke: #ddd; stroke-width: 1; opacity: 1;"></line><line transform="translate(0,55)" x2="400" y2="0" style="fill: none; stroke: #ddd; stroke-width: 1; opacity: 1;"></line><line transform="translate(0,27)" x2="400" y2="0" style="fill: none; stroke: #ddd; stroke-width: 1; opacity: 1;"></line><line transform="translate(0,0)" x2="400" y2="0" style="fill: none; stroke: #ddd; stroke-width: 1; opacity: 1;"></line></g></g></g></g><g class="mark-group role-scope pathgroup"><g transform="translate(0,0)"><path class="background" d="M0,0h400v300h-400Z" style="fill: none;"></path><g><g class="mark-line role-mark marks"><path d="M400,21.16572417913744C356.04395604395603,94.28727143676629,312.08791208791206,167.40881869439514,268.1318681318681,167.40881869439514C222.7106227106227,167.40881869439514,177.28937728937726,153.2581925635353,131.86813186813185,153.2581925635353C87.91208791208791,153.2581925635353,43.95604395604395,158.44727809994947,0,163.63636363636365" style="fill: none; stroke: #f58518; stroke-width: 3;"></path></g></g></g><g transform="translate(0,0)"><path class="background" d="M0,0h400v300h-400Z" style="fill: none;"></path><g><g class="mark-line role-mark marks"><path d="M400,199.94946337255482C356.04395604395603,200.2122722588899,312.08791208791206,200.47508114522498,268.1318681318681,200.47508114522498C222.7106227106227,200.47508114522498,177.28937728937726,179.13860983996838,131.86813186813185,172.99548557832273C87.91208791208791,167.05052661543982,43.95604395604395,165.34344512590175,0,163.63636363636365" style="fill: none; stroke: #4c78a8; stroke-width: 3;"></path></g></g></g><g transform="translate(0,0)"><path class="background" d="M0,0h400v300h-400Z" style="fill: none;"></path><g><g class="mark-line role-mark marks"><path d="M400,267.6762835137341C356.04395604395603,250.45478533047824,312.08791208791206,233.2332871472224,268.1318681318681,214.60715706775656C222.7106227106227,195.36015598564188,177.28937728937726,153.8664843719508,131.86813186813185,153.8664843719508C87.91208791208791,153.8664843719508,43.95604395604395,158.75142400415723,0,163.63636363636365" style="fill: none; stroke: #72b7b2; stroke-width: 3;"></path></g></g></g><g transform="translate(0,0)"><path class="background" d="M0,0h400v300h-400Z" style="fill: none;"></path><g><g class="mark-line role-mark marks"><path d="M400,248.94574698612055C356.04395604395603,234.48352582698257,312.08791208791206,220.02130466784456,268.1318681318681,206.26418289877085C222.7106227106227,192.04849040406137,177.28937728937726,166.14693192623366,131.86813186813185,165.122884334313C87.91208791208791,164.1318705356801,43.95604395604395,163.8841170860219,0,163.63636363636365" style="fill: none; stroke: #e45756; stroke-width: 3;"></path></g></g></g><g transform="translate(0,0)"><path class="background" d="M0,0h400v300h-400Z" style="fill: none;"></path><g><g class="mark-line role-mark marks"><path d="M400,259.76107400678575C356.04395604395603,268.6379365897401,312.08791208791206,277.51479917269444,268.1318681318681,277.51479917269444C222.7106227106227,277.51479917269444,177.28937728937726,211.85310214748839,131.86813186813185,192.85980129505165C87.91208791208791,174.47918756688708,43.95604395604395,169.05777560162537,0,163.63636363636365" style="fill: none; stroke: #54a24b; stroke-width: 3;"></path></g></g></g></g><g class="mark-group role-legend"><g transform="translate(421,0)"><path class="background" d="M0,0h234v95h-234Z" style="pointer-events: none; fill: none;"></path><g><g class="mark-group role-legend-entry"><g transform="translate(0,18)"><path class="background" d="M0,0h0v0h0Z" style="pointer-events: none; fill: none;"></path><g><g class="mark-group role-scope"><g transform="translate(0,0)"><path class="background" d="M0,0h234v13h-234Z" style="pointer-events: none; fill: none; opacity: 1;"></path><g><g class="mark-symbol role-legend-symbol" style="pointer-events: none;"><path transform="translate(6,6)" d="M5,0A5,5,0,1,1,-5,0A5,5,0,1,1,5,0" style="fill: none; stroke: #4c78a8; stroke-width: 1.5; opacity: 1;"></path></g><g class="mark-text role-legend-label" style="pointer-events: none;"><text text-anchor="start" transform="translate(16,10)" style="font-family: sans-serif; font-size: 12px; fill: #000; opacity: 1;">Facebook</text></g></g></g><g transform="translate(0,16)"><path class="background" d="M0,0h234v13h-234Z" style="pointer-events: none; fill: none; opacity: 1;"></path><g><g class="mark-symbol role-legend-symbol" style="pointer-events: none;"><path transform="translate(6,6)" d="M5,0A5,5,0,1,1,-5,0A5,5,0,1,1,5,0" style="fill: none; stroke: #f58518; stroke-width: 1.5; opacity: 1;"></path></g><g class="mark-text role-legend-label" style="pointer-events: none;"><text text-anchor="start" transform="translate(16,10)" style="font-family: sans-serif; font-size: 12px; fill: #000; opacity: 1;">Google</text></g></g></g><g transform="translate(0,32)"><path class="background" d="M0,0h234v13h-234Z" style="pointer-events: none; fill: none; opacity: 1;"></path><g><g class="mark-symbol role-legend-symbol" style="pointer-events: none;"><path transform="translate(6,6)" d="M5,0A5,5,0,1,1,-5,0A5,5,0,1,1,5,0" style="fill: none; stroke: #e45756; stroke-width: 1.5; opacity: 1;"></path></g><g class="mark-text role-legend-label" style="pointer-events: none;"><text text-anchor="start" transform="translate(16,10)" style="font-family: sans-serif; font-size: 12px; fill: #000; opacity: 1;">Smaller Advertisers (rank: 100-150)</text></g></g></g><g transform="translate(0,48)"><path class="background" d="M0,0h234v13h-234Z" style="pointer-events: none; fill: none; opacity: 1;"></path><g><g class="mark-symbol role-legend-symbol" style="pointer-events: none;"><path transform="translate(6,6)" d="M5,0A5,5,0,1,1,-5,0A5,5,0,1,1,5,0" style="fill: none; stroke: #72b7b2; stroke-width: 1.5; opacity: 1;"></path></g><g class="mark-text role-legend-label" style="pointer-events: none;"><text text-anchor="start" transform="translate(16,10)" style="font-family: sans-serif; font-size: 12px; fill: #000; opacity: 1;">Smaller Advertisers (rank: 50-100)</text></g></g></g><g transform="translate(0,64)"><path class="background" d="M0,0h234v13h-234Z" style="pointer-events: none; fill: none; opacity: 1;"></path><g><g class="mark-symbol role-legend-symbol" style="pointer-events: none;"><path transform="translate(6,6)" d="M5,0A5,5,0,1,1,-5,0A5,5,0,1,1,5,0" style="fill: none; stroke: #54a24b; stroke-width: 1.5; opacity: 1;"></path></g><g class="mark-text role-legend-label" style="pointer-events: none;"><text text-anchor="start" transform="translate(16,10)" style="font-family: sans-serif; font-size: 12px; fill: #000; opacity: 1;">Smallest Advertisers (rank: &lt;150)</text></g></g></g></g></g></g></g><g class="mark-text role-legend-title" style="pointer-events: none;"><text text-anchor="start" transform="translate(0,10)" style="font-family: sans-serif; font-size: 13px; font-weight: bold; fill: #000; opacity: 1;">Company</text></g></g></g></g><g class="mark-text role-title" style="pointer-events: none;"><text text-anchor="middle" transform="translate(298.5,-14)" style="font-family: sans-serif; font-size: 13px; font-weight: bold; fill: #000; opacity: 1;">Advertisers: market share</text></g><g class="mark-group role-axis"><g transform="translate(0.5,300.5)"><path class="background" d="M0,0h0v0h0Z" style="pointer-events: none; fill: none;"></path><g><g class="mark-rule role-axis-tick" style="pointer-events: none;"><line transform="translate(30,0)" x2="0" y2="5" style="fill: none; stroke: #888; stroke-width: 1; opacity: 1;"></line><line transform="translate(61,0)" x2="0" y2="5" style="fill: none; stroke: #888; stroke-width: 1; opacity: 1;"></line><line transform="translate(92,0)" x2="0" y2="5" style="fill: none; stroke: #888; stroke-width: 1; opacity: 1;"></line><line transform="translate(123,0)" x2="0" y2="5" style="fill: none; stroke: #888; stroke-width: 1; opacity: 1;"></line><line transform="translate(153,0)" x2="0" y2="5" style="fill: none; stroke: #888; stroke-width: 1; opacity: 1;"></line><line transform="translate(184,0)" x2="0" y2="5" style="fill: none; stroke: #888; stroke-width: 1; opacity: 1;"></line><line transform="translate(215,0)" x2="0" y2="5" style="fill: none; stroke: #888; stroke-width: 1; opacity: 1;"></line><line transform="translate(246,0)" x2="0" y2="5" style="fill: none; stroke: #888; stroke-width: 1; opacity: 1;"></line><line transform="translate(277,0)" x2="0" y2="5" style="fill: none; stroke: #888; stroke-width: 1; opacity: 1;"></line><line transform="translate(307,0)" x2="0" y2="5" style="fill: none; stroke: #888; stroke-width: 1; opacity: 1;"></line><line transform="translate(338,0)" x2="0" y2="5" style="fill: none; stroke: #888; stroke-width: 1; opacity: 1;"></line><line transform="translate(369,0)" x2="0" y2="5" style="fill: none; stroke: #888; stroke-width: 1; opacity: 1;"></line><line transform="translate(400,0)" x2="0" y2="5" style="fill: none; stroke: #888; stroke-width: 1; opacity: 1;"></line></g><g class="mark-text role-axis-label" style="pointer-events: none;"><text text-anchor="middle" transform="translate(30.4029304029304,16)" style="font-family: sans-serif; font-size: 12px; fill: #000; opacity: 1;">Apr 08</text><text text-anchor="middle" transform="translate(61.172161172161175,16)" style="font-family: sans-serif; font-size: 12px; fill: #000; opacity: 0;">Apr 15</text><text text-anchor="middle" transform="translate(91.94139194139194,16)" style="font-family: sans-serif; font-size: 12px; fill: #000; opacity: 1;">Apr 22</text><text text-anchor="middle" transform="translate(122.71062271062272,16)" style="font-family: sans-serif; font-size: 12px; fill: #000; opacity: 0;">Apr 29</text><text text-anchor="middle" transform="translate(153.4798534798535,16)" style="font-family: sans-serif; font-size: 12px; fill: #000; opacity: 1;">May 06</text><text text-anchor="middle" transform="translate(184.24908424908423,16)" style="font-family: sans-serif; font-size: 12px; fill: #000; opacity: 0;">May 13</text><text text-anchor="middle" transform="translate(215.018315018315,16)" style="font-family: sans-serif; font-size: 12px; fill: #000; opacity: 1;">May 20</text><text text-anchor="middle" transform="translate(245.7875457875458,16)" style="font-family: sans-serif; font-size: 12px; fill: #000; opacity: 0;">May 27</text><text text-anchor="middle" transform="translate(276.5567765567765,16)" style="font-family: sans-serif; font-size: 12px; fill: #000; opacity: 1;">Jun 03</text><text text-anchor="middle" transform="translate(307.32600732600736,16)" style="font-family: sans-serif; font-size: 12px; fill: #000; opacity: 0;">Jun 10</text><text text-anchor="middle" transform="translate(338.0952380952381,16)" style="font-family: sans-serif; font-size: 12px; fill: #000; opacity: 1;">Jun 17</text><text text-anchor="middle" transform="translate(368.8644688644689,16)" style="font-family: sans-serif; font-size: 12px; fill: #000; opacity: 0;">Jun 24</text><text text-anchor="end" transform="translate(399.6336996336996,16)" style="font-family: sans-serif; font-size: 12px; fill: #000; opacity: 1;">July</text></g><g class="mark-rule role-axis-domain" style="pointer-events: none;"><line transform="translate(0,0)" x2="400" y2="0" style="fill: none; stroke: #888; stroke-width: 1; opacity: 1;"></line></g><g class="mark-text role-axis-title" style="pointer-events: none;"><text text-anchor="middle" transform="translate(200,33)" style="font-family: sans-serif; font-size: 13px; font-weight: bold; fill: #000; opacity: 1;">month</text></g></g></g></g><g class="mark-group role-axis"><g transform="translate(0.5,0.5)"><path class="background" d="M0,0h0v0h0Z" style="pointer-events: none; fill: none;"></path><g><g class="mark-rule role-axis-tick" style="pointer-events: none;"><line transform="translate(0,300)" x2="-5" y2="0" style="fill: none; stroke: #888; stroke-width: 1; opacity: 1;"></line><line transform="translate(0,273)" x2="-5" y2="0" style="fill: none; stroke: #888; stroke-width: 1; opacity: 1;"></line><line transform="translate(0,245)" x2="-5" y2="0" style="fill: none; stroke: #888; stroke-width: 1; opacity: 1;"></line><line transform="translate(0,218)" x2="-5" y2="0" style="fill: none; stroke: #888; stroke-width: 1; opacity: 1;"></line><line transform="translate(0,191)" x2="-5" y2="0" style="fill: none; stroke: #888; stroke-width: 1; opacity: 1;"></line><line transform="translate(0,164)" x2="-5" y2="0" style="fill: none; stroke: #888; stroke-width: 1; opacity: 1;"></line><line transform="translate(0,136)" x2="-5" y2="0" style="fill: none; stroke: #888; stroke-width: 1; opacity: 1;"></line><line transform="translate(0,109)" x2="-5" y2="0" style="fill: none; stroke: #888; stroke-width: 1; opacity: 1;"></line><line transform="translate(0,82)" x2="-5" y2="0" style="fill: none; stroke: #888; stroke-width: 1; opacity: 1;"></line><line transform="translate(0,55)" x2="-5" y2="0" style="fill: none; stroke: #888; stroke-width: 1; opacity: 1;"></line><line transform="translate(0,27)" x2="-5" y2="0" style="fill: none; stroke: #888; stroke-width: 1; opacity: 1;"></line><line transform="translate(0,0)" x2="-5" y2="0" style="fill: none; stroke: #888; stroke-width: 1; opacity: 1;"></line></g><g class="mark-text role-axis-label" style="pointer-events: none;"><text text-anchor="end" transform="translate(-7,304)" style="font-family: sans-serif; font-size: 12px; fill: #000; opacity: 1;">-25%</text><text text-anchor="end" transform="translate(-7,276.72727272727275)" style="font-family: sans-serif; font-size: 12px; fill: #000; opacity: 1;">-20%</text><text text-anchor="end" transform="translate(-7,249.45454545454544)" style="font-family: sans-serif; font-size: 12px; fill: #000; opacity: 1;">-15%</text><text text-anchor="end" transform="translate(-7,222.1818181818182)" style="font-family: sans-serif; font-size: 12px; fill: #000; opacity: 1;">-10%</text><text text-anchor="end" transform="translate(-7,194.9090909090909)" style="font-family: sans-serif; font-size: 12px; fill: #000; opacity: 1;">-5%</text><text text-anchor="end" transform="translate(-7,167.63636363636365)" style="font-family: sans-serif; font-size: 12px; fill: #000; opacity: 1;">0%</text><text text-anchor="end" transform="translate(-7,140.36363636363637)" style="font-family: sans-serif; font-size: 12px; fill: #000; opacity: 1;">5%</text><text text-anchor="end" transform="translate(-7,113.09090909090912)" style="font-family: sans-serif; font-size: 12px; fill: #000; opacity: 1;">10%</text><text text-anchor="end" transform="translate(-7,85.81818181818181)" style="font-family: sans-serif; font-size: 12px; fill: #000; opacity: 1;">15%</text><text text-anchor="end" transform="translate(-7,58.54545454545456)" style="font-family: sans-serif; font-size: 12px; fill: #000; opacity: 1;">20%</text><text text-anchor="end" transform="translate(-7,31.27272727272731)" style="font-family: sans-serif; font-size: 12px; fill: #000; opacity: 1;">25%</text><text text-anchor="end" transform="translate(-7,4)" style="font-family: sans-serif; font-size: 12px; fill: #000; opacity: 1;">30%</text></g><g class="mark-rule role-axis-domain" style="pointer-events: none;"><line transform="translate(0,300)" x2="0" y2="-300" style="fill: none; stroke: #888; stroke-width: 1; opacity: 1;"></line></g><g class="mark-text role-axis-title" style="pointer-events: none;"><text text-anchor="middle" transform="translate(-43,150) rotate(-90) translate(0,-3)" style="font-family: sans-serif; font-size: 13px; font-weight: bold; fill: #000; opacity: 1;">Site Reach Change</text></g></g></g></g></g></g></g></g></svg>