<svg class="marks" width="525" height="366" viewBox="0 0 525 366" version="1.1" xmlns="http://www.w3.org/2000/svg" xmlns:xlink="http://www.w3.org/1999/xlink"><g transform="translate(55,23)"><g class="mark-group role-frame root"><g transform="translate(0,0)"><path class="background" d="M0.5,0.5h400v300h-400Z" style="fill: none; stroke: #ddd;"></path><g><g class="mark-group role-axis"><g transform="translate(0.5,300.5)"><path class="background" d="M0,0h0v0h0Z" style="pointer-events: none; fill: none;"></path><g><g class="mark-rule role-axis-grid" style="pointer-events: none;"><line transform="translate(24,-300)" x2="0" y2="300" style="fill: none; stroke: #999; stroke-width: 0.5; opacity: 1;"></line><line transform="translate(141,-300)" x2="0" y2="300" style="fill: none; stroke: #999; stroke-width: 0.5; opacity: 1;"></line><line transform="translate(259,-300)" x2="0" y2="300" style="fill: none; stroke: #999; stroke-width: 0.5; opacity: 1;"></line><line transform="translate(376,-300)" x2="0" y2="300" style="fill: none; stroke: #999; stroke-width: 0.5; opacity: 1;"></line></g></g></g></g><g class="mark-group role-axis"><g transform="translate(0.5,0.5)"><path class="background" d="M0,0h0v0h0Z" style="pointer-events: none; fill: none;"></path><g><g class="mark-rule role-axis-grid" style="pointer-events: none;"><line transform="translate(0,300)" x2="400" y2="0" style="fill: none; stroke: #999; stroke-width: 0.5; opacity: 1;"></line><line transform="translate(0,254)" x2="400" y2="0" style="fill: none; stroke: #999; stroke-width: 0.5; opacity: 1;"></line><line transform="translate(0,208)" x2="400" y2="0" style="fill: none; stroke: #999; stroke-width: 0.5; opacity: 1;"></line><line transform="translate(0,162)" x2="400" y2="0" style="fill: none; stroke: #999; stroke-width: 0.5; opacity: 1;"></line><line transform="translate(0,115)" x2="400" y2="0" style="fill: none; stroke: #999; stroke-width: 0.5; opacity: 1;"></line><line transform="translate(0,69)" x2="400" y2="0" style="fill: none; stroke: #999; stroke-width: 0.5; opacity: 1;"></line><line transform="translate(0,23)" x2="400" y2="0" style="fill: none; stroke: #999; stroke-width: 0.5; opacity: 1;"></line></g></g></g></g><g class="mark-group role-scope pathgroup"><g transform="translate(0,0)"><path class="background" d="M0,0h400v300h-400Z" style="fill: none;"></path><g><g class="mark-area role-mark marks"><path d="M376.47058823529414,286.2478253420128L258.8235294117647,271.3885834937357L141.17647058823528,219.7309666287434L23.529411764705856,207.69230769230768L23.529411764705856,207.69230769230768L141.17647058823528,207.69230769230768L258.8235294117647,207.69230769230768L376.47058823529414,207.69230769230768Z" style="fill: #4c78a8; opacity: 0.5;"></path></g></g></g><g transform="translate(0,0)"><path class="background" d="M0,0h400v300h-400Z" style="fill: none;"></path><g><g class="mark-area role-mark marks"><path d="M376.47058823529414,16.335490550004977L258.8235294117647,86.22018763566649L141.17647058823528,119.36456968411045L23.529411764705856,207.69230769230768L23.529411764705856,207.69230769230768L141.17647058823528,207.69230769230768L258.8235294117647,207.69230769230768L376.47058823529414,207.69230769230768Z" style="fill: #f58518; opacity: 0.5;"></path></g></g></g></g><g class="mark-group role-legend"><g transform="translate(418,0)"><path class="background" d="M0,0h47v47h-47Z" style="pointer-events: none; fill: none;"></path><g><g class="mark-group role-legend-entry"><g transform="translate(0,18)"><path class="background" d="M0,0h0v0h0Z" style="pointer-events: none; fill: none;"></path><g><g class="mark-group role-scope"><g transform="translate(0,0)"><path class="background" d="M0,0h34v13h-34Z" style="pointer-events: none; fill: none; opacity: 1;"></path><g><g class="mark-symbol role-legend-symbol" style="pointer-events: none;"><path transform="translate(6,6)" d="M5,0A5,5,0,1,1,-5,0A5,5,0,1,1,5,0" style="fill: #4c78a8; stroke-width: 1.5; opacity: 0.5;"></path></g><g class="mark-text role-legend-label" style="pointer-events: none;"><text text-anchor="start" transform="translate(16,10)" style="font-family: sans-serif; font-size: 12px; fill: #000; opacity: 1;">EU</text></g></g></g><g transform="translate(0,16)"><path class="background" d="M0,0h34v13h-34Z" style="pointer-events: none; fill: none; opacity: 1;"></path><g><g class="mark-symbol role-legend-symbol" style="pointer-events: none;"><path transform="translate(6,6)" d="M5,0A5,5,0,1,1,-5,0A5,5,0,1,1,5,0" style="fill: #f58518; stroke-width: 1.5; opacity: 0.5;"></path></g><g class="mark-text role-legend-label" style="pointer-events: none;"><text text-anchor="start" transform="translate(16,10)" style="font-family: sans-serif; font-size: 12px; fill: #000; opacity: 1;">US</text></g></g></g></g></g></g></g><g class="mark-text role-legend-title" style="pointer-events: none;"><text text-anchor="start" transform="translate(0,10)" style="font-family: sans-serif; font-size: 13px; font-weight: bold; fill: #000; opacity: 1;">region</text></g></g></g></g><g class="mark-text role-title" style="pointer-events: none;"><text text-anchor="middle" transform="translate(207.5,-7)" style="font-family: sans-serif; font-size: 13px; font-weight: bold; fill: #000; opacity: 1;">Avg. Trackers per page by region (% change)</text></g><g class="mark-group role-axis"><g transform="translate(0.5,300.5)"><path class="background" d="M0,0h0v0h0Z" style="pointer-events: none; fill: none;"></path><g><g class="mark-rule role-axis-tick" style="pointer-events: none;"><line transform="translate(24,0)" x2="0" y2="5" style="fill: none; stroke: #888; stroke-width: 1; opacity: 1;"></line><line transform="translate(141,0)" x2="0" y2="5" style="fill: none; stroke: #888; stroke-width: 1; opacity: 1;"></line><line transform="translate(259,0)" x2="0" y2="5" style="fill: none; stroke: #888; stroke-width: 1; opacity: 1;"></line><line transform="translate(376,0)" x2="0" y2="5" style="fill: none; stroke: #888; stroke-width: 1; opacity: 1;"></line></g><g class="mark-text role-axis-label" style="pointer-events: none;"><text text-anchor="middle" transform="translate(23.529411764705856,16)" style="font-family: sans-serif; font-size: 12px; fill: #000; opacity: 1;">2018-04</text><text text-anchor="middle" transform="translate(141.17647058823528,16)" style="font-family: sans-serif; font-size: 12px; fill: #000; opacity: 1;">2018-05</text><text text-anchor="middle" transform="translate(258.8235294117647,16)" style="font-family: sans-serif; font-size: 12px; fill: #000; opacity: 1;">2018-06</text><text text-anchor="middle" transform="translate(376.47058823529414,16)" style="font-family: sans-serif; font-size: 12px; fill: #000; opacity: 1;">2018-07</text></g><g class="mark-rule role-axis-domain" style="pointer-events: none;"><line transform="translate(0,0)" x2="400" y2="0" style="fill: none; stroke: #888; stroke-width: 0.5; opacity: 1;"></line></g><g class="mark-text role-axis-title" style="pointer-events: none;"><text text-anchor="middle" transform="translate(200,33)" style="font-family: sans-serif; font-size: 13px; font-weight: bold; fill: #000; opacity: 1;">month</text></g></g></g></g><g class="mark-group role-axis"><g transform="translate(0.5,0.5)"><path class="background" d="M0,0h0v0h0Z" style="pointer-events: none; fill: none;"></path><g><g class="mark-rule role-axis-tick" style="pointer-events: none;"><line transform="translate(0,300)" x2="-5" y2="0" style="fill: none; stroke: #888; stroke-width: 1; opacity: 1;"></line><line transform="translate(0,254)" x2="-5" y2="0" style="fill: none; stroke: #888; stroke-width: 1; opacity: 1;"></line><line transform="translate(0,208)" x2="-5" y2="0" style="fill: none; stroke: #888; stroke-width: 1; opacity: 1;"></line><line transform="translate(0,162)" x2="-5" y2="0" style="fill: none; stroke: #888; stroke-width: 1; opacity: 1;"></line><line transform="translate(0,115)" x2="-5" y2="0" style="fill: none; stroke: #888; stroke-width: 1; opacity: 1;"></line><line transform="translate(0,69)" x2="-5" y2="0" style="fill: none; stroke: #888; stroke-width: 1; opacity: 1;"></line><line transform="translate(0,23)" x2="-5" y2="0" style="fill: none; stroke: #888; stroke-width: 1; opacity: 1;"></line></g><g class="mark-text role-axis-label" style="pointer-events: none;"><text text-anchor="end" transform="translate(-7,304)" style="font-family: sans-serif; font-size: 12px; fill: #000; opacity: 1;">-4%</text><text text-anchor="end" transform="translate(-7,257.8461538461538)" style="font-family: sans-serif; font-size: 12px; fill: #000; opacity: 1;">-2%</text><text text-anchor="end" transform="translate(-7,211.69230769230768)" style="font-family: sans-serif; font-size: 12px; fill: #000; opacity: 1;">0%</text><text text-anchor="end" transform="translate(-7,165.53846153846155)" style="font-family: sans-serif; font-size: 12px; fill: #000; opacity: 1;">2%</text><text text-anchor="end" transform="translate(-7,119.38461538461539)" style="font-family: sans-serif; font-size: 12px; fill: #000; opacity: 1;">4%</text><text text-anchor="end" transform="translate(-7,73.23076923076923)" style="font-family: sans-serif; font-size: 12px; fill: #000; opacity: 1;">6%</text><text text-anchor="end" transform="translate(-7,27.076923076923094)" style="font-family: sans-serif; font-size: 12px; fill: #000; opacity: 1;">8%</text></g><g class="mark-rule role-axis-domain" style="pointer-events: none;"><line transform="translate(0,300)" x2="0" y2="-300" style="fill: none; stroke: #888; stroke-width: 0.5; opacity: 1;"></line></g><g class="mark-text role-axis-title" style="pointer-events: none;"><text text-anchor="middle" transform="translate(-35,150) rotate(-90) translate(0,-3)" style="font-family: sans-serif; font-size: 13px; font-weight: bold; fill: #000; opacity: 1;">% change in mean number of trackers</text></g></g></g></g></g></g></g></g></svg>