<svg class="marks" width="475" height="216" viewBox="0 0 475 216" version="1.1" xmlns="http://www.w3.org/2000/svg" xmlns:xlink="http://www.w3.org/1999/xlink"><g transform="translate(60,23)"><g class="mark-group role-frame root"><g transform="translate(0,0)"><path class="background" d="M0.5,0.5h400v150h-400Z" style="fill: none; stroke: #ddd;"></path><g><g class="mark-group role-axis"><g transform="translate(0.5,150.5)"><path class="background" d="M0,0h0v0h0Z" style="pointer-events: none; fill: none;"></path><g><g class="mark-rule role-axis-grid" style="pointer-events: none;"><line transform="translate(0,0)" x2="0" y2="-150" style="fill: none; stroke: #ddd; stroke-width: 1; opacity: 1;"></line><line transform="translate(31,0)" x2="0" y2="-150" style="fill: none; stroke: #ddd; stroke-width: 1; opacity: 1;"></line><line transform="translate(62,0)" x2="0" y2="-150" style="fill: none; stroke: #ddd; stroke-width: 1; opacity: 1;"></line><line transform="translate(92,0)" x2="0" y2="-150" style="fill: none; stroke: #ddd; stroke-width: 1; opacity: 1;"></line><line transform="translate(123,0)" x2="0" y2="-150" style="fill: none; stroke: #ddd; stroke-width: 1; opacity: 1;"></line><line transform="translate(154,0)" x2="0" y2="-150" style="fill: none; stroke: #ddd; stroke-width: 1; opacity: 1;"></line><line transform="translate(185,0)" x2="0" y2="-150" style="fill: none; stroke: #ddd; stroke-width: 1; opacity: 1;"></line><line transform="translate(215,0)" x2="0" y2="-150" style="fill: none; stroke: #ddd; stroke-width: 1; opacity: 1;"></line><line transform="translate(246,0)" x2="0" y2="-150" style="fill: none; stroke: #ddd; stroke-width: 1; opacity: 1;"></line><line transform="translate(277,0)" x2="0" y2="-150" style="fill: none; stroke: #ddd; stroke-width: 1; opacity: 1;"></line><line transform="translate(308,0)" x2="0" y2="-150" style="fill: none; stroke: #ddd; stroke-width: 1; opacity: 1;"></line><line transform="translate(338,0)" x2="0" y2="-150" style="fill: none; stroke: #ddd; stroke-width: 1; opacity: 1;"></line><line transform="translate(369,0)" x2="0" y2="-150" style="fill: none; stroke: #ddd; stroke-width: 1; opacity: 1;"></line><line transform="translate(400,0)" x2="0" y2="-150" style="fill: none; stroke: #ddd; stroke-width: 1; opacity: 1;"></line></g></g></g></g><g class="mark-rect role-mark marks"><path d="M0,51.25h260.7393121562813v22.5h-260.7393121562813Z" style="fill: #4c78a8;"></path><path d="M0,1.25h208.62077321122956v22.5h-208.62077321122956Z" style="fill: #4c78a8;"></path><path d="M0,126.25h377.85067453007923v22.5h-377.85067453007923Z" style="fill: #4c78a8;"></path><path d="M0,26.25h319.7904457746978v22.5h-319.7904457746978Z" style="fill: #4c78a8;"></path><path d="M0,101.25h223.23673225998812v22.5h-223.23673225998812Z" style="fill: #4c78a8;"></path><path d="M0,76.25h248.72267953448764v22.5h-248.72267953448764Z" style="fill: #4c78a8;"></path></g><g class="mark-text role-title" style="pointer-events: none;"><text text-anchor="middle" transform="translate(177.32666015625,-7)" style="font-family: sans-serif; font-size: 13px; font-weight: bold; fill: #000; opacity: 1;">Government Websites</text></g><g class="mark-group role-axis"><g transform="translate(0.5,150.5)"><path class="background" d="M0,0h0v0h0Z" style="pointer-events: none; fill: none;"></path><g><g class="mark-rule role-axis-tick" style="pointer-events: none;"><line transform="translate(0,0)" x2="0" y2="5" style="fill: none; stroke: #888; stroke-width: 1; opacity: 1;"></line><line transform="translate(31,0)" x2="0" y2="5" style="fill: none; stroke: #888; stroke-width: 1; opacity: 1;"></line><line transform="translate(62,0)" x2="0" y2="5" style="fill: none; stroke: #888; stroke-width: 1; opacity: 1;"></line><line transform="translate(92,0)" x2="0" y2="5" style="fill: none; stroke: #888; stroke-width: 1; opacity: 1;"></line><line transform="translate(123,0)" x2="0" y2="5" style="fill: none; stroke: #888; stroke-width: 1; opacity: 1;"></line><line transform="translate(154,0)" x2="0" y2="5" style="fill: none; stroke: #888; stroke-width: 1; opacity: 1;"></line><line transform="translate(185,0)" x2="0" y2="5" style="fill: none; stroke: #888; stroke-width: 1; opacity: 1;"></line><line transform="translate(215,0)" x2="0" y2="5" style="fill: none; stroke: #888; stroke-width: 1; opacity: 1;"></line><line transform="translate(246,0)" x2="0" y2="5" style="fill: none; stroke: #888; stroke-width: 1; opacity: 1;"></line><line transform="translate(277,0)" x2="0" y2="5" style="fill: none; stroke: #888; stroke-width: 1; opacity: 1;"></line><line transform="translate(308,0)" x2="0" y2="5" style="fill: none; stroke: #888; stroke-width: 1; opacity: 1;"></line><line transform="translate(338,0)" x2="0" y2="5" style="fill: none; stroke: #888; stroke-width: 1; opacity: 1;"></line><line transform="translate(369,0)" x2="0" y2="5" style="fill: none; stroke: #888; stroke-width: 1; opacity: 1;"></line><line transform="translate(400,0)" x2="0" y2="5" style="fill: none; stroke: #888; stroke-width: 1; opacity: 1;"></line></g><g class="mark-text role-axis-label" style="pointer-events: none;"><text text-anchor="middle" transform="translate(0,16)" style="font-family: sans-serif; font-size: 12px; fill: #000; opacity: 1;">0.0</text><text text-anchor="middle" transform="translate(30.76923076923077,16)" style="font-family: sans-serif; font-size: 12px; fill: #000; opacity: 1;">0.2</text><text text-anchor="middle" transform="translate(61.53846153846154,16)" style="font-family: sans-serif; font-size: 12px; fill: #000; opacity: 1;">0.4</text><text text-anchor="middle" transform="translate(92.3076923076923,16)" style="font-family: sans-serif; font-size: 12px; fill: #000; opacity: 1;">0.6</text><text text-anchor="middle" transform="translate(123.07692307692308,16)" style="font-family: sans-serif; font-size: 12px; fill: #000; opacity: 1;">0.8</text><text text-anchor="middle" transform="translate(153.84615384615384,16)" style="font-family: sans-serif; font-size: 12px; fill: #000; opacity: 1;">1.0</text><text text-anchor="middle" transform="translate(184.6153846153846,16)" style="font-family: sans-serif; font-size: 12px; fill: #000; opacity: 1;">1.2</text><text text-anchor="middle" transform="translate(215.3846153846154,16)" style="font-family: sans-serif; font-size: 12px; fill: #000; opacity: 1;">1.4</text><text text-anchor="middle" transform="translate(246.15384615384616,16)" style="font-family: sans-serif; font-size: 12px; fill: #000; opacity: 1;">1.6</text><text text-anchor="middle" transform="translate(276.9230769230769,16)" style="font-family: sans-serif; font-size: 12px; fill: #000; opacity: 1;">1.8</text><text text-anchor="middle" transform="translate(307.6923076923077,16)" style="font-family: sans-serif; font-size: 12px; fill: #000; opacity: 1;">2.0</text><text text-anchor="middle" transform="translate(338.46153846153845,16)" style="font-family: sans-serif; font-size: 12px; fill: #000; opacity: 1;">2.2</text><text text-anchor="middle" transform="translate(369.2307692307692,16)" style="font-family: sans-serif; font-size: 12px; fill: #000; opacity: 1;">2.4</text><text text-anchor="middle" transform="translate(400,16)" style="font-family: sans-serif; font-size: 12px; fill: #000; opacity: 1;">2.6</text></g><g class="mark-rule role-axis-domain" style="pointer-events: none;"><line transform="translate(0,0)" x2="400" y2="0" style="fill: none; stroke: #888; stroke-width: 1; opacity: 1;"></line></g><g class="mark-text role-axis-title" style="pointer-events: none;"><text text-anchor="middle" transform="translate(200,33)" style="font-family: sans-serif; font-size: 13px; font-weight: bold; fill: #000; opacity: 1;">Average no. of Trackers</text></g></g></g></g><g class="mark-group role-axis"><g transform="translate(0.5,0.5)"><path class="background" d="M0,0h0v0h0Z" style="pointer-events: none; fill: none;"></path><g><g class="mark-rule role-axis-tick" style="pointer-events: none;"><line transform="translate(0,12)" x2="-5" y2="0" style="fill: none; stroke: #888; stroke-width: 1; opacity: 1;"></line><line transform="translate(0,37)" x2="-5" y2="0" style="fill: none; stroke: #888; stroke-width: 1; opacity: 1;"></line><line transform="translate(0,62)" x2="-5" y2="0" style="fill: none; stroke: #888; stroke-width: 1; opacity: 1;"></line><line transform="translate(0,87)" x2="-5" y2="0" style="fill: none; stroke: #888; stroke-width: 1; opacity: 1;"></line><line transform="translate(0,112)" x2="-5" y2="0" style="fill: none; stroke: #888; stroke-width: 1; opacity: 1;"></line><line transform="translate(0,137)" x2="-5" y2="0" style="fill: none; stroke: #888; stroke-width: 1; opacity: 1;"></line></g><g class="mark-text role-axis-label" style="pointer-events: none;"><text text-anchor="end" transform="translate(-7,15.5)" style="font-family: sans-serif; font-size: 12px; fill: #000; opacity: 1;">Australia</text><text text-anchor="end" transform="translate(-7,40.5)" style="font-family: sans-serif; font-size: 12px; fill: #000; opacity: 1;">Europe</text><text text-anchor="end" transform="translate(-7,65.5)" style="font-family: sans-serif; font-size: 12px; fill: #000; opacity: 1;">France</text><text text-anchor="end" transform="translate(-7,90.5)" style="font-family: sans-serif; font-size: 12px; fill: #000; opacity: 1;">Russia</text><text text-anchor="end" transform="translate(-7,115.5)" style="font-family: sans-serif; font-size: 12px; fill: #000; opacity: 1;">UK</text><text text-anchor="end" transform="translate(-7,140.5)" style="font-family: sans-serif; font-size: 12px; fill: #000; opacity: 1;">US</text></g><g class="mark-rule role-axis-domain" style="pointer-events: none;"><line transform="translate(0,0)" x2="0" y2="150" style="fill: none; stroke: #888; stroke-width: 1; opacity: 1;"></line></g></g></g></g></g></g></g></g></svg>