<svg class="main-svg" xmlns="http://www.w3.org/2000/svg" xmlns:xlink="http://www.w3.org/1999/xlink" width="800" height="600" style="" viewBox="0 0 800 600"><rect x="0" y="0" width="800" height="600" style="fill: rgb(245, 246, 249); fill-opacity: 1;"/><defs id="defs-1047ef"><g class="clips"><clipPath id="clip1047efxyplot" class="plotclip"><rect width="640" height="420"/></clipPath><clipPath class="axesclip" id="clip1047efx"><rect x="80" y="0" width="640" height="600"/></clipPath><clipPath class="axesclip" id="clip1047efy"><rect x="0" y="100" width="800" height="420"/></clipPath><clipPath class="axesclip" id="clip1047efxy"><rect x="80" y="100" width="640" height="420"/></clipPath></g><g class="gradients"/></defs><g class="bglayer"><rect class="bg" x="80" y="100" width="640" height="420" style="fill: rgb(245, 246, 249); fill-opacity: 1; stroke-width: 0;"/></g><g class="layer-below"><g class="imagelayer"/><g class="shapelayer"/></g><g class="cartesianlayer"><g class="subplot xy"><g class="layer-subplot"><g class="shapelayer"/><g class="imagelayer"/></g><g class="gridlayer"><g class="x"><path class="xgrid crisp" d="M0,100v420" transform="translate(253.06,0)" style="stroke: rgb(225, 229, 237); stroke-opacity: 1; stroke-width: 1px;"/><path class="xgrid crisp" d="M0,100v420" transform="translate(389.75,0)" style="stroke: rgb(225, 229, 237); stroke-opacity: 1; stroke-width: 1px;"/><path class="xgrid crisp" d="M0,100v420" transform="translate(526.44,0)" style="stroke: rgb(225, 229, 237); stroke-opacity: 1; stroke-width: 1px;"/><path class="xgrid crisp" d="M0,100v420" transform="translate(663.12,0)" style="stroke: rgb(225, 229, 237); stroke-opacity: 1; stroke-width: 1px;"/></g><g class="y"><path class="ygrid crisp" d="M80,0h640" transform="translate(0,456.62)" style="stroke: rgb(225, 229, 237); stroke-opacity: 1; stroke-width: 1px;"/><path class="ygrid crisp" d="M80,0h640" transform="translate(0,382.29)" style="stroke: rgb(225, 229, 237); stroke-opacity: 1; stroke-width: 1px;"/><path class="ygrid crisp" d="M80,0h640" transform="translate(0,307.95)" style="stroke: rgb(225, 229, 237); stroke-opacity: 1; stroke-width: 1px;"/><path class="ygrid crisp" d="M80,0h640" transform="translate(0,233.61)" style="stroke: rgb(225, 229, 237); stroke-opacity: 1; stroke-width: 1px;"/><path class="ygrid crisp" d="M80,0h640" transform="translate(0,159.27)" style="stroke: rgb(225, 229, 237); stroke-opacity: 1; stroke-width: 1px;"/></g></g><g class="zerolinelayer"><path class="xzl zl crisp" d="M0,100v420" transform="translate(116.38,0)" style="stroke: rgb(225, 229, 237); stroke-opacity: 1; stroke-width: 1px;"/></g><path class="xlines-below"/><path class="ylines-below"/><g class="overlines-below"/><g class="xaxislayer-below"/><g class="yaxislayer-below"/><g class="overaxes-below"/><g class="plot" transform="translate(80, 100)" clip-path="url(#clip1047efxyplot)"><g class="scatterlayer mlayer"><g class="trace scatter trace371796" style="stroke-miterlimit: 2; opacity: 1;"><g class="points"><path class="point" transform="translate(36.38,384.39)" style="opacity: 1; stroke-width: 0px; fill: rgb(255, 153, 51); fill-opacity: 1;" d="M3.5,0A3.5,3.5 0 1,1 0,-3.5A3.5,3.5 0 0,1 3.5,0Z"/><path class="point" transform="translate(43.21,366.7)" style="opacity: 1; stroke-width: 0px; fill: rgb(255, 153, 51); fill-opacity: 1;" d="M3.5,0A3.5,3.5 0 1,1 0,-3.5A3.5,3.5 0 0,1 3.5,0Z"/><path class="point" transform="translate(50.04,394.63)" style="opacity: 1; stroke-width: 0px; fill: rgb(255, 153, 51); fill-opacity: 1;" d="M3.5,0A3.5,3.5 0 1,1 0,-3.5A3.5,3.5 0 0,1 3.5,0Z"/><path class="point" transform="translate(56.88,371.69)" style="opacity: 1; stroke-width: 0px; fill: rgb(255, 153, 51); fill-opacity: 1;" d="M3.5,0A3.5,3.5 0 1,1 0,-3.5A3.5,3.5 0 0,1 3.5,0Z"/><path class="point" transform="translate(63.71,390.58)" style="opacity: 1; stroke-width: 0px; fill: rgb(255, 153, 51); fill-opacity: 1;" d="M3.5,0A3.5,3.5 0 1,1 0,-3.5A3.5,3.5 0 0,1 3.5,0Z"/><path class="point" transform="translate(70.55,378.25)" style="opacity: 1; stroke-width: 0px; fill: rgb(255, 153, 51); fill-opacity: 1;" d="M3.5,0A3.5,3.5 0 1,1 0,-3.5A3.5,3.5 0 0,1 3.5,0Z"/><path class="point" transform="translate(77.38,369.35)" style="opacity: 1; stroke-width: 0px; fill: rgb(255, 153, 51); fill-opacity: 1;" d="M3.5,0A3.5,3.5 0 1,1 0,-3.5A3.5,3.5 0 0,1 3.5,0Z"/><path class="point" transform="translate(84.22,356.92)" style="opacity: 1; stroke-width: 0px; fill: rgb(255, 153, 51); fill-opacity: 1;" d="M3.5,0A3.5,3.5 0 1,1 0,-3.5A3.5,3.5 0 0,1 3.5,0Z"/><path class="point" transform="translate(91.05,367.55)" style="opacity: 1; stroke-width: 0px; fill: rgb(255, 153, 51); fill-opacity: 1;" d="M3.5,0A3.5,3.5 0 1,1 0,-3.5A3.5,3.5 0 0,1 3.5,0Z"/><path class="point" transform="translate(97.88,352.2)" style="opacity: 1; stroke-width: 0px; fill: rgb(255, 153, 51); fill-opacity: 1;" d="M3.5,0A3.5,3.5 0 1,1 0,-3.5A3.5,3.5 0 0,1 3.5,0Z"/><path class="point" transform="translate(104.72,362.61)" style="opacity: 1; stroke-width: 0px; fill: rgb(255, 153, 51); fill-opacity: 1;" d="M3.5,0A3.5,3.5 0 1,1 0,-3.5A3.5,3.5 0 0,1 3.5,0Z"/><path class="point" transform="translate(111.55,377.85)" style="opacity: 1; stroke-width: 0px; fill: rgb(255, 153, 51); fill-opacity: 1;" d="M3.5,0A3.5,3.5 0 1,1 0,-3.5A3.5,3.5 0 0,1 3.5,0Z"/><path class="point" transform="translate(118.39,351.32)" style="opacity: 1; stroke-width: 0px; fill: rgb(255, 153, 51); fill-opacity: 1;" d="M3.5,0A3.5,3.5 0 1,1 0,-3.5A3.5,3.5 0 0,1 3.5,0Z"/><path class="point" transform="translate(125.22,342.61)" style="opacity: 1; stroke-width: 0px; fill: rgb(255, 153, 51); fill-opacity: 1;" d="M3.5,0A3.5,3.5 0 1,1 0,-3.5A3.5,3.5 0 0,1 3.5,0Z"/><path class="point" transform="translate(132.06,365.84)" style="opacity: 1; stroke-width: 0px; fill: rgb(255, 153, 51); fill-opacity: 1;" d="M3.5,0A3.5,3.5 0 1,1 0,-3.5A3.5,3.5 0 0,1 3.5,0Z"/><path class="point" transform="translate(138.89,382.94)" style="opacity: 1; stroke-width: 0px; fill: rgb(255, 153, 51); fill-opacity: 1;" d="M3.5,0A3.5,3.5 0 1,1 0,-3.5A3.5,3.5 0 0,1 3.5,0Z"/><path class="point" transform="translate(145.72,322.29)" style="opacity: 1; stroke-width: 0px; fill: rgb(255, 153, 51); fill-opacity: 1;" d="M3.5,0A3.5,3.5 0 1,1 0,-3.5A3.5,3.5 0 0,1 3.5,0Z"/><path class="point" transform="translate(152.56,357.55)" style="opacity: 1; stroke-width: 0px; fill: rgb(255, 153, 51); fill-opacity: 1;" d="M3.5,0A3.5,3.5 0 1,1 0,-3.5A3.5,3.5 0 0,1 3.5,0Z"/><path class="point" transform="translate(159.39,350.76)" style="opacity: 1; stroke-width: 0px; fill: rgb(255, 153, 51); fill-opacity: 1;" d="M3.5,0A3.5,3.5 0 1,1 0,-3.5A3.5,3.5 0 0,1 3.5,0Z"/><path class="point" transform="translate(166.23,358.72)" style="opacity: 1; stroke-width: 0px; fill: rgb(255, 153, 51); fill-opacity: 1;" d="M3.5,0A3.5,3.5 0 1,1 0,-3.5A3.5,3.5 0 0,1 3.5,0Z"/><path class="point" transform="translate(173.06,345.31)" style="opacity: 1; stroke-width: 0px; fill: rgb(255, 153, 51); fill-opacity: 1;" d="M3.5,0A3.5,3.5 0 1,1 0,-3.5A3.5,3.5 0 0,1 3.5,0Z"/><path class="point" transform="translate(179.9,359.57)" style="opacity: 1; stroke-width: 0px; fill: rgb(255, 153, 51); fill-opacity: 1;" d="M3.5,0A3.5,3.5 0 1,1 0,-3.5A3.5,3.5 0 0,1 3.5,0Z"/><path class="point" transform="translate(186.73,351.34)" style="opacity: 1; stroke-width: 0px; fill: rgb(255, 153, 51); fill-opacity: 1;" d="M3.5,0A3.5,3.5 0 1,1 0,-3.5A3.5,3.5 0 0,1 3.5,0Z"/><path class="point" transform="translate(193.56,347.4)" style="opacity: 1; stroke-width: 0px; fill: rgb(255, 153, 51); fill-opacity: 1;" d="M3.5,0A3.5,3.5 0 1,1 0,-3.5A3.5,3.5 0 0,1 3.5,0Z"/><path class="point" transform="translate(200.4,346.74)" style="opacity: 1; stroke-width: 0px; fill: rgb(255, 153, 51); fill-opacity: 1;" d="M3.5,0A3.5,3.5 0 1,1 0,-3.5A3.5,3.5 0 0,1 3.5,0Z"/><path class="point" transform="translate(207.23,337.67)" style="opacity: 1; stroke-width: 0px; fill: rgb(255, 153, 51); fill-opacity: 1;" d="M3.5,0A3.5,3.5 0 1,1 0,-3.5A3.5,3.5 0 0,1 3.5,0Z"/><path class="point" transform="translate(214.07,324.92)" style="opacity: 1; stroke-width: 0px; fill: rgb(255, 153, 51); fill-opacity: 1;" d="M3.5,0A3.5,3.5 0 1,1 0,-3.5A3.5,3.5 0 0,1 3.5,0Z"/><path class="point" transform="translate(220.9,293.81)" style="opacity: 1; stroke-width: 0px; fill: rgb(255, 153, 51); fill-opacity: 1;" d="M3.5,0A3.5,3.5 0 1,1 0,-3.5A3.5,3.5 0 0,1 3.5,0Z"/><path class="point" transform="translate(227.74,340.14)" style="opacity: 1; stroke-width: 0px; fill: rgb(255, 153, 51); fill-opacity: 1;" d="M3.5,0A3.5,3.5 0 1,1 0,-3.5A3.5,3.5 0 0,1 3.5,0Z"/><path class="point" transform="translate(234.57,292.69)" style="opacity: 1; stroke-width: 0px; fill: rgb(255, 153, 51); fill-opacity: 1;" d="M3.5,0A3.5,3.5 0 1,1 0,-3.5A3.5,3.5 0 0,1 3.5,0Z"/><path class="point" transform="translate(241.41,325.72)" style="opacity: 1; stroke-width: 0px; fill: rgb(255, 153, 51); fill-opacity: 1;" d="M3.5,0A3.5,3.5 0 1,1 0,-3.5A3.5,3.5 0 0,1 3.5,0Z"/><path class="point" transform="translate(248.24,353.11)" style="opacity: 1; stroke-width: 0px; fill: rgb(255, 153, 51); fill-opacity: 1;" d="M3.5,0A3.5,3.5 0 1,1 0,-3.5A3.5,3.5 0 0,1 3.5,0Z"/><path class="point" transform="translate(261.91,326.44)" style="opacity: 1; stroke-width: 0px; fill: rgb(255, 153, 51); fill-opacity: 1;" d="M3.5,0A3.5,3.5 0 1,1 0,-3.5A3.5,3.5 0 0,1 3.5,0Z"/><path class="point" transform="translate(268.74,271.94)" style="opacity: 1; stroke-width: 0px; fill: rgb(255, 153, 51); fill-opacity: 1;" d="M3.5,0A3.5,3.5 0 1,1 0,-3.5A3.5,3.5 0 0,1 3.5,0Z"/><path class="point" transform="translate(275.58,303.1)" style="opacity: 1; stroke-width: 0px; fill: rgb(255, 153, 51); fill-opacity: 1;" d="M3.5,0A3.5,3.5 0 1,1 0,-3.5A3.5,3.5 0 0,1 3.5,0Z"/><path class="point" transform="translate(282.41,301.69)" style="opacity: 1; stroke-width: 0px; fill: rgb(255, 153, 51); fill-opacity: 1;" d="M3.5,0A3.5,3.5 0 1,1 0,-3.5A3.5,3.5 0 0,1 3.5,0Z"/><path class="point" transform="translate(289.25,286.89)" style="opacity: 1; stroke-width: 0px; fill: rgb(255, 153, 51); fill-opacity: 1;" d="M3.5,0A3.5,3.5 0 1,1 0,-3.5A3.5,3.5 0 0,1 3.5,0Z"/><path class="point" transform="translate(296.08,266.1)" style="opacity: 1; stroke-width: 0px; fill: rgb(255, 153, 51); fill-opacity: 1;" d="M3.5,0A3.5,3.5 0 1,1 0,-3.5A3.5,3.5 0 0,1 3.5,0Z"/><path class="point" transform="translate(302.91,292.63)" style="opacity: 1; stroke-width: 0px; fill: rgb(255, 153, 51); fill-opacity: 1;" d="M3.5,0A3.5,3.5 0 1,1 0,-3.5A3.5,3.5 0 0,1 3.5,0Z"/><path class="point" transform="translate(309.75,274.96)" style="opacity: 1; stroke-width: 0px; fill: rgb(255, 153, 51); fill-opacity: 1;" d="M3.5,0A3.5,3.5 0 1,1 0,-3.5A3.5,3.5 0 0,1 3.5,0Z"/><path class="point" transform="translate(316.58,299.61)" style="opacity: 1; stroke-width: 0px; fill: rgb(255, 153, 51); fill-opacity: 1;" d="M3.5,0A3.5,3.5 0 1,1 0,-3.5A3.5,3.5 0 0,1 3.5,0Z"/><path class="point" transform="translate(323.42,300.91)" style="opacity: 1; stroke-width: 0px; fill: rgb(255, 153, 51); fill-opacity: 1;" d="M3.5,0A3.5,3.5 0 1,1 0,-3.5A3.5,3.5 0 0,1 3.5,0Z"/><path class="point" transform="translate(330.25,252.92)" style="opacity: 1; stroke-width: 0px; fill: rgb(255, 153, 51); fill-opacity: 1;" d="M3.5,0A3.5,3.5 0 1,1 0,-3.5A3.5,3.5 0 0,1 3.5,0Z"/><path class="point" transform="translate(337.09,310.09)" style="opacity: 1; stroke-width: 0px; fill: rgb(255, 153, 51); fill-opacity: 1;" d="M3.5,0A3.5,3.5 0 1,1 0,-3.5A3.5,3.5 0 0,1 3.5,0Z"/><path class="point" transform="translate(343.92,302.29)" style="opacity: 1; stroke-width: 0px; fill: rgb(255, 153, 51); fill-opacity: 1;" d="M3.5,0A3.5,3.5 0 1,1 0,-3.5A3.5,3.5 0 0,1 3.5,0Z"/><path class="point" transform="translate(350.75,273.57)" style="opacity: 1; stroke-width: 0px; fill: rgb(255, 153, 51); fill-opacity: 1;" d="M3.5,0A3.5,3.5 0 1,1 0,-3.5A3.5,3.5 0 0,1 3.5,0Z"/><path class="point" transform="translate(357.59,221.22)" style="opacity: 1; stroke-width: 0px; fill: rgb(255, 153, 51); fill-opacity: 1;" d="M3.5,0A3.5,3.5 0 1,1 0,-3.5A3.5,3.5 0 0,1 3.5,0Z"/><path class="point" transform="translate(364.42,257.64)" style="opacity: 1; stroke-width: 0px; fill: rgb(255, 153, 51); fill-opacity: 1;" d="M3.5,0A3.5,3.5 0 1,1 0,-3.5A3.5,3.5 0 0,1 3.5,0Z"/><path class="point" transform="translate(371.26,252.55)" style="opacity: 1; stroke-width: 0px; fill: rgb(255, 153, 51); fill-opacity: 1;" d="M3.5,0A3.5,3.5 0 1,1 0,-3.5A3.5,3.5 0 0,1 3.5,0Z"/><path class="point" transform="translate(378.09,217.29)" style="opacity: 1; stroke-width: 0px; fill: rgb(255, 153, 51); fill-opacity: 1;" d="M3.5,0A3.5,3.5 0 1,1 0,-3.5A3.5,3.5 0 0,1 3.5,0Z"/><path class="point" transform="translate(391.76,223.56)" style="opacity: 1; stroke-width: 0px; fill: rgb(255, 153, 51); fill-opacity: 1;" d="M3.5,0A3.5,3.5 0 1,1 0,-3.5A3.5,3.5 0 0,1 3.5,0Z"/><path class="point" transform="translate(398.59,225.79)" style="opacity: 1; stroke-width: 0px; fill: rgb(255, 153, 51); fill-opacity: 1;" d="M3.5,0A3.5,3.5 0 1,1 0,-3.5A3.5,3.5 0 0,1 3.5,0Z"/><path class="point" transform="translate(405.43,223.6)" style="opacity: 1; stroke-width: 0px; fill: rgb(255, 153, 51); fill-opacity: 1;" d="M3.5,0A3.5,3.5 0 1,1 0,-3.5A3.5,3.5 0 0,1 3.5,0Z"/><path class="point" transform="translate(412.26,269.84)" style="opacity: 1; stroke-width: 0px; fill: rgb(255, 153, 51); fill-opacity: 1;" d="M3.5,0A3.5,3.5 0 1,1 0,-3.5A3.5,3.5 0 0,1 3.5,0Z"/><path class="point" transform="translate(425.93,214.43)" style="opacity: 1; stroke-width: 0px; fill: rgb(255, 153, 51); fill-opacity: 1;" d="M3.5,0A3.5,3.5 0 1,1 0,-3.5A3.5,3.5 0 0,1 3.5,0Z"/><path class="point" transform="translate(432.77,239.32)" style="opacity: 1; stroke-width: 0px; fill: rgb(255, 153, 51); fill-opacity: 1;" d="M3.5,0A3.5,3.5 0 1,1 0,-3.5A3.5,3.5 0 0,1 3.5,0Z"/><path class="point" transform="translate(446.44,281.39)" style="opacity: 1; stroke-width: 0px; fill: rgb(255, 153, 51); fill-opacity: 1;" d="M3.5,0A3.5,3.5 0 1,1 0,-3.5A3.5,3.5 0 0,1 3.5,0Z"/><path class="point" transform="translate(453.27,74.59)" style="opacity: 1; stroke-width: 0px; fill: rgb(255, 153, 51); fill-opacity: 1;" d="M3.5,0A3.5,3.5 0 1,1 0,-3.5A3.5,3.5 0 0,1 3.5,0Z"/><path class="point" transform="translate(466.94,134.57)" style="opacity: 1; stroke-width: 0px; fill: rgb(255, 153, 51); fill-opacity: 1;" d="M3.5,0A3.5,3.5 0 1,1 0,-3.5A3.5,3.5 0 0,1 3.5,0Z"/><path class="point" transform="translate(473.77,193)" style="opacity: 1; stroke-width: 0px; fill: rgb(255, 153, 51); fill-opacity: 1;" d="M3.5,0A3.5,3.5 0 1,1 0,-3.5A3.5,3.5 0 0,1 3.5,0Z"/><path class="point" transform="translate(480.61,97.74)" style="opacity: 1; stroke-width: 0px; fill: rgb(255, 153, 51); fill-opacity: 1;" d="M3.5,0A3.5,3.5 0 1,1 0,-3.5A3.5,3.5 0 0,1 3.5,0Z"/><path class="point" transform="translate(487.44,200.66)" style="opacity: 1; stroke-width: 0px; fill: rgb(255, 153, 51); fill-opacity: 1;" d="M3.5,0A3.5,3.5 0 1,1 0,-3.5A3.5,3.5 0 0,1 3.5,0Z"/><path class="point" transform="translate(494.28,123.82)" style="opacity: 1; stroke-width: 0px; fill: rgb(255, 153, 51); fill-opacity: 1;" d="M3.5,0A3.5,3.5 0 1,1 0,-3.5A3.5,3.5 0 0,1 3.5,0Z"/><path class="point" transform="translate(501.11,233.22)" style="opacity: 1; stroke-width: 0px; fill: rgb(255, 153, 51); fill-opacity: 1;" d="M3.5,0A3.5,3.5 0 1,1 0,-3.5A3.5,3.5 0 0,1 3.5,0Z"/><path class="point" transform="translate(507.94,132.12)" style="opacity: 1; stroke-width: 0px; fill: rgb(255, 153, 51); fill-opacity: 1;" d="M3.5,0A3.5,3.5 0 1,1 0,-3.5A3.5,3.5 0 0,1 3.5,0Z"/><path class="point" transform="translate(514.78,101.89)" style="opacity: 1; stroke-width: 0px; fill: rgb(255, 153, 51); fill-opacity: 1;" d="M3.5,0A3.5,3.5 0 1,1 0,-3.5A3.5,3.5 0 0,1 3.5,0Z"/><path class="point" transform="translate(528.45,29.66)" style="opacity: 1; stroke-width: 0px; fill: rgb(255, 153, 51); fill-opacity: 1;" d="M3.5,0A3.5,3.5 0 1,1 0,-3.5A3.5,3.5 0 0,1 3.5,0Z"/><path class="point" transform="translate(535.28,61.26)" style="opacity: 1; stroke-width: 0px; fill: rgb(255, 153, 51); fill-opacity: 1;" d="M3.5,0A3.5,3.5 0 1,1 0,-3.5A3.5,3.5 0 0,1 3.5,0Z"/><path class="point" transform="translate(548.95,249.39)" style="opacity: 1; stroke-width: 0px; fill: rgb(255, 153, 51); fill-opacity: 1;" d="M3.5,0A3.5,3.5 0 1,1 0,-3.5A3.5,3.5 0 0,1 3.5,0Z"/><path class="point" transform="translate(562.62,25.38)" style="opacity: 1; stroke-width: 0px; fill: rgb(255, 153, 51); fill-opacity: 1;" d="M3.5,0A3.5,3.5 0 1,1 0,-3.5A3.5,3.5 0 0,1 3.5,0Z"/><path class="point" transform="translate(603.63,99.56)" style="opacity: 1; stroke-width: 0px; fill: rgb(255, 153, 51); fill-opacity: 1;" d="M3.5,0A3.5,3.5 0 1,1 0,-3.5A3.5,3.5 0 0,1 3.5,0Z"/></g></g></g></g><g class="overplot"/><path class="xlines-above crisp" style="fill: none;" d="M0,0"/><path class="ylines-above crisp" style="fill: none;" d="M0,0"/><g class="overlines-above"/><g class="xaxislayer-above"><g class="xtick"><text text-anchor="middle" x="0" y="533" style="font-family: TOBESTRIPPEDOpen SansTOBESTRIPPED, verdana, arial, sans-serif; font-size: 12px; fill: rgb(77, 86, 99); fill-opacity: 1; white-space: pre;" transform="translate(116.38,0)">0</text></g><g class="xtick"><text text-anchor="middle" x="0" y="533" style="font-family: TOBESTRIPPEDOpen SansTOBESTRIPPED, verdana, arial, sans-serif; font-size: 12px; fill: rgb(77, 86, 99); fill-opacity: 1; white-space: pre;" transform="translate(253.06,0)">20</text></g><g class="xtick"><text text-anchor="middle" x="0" y="533" style="font-family: TOBESTRIPPEDOpen SansTOBESTRIPPED, verdana, arial, sans-serif; font-size: 12px; fill: rgb(77, 86, 99); fill-opacity: 1; white-space: pre;" transform="translate(389.75,0)">40</text></g><g class="xtick"><text text-anchor="middle" x="0" y="533" style="font-family: TOBESTRIPPEDOpen SansTOBESTRIPPED, verdana, arial, sans-serif; font-size: 12px; fill: rgb(77, 86, 99); fill-opacity: 1; white-space: pre;" transform="translate(526.44,0)">60</text></g><g class="xtick"><text text-anchor="middle" x="0" y="533" style="font-family: TOBESTRIPPEDOpen SansTOBESTRIPPED, verdana, arial, sans-serif; font-size: 12px; fill: rgb(77, 86, 99); fill-opacity: 1; white-space: pre;" transform="translate(663.12,0)">80</text></g></g><g class="yaxislayer-above"><g class="ytick"><text text-anchor="end" x="79" y="4.199999999999999" style="font-family: TOBESTRIPPEDOpen SansTOBESTRIPPED, verdana, arial, sans-serif; font-size: 12px; fill: rgb(77, 86, 99); fill-opacity: 1; white-space: pre;" transform="translate(0,456.62)">10</text></g><g class="ytick"><text text-anchor="end" x="79" y="4.199999999999999" style="font-family: TOBESTRIPPEDOpen SansTOBESTRIPPED, verdana, arial, sans-serif; font-size: 12px; fill: rgb(77, 86, 99); fill-opacity: 1; white-space: pre;" transform="translate(0,382.29)">20</text></g><g class="ytick"><text text-anchor="end" x="79" y="4.199999999999999" style="font-family: TOBESTRIPPEDOpen SansTOBESTRIPPED, verdana, arial, sans-serif; font-size: 12px; fill: rgb(77, 86, 99); fill-opacity: 1; white-space: pre;" transform="translate(0,307.95)">30</text></g><g class="ytick"><text text-anchor="end" x="79" y="4.199999999999999" style="font-family: TOBESTRIPPEDOpen SansTOBESTRIPPED, verdana, arial, sans-serif; font-size: 12px; fill: rgb(77, 86, 99); fill-opacity: 1; white-space: pre;" transform="translate(0,233.61)">40</text></g><g class="ytick"><text text-anchor="end" x="79" y="4.199999999999999" style="font-family: TOBESTRIPPEDOpen SansTOBESTRIPPED, verdana, arial, sans-serif; font-size: 12px; fill: rgb(77, 86, 99); fill-opacity: 1; white-space: pre;" transform="translate(0,159.27)">50</text></g></g><g class="overaxes-above"/></g></g><g class="polarlayer"/><g class="ternarylayer"/><g class="geolayer"/><g class="pielayer"/><g class="glimages"/><defs id="topdefs-1047ef"><g class="clips"/></defs><g class="layer-above"><g class="imagelayer"/><g class="shapelayer"/></g><g class="infolayer"><g class="g-gtitle"><text class="gtitle" style="font-family: TOBESTRIPPEDOpen SansTOBESTRIPPED, verdana, arial, sans-serif; font-size: 17px; fill: rgb(77, 86, 99); opacity: 1; font-weight: normal; white-space: pre;" x="400" y="50" text-anchor="middle">Relationship between number of trackers and average page latency</text></g><g class="g-xtitle"><text class="xtitle" style="font-family: TOBESTRIPPEDOpen SansTOBESTRIPPED, verdana, arial, sans-serif; font-size: 14px; fill: rgb(77, 86, 99); opacity: 1; font-weight: normal; white-space: pre;" x="400" y="572" text-anchor="middle">Number of Trackers</text></g><g class="g-ytitle"><text class="ytitle" transform="rotate(-90,42,310)" style="font-family: TOBESTRIPPEDOpen SansTOBESTRIPPED, verdana, arial, sans-serif; font-size: 14px; fill: rgb(77, 86, 99); opacity: 1; font-weight: normal; white-space: pre;" x="42" y="310" text-anchor="middle">Average page load (sec)</text></g></g></svg>