<svg class="main-svg" xmlns="http://www.w3.org/2000/svg" xmlns:xlink="http://www.w3.org/1999/xlink" width="800" height="600" style="" viewBox="0 0 800 600"><rect x="0" y="0" width="800" height="600" style="fill: rgb(245, 246, 249); fill-opacity: 1;"/><defs id="defs-7502c4"><g class="clips"><clipPath id="clip7502c4xyplot" class="plotclip"><rect width="553" height="420"/></clipPath><clipPath class="axesclip" id="clip7502c4x"><rect x="80" y="0" width="553" height="600"/></clipPath><clipPath class="axesclip" id="clip7502c4y"><rect x="0" y="100" width="800" height="420"/></clipPath><clipPath class="axesclip" id="clip7502c4xy"><rect x="80" y="100" width="553" height="420"/></clipPath></g><g class="gradients"/></defs><g class="bglayer"><rect class="bg" x="80" y="100" width="553" height="420" style="fill: rgb(245, 246, 249); fill-opacity: 1; stroke-width: 0;"/></g><g class="layer-below"><g class="imagelayer"/><g class="shapelayer"/></g><g class="cartesianlayer"><g class="subplot xy"><g class="layer-subplot"><g class="shapelayer"/><g class="imagelayer"/></g><g class="gridlayer"><g class="x"><path class="xgrid crisp" d="M0,100v420" transform="translate(149.4,0)" style="stroke: rgb(229, 230, 233); stroke-opacity: 1; stroke-width: 1px;"/><path class="xgrid crisp" d="M0,100v420" transform="translate(220,0)" style="stroke: rgb(229, 230, 233); stroke-opacity: 1; stroke-width: 1px;"/><path class="xgrid crisp" d="M0,100v420" transform="translate(290.6,0)" style="stroke: rgb(229, 230, 233); stroke-opacity: 1; stroke-width: 1px;"/><path class="xgrid crisp" d="M0,100v420" transform="translate(361.19,0)" style="stroke: rgb(229, 230, 233); stroke-opacity: 1; stroke-width: 1px;"/><path class="xgrid crisp" d="M0,100v420" transform="translate(431.79,0)" style="stroke: rgb(229, 230, 233); stroke-opacity: 1; stroke-width: 1px;"/><path class="xgrid crisp" d="M0,100v420" transform="translate(502.39,0)" style="stroke: rgb(229, 230, 233); stroke-opacity: 1; stroke-width: 1px;"/><path class="xgrid crisp" d="M0,100v420" transform="translate(572.99,0)" style="stroke: rgb(229, 230, 233); stroke-opacity: 1; stroke-width: 1px;"/></g><g class="y"><path class="ygrid crisp" d="M80,0h553" transform="translate(0,423.64)" style="stroke: rgb(229, 230, 233); stroke-opacity: 1; stroke-width: 1px;"/><path class="ygrid crisp" d="M80,0h553" transform="translate(0,347.98)" style="stroke: rgb(229, 230, 233); stroke-opacity: 1; stroke-width: 1px;"/><path class="ygrid crisp" d="M80,0h553" transform="translate(0,272.32)" style="stroke: rgb(229, 230, 233); stroke-opacity: 1; stroke-width: 1px;"/><path class="ygrid crisp" d="M80,0h553" transform="translate(0,196.66)" style="stroke: rgb(229, 230, 233); stroke-opacity: 1; stroke-width: 1px;"/><path class="ygrid crisp" d="M80,0h553" transform="translate(0,121)" style="stroke: rgb(229, 230, 233); stroke-opacity: 1; stroke-width: 1px;"/></g></g><g class="zerolinelayer"><path class="yzl zl crisp" d="M80,0h553" transform="translate(0,499.31)" style="stroke: rgb(68, 68, 68); stroke-opacity: 1; stroke-width: 1px;"/></g><path class="xlines-below"/><path class="ylines-below"/><g class="overlines-below"/><g class="xaxislayer-below"/><g class="yaxislayer-below"/><g class="overaxes-below"/><g class="plot" transform="translate(80, 100)" clip-path="url(#clip7502c4xyplot)"><g class="scatterlayer mlayer"><g class="trace scatter trace473166" style="stroke-miterlimit: 2; opacity: 1;"><path class="js-line" style="vector-effect: non-scaling-stroke; fill: none; stroke: rgb(31, 119, 180); stroke-opacity: 1; stroke-width: 2px; opacity: 1;" d="M0.04,398.98L1.84,394.02L1.91,393.69L3.21,390.39L3.25,390.06L4.98,384.12L4.98,383.79L6.14,379.17L6.18,378.84L9.35,364.97L9.64,364.64L10.63,360.35L10.84,360.02L11.83,356.72L11.93,356.39L13.38,349.79L13.41,349.46L14.76,343.85L14.97,343.52L19.59,318.76L19.59,318.43L20.69,312.82L20.72,312.49L21.36,309.52L21.5,309.19L34.1,246.79L34.1,246.46L34.81,244.81L34.81,244.48L35.51,240.85L35.86,240.52L36.57,234.58L36.92,234.25L37.63,230.62L37.98,230.29L38.69,227.65L39.04,227.32L39.39,223.36L40.1,223.03L40.81,217.42L41.16,217.09L41.87,212.46L42.22,212.13L42.92,209.49L43.28,209.16L43.98,205.2L44.34,204.87L45.04,202.56L45.39,202.23L46.1,197.61L46.45,197.28L46.81,193.65L47.51,193.32L47.87,191.34L48.57,191.01L49.28,189.36L49.28,189.03L49.63,187.71L49.63,187.38L50.34,185.72L50.34,185.39L51.04,184.07L51.4,183.74L52.1,181.1L52.45,180.77L53.16,177.14L53.51,176.81L54.22,174.83L54.57,174.5L55.28,169.22L55.63,168.89L56.34,165.26L56.69,164.93L57.4,163.28L57.75,162.95L58.46,159.98L58.81,159.65L59.51,156.68L59.87,156.34L60.57,154.03L60.93,153.7L62.69,151.06L62.69,150.73L63.4,148.75L63.75,148.42L64.46,146.77L64.81,146.44L65.87,145.45L65.87,145.12L66.57,143.8L66.93,143.47L67.28,141.82L67.99,141.49L70.1,138.52L70.1,138.19L70.81,137.2L71.16,136.87L71.87,134.89L72.22,134.56L74.34,131.92L74.34,131.59L75.05,129.28L75.75,128.95L76.46,127.3L77.16,126.97L77.52,125.31L78.22,124.98L78.93,123.33L78.93,123L79.28,121.68L79.28,121.35L79.99,120.03L80.34,119.7L81.05,118.05L81.4,117.72L82.11,116.73L82.46,116.4L82.81,115.08L82.81,114.75L84.22,112.77L84.22,112.44L85.64,110.13L85.64,109.8L87.05,108.48L87.05,108.15L90.93,104.52L92.34,104.19L93.05,102.21L93.4,101.88L95.52,99.24L95.52,98.91L96.23,96.93L96.93,96.6L99.05,93.62L99.05,93.29L100.11,91.31L100.11,90.98L101.87,89.66L101.87,89.33L104.7,87.35L105.05,87.02L106.82,84.38L106.82,84.05L108.58,82.4L108.58,82.07L111.76,79.43L113.17,79.1L113.17,78.77L115.64,78.44L118.11,77.12L119.17,76.79L119.52,76.13L121.99,75.8L129.41,72.5L129.76,72.17L130.47,70.85L130.82,70.52L131.17,68.87L131.88,68.54L134.7,66.56L135.06,66.23L135.41,65.23L136.47,64.9L136.47,64.57L138.23,64.24L140,62.92L140.35,62.59L140.35,62.26L141.76,61.93L145.65,59.95L145.65,59.62L146.35,58.96L146.7,58.63L158.71,52.69L159.06,52.36L159.06,52.03L160.12,51.7L161.53,51.04L163.29,50.71L168.24,48.4L168.59,48.07L171.41,46.09L172.83,45.76L173.88,45.1L177.77,44.77L194.36,42.46L195.06,42.13L195.06,41.8L198.95,41.47L199.65,41.14L203.18,40.81L203.18,40.48L204.24,40.15L204.6,39.49L207.07,39.16L211.66,38.17L214.48,37.84L221.89,36.19L225.77,35.85L233.19,35.19L248.01,34.86L252.25,33.87L258.25,33.54L258.6,33.21L269.19,32.88L286.84,31.56L293.9,31.23L309.79,29.58L316.49,29.25L328.14,28.26L328.5,27.93L351.09,26.28L365.91,25.95L394.15,24.96L394.15,24.63L411.8,23.64L418.86,23.31L422.39,22.98L436.51,22.65L553,21"/><g class="points"/></g><g class="trace scatter trace458295" style="stroke-miterlimit: 2; opacity: 1;"><path class="js-line" style="vector-effect: non-scaling-stroke; fill: none; stroke: rgb(255, 127, 14); stroke-opacity: 1; stroke-width: 2px; opacity: 1;" d="M0,399L0.85,397.17L0.85,396.86L1.84,393.19L1.87,392.89L6.85,373.33L7.13,373.03L7.98,368.44L8.01,368.14L8.75,362.64L8.86,362.33L9.6,357.44L9.74,357.14L10.48,351.02L10.52,350.72L11.26,345.22L11.3,344.91L12,339.11L12.07,338.8L18.57,284.41L18.57,284.1L19.1,278.6L19.13,278.3L19.84,271.88L19.91,271.57L20.65,263.93L20.69,263.63L21.36,255.07L21.46,254.77L22.2,247.13L22.24,246.82L28.98,181.73L29.16,181.43L31.84,159.12L32.02,158.82L32.72,153.62L32.83,153.32L34.81,137.73L35.16,137.43L35.86,130.7L36.22,130.4L36.92,126.12L37.28,125.81L37.98,120.31L38.34,120.01L39.04,113.9L39.39,113.59L40.1,109.01L40.45,108.7L41.16,103.81L41.51,103.51L42.22,99.53L42.57,99.23L43.28,95.87L43.63,95.56L44.34,90.98L44.69,90.67L45.39,86.09L45.75,85.78L46.45,81.81L46.81,81.5L47.51,77.23L47.87,76.92L48.57,72.95L48.92,72.64L49.63,68.98L49.98,68.67L50.69,65.61L51.04,65.31L51.75,63.17L52.1,62.86L52.81,60.11L53.16,59.81L53.87,57.36L54.22,57.06L54.93,55.22L55.28,54.92L55.63,53.7L55.63,53.39L56.69,52.17L56.69,51.86L57.4,48.2L57.75,47.89L58.46,44.53L58.81,44.22L60.22,43L60.22,42.7L68.34,34.75L68.34,34.45L70.1,33.22L70.46,32.92L70.46,32.31L71.52,32L72.22,30.78L72.93,30.47L76.81,28.95L78.93,28.64L84.22,26.5L84.22,26.19L84.22,25.89L87.4,25.58L88.11,24.97L90.58,24.67L97.64,23.14L105.05,22.83L114.58,21.92L122.35,21.61L132.23,21"/><g class="points"/></g></g></g><g class="overplot"/><path class="xlines-above crisp" style="fill: none;" d="M0,0"/><path class="ylines-above crisp" style="fill: none;" d="M0,0"/><g class="overlines-above"/><g class="xaxislayer-above"><g class="xtick"><text text-anchor="middle" x="0" y="533" style="font-family: TOBESTRIPPEDOpen SansTOBESTRIPPED, verdana, arial, sans-serif; font-size: 12px; fill: rgb(68, 68, 68); fill-opacity: 1; white-space: pre;" transform="translate(149.4,0)">20</text></g><g class="xtick"><text text-anchor="middle" x="0" y="533" style="font-family: TOBESTRIPPEDOpen SansTOBESTRIPPED, verdana, arial, sans-serif; font-size: 12px; fill: rgb(68, 68, 68); fill-opacity: 1; white-space: pre;" transform="translate(220,0)">40</text></g><g class="xtick"><text text-anchor="middle" x="0" y="533" style="font-family: TOBESTRIPPEDOpen SansTOBESTRIPPED, verdana, arial, sans-serif; font-size: 12px; fill: rgb(68, 68, 68); fill-opacity: 1; white-space: pre;" transform="translate(290.6,0)">60</text></g><g class="xtick"><text text-anchor="middle" x="0" y="533" style="font-family: TOBESTRIPPEDOpen SansTOBESTRIPPED, verdana, arial, sans-serif; font-size: 12px; fill: rgb(68, 68, 68); fill-opacity: 1; white-space: pre;" transform="translate(361.19,0)">80</text></g><g class="xtick"><text text-anchor="middle" x="0" y="533" style="font-family: TOBESTRIPPEDOpen SansTOBESTRIPPED, verdana, arial, sans-serif; font-size: 12px; fill: rgb(68, 68, 68); fill-opacity: 1; white-space: pre;" transform="translate(431.79,0)">100</text></g><g class="xtick"><text text-anchor="middle" x="0" y="533" style="font-family: TOBESTRIPPEDOpen SansTOBESTRIPPED, verdana, arial, sans-serif; font-size: 12px; fill: rgb(68, 68, 68); fill-opacity: 1; white-space: pre;" transform="translate(502.39,0)">120</text></g><g class="xtick"><text text-anchor="middle" x="0" y="533" style="font-family: TOBESTRIPPEDOpen SansTOBESTRIPPED, verdana, arial, sans-serif; font-size: 12px; fill: rgb(68, 68, 68); fill-opacity: 1; white-space: pre;" transform="translate(572.99,0)">140</text></g></g><g class="yaxislayer-above"><g class="ytick"><text text-anchor="end" x="79" y="4.199999999999999" style="font-family: TOBESTRIPPEDOpen SansTOBESTRIPPED, verdana, arial, sans-serif; font-size: 12px; fill: rgb(68, 68, 68); fill-opacity: 1; white-space: pre;" transform="translate(0,499.31)">0.0%</text></g><g class="ytick"><text text-anchor="end" x="79" y="4.199999999999999" style="font-family: TOBESTRIPPEDOpen SansTOBESTRIPPED, verdana, arial, sans-serif; font-size: 12px; fill: rgb(68, 68, 68); fill-opacity: 1; white-space: pre;" transform="translate(0,423.64)">20.0%</text></g><g class="ytick"><text text-anchor="end" x="79" y="4.199999999999999" style="font-family: TOBESTRIPPEDOpen SansTOBESTRIPPED, verdana, arial, sans-serif; font-size: 12px; fill: rgb(68, 68, 68); fill-opacity: 1; white-space: pre;" transform="translate(0,347.98)">40.0%</text></g><g class="ytick"><text text-anchor="end" x="79" y="4.199999999999999" style="font-family: TOBESTRIPPEDOpen SansTOBESTRIPPED, verdana, arial, sans-serif; font-size: 12px; fill: rgb(68, 68, 68); fill-opacity: 1; white-space: pre;" transform="translate(0,272.32)">60.0%</text></g><g class="ytick"><text text-anchor="end" x="79" y="4.199999999999999" style="font-family: TOBESTRIPPEDOpen SansTOBESTRIPPED, verdana, arial, sans-serif; font-size: 12px; fill: rgb(68, 68, 68); fill-opacity: 1; white-space: pre;" transform="translate(0,196.66)">80.0%</text></g><g class="ytick"><text text-anchor="end" x="79" y="4.199999999999999" style="font-family: TOBESTRIPPEDOpen SansTOBESTRIPPED, verdana, arial, sans-serif; font-size: 12px; fill: rgb(68, 68, 68); fill-opacity: 1; white-space: pre;" transform="translate(0,121)">100.0%</text></g></g><g class="overaxes-above"/></g></g><g class="polarlayer"/><g class="ternarylayer"/><g class="geolayer"/><g class="pielayer"/><g class="glimages"/><defs id="topdefs-7502c4"><g class="clips"/><clipPath id="legend7502c4"><rect width="155" height="48" x="0" y="0"/></clipPath></defs><g class="layer-above"><g class="imagelayer"/><g class="shapelayer"><path data-index="0" fill-rule="evenodd" d="M146.93,499.31L146.93,242.81" style="opacity: 1; stroke: rgb(31, 119, 180); stroke-opacity: 1; fill: rgb(0, 0, 0); fill-opacity: 0; stroke-dasharray: 9px, 9px; stroke-width: 1px;" clip-path="url(#clip7502c4xy)"/><path data-index="1" fill-rule="evenodd" d="M109.16,499.31L109.16,283.66999999999996" style="opacity: 1; stroke: rgb(255, 127, 14); stroke-opacity: 1; fill: rgb(0, 0, 0); fill-opacity: 0; stroke-dasharray: 9px, 9px; stroke-width: 1px;" clip-path="url(#clip7502c4xy)"/></g></g><g class="infolayer"><g class="legend" pointer-events="all" transform="translate(633, 286)"><rect class="bg" shape-rendering="crispEdges" style="stroke: rgb(68, 68, 68); stroke-opacity: 1; fill: rgb(245, 246, 249); fill-opacity: 1; stroke-width: 0px;" width="155" height="48" x="0" y="0"/><g class="scrollbox" transform="translate(0, 0)" clip-path="url(#legend7502c4)"><g class="groups"><g class="traces" style="opacity: 1;" transform="translate(0, 14.5)"><g class="layers" style="opacity: 1;"><g class="legendfill"/><g class="legendlines"><path class="js-line" d="M5,0h30" style="fill: none; stroke: rgb(31, 119, 180); stroke-opacity: 1; stroke-width: 2px;"/></g><g class="legendsymbols"><g class="legendpoints"/></g></g><text class="legendtext user-select-none" text-anchor="start" style="font-family: TOBESTRIPPEDOpen SansTOBESTRIPPED, verdana, arial, sans-serif; font-size: 12px; fill: rgb(68, 68, 68); fill-opacity: 1; white-space: pre;" x="40" y="4.680000000000001">No trackers blocked</text><rect class="legendtoggle" style="cursor: pointer; fill: rgb(0, 0, 0); fill-opacity: 0;" pointer-events="all" x="0" y="-9.5" width="195" height="19"/></g><g class="traces" style="opacity: 1;" transform="translate(0, 33.5)"><g class="layers" style="opacity: 1;"><g class="legendfill"/><g class="legendlines"><path class="js-line" d="M5,0h30" style="fill: none; stroke: rgb(255, 127, 14); stroke-opacity: 1; stroke-width: 2px;"/></g><g class="legendsymbols"><g class="legendpoints"/></g></g><text class="legendtext user-select-none" text-anchor="start" style="font-family: TOBESTRIPPEDOpen SansTOBESTRIPPED, verdana, arial, sans-serif; font-size: 12px; fill: rgb(68, 68, 68); fill-opacity: 1; white-space: pre;" x="40" y="4.680000000000001">All trackers blocked</text><rect class="legendtoggle" style="cursor: pointer; fill: rgb(0, 0, 0); fill-opacity: 0;" pointer-events="all" x="0" y="-9.5" width="195" height="19"/></g></g></g><rect class="scrollbar" rx="20" ry="3" width="0" height="0" style="fill: rgb(128, 139, 164); fill-opacity: 1;" x="0" y="0"/></g><g class="g-gtitle"><text class="gtitle" style="font-family: TOBESTRIPPEDOpen SansTOBESTRIPPED, verdana, arial, sans-serif; font-size: 17px; fill: rgb(68, 68, 68); opacity: 1; font-weight: normal; white-space: pre;" x="400" y="50" text-anchor="middle">Distribution of page latency with all and no trackers blocked</text></g><g class="g-xtitle"><text class="xtitle" style="font-family: TOBESTRIPPEDOpen SansTOBESTRIPPED, verdana, arial, sans-serif; font-size: 14px; fill: rgb(68, 68, 68); opacity: 1; font-weight: normal; white-space: pre;" x="356.5" y="572" text-anchor="middle">Page load (sec)</text></g><g class="g-ytitle" transform="translate(-5,0)"><text class="ytitle" transform="rotate(-90,42,310)" style="font-family: TOBESTRIPPEDOpen SansTOBESTRIPPED, verdana, arial, sans-serif; font-size: 14px; fill: rgb(68, 68, 68); opacity: 1; font-weight: normal; white-space: pre;" x="42" y="310" text-anchor="middle">Percentage of page loads</text></g><g class="annotation" data-index="0" style="opacity: 1;"><g class="annotation-text-g" transform="rotate(0,146.93,461.48)"><g class="cursor-default" transform="translate(128, 447)"><rect class="bg" style="stroke-width: 2px; stroke: rgb(31, 119, 180); stroke-opacity: 1; fill: rgb(255, 255, 255); fill-opacity: 1;" x="1" y="1" width="36" height="26"/><text class="annotation-text" style="font-family: TOBESTRIPPEDOpen SansTOBESTRIPPED, verdana, arial, sans-serif; font-size: 12px; fill: rgb(31, 119, 180); fill-opacity: 1; white-space: pre;" text-anchor="middle" x="19" y="18">19.3</text></g></g></g><g class="annotation" data-index="1" style="opacity: 1;"><g class="annotation-text-g" transform="rotate(0,109.16,461.48)"><g class="cursor-default" transform="translate(94, 447)"><rect class="bg" style="stroke-width: 2px; stroke: rgb(255, 127, 14); stroke-opacity: 1; fill: rgb(255, 255, 255); fill-opacity: 1;" x="1" y="1" width="29" height="26"/><text class="annotation-text" style="font-family: TOBESTRIPPEDOpen SansTOBESTRIPPED, verdana, arial, sans-serif; font-size: 12px; fill: rgb(255, 127, 14); fill-opacity: 1; white-space: pre;" text-anchor="middle" x="15.5" y="18">8.6</text></g></g></g></g></svg>